<?xml version="1.0" encoding="UTF-8"?>
<svg id="c" data-name="Layer 3" xmlns="http://www.w3.org/2000/svg" viewBox="0 0 259 64">
  <defs>
    <style>
      .g {
        fill: #044123;
      }

      .h {
        fill: #009b65;
      }

      .i {
        fill: #231f20;
      }
    </style>
  </defs>
  <path class="i" d="M82.38,32.6V7.43h2.91v30.54h-2.42L63.86,11.65v26.32h-2.91V7.43h3.39l18.04,25.16Z"/>
  <path class="i" d="M91.25,7.43h3.15v3.93h-3.15v-3.93Zm3.05,9.5v21.04h-2.96V16.94h2.96Z"/>
  <path class="i" d="M123.88,16.36c5.43,0,7.42,3.73,7.42,8.58v13.04h-2.96v-13.14c0-3.73-1.7-6.16-5.19-6.16-3.15,0-5.96,2.62-5.96,6.69v12.6h-2.96v-13.14c0-3.73-1.7-6.16-5.19-6.16-3.15,0-5.96,2.62-5.96,6.69v12.6h-2.96V16.94h2.96v3.88c1.02-2.57,3.54-4.46,6.79-4.46,3.73,0,6.06,1.84,6.98,4.65,1.11-2.67,3.73-4.65,7.03-4.65Z"/>
  <path class="i" d="M139.11,37.98h-2.23V7.43h2.96v14.16c.92-2.67,3.68-5.24,7.76-5.24,6.25,0,9.75,4.9,9.75,11.1s-3.49,11.1-9.75,11.1c-4.07,0-6.84-2.52-7.76-5.19l-.73,4.61Zm.63-9.79c0,5.04,3.3,7.95,7.47,7.95,4.46,0,7.03-3.34,7.03-8.68s-2.57-8.68-7.03-8.68c-4.17,0-7.47,2.91-7.47,7.95v1.46Z"/>
  <path class="i" d="M164.71,7.43v30.54h-2.96V7.43h2.96Z"/>
  <path class="i" d="M189.43,30.8c-1.02,4.8-4.51,7.76-9.65,7.76-6.11,0-10.67-4.32-10.67-10.81s4.51-11.39,10.47-11.39c6.59,0,9.89,4.75,9.89,10.47v1.36h-17.31c.19,4.65,3.44,7.95,7.61,7.95,3.88,0,6.25-1.94,7.13-5.67l2.52,.34Zm-3.1-4.7c-.1-3.88-2.28-7.42-6.74-7.42-4.17,0-6.88,3.49-7.37,7.42h14.11Z"/>
  <g id="d" data-name="Group 124">
    <path id="e" data-name="Path 106" class="g" d="M42.04,4L5.07,60l25.99-15.01c14.35-8.29,19.27-26.64,10.98-40.99h0Z"/>
    <path id="f" data-name="Path 107" class="h" d="M5.07,60L42.04,4l-25.99,15.01C1.7,27.29-3.22,45.65,5.07,60h0Z"/>
  </g>
  <path class="i" d="M62.08,52.21c.1,2.42,1.73,3.76,3.96,3.76,2.02,0,3.28-.89,3.28-2.41,0-1.24-.74-1.9-2.5-2.25l-2.48-.48c-1.75-.35-2.95-1.28-2.95-3.12,0-2.02,1.61-3.47,4.19-3.47,2.97,0,4.73,1.63,4.73,4.38l-1.13,.1c-.04-2.23-1.36-3.53-3.59-3.53-1.94,0-3.03,.95-3.03,2.48,0,1.38,.87,1.82,2.48,2.13l2.17,.43c2.15,.43,3.26,1.3,3.26,3.24,0,2.15-1.86,3.45-4.44,3.45-2.91,0-5.06-1.65-5.06-4.62l1.11-.1Z"/>
  <path class="i" d="M76.78,56.92c-2.39,0-4.21-1.82-4.21-4.44s1.82-4.44,4.21-4.44,4.23,1.82,4.23,4.44-1.82,4.44-4.23,4.44Zm0-.93c1.9,0,2.99-1.45,2.99-3.51s-1.09-3.51-2.99-3.51-2.97,1.45-2.97,3.51,1.09,3.51,2.97,3.51Z"/>
  <path class="i" d="M82.49,49.14v-.87h1.3v-1.18c0-1.67,.93-2.85,2.64-2.85,1.42,0,2.13,.62,2.52,1.86l-.87,.33c-.21-.76-.78-1.32-1.65-1.32-.99,0-1.46,.68-1.46,1.82v1.34h2.43v.87h-2.43v7.55h-1.18v-7.55h-1.3Z"/>
  <path class="i" d="M89.92,49.14h-1.3v-.58l.5-.1c.78-.16,.93-.52,1.11-1.34l.25-1.2h.6v2.35h2.44v.87h-2.44v5.7c0,.76,.31,1.13,1.09,1.13,.58,0,1.16-.29,1.65-.58v.83c-.6,.47-1.2,.7-2.06,.7-1.13,0-1.84-.56-1.84-2.1v-5.68Z"/>
  <path class="i" d="M103.3,55.1h.08l2.08-6.83h1.12l-2.68,8.42h-1.13l-1.96-6.71h-.08l-1.94,6.71h-1.13l-2.7-8.42h1.18l2.11,6.83h.08l1.94-6.83h1.03l1.98,6.83Z"/>
  <path class="i" d="M115,55.27c0,.45,.27,.66,.7,.66,.19,0,.52-.08,.76-.21v.64c-.25,.29-.52,.5-1.11,.5-.83,0-1.44-.72-1.47-1.78-.45,.99-1.69,1.84-3.12,1.84-1.57,0-2.62-.87-2.62-2.33,0-1.59,1.4-2.23,3.49-2.66l2.25-.47v-.43c0-1.28-.76-2.08-2.08-2.08s-2.11,.8-2.41,1.88l-1.01-.19c.33-1.51,1.57-2.62,3.4-2.62,2.1,0,3.22,1.11,3.22,3.18v4.05Zm-1.12-2.93l-2.06,.45c-1.53,.33-2.48,.64-2.48,1.77,0,.79,.52,1.45,1.63,1.45,1.65,0,2.91-1.26,2.91-3.14v-.52Z"/>
  <path class="i" d="M123.14,49.45c-.49-.25-.78-.33-1.28-.33-1.22,0-2.21,1.26-2.21,2.95v4.62h-1.18v-8.42h1.18v1.77c.33-.97,1.18-2,2.43-2,.52,0,.89,.12,1.2,.39l-.14,1.03Z"/>
  <path class="i" d="M132.49,53.82c-.41,1.92-1.8,3.1-3.86,3.1-2.44,0-4.27-1.73-4.27-4.33s1.8-4.56,4.19-4.56c2.64,0,3.96,1.9,3.96,4.19v.54h-6.92c.08,1.86,1.38,3.18,3.05,3.18,1.55,0,2.5-.78,2.85-2.27l1.01,.14Zm-1.24-1.88c-.04-1.55-.91-2.97-2.7-2.97-1.67,0-2.75,1.4-2.95,2.97h5.64Z"/>
  <path class="i" d="M139.22,44.47h4.31c3.78,0,6.17,2.29,6.17,6.11s-2.39,6.11-6.17,6.11h-4.31v-12.22Zm4.25,11.19c3.22,0,4.95-1.9,4.95-5.08s-1.73-5.08-4.95-5.08h-3.03v10.16h3.03Z"/>
  <path class="i" d="M159.88,53.82c-.41,1.92-1.8,3.1-3.86,3.1-2.44,0-4.27-1.73-4.27-4.33s1.8-4.56,4.19-4.56c2.64,0,3.96,1.9,3.96,4.19v.54h-6.92c.08,1.86,1.38,3.18,3.05,3.18,1.55,0,2.5-.78,2.85-2.27l1.01,.14Zm-1.24-1.88c-.04-1.55-.91-2.97-2.7-2.97-1.67,0-2.75,1.4-2.95,2.97h5.64Z"/>
  <path class="i" d="M162.79,53.72c.17,1.45,1.16,2.27,2.77,2.27,1.3,0,2.21-.48,2.21-1.47,0-.93-.66-1.22-1.84-1.44l-1.45-.25c-1.47-.25-2.39-.93-2.39-2.29,0-1.51,1.26-2.5,3.1-2.5,2.17,0,3.43,1.03,3.57,3.03l-.91,.08c-.21-1.51-1.11-2.17-2.66-2.17-1.2,0-2,.54-2,1.44,0,.81,.49,1.22,1.53,1.4l1.55,.25c1.65,.27,2.62,.85,2.62,2.35,0,1.65-1.47,2.52-3.32,2.52-2.04,0-3.61-1.01-3.74-3.08l.95-.12Z"/>
  <path class="i" d="M171.32,44.47h1.26v1.57h-1.26v-1.57Zm1.22,3.8v8.42h-1.18v-8.42h1.18Z"/>
  <path class="i" d="M178.81,53.74c-.7,0-1.32-.12-1.84-.37-.35,.17-.7,.52-.7,.97,0,.52,.29,.8,1.11,.8h3.26c1.8,0,2.75,.93,2.75,2.23,0,2.08-2.27,2.85-4.73,2.85-2.23,0-4.07-.78-4.07-2.33,0-1.03,.72-1.67,1.78-1.9-.78-.23-1.09-.76-1.09-1.38,0-.72,.5-1.2,1.18-1.55-.66-.48-1.05-1.24-1.05-2.17,0-1.77,1.42-2.85,3.39-2.85,1.09,0,2.02,.33,2.62,.93,.45-.68,1.18-1.14,2.08-1.14v1.14c-.64,0-1.32,.17-1.73,.41,.29,.43,.45,.93,.45,1.51,0,1.77-1.44,2.85-3.41,2.85Zm-.15,5.63c2.09,0,3.59-.5,3.59-1.96,0-.89-.76-1.22-1.88-1.22h-2.66c-1.03,0-1.92,.33-1.92,1.42,0,1.24,1.18,1.77,2.87,1.77Zm.15-10.51c-1.36,0-2.17,.76-2.17,2.06s.81,2.04,2.17,2.04,2.21-.76,2.21-2.04-.81-2.06-2.21-2.06Z"/>
  <path class="i" d="M186.53,56.69h-1.18v-8.42h1.18v1.55c.41-1.03,1.57-1.78,2.83-1.78,2.17,0,3.08,1.42,3.08,3.43v5.22h-1.18v-5.26c0-1.49-.78-2.46-2.21-2.46-1.34,0-2.52,1.05-2.52,2.68v5.04Z"/>
  <path class="i" d="M199.89,52.21c.1,2.42,1.73,3.76,3.96,3.76,2.02,0,3.28-.89,3.28-2.41,0-1.24-.74-1.9-2.5-2.25l-2.48-.48c-1.75-.35-2.95-1.28-2.95-3.12,0-2.02,1.61-3.47,4.19-3.47,2.97,0,4.73,1.63,4.73,4.38l-1.13,.1c-.04-2.23-1.36-3.53-3.59-3.53-1.94,0-3.03,.95-3.03,2.48,0,1.38,.87,1.82,2.48,2.13l2.17,.43c2.15,.43,3.26,1.3,3.26,3.24,0,2.15-1.86,3.45-4.44,3.45-2.91,0-5.06-1.65-5.06-4.62l1.11-.1Z"/>
  <path class="i" d="M212.04,59.98l1.42-3.36-3.57-8.36h1.24l2.89,6.93h.08l2.79-6.93h1.16l-4.85,11.72h-1.16Z"/>
  <path class="i" d="M220.34,53.72c.17,1.45,1.16,2.27,2.77,2.27,1.3,0,2.21-.48,2.21-1.47,0-.93-.66-1.22-1.84-1.44l-1.45-.25c-1.47-.25-2.39-.93-2.39-2.29,0-1.51,1.26-2.5,3.1-2.5,2.17,0,3.43,1.03,3.57,3.03l-.91,.08c-.21-1.51-1.11-2.17-2.66-2.17-1.2,0-2,.54-2,1.44,0,.81,.49,1.22,1.53,1.4l1.55,.25c1.65,.27,2.62,.85,2.62,2.35,0,1.65-1.47,2.52-3.32,2.52-2.04,0-3.61-1.01-3.74-3.08l.95-.12Z"/>
  <path class="i" d="M229.2,49.14h-1.3v-.58l.5-.1c.78-.16,.93-.52,1.11-1.34l.25-1.2h.6v2.35h2.44v.87h-2.44v5.7c0,.76,.31,1.13,1.09,1.13,.58,0,1.16-.29,1.65-.58v.83c-.6,.47-1.2,.7-2.06,.7-1.13,0-1.84-.56-1.84-2.1v-5.68Z"/>
  <path class="i" d="M242.7,53.82c-.41,1.92-1.8,3.1-3.86,3.1-2.44,0-4.27-1.73-4.27-4.33s1.8-4.56,4.19-4.56c2.64,0,3.96,1.9,3.96,4.19v.54h-6.92c.08,1.86,1.38,3.18,3.05,3.18,1.55,0,2.5-.78,2.85-2.27l1.01,.14Zm-1.24-1.88c-.04-1.55-.91-2.97-2.7-2.97-1.67,0-2.75,1.4-2.95,2.97h5.64Z"/>
  <path class="i" d="M254.67,48.03c2.17,0,2.97,1.49,2.97,3.43v5.22h-1.18v-5.26c0-1.49-.68-2.46-2.08-2.46-1.26,0-2.39,1.05-2.39,2.68v5.04h-1.18v-5.26c0-1.49-.68-2.46-2.08-2.46-1.26,0-2.39,1.05-2.39,2.68v5.04h-1.18v-8.42h1.18v1.55c.41-1.03,1.42-1.78,2.72-1.78,1.49,0,2.43,.74,2.79,1.86,.45-1.07,1.49-1.86,2.81-1.86Z"/>
</svg>