<?xml version="1.0" encoding="utf-8"?>
<!-- Generator: Adobe Illustrator 24.2.1, SVG Export Plug-In . SVG Version: 6.00 Build 0)  -->
<svg version="1.1" id="Layer_1" xmlns="http://www.w3.org/2000/svg" xmlns:xlink="http://www.w3.org/1999/xlink" x="0px" y="0px"
	 viewBox="0 0 503.61 180.5" style="enable-background:new 0 0 503.61 180.5;" xml:space="preserve">
<style type="text/css">
	.st0{fill:#044123;}
	.st1{fill:#231F20;}
	.st2{clip-path:url(#SVGID_2_);fill:#231F20;}
	.st3{clip-path:url(#SVGID_2_);fill:#044123;}
	.st4{clip-path:url(#SVGID_2_);fill:#FFFFFF;}
	.st5{clip-path:url(#SVGID_4_);}
	.st6{clip-path:url(#SVGID_6_);fill:#009B65;}
	.st7{clip-path:url(#SVGID_6_);fill:#F4F4F4;}
	.st8{clip-path:url(#SVGID_6_);}
	.st9{clip-path:url(#SVGID_8_);fill:#F4F4F4;}
	.st10{fill:#FFFFFF;}
</style>
<path class="st0" d="M20,160.25v-140l93.1,0.02c25.91,0,46.91,21.01,46.9,46.92v93.06H20z"/>
<g>
	<path class="st1" d="M243.5,112.37V55.96h6.52v68.47h-5.43l-42.61-59.02v59.02h-6.52V55.96h7.61L243.5,112.37z"/>
	<path class="st1" d="M263.4,55.96h7.07v8.8h-7.07V55.96z M270.24,77.26v47.17h-6.63V77.26H270.24z"/>
	<path class="st1" d="M336.55,75.96c12.17,0,16.63,8.37,16.63,19.24v29.24h-6.63V94.98c0-8.37-3.8-13.8-11.63-13.8
		c-7.06,0-13.37,5.87-13.37,15v28.26h-6.63V94.98c0-8.37-3.8-13.8-11.63-13.8c-7.07,0-13.37,5.87-13.37,15v28.26h-6.63V77.26h6.63
		v8.7c2.28-5.76,7.93-10,15.22-10c8.37,0,13.59,4.13,15.65,10.43C323.29,80.42,329.15,75.96,336.55,75.96z"/>
	<path class="st1" d="M370.68,124.43h-5V55.96h6.63V87.7c2.07-5.98,8.26-11.74,17.39-11.74c14.02,0,21.85,10.98,21.85,24.89
		s-7.83,24.89-21.85,24.89c-9.13,0-15.33-5.65-17.39-11.63L370.68,124.43z M372.09,102.48c0,11.3,7.39,17.82,16.74,17.82
		c10,0,15.76-7.5,15.76-19.46s-5.76-19.46-15.76-19.46c-9.35,0-16.74,6.52-16.74,17.82V102.48z"/>
	<path class="st1" d="M428.07,55.96v68.47h-6.63V55.96H428.07z"/>
	<path class="st1" d="M483.5,108.35c-2.28,10.76-10.11,17.39-21.63,17.39c-13.7,0-23.91-9.67-23.91-24.24
		c0-14.89,10.11-25.54,23.48-25.54c14.78,0,22.17,10.65,22.17,23.48v3.04h-38.8c0.43,10.43,7.72,17.82,17.06,17.82
		c8.7,0,14.02-4.35,15.98-12.72L483.5,108.35z M476.54,97.81c-0.22-8.7-5.11-16.63-15.11-16.63c-9.35,0-15.43,7.83-16.52,16.63
		H476.54z"/>
</g>
<g>
	<g>
		<path class="st10" d="M87.88,79.3V61.81h10.68c6.62,0,12.25,2.79,15.8,7.98c2.71,3.96,4.14,9.21,4.14,15.18v33.71H101V87.13
			c0-5.65-2.76-7.82-7.44-7.82C90.37,79.31,87.88,79.3,87.88,79.3"/>
	</g>
	<rect x="61.5" y="61.75" class="st10" width="17.5" height="57"/>
</g>
</svg>
