<svg xmlns="http://www.w3.org/2000/svg" width="464.28369" height="140" viewBox="0 0 464.28369 140"><defs><style>.cls-1{fill:#231f20;}.cls-2{fill:#044123;}.cls-3{fill:#fff;}</style></defs><g id="Layer_2" data-name="Layer 2"><g id="Layer_1-2" data-name="Layer 1"><path class="cls-1" d="M224.1792,109.62043V53.21125h6.52148v68.47363h-5.43457L182.65967,62.6673v59.01758h-6.52051V53.21125h7.60742Z"/><path class="cls-1" d="M244.07178,53.21125h7.06543V62.015h-7.06543ZM250.91943,74.514v47.1709h-6.62988V74.514Z"/><path class="cls-1" d="M317.22119,73.20978c12.17285,0,16.62891,8.36914,16.62891,19.2378v29.2373h-6.62988V92.23029c0-8.36914-3.80469-13.80322-11.62989-13.80322-7.06445,0-13.36816,5.86914-13.36816,14.999v28.25879h-6.63086V92.23029c0-8.36914-3.80371-13.80322-11.62891-13.80322-7.06543,0-13.36914,5.86914-13.36914,14.999v28.25879h-6.62988V74.514h6.62988v8.69531a16.01441,16.01441,0,0,1,15.2168-9.99951c8.36914,0,13.58594,4.13037,15.65039,10.43408A16.926,16.926,0,0,1,317.22119,73.20978Z"/><path class="cls-1" d="M351.354,121.68488h-5V53.21125h6.62989V84.94806a18.037,18.037,0,0,1,17.39062-11.73828c14.02051,0,21.84571,10.97754,21.84571,24.88965s-7.8252,24.88965-21.84571,24.88965c-9.12988,0-15.32519-5.65186-17.39062-11.6294Zm1.41309-21.95508c0,11.30371,7.39063,17.82471,16.73731,17.82471,10,0,15.75976-7.49951,15.75976-19.45508S379.5044,78.64435,369.5044,78.64435c-9.34668,0-16.73731,6.52149-16.73731,17.82471Z"/><path class="cls-1" d="M408.74268,53.21125v68.47363h-6.62989V53.21125Z"/><path class="cls-1" d="M464.17529,105.59894c-2.28222,10.76026-10.10839,17.39014-21.6289,17.39014-13.69531,0-23.91211-9.67334-23.91211-24.23731,0-14.89062,10.1084-25.542,23.47754-25.542,14.78125,0,22.17187,10.65137,22.17187,23.47657V99.7298H425.48193c.43457,10.43408,7.7168,17.82471,17.06446,17.82471,8.69531,0,14.02051-4.34717,15.97656-12.71631Zm-6.95605-10.54248c-.21777-8.69531-5.1084-16.62939-15.10742-16.62939-9.34766,0-15.43457,7.82519-16.52149,16.62939Z"/><path class="cls-1" d="M224.1792,109.62043V53.21125h6.52148v68.47363h-5.43457L182.65967,62.6673v59.01758h-6.52051V53.21125h7.60742Z"/><path class="cls-1" d="M244.07178,53.21125h7.06543V62.015h-7.06543ZM250.91943,74.514v47.1709h-6.62988V74.514Z"/><path class="cls-1" d="M317.22119,73.20978c12.17285,0,16.62891,8.36914,16.62891,19.2378v29.2373h-6.62988V92.23029c0-8.36914-3.80469-13.80322-11.62989-13.80322-7.06445,0-13.36816,5.86914-13.36816,14.999v28.25879h-6.63086V92.23029c0-8.36914-3.80371-13.80322-11.62891-13.80322-7.06543,0-13.36914,5.86914-13.36914,14.999v28.25879h-6.62988V74.514h6.62988v8.69531a16.01441,16.01441,0,0,1,15.2168-9.99951c8.36914,0,13.58594,4.13037,15.65039,10.43408A16.926,16.926,0,0,1,317.22119,73.20978Z"/><path class="cls-1" d="M351.354,121.68488h-5V53.21125h6.62989V84.94806a18.037,18.037,0,0,1,17.39062-11.73828c14.02051,0,21.84571,10.97754,21.84571,24.88965s-7.8252,24.88965-21.84571,24.88965c-9.12988,0-15.32519-5.65186-17.39062-11.6294Zm1.41309-21.95508c0,11.30371,7.39063,17.82471,16.73731,17.82471,10,0,15.75976-7.49951,15.75976-19.45508S379.5044,78.64435,369.5044,78.64435c-9.34668,0-16.73731,6.52149-16.73731,17.82471Z"/><path class="cls-1" d="M408.74268,53.21125v68.47363h-6.62989V53.21125Z"/><path class="cls-1" d="M464.17529,105.59894c-2.28222,10.76026-10.10839,17.39014-21.6289,17.39014-13.69531,0-23.91211-9.67334-23.91211-24.23731,0-14.89062,10.1084-25.542,23.47754-25.542,14.78125,0,22.17187,10.65137,22.17187,23.47657V99.7298H425.48193c.43457,10.43408,7.7168,17.82471,17.06446,17.82471,8.69531,0,14.02051-4.34717,15.97656-12.71631Zm-6.95605-10.54248c-.21777-8.69531-5.1084-16.62939-15.10742-16.62939-9.34766,0-15.43457,7.82519-16.52149,16.62939Z"/><path class="cls-2" d="M0,140V0L93.09781.02187A46.91211,46.91211,0,0,1,140,46.94375V140Z"/><rect class="cls-3" x="68.48659" y="35.72583" width="34.20768" height="34.20768" transform="translate(171.18086 105.65934) rotate(180)"/><rect class="cls-3" x="34.14593" y="70.06649" width="34.20768" height="34.20768" transform="translate(102.49955 174.34066) rotate(180)"/><rect class="cls-2" x="67.16832" y="64.67212" width="38.68575" height="2.6307" transform="translate(173.02239 131.97493) rotate(180)"/><rect class="cls-2" x="67.16832" y="59.41592" width="38.68575" height="2.6307" transform="translate(173.02239 121.46253) rotate(180)"/><rect class="cls-2" x="67.16832" y="54.15972" width="38.68575" height="2.6307" transform="translate(173.02239 110.95013) rotate(180)"/><rect class="cls-2" x="67.16832" y="48.90352" width="38.68575" height="2.6307" transform="translate(173.02239 100.43773) rotate(180)"/><rect class="cls-2" x="67.16832" y="43.64732" width="38.68575" height="2.6307" transform="translate(173.02239 89.92534) rotate(180)"/><rect class="cls-2" x="67.16832" y="38.39112" width="38.68575" height="2.6307" transform="translate(173.02239 79.41294) rotate(180)"/></g></g></svg>