<svg xmlns="http://www.w3.org/2000/svg" xmlns:xlink="http://www.w3.org/1999/xlink" width="0" height="0" style="display:none;"><symbol viewBox="0 0 40 40" id="nimble-icon-font-ActiveAlarm_40x40"><title>SkylineIcons</title><path class="cls-1" d="M34.52,33.65c-3,0-4.57-15.94-4.57-15.94v-.06c0-1.52-.76-1.52-.76-1.52H29c-.23-.12-.56-.45-.56-1.46V13.14C28.11,10.5,25.55,9,21.64,8.65h1.11l.32-.32a1.09,1.09,0,0,0,0-1.53l-.32-.32H21.67V4.91A2.7,2.7,0,1,0,17.41,2.7a2.65,2.65,0,0,0,1,2.09V6.48H17.35L17,6.8a1.09,1.09,0,0,0,0,1.53l.32.32h1.11C14.54,9,12,10.5,11.67,13.14v1.53c0,1-.33,1.34-.56,1.46h-.2s-.77,0-.77,1.58c0,0-1.52,15.94-4.37,15.94h-.2C4.05,33.65,4.05,36,4.05,36h32S36.05,33.65,34.52,33.65ZM20.05,4.32A1.62,1.62,0,1,1,21.67,2.7,1.61,1.61,0,0,1,20.05,4.32Z"></path><path class="cls-1" d="M16.19,37a4,4,0,0,0,7.72,0Z"></path></symbol><symbol viewBox="0 0 40 40" id="nimble-icon-font-ActiveJobs_40x40"><title>SkylineIcons</title><path class="cls-1" d="M11,20,17,3H27L21,17h8L11,36l6.06-16Z"></path></symbol><symbol viewBox="0 0 16 16" id="nimble-icon-font-AlarmActiveAcknowledged_16x16"><title>SkylineIcons</title><path class="cls-1" d="M16,3.09,5.09,14,0,8.91,2.18,6.73l3,3L13.91,1Z"></path></symbol><symbol viewBox="0 0 16 16" id="nimble-icon-font-AlarmActive_16x16"><defs><style>.cls-1{fill:#c42126;}</style></defs><title>SkylineIcons</title><rect class="cls-1" x="6.13" y="12.52" width="3.8" height="2.48"></rect><polygon class="cls-1" points="6.06 1 6.5 10.97 9.56 10.97 9.99 1 6.06 1"></polygon></symbol><symbol id="nimble-icon-font-AlarmInactive_16x16"></symbol><symbol id="nimble-icon-font-AlarmNotes_16x16"></symbol><symbol id="nimble-icon-font-Alarm_16x16"></symbol><symbol id="nimble-icon-font-AlarmsAndNotifications_40x40"></symbol><symbol id="nimble-icon-font-AssetManager_40x40"></symbol><symbol id="nimble-icon-font-Blocked_16x16"></symbol><symbol viewBox="0 0 16 16" id="nimble-icon-font-BrowseFolder_16x16"><title>SkylineIcons</title><path class="cls-1" d="M7,1V2h8V4H14V3H2V4H1V1ZM0,15H16V5H0Z"></path></symbol><symbol viewBox="0 0 40 40" id="nimble-icon-font-Calibration_16x16"><title>SkylineIcons</title><path class="cls-1" d="M13.86,12.39,18.43,17l8.19-8.39v6.1l-5.44,5L33.53,32.06A2.31,2.31,0,0,1,31.89,36a2.25,2.25,0,0,1-1.6-.71c-4.72-4.73-8.09-8.28-12.81-13L12.9,26.86V22.29L15,20c-1.39-1.39-2.23-2.41-3.62-3.8L9.86,17.71H3.76l4.8-4.15L8,13A2.3,2.3,0,0,1,9.62,9.05a2.07,2.07,0,0,1,1,.26L16,4h5.7Z"></path></symbol><symbol id="nimble-icon-font-CloudConnector_40x40"></symbol><symbol viewBox="0 0 16 16" id="nimble-icon-font-Connected_16x16"><defs><style>.cls-1{fill:#20b25b;}</style></defs><title>SkylineIcons</title><path class="cls-1" d="M8,1a7,7,0,1,0,7,7A7,7,0,0,0,8,1ZM8,12a4,4,0,1,1,4-4A4,4,0,0,1,8,12Z"></path></symbol><symbol id="nimble-icon-font-CopyText_16x16"></symbol><symbol viewBox="0 0 40 40" id="nimble-icon-font-CreateNew_40x40"><title>SkylineIcons</title><polygon class="cls-1" points="38 18 22 18 22 2 18 2 18 18 2 18 2 22 18 22 18 38 22 38 22 22 38 22 38 18"></polygon></symbol><symbol viewBox="0 0 40 40" id="nimble-icon-font-DashboardBuilder_40x40"><title>SkylineIcons</title><path class="cls-1" d="M14.5,31.25A3.25,3.25,0,1,1,11.25,28,3.26,3.26,0,0,1,14.5,31.25ZM39,1V39H1V1ZM5,5V16.38a17.27,17.27,0,0,0,2.26-3.26c1.53-2.63,3.27-5.62,6.91-5.62s5.38,3,6.91,5.62,2.71,4.38,4.76,4.38,3.16-1.65,4.75-4.38c1.13-1.94,2.38-4.06,4.41-5V5ZM17,31.25A5.75,5.75,0,1,0,11.25,37,5.74,5.74,0,0,0,17,31.25ZM35,32H22v3H35Zm0-5H22v3H35Zm0-4V11.13a16.41,16.41,0,0,0-2.25,3.25C31.21,17,29.47,20,25.84,20s-5.38-3-6.91-5.62S16.22,10,14.17,10,11,11.66,9.41,14.38C8.28,16.32,7,18.45,5,19.43V23Z"></path></symbol><symbol viewBox="0 0 16 16" id="nimble-icon-font-Details_16x16"><title>SkylineIcons</title><path class="cls-1" d="M6.54.51,3.77,1.65l.64,1.56A6.28,6.28,0,0,0,3.23,4.39L1.67,3.75.51,6.51l1.56.65a5.91,5.91,0,0,0,0,1.68L.51,9.48l1.14,2.77,1.56-.64a6.28,6.28,0,0,0,1.18,1.18l-.64,1.56L6.51,15.5,7.16,14A6.07,6.07,0,0,0,8,14,5.9,5.9,0,0,0,8.84,14l.64,1.56,2.77-1.14-.64-1.56a6.64,6.64,0,0,0,1.19-1.18l1.55.64,1.16-2.76L14,8.86a5.91,5.91,0,0,0,0-1.68l1.56-.64L14.37,3.77l-1.56.64a6.33,6.33,0,0,0-1.18-1.19l.64-1.55L9.51.51,8.86,2.07A6.07,6.07,0,0,0,8,2a5.79,5.79,0,0,0-.83.06ZM8,11.76a3.67,3.67,0,0,1-1.44-.29A3.75,3.75,0,0,1,8,4.26a3.67,3.67,0,0,1,1.44.29A3.75,3.75,0,0,1,8,11.76M8,6.51a1.5,1.5,0,1,0,.58.12A1.5,1.5,0,0,0,8,6.51"></path></symbol><symbol viewBox="0 0 40 40" id="nimble-icon-font-DevicesAndInterfaces_40x40"><title>SkylineIcons</title><path class="cls-1" d="M38,15H14a2,2,0,0,0-2,2V30a2,2,0,0,0,2,2H24v2l-1,2H22c-1.1,0-2,.13-2,1H32c0-1.1-.9-1-2-1H29l-1-2V32H38a2,2,0,0,0,2-2V17A2,2,0,0,0,38,15ZM27,34H25V32h2Zm11-4H14V17H38ZM13,8v2H3V8ZM3,11H13v1H3Zm6,9.5A1.5,1.5,0,1,1,7.5,19,1.5,1.5,0,0,1,9,20.5ZM16,35a2,2,0,0,1-2,2H2a2,2,0,0,1-2-2V5A2,2,0,0,1,2,3H14a2,2,0,0,1,2,2v9H14V5H2V29h9v1a3,3,0,0,0,3,3h2Z"></path></symbol><symbol viewBox="0 0 40 40" id="nimble-icon-font-Devices_16x16"><title>SkylineIcons</title><path class="cls-1" d="M38,15H14a2,2,0,0,0-2,2V30a2,2,0,0,0,2,2H24v2l-1,2H22c-1.1,0-2,.13-2,1H32c0-1.1-.9-1-2-1H29l-1-2V32H38a2,2,0,0,0,2-2V17A2,2,0,0,0,38,15ZM27,34H25V32h2Zm11-4H14V17H38ZM13,8v2H3V8ZM3,11H13v1H3Zm6,9.5A1.5,1.5,0,1,1,7.5,19,1.5,1.5,0,0,1,9,20.5ZM16,35a2,2,0,0,1-2,2H2a2,2,0,0,1-2-2V5A2,2,0,0,1,2,3H14a2,2,0,0,1,2,2v9H14V5H2V29h9v1a3,3,0,0,0,3,3h2Z"></path></symbol><symbol viewBox="0 0 16 16" id="nimble-icon-font-Disconnected_16x16"><defs><style>.cls-1{fill:#c42126;}</style></defs><title>SkylineIcons</title><path class="cls-1" d="M7,14.92A7,7,0,0,1,7,1.08V4.14a4,4,0,0,0,0,7.72ZM9,1.08V4.14a4,4,0,0,1,0,7.72v3.06A7,7,0,0,0,9,1.08Z"></path></symbol><symbol viewBox="0 0 40 40" id="nimble-icon-font-DiscoveredSystem_40x40"><title>SkylineIcons</title><path class="cls-1" d="M25.92,8.75a9.5,9.5,0,1,1-9.49,9.5,9.5,9.5,0,0,1,9.49-9.5M13,18.25a13,13,0,0,0,1,5.12L.91,31l1.74,3L15.8,26.33A12.95,12.95,0,1,0,13,18.25Z"></path></symbol><symbol id="nimble-icon-font-Edit_16x16"></symbol><symbol viewBox="0 0 16 16" id="nimble-icon-font-Fail_16x16"><defs><style>.cls-1{fill:#c42126;}</style></defs><title>SkylineIcons</title><path class="cls-1" d="M14,4,10,8l4,4-2,2L8,10,4,14,2,12,6,8,2,4,4,2,8,6l4-4Z"></path></symbol><symbol viewBox="0 0 40 40" id="nimble-icon-font-FileViewer_40x40"><title>SkylineIcons</title><path class="cls-1" d="M35,9H26V1.55Zm-1.47,1L25,10V2.27A1.51,1.51,0,0,0,23.53,1H7V25.48A8.94,8.94,0,1,1,21.31,36H35V11C35,10.31,34.22,10,33.53,10ZM14.74,24.85A5.1,5.1,0,1,1,9.64,30a5.09,5.09,0,0,1,5.1-5.1M7.79,30a7,7,0,0,0,.56,2.74l-7,4.11.93,1.6,7.06-4.12A6.94,6.94,0,1,0,7.79,30Z"></path></symbol><symbol viewBox="0 0 16 16" id="nimble-icon-font-Filter_16x16"><title>SkylineIcons</title><path class="cls-1" d="M1,0V2h.43A2.69,2.69,0,1,0,5.21,5.77L7,8.6v7l3-2.4V8.6L14.2,2H16V0ZM3.11,5.6a1.5,1.5,0,0,1,0-3H3.2l1.3,2A1.49,1.49,0,0,1,3.11,5.6Z"></path></symbol><symbol viewBox="0 0 40 40" id="nimble-icon-font-HealthMonitoring_40x40"><title>SkylineIcons</title><path class="cls-1" d="M28,10V4H12v6H4v4H36V10ZM14,10V6H26v4ZM4,34H6v2H34V34h2V16H4ZM15,23h4V19h3v4h4v3H22v4H19V26H15Z"></path></symbol><symbol id="nimble-icon-font-Help_16x16"></symbol><symbol viewBox="0 0 40 40" id="nimble-icon-font-History_40x40"><title>SkylineIcons</title><path class="cls-1" d="M28.05,36.15h-.14V34.64H26.66a7.67,7.67,0,0,0,1.1-3.88c0-5.63-6.43-8.9-6.43-11.26s6.43-5.63,6.43-11.26a7.67,7.67,0,0,0-1.1-3.88h1.25V2.85h.14A1.72,1.72,0,0,0,29.59,1H9.41A1.72,1.72,0,0,0,11,2.85h.14V4.36h1.25a7.67,7.67,0,0,0-1.1,3.88c0,5.63,6.43,8.85,6.43,11.26s-6.43,5.63-6.43,11.26a7.67,7.67,0,0,0,1.1,3.88H11.09v1.51H11A1.72,1.72,0,0,0,9.41,38H29.59A1.72,1.72,0,0,0,28.05,36.15ZM19.5,34.78c-4.83,0-6.09-1.8-6.09-4,0,0,4-2,5.31-2,.83,0,.89-10.83,0-11.65l-3-3.09h7.56l-3,3.09c-.83.88-.85,11.65,0,11.65,1.28,0,5.36,2,5.36,2C25.64,33,24.38,34.78,19.5,34.78Z"></path></symbol><symbol viewBox="0 0 16 16" id="nimble-icon-font-Home_16x16"><defs><style>.cls-1{fill:#fff;}</style></defs><title>SkylineIcons</title><polygon class="cls-1" points="13 5.63 13 1 11 1 11 3.39 7.98 0 0 9 2 9 2 16 7 16 7 12 9 12 9 16 14 16 14 9 16 9 13 5.63"></polygon></symbol><symbol viewBox="0 0 40 40" id="nimble-icon-font-Import_40x40"><title>SkylineIcons</title><path class="cls-1" d="M39,21.66A4.34,4.34,0,0,1,34.66,26H27.52l-7.1-14.22L13.3,26H7.51v0a7.05,7.05,0,0,1,.6-14.08,7.23,7.23,0,0,1,1.75.22,11.93,11.93,0,0,1,23.71,2A11.81,11.81,0,0,1,33,17.64a4.29,4.29,0,0,1,1.64-.33A4.34,4.34,0,0,1,39,21.66ZM20.41,16.25l-6.1,12.19L19,26.64V38h3V26.64l4.5,1.8Z"></path></symbol><symbol id="nimble-icon-font-InSecure_16x16"></symbol><symbol id="nimble-icon-font-Information_16x16"></symbol><symbol id="nimble-icon-font-IntermediateSelection_16x16"></symbol><symbol id="nimble-icon-font-Key_16x16"></symbol><symbol id="nimble-icon-font-LegendView_16x16"></symbol><symbol id="nimble-icon-font-Locked_16x16"></symbol><symbol viewBox="0 0 40 40" id="nimble-icon-font-ManagedSystems_40x40"><title>SkylineIcons</title><path class="cls-1" d="M40,26.5v10H30v-10h4v-6H21v6h4v10H15v-10h4v-6H6v6h4v10H0v-10H4v-8H19v-6H15V2.5H25v10H21v6H36v8Z"></path></symbol><symbol id="nimble-icon-font-MergedView_16x16"></symbol><symbol viewBox="0 0 40 40" id="nimble-icon-font-NetworkSettings_40x40"><title>SkylineIcons</title><path class="cls-1" d="M13,19H12V13h6v1H13Zm4,1h4V33H12v2.06h4V36H5v-.94L9,35V33H0V20H17ZM11,33H10v1h1Zm8-11H2v9H19ZM40,4V17H31v2.06h4V20H24v-.94L28,19V17H19V4ZM30,17H29v1h1ZM38,6H21v9H38Z"></path></symbol><symbol id="nimble-icon-font-OpcUa_40x40"></symbol><symbol viewBox="0 0 40 40" id="nimble-icon-font-PendingApproval_40x40"><title>SkylineIcons</title><path class="cls-1" d="M4,2V17C4,27,20,38,20,38S36,28,36,17V2ZM16.67,25,9,17.27,12.37,14l4.27,4.43L27.8,7.4,31,10.73Z"></path></symbol><symbol viewBox="0 0 40 40" id="nimble-icon-font-PluginsBrowser_40x40">
  <!-- The feDropShadow element does not display correctly in Safari and
        prevents the image from displaying in IE and Edge. -->
  <defs>
    <style>
      .square {
        fill: #FFFFFF;
      }
    </style>
  </defs>

  <rect class="square" x="2px" y="2px" width="16px" height="16px"></rect>
  <rect class="square" x="22px" y="2px" width="16px" height="16px"></rect>
  <rect class="square" x="2px" y="22px" width="16px" height="16px"></rect>
  <rect class="square" x="22px" y="22px" width="16px" height="16px"></rect>
</symbol><symbol viewBox="0 0 40 40" id="nimble-icon-font-Project_40x40"><title>SkylineIcons</title><path class="cls-1" d="M34,5l2,1V14l-2,1Zm0,20,2-1V17l-2-1Zm0,11,2-1V27l-2-1ZM28,19H17v1H28Zm0-3H17v1H28ZM33,6V34a2,2,0,0,1-2,2H12V4H31A2,2,0,0,1,33,6Zm-4,8H16v8H29ZM7.33,7H4.67C4.3,7,4,7.22,4,7.5s.3.5.67.5H7.33C7.7,8,8,7.78,8,7.5S7.7,7,7.33,7Zm0,5H4.67c-.37,0-.67.22-.67.5s.3.5.67.5H7.33c.37,0,.67-.22.67-.5S7.7,12,7.33,12Zm0,5H4.67c-.37,0-.67.22-.67.5s.3.5.67.5H7.33c.37,0,.67-.22.67-.5S7.7,17,7.33,17Zm0,5H4.67c-.37,0-.67.22-.67.5s.3.5.67.5H7.33c.37,0,.67-.22.67-.5S7.7,22,7.33,22Zm0,5H4.67c-.37,0-.67.22-.67.5s.3.5.67.5H7.33c.37,0,.67-.22.67-.5S7.7,27,7.33,27ZM6,4V6H7.33A1.57,1.57,0,0,1,9,7.5,1.57,1.57,0,0,1,7.33,9H6v2H7.33A1.57,1.57,0,0,1,9,12.5,1.57,1.57,0,0,1,7.33,14H6v2H7.33a1.51,1.51,0,1,1,0,3H6v2H7.33a1.51,1.51,0,1,1,0,3H6v2H7.33a1.51,1.51,0,1,1,0,3H6v2H7.33a1.51,1.51,0,1,1,0,3H6v2h5V4ZM7.33,32H4.67c-.37,0-.67.22-.67.5s.3.5.67.5H7.33c.37,0,.67-.22.67-.5S7.7,32,7.33,32Z"></path></symbol><symbol viewBox="0 0 16 16" id="nimble-icon-font-Refresh_16x16"><title>SkylineIcons</title><path class="cls-1" d="M9.25,1.06V3.34a4.49,4.49,0,0,1,4.4,4.58,4.49,4.49,0,0,1-4.4,4.57A4.48,4.48,0,0,1,4.86,8H5L8,9.2,3.93,1.06-.15,9.2,2.66,8.12a6.72,6.72,0,0,0,6.59,6.65,6.73,6.73,0,0,0,6.6-6.85A6.74,6.74,0,0,0,9.25,1.06Z"></path></symbol><symbol viewBox="0 0 40 40" id="nimble-icon-font-RepositoryManager_40x40"><title>SkylineIcons</title><path class="cls-1" d="M36,4V8H4V4Zm0,6V36H4V10ZM26,19V14H14v5Z"></path></symbol><symbol id="nimble-icon-font-Secure_16x16"></symbol><symbol viewBox="0 0 40 40" id="nimble-icon-font-Software_40x40"><title>SkylineIcons</title><path class="cls-1" d="M19.41,26.75l-6.1-12.19L18,16.36V5h3V16.36l4.5-1.8ZM32,27v5H7V27H3v9H36V27Z"></path></symbol><symbol viewBox="0 0 16 16" id="nimble-icon-font-Succeeded_16x16"><defs><style>.cls-1{fill:#20b25b;}</style></defs><title>SkylineIcons</title><path class="cls-1" d="M16,3.59,5.09,14.5,0,9.41,2.18,7.23l3,3L13.91,1.5Z"></path></symbol><symbol viewBox="0 0 40 40" id="nimble-icon-font-SystemManager_40x40"><title>SkylineIcons</title><path class="cls-1" d="M4.71,7.69A9.51,9.51,0,0,0,3.46,10.1L.73,9.86.32,14.71,3,14.94a9.93,9.93,0,0,0,.83,2.59l-2.1,1.76L4.91,23,7,21.25a10.37,10.37,0,0,0,1.15.7,11.72,11.72,0,0,0,1.26.55l-.23,2.73,4.84.41.24-2.73a9.48,9.48,0,0,0,2.58-.82l1.77,2.09,3.72-3.13L20.56,19a9.51,9.51,0,0,0,1.25-2.41l2.73.24L25,11.93l-2.72-.23a9.93,9.93,0,0,0-.83-2.59l2.1-1.76L20.36,3.63,18.27,5.39a10.37,10.37,0,0,0-1.15-.7,11.72,11.72,0,0,0-1.26-.55l.23-2.72L11.25,1,11,3.73a9.59,9.59,0,0,0-2.58.82L6.66,2.46,2.94,5.59Zm12.23,9.93a6.09,6.09,0,0,1-4.82,1.76,6,6,0,0,1-2.29-.66A6.08,6.08,0,0,1,13.15,7.26a6,6,0,0,1,2.29.66,6.1,6.1,0,0,1,1.5,9.7m-6-6a2.49,2.49,0,0,0-.71,1.51,2.46,2.46,0,0,0,1.3,2.37,2.57,2.57,0,0,0,.92.26,2.42,2.42,0,0,0,2.63-2.21,2.46,2.46,0,0,0-1.3-2.37,2.46,2.46,0,0,0-2.84.44m25,19.06a7.54,7.54,0,0,0,0-2.07l1.92-.83-1.46-3.4-1.92.82a7.26,7.26,0,0,0-.69-.78,7.35,7.35,0,0,0-.79-.67l.77-1.94-3.44-1.38-.78,1.94a7.55,7.55,0,0,0-2.07,0l-.82-1.92-3.41,1.46L24,23.83a7.1,7.1,0,0,0-.71.63,8.67,8.67,0,0,0-.74.85l-1.93-.77L19.27,28l1.94.78a7.55,7.55,0,0,0,0,2.07l-1.92.82,1.46,3.41,1.92-.82a8.19,8.19,0,0,0,.68.76,7.37,7.37,0,0,0,.8.68l-.77,1.94L26.84,39l.77-1.94a7.54,7.54,0,0,0,2.07,0L30.51,39l3.41-1.46-.83-1.92a5.42,5.42,0,0,0,.72-.63,6.55,6.55,0,0,0,.73-.85l1.94.78,1.38-3.45Zm-3.05.77a4.48,4.48,0,0,1-1,1.55,4.62,4.62,0,0,1-5,1,4.7,4.7,0,0,1-1.52-1,4.64,4.64,0,0,1,5-7.62,4.93,4.93,0,0,1,1.52,1A4.66,4.66,0,0,1,32.87,31.43Zm-5.62-3a1.92,1.92,0,0,0-.41.62,1.86,1.86,0,0,0,3,2,2,2,0,0,0,.41-.62,1.88,1.88,0,0,0-.43-2,1.91,1.91,0,0,0-.6-.4,1.87,1.87,0,0,0-2,.42"></path></symbol><symbol id="nimble-icon-font-SystemStateManager_40x40"></symbol><symbol viewBox="0 0 40 40" id="nimble-icon-font-TagViewer_40x40"><title>SkylineIcons</title><path class="cls-1" d="M20.16,4.12,10,2,2,10,4.12,20.16,22,38,38,22ZM14.6,14.6a3.9,3.9,0,1,1,0-5.46A3.87,3.87,0,0,1,14.6,14.6Z"></path></symbol><symbol id="nimble-icon-font-TdmsBooleanChannel_16x16"></symbol><symbol id="nimble-icon-font-TdmsChannelGroup_16x16"></symbol><symbol id="nimble-icon-font-TdmsFile_16x16"></symbol><symbol id="nimble-icon-font-TdmsNumericChannel_16x16"></symbol><symbol id="nimble-icon-font-TdmsStringChannel_16x16"></symbol><symbol id="nimble-icon-font-TdmsTimeChannel_16x16"></symbol><symbol id="nimble-icon-font-TdmsWaveformChannel_16x16"></symbol><symbol viewBox="0 0 40 40" id="nimble-icon-font-TestMonitor_40x40"><title>SkylineIcons</title><path class="cls-1" d="M4,4V36H36V4ZM16.67,28,9,20.27,12.37,17l4.27,4.43,11.16-11L31,13.73Z"></path></symbol><symbol id="nimble-icon-font-TileDashboard_40x40"></symbol><symbol viewBox="0 0 40 40" id="nimble-icon-font-TimeSettings_40x40"><title>SkylineIcons</title><path class="cls-1" d="M20.33,18.13l3-3a3.11,3.11,0,0,1,1.59-.48,3.64,3.64,0,0,1-.44,1.5c-.21.31-2.56,2.67-3,3.08a2.4,2.4,0,0,1,0,2.05l4.13,4.15a3,3,0,0,1,.87,2,3.09,3.09,0,0,1-2.31-1.16c-.87-.87-3.31-3.36-3.82-3.87a2.49,2.49,0,0,1-1,.24,2.42,2.42,0,1,1,0-4.83,2.35,2.35,0,0,1,1,.25m17.55,7.06.62-7.27-4.09-.35a14.73,14.73,0,0,0-1.24-3.89L36.31,11l-4.7-5.58L28.46,8.1A13.36,13.36,0,0,0,26.73,7a13.83,13.83,0,0,0-1.89-.82l.35-4.1L17.92,1.5l-.35,4.1a14.71,14.71,0,0,0-3.89,1.23L11,3.69,5.45,8.4l2.64,3.14a14.61,14.61,0,0,0-1.87,3.62l-4.1-.35L1.5,22.08l4.1.36a14.64,14.64,0,0,0,1.23,3.88L3.69,29l4.7,5.59,3.15-2.65a15,15,0,0,0,3.62,1.87l-.35,4.1,7.27.62.36-4.1a14.29,14.29,0,0,0,3.88-1.23L29,36.31l5.59-4.7-2.65-3.15a14.28,14.28,0,0,0,1.87-3.62ZM20,30.64A10.64,10.64,0,1,1,30.64,20,10.65,10.65,0,0,1,20,30.64Z"></path></symbol><symbol id="nimble-icon-font-TreeView_16x16"></symbol><symbol id="nimble-icon-font-Warning_16x16"></symbol><symbol viewBox="0 0 40 40" id="nimble-icon-font-WebVI_40x40"><title>SkylineIcons</title><path class="cls-1" d="M27,31H33a16.93,16.93,0,0,1-8.62,5.42A17.47,17.47,0,0,0,27,31ZM40,20A20,20,0,1,1,20,0,20,20,0,0,1,40,20Zm-1,0A19,19,0,1,0,20,39,19,19,0,0,0,39,20ZM33,9a16.93,16.93,0,0,0-8.62-5.42A17.47,17.47,0,0,1,27,9Zm1.87,12H37a16.87,16.87,0,0,1-2.55,8H27.61a34.16,34.16,0,0,0,.65-3.76l-2.17,1.09c-.16.93-.34,1.84-.56,2.67H20.75l-4,2h8.18c-1.3,3.72-3.18,6-4.93,6s-3.37-2-4.66-5.29l-1.77.88a15.65,15.65,0,0,0,2.1,3.83A16.93,16.93,0,0,1,7.05,31h1A3.19,3.19,0,0,1,8,30.46V29H5.6a16.87,16.87,0,0,1-2.55-8H8V19H3.05A16.87,16.87,0,0,1,5.6,11H8V9.52A3,3,0,0,1,8.05,9h-1a16.93,16.93,0,0,1,8.62-5.42,16.1,16.1,0,0,0-2.1,3.82l1.77.89C16.63,5,18.36,3,20,3s3.63,2.28,4.93,6H16.77l4,2h4.77c.22.83.4,1.74.56,2.67l2.17,1.09A34.16,34.16,0,0,0,27.61,11H34.4A16.87,16.87,0,0,1,37,19H34.82a2.87,2.87,0,0,1,0,2ZM33,20a1,1,0,0,0-.56-.92L11.56,8.63A1,1,0,0,0,10,9.52V30.46a1,1,0,0,0,1,1l.46-.11L32.4,20.94A1,1,0,0,0,33,20ZM18,16H16v3H13v2h3v3h2V21h3V19H18Z"></path></symbol></svg>