<?xml version="1.0" encoding="utf-8"?>
<svg id="c" data-name="Layer 3" viewBox="0 0 186 64" xmlns="http://www.w3.org/2000/svg">
  <defs>
    <style>
      .g {
        fill: #044123;
      }

      .h {
        fill: #009b65;
      }

      .i {
        fill: #231f20;
      }
    </style>
  </defs>
  <g id="d" data-name="Group 124">
    <path id="e" data-name="Path 106" class="g" d="M42.04,4L5.07,60l25.99-15.01c14.35-8.29,19.27-26.64,10.98-40.99h0Z" style="fill: rgb(7, 57, 64);"/>
    <path id="f" data-name="Path 107" class="h" d="M5.07,60L42.04,4l-25.99,15.01C1.7,27.29-3.22,45.65,5.07,60h0Z" style="fill: rgb(0, 111, 155);"/>
  </g>
  <path d="M 61.953 53.463 Q 60.945 53.463 60.413 53.379 Q 59.881 53.295 59.265 53.015 Q 58.593 52.679 58.257 52.063 Q 58.257 51.391 58.873 51.391 Q 59.489 51.391 60.441 51.783 Q 61.337 52.231 61.953 52.231 Q 63.185 52.231 64.221 51.223 Q 65.257 50.215 65.817 48.591 Q 66.937 45.399 66.937 42.935 Q 66.937 40.191 66.153 37.391 Q 65.369 34.591 64.081 32.127 Q 63.801 31.511 63.129 30.279 Q 61.729 27.479 61.001 25.911 Q 60.273 24.343 59.713 22.439 Q 58.929 19.919 58.929 17.007 Q 58.929 15.159 59.517 13.451 Q 60.105 11.743 61.393 10.511 Q 62.793 9.223 64.529 9.223 Q 65.201 9.223 66.153 9.755 Q 67.105 10.287 67.105 10.791 Q 67.105 11.239 66.769 11.239 Q 66.433 11.239 65.873 10.959 Q 65.369 10.679 64.921 10.679 Q 63.633 10.679 62.653 11.631 Q 61.673 12.583 61.225 13.983 Q 60.833 15.159 60.833 16.559 Q 60.833 18.743 61.393 21.067 Q 61.953 23.391 62.905 25.407 L 64.865 29.495 L 65.425 30.671 Q 66.601 33.079 67.245 34.647 Q 67.889 36.215 68.337 38.175 Q 68.953 40.807 68.953 43.215 Q 68.953 46.463 67.273 49.823 Q 66.433 51.447 65.033 52.455 Q 63.633 53.463 61.953 53.463 Z M 78.296 52.903 Q 77.68 49.375 77.68 44.839 Q 77.68 43.047 77.848 39.631 L 77.96 34.423 Q 77.568 33.639 77.568 33.135 Q 78.128 32.239 78.128 27.983 Q 78.128 17.791 77.848 17.119 Q 78.352 15.719 78.632 15.719 L 81.096 15.719 Q 81.712 15.719 82.86 16.307 Q 84.008 16.895 84.792 17.567 Q 86.192 18.855 86.192 24.175 Q 86.192 27.031 86.024 28.543 Q 85.912 29.607 85.66 30.223 Q 85.408 30.839 84.904 31.623 Q 84.064 32.911 82.048 33.863 Q 81.208 34.311 79.696 34.759 L 79.696 41.423 Q 79.696 42.823 79.976 46.911 L 80.088 48.703 L 80.2 52.343 Q 80.2 53.351 79.136 53.351 Z M 80.088 32.855 Q 81.712 32.855 82.832 31.343 Q 83.224 30.783 83.56 29.831 Q 83.896 28.879 84.008 27.983 Q 84.344 26.359 84.344 24.231 L 84.344 22.719 Q 84.344 21.935 84.288 21.207 Q 84.232 20.479 84.064 19.807 Q 83.84 19.079 83.476 18.603 Q 83.112 18.127 82.496 17.791 Q 81.824 17.455 80.872 17.455 Q 80.2 17.455 79.92 17.791 Q 79.64 18.127 79.64 18.967 Q 79.64 20.311 79.808 22.999 L 79.92 27.031 Q 79.92 28.487 79.808 29.663 L 79.696 32.295 L 80.088 32.855 Z M 101.807 52.903 Q 101.135 52.175 100.351 49.039 Q 99.567 45.903 98.895 41.983 Q 98.447 38.791 97.607 35.655 Q 96.935 32.855 96.319 32.855 L 96.151 32.855 Q 94.919 32.855 94.919 33.639 Q 94.919 37.671 95.367 45.903 Q 95.591 50.943 95.871 51.783 L 95.423 52.735 L 94.639 52.735 L 94.191 52.287 Q 93.295 26.415 93.295 17.007 Q 93.295 16.391 93.379 15.999 Q 93.463 15.607 93.743 15.271 Q 93.967 14.879 94.527 14.879 Q 97.383 14.879 99.119 16.279 Q 100.855 17.679 100.855 20.311 L 100.855 24.399 Q 100.855 25.463 100.155 27.255 Q 99.455 29.047 98.615 30.559 L 97.887 31.959 Q 98.503 34.815 100.323 42.235 Q 102.143 49.655 102.311 50.103 Q 102.367 50.159 102.451 50.383 Q 102.535 50.607 102.815 51.055 Q 103.207 51.839 103.207 52.399 Q 103.207 53.183 102.591 53.183 Z M 95.199 31.455 Q 96.263 31.455 97.103 30.391 Q 97.943 29.327 98.447 27.647 Q 99.343 24.231 99.343 22.215 Q 99.343 20.927 99.203 20.087 Q 99.063 19.247 98.727 18.295 Q 98.055 16.335 95.535 16.335 Q 95.255 16.335 95.087 16.811 Q 94.919 17.287 94.919 17.791 Q 94.919 21.543 95.031 24.567 Q 95.087 27.591 95.087 31.343 L 95.199 31.455 Z M 113.503 52.231 Q 112.215 52.231 111.991 51.671 Q 111.711 51.671 111.543 51.727 L 111.095 51.727 Q 109.863 51.727 109.527 51.167 Q 109.527 50.775 109.975 50.495 L 110.255 50.215 L 111.879 50.215 L 112.103 49.991 L 112.215 49.487 L 112.271 48.815 Q 112.271 45.399 112.103 42.711 L 111.991 40.639 L 111.879 36.551 Q 111.879 34.367 112.047 29.999 L 112.159 23.503 Q 112.159 19.247 111.879 17.007 Q 111.375 16.839 110.199 16.839 L 109.583 16.895 Q 109.247 16.951 108.855 16.951 Q 107.791 16.951 107.791 15.999 Q 107.791 15.775 108.295 15.551 Q 108.799 15.327 109.135 15.327 Q 111.263 15.327 113.391 15.551 Q 114.679 15.607 115.967 16.055 Q 116.975 16.391 116.975 17.007 Q 116.975 17.119 116.807 17.455 L 115.519 17.567 Q 115.127 17.231 113.895 17.231 L 113.615 17.399 Q 113.783 17.903 113.783 20.367 Q 113.783 24.063 113.727 27.031 L 113.615 33.695 Q 113.615 36.215 113.839 39.799 Q 114.007 43.887 114.007 45.959 L 114.007 46.687 Q 113.951 47.079 113.951 47.695 Q 113.951 48.983 114.119 49.263 L 114.063 49.375 Q 114.063 49.935 115.295 49.935 Q 115.799 49.935 116.135 49.879 L 116.975 49.879 Q 118.599 49.879 118.599 50.663 Q 118.599 51.167 118.263 51.475 Q 117.927 51.783 117.367 51.783 Q 116.863 51.783 116.471 51.671 Q 116.023 51.615 115.519 51.615 Q 115.183 51.615 114.511 51.895 Q 113.839 52.231 113.503 52.231 Z M 131.359 52.623 Q 128.783 52.623 127.551 52.007 Q 126.319 51.391 125.731 49.627 Q 125.143 47.863 124.695 43.999 Q 124.023 38.343 124.023 35.207 Q 124.023 33.303 124.247 30.839 L 124.583 27.311 Q 124.863 23.111 125.227 20.955 Q 125.591 18.799 126.851 17.147 Q 128.111 15.495 130.743 15.215 Q 131.023 15.159 131.639 15.159 Q 133.375 15.159 133.375 15.943 Q 133.375 16.279 133.011 16.531 Q 132.647 16.783 132.255 16.783 L 131.695 16.727 L 131.191 16.671 Q 130.239 16.671 129.483 17.287 Q 128.727 17.903 128.223 19.079 Q 127.047 21.879 126.711 24.567 Q 126.263 28.095 126.151 30.727 L 126.095 35.039 Q 126.095 37.783 126.263 39.127 Q 126.655 39.743 126.795 41.003 Q 126.935 42.263 127.047 44.447 Q 127.159 46.407 127.551 47.779 Q 127.943 49.151 128.951 50.047 Q 130.071 50.999 132.031 50.999 Q 133.655 50.999 134.327 49.207 Q 135.111 47.303 135.223 45.287 Q 135.391 42.767 135.391 41.031 L 135.391 37.951 Q 134.831 37.391 133.431 37.391 L 132.983 37.391 Q 132.703 37.447 132.367 37.447 Q 131.023 37.447 131.023 36.775 Q 131.023 35.823 132.367 35.823 Q 133.319 35.823 133.935 35.879 L 135.167 35.935 Q 136.231 36.103 136.847 36.327 Q 137.519 36.551 137.519 36.943 Q 137.519 37.671 137.183 39.015 Q 136.903 40.583 136.903 41.143 Q 136.903 43.495 137.015 45.399 Q 137.071 47.359 137.071 49.711 Q 134.215 52.623 131.359 52.623 Z M 154.815 52.847 Q 154.815 52.287 153.135 52.287 Q 152.855 41.927 152.855 37.279 L 152.687 37.055 L 152.911 36.551 Q 152.911 35.543 152.687 34.479 L 151.847 34.255 Q 151.343 34.423 150.727 34.423 Q 150.279 34.423 148.879 34.143 Q 147.927 33.863 147.143 33.863 L 146.527 34.087 Q 146.527 36.047 146.471 37.615 Q 146.415 39.183 146.415 41.143 L 146.527 41.367 Q 146.527 42.935 146.695 46.071 Q 146.863 49.151 146.863 50.719 Q 146.863 51.335 146.639 51.755 Q 146.415 52.175 145.967 52.175 Q 144.735 52.175 144.735 48.815 Q 144.735 45.959 144.791 43.663 L 144.847 38.567 Q 144.847 33.471 144.679 33.079 Q 144.959 32.519 144.959 29.383 Q 144.959 26.695 144.735 22.831 L 144.623 20.647 L 144.511 16.279 Q 144.511 15.887 144.791 15.551 Q 145.071 15.215 145.463 15.215 Q 146.583 15.215 146.583 18.463 Q 146.583 22.271 146.527 25.351 Q 146.415 28.431 146.415 32.127 Q 146.415 32.799 150.671 32.799 L 150.895 32.799 Q 151.959 32.799 152.435 32.379 Q 152.911 31.959 152.911 30.951 Q 152.911 27.983 152.519 23.223 Q 152.183 18.071 152.183 15.495 Q 152.183 15.159 152.463 14.907 Q 152.743 14.655 153.135 14.655 L 153.639 14.823 Q 154.031 14.879 154.143 14.991 Q 154.143 19.359 154.479 28.039 Q 154.815 36.775 154.815 41.143 Q 154.815 47.751 155.207 52.231 L 154.815 52.847 Z M 151.287 32.015 L 151.399 32.127 L 151.287 32.127 Z M 167.743 51.447 L 167.687 49.375 Q 167.631 48.479 167.631 47.359 Q 167.631 46.799 167.687 46.407 L 167.743 45.399 Q 167.743 44.839 167.519 44.055 Q 167.519 40.303 166.959 30.111 Q 166.399 20.255 166.343 16.727 Q 162.871 16.727 161.695 16.559 Q 160.575 16.279 160.575 15.663 Q 160.855 15.047 161.639 15.047 Q 163.319 15.047 166.511 15.271 Q 169.423 15.551 171.383 15.551 L 172.559 15.551 L 173.735 15.495 Q 174.743 15.495 174.743 16.223 Q 174.743 16.559 174.379 16.755 Q 174.015 16.951 173.511 16.951 Q 172.391 16.951 171.159 16.839 L 168.751 16.727 Q 168.527 16.727 168.527 16.895 Q 168.471 17.063 168.471 17.959 Q 168.471 23.391 169.143 34.423 Q 169.759 45.847 169.759 50.831 Q 169.759 51.223 169.283 51.559 Q 168.807 51.895 168.359 51.895 Z" style="fill: rgb(35, 31, 32);"/>
</svg>