<?xml version="1.0" encoding="UTF-8" standalone="no"?>
<svg
   id="c"
   data-name="Layer 3"
   viewBox="0 0 326 97"
   version="1.1"
   width="326"
   height="97"
   xmlns="http://www.w3.org/2000/svg"
   xmlns:svg="http://www.w3.org/2000/svg">
  <defs
     id="defs4">
    <style
       id="style2">
      .g {
        fill: #044123;
      }

      .h {
        fill: #009b65;
      }

      .i {
        fill: #231f20;
      }
    </style>
  </defs>
  <path
     class="i"
     d="M 139.27278,62.272986 V 24.257198 h 4.39515 v 46.126427 h -3.65508 L 111.30089,30.630922 v 39.752703 h -4.39515 V 24.257198 h 5.12012 l 27.24692,38.000684 z"
     id="path6"
     style="stroke-width:1.51036" />
  <path
     class="i"
     d="m 152.66968,24.257198 h 4.75764 v 5.935719 h -4.75764 z m 4.6066,14.34843 v 31.777997 h -4.47067 V 38.620732 h 4.47067 z"
     id="path8"
     style="stroke-width:1.51036" />
  <path
     class="i"
     d="m 201.95275,37.744723 c 8.20126,0 11.20688,5.633646 11.20688,12.958897 v 19.695108 h -4.47067 V 50.552584 c 0,-5.633646 -2.56761,-9.303824 -7.83877,-9.303824 -4.75764,0 -9.00176,3.957146 -9.00176,10.104316 v 19.030549 h -4.47066 V 50.537481 c 0,-5.633647 -2.56762,-9.303824 -7.83878,-9.303824 -4.75763,0 -9.00174,3.957145 -9.00174,10.104315 v 19.030549 h -4.47067 V 38.620732 h 4.47067 v 5.860201 c 1.54056,-3.881628 5.34667,-6.73621 10.25534,-6.73621 5.63365,0 9.15279,2.779064 10.54232,7.023178 1.6765,-4.032664 5.63365,-7.023178 10.61784,-7.023178 z"
     id="path10"
     style="stroke-width:1.51036" />
  <path
     class="i"
     d="m 224.95555,70.398728 h -3.36811 v -46.14153 h 4.47067 v 21.386713 c 1.38953,-4.032664 5.55813,-7.914292 11.7204,-7.914292 9.43976,0 14.72602,7.400769 14.72602,16.765007 0,9.364239 -5.27116,16.765008 -14.72602,16.765008 -6.14717,0 -10.33087,-3.80611 -11.7204,-7.838774 l -1.10256,6.962765 z m 0.95153,-14.786434 c 0,7.612219 4.98419,12.00737 11.28239,12.00737 6.73621,0 10.61784,-5.044606 10.61784,-13.109934 0,-8.065328 -3.88163,-13.109934 -10.61784,-13.109934 -6.2982,0 -11.28239,4.395151 -11.28239,12.007371 z"
     id="path12"
     style="stroke-width:1.51036" />
  <path
     class="i"
     d="m 263.62079,24.257198 v 46.126427 h -4.47067 V 24.257198 Z"
     id="path14"
     style="stroke-width:1.51036" />
  <path
     class="i"
     d="m 300.95692,59.554336 c -1.54057,7.249733 -6.81173,11.720402 -14.57499,11.720402 -9.2283,0 -16.11555,-6.52476 -16.11555,-16.327003 0,-9.802243 6.81173,-17.203012 15.81348,-17.203012 9.95328,0 14.93747,7.174215 14.93747,15.81348 v 2.054091 h -26.14435 c 0.28697,7.023178 5.19564,12.00737 11.49385,12.00737 5.8602,0 9.43975,-2.930101 10.76887,-8.563747 l 3.80611,0.513523 z m -4.68212,-7.098697 c -0.15104,-5.860201 -3.44363,-11.206879 -10.17984,-11.206879 -6.2982,0 -10.39128,5.27116 -11.13136,11.206879 z"
     id="path16"
     style="stroke-width:1.51036" />
  <g
     id="d"
     data-name="Group 124"
     transform="matrix(1.510361,0,0,1.510361,12.124249,1.0734057)">
    <path
       id="e"
       data-name="Path 106"
       class="g"
       d="M 42.04,4 5.07,60 31.06,44.99 C 45.41,36.7 50.33,18.35 42.04,4 Z" />
    <path
       id="f"
       data-name="Path 107"
       class="h"
       d="M 5.07,60 42.04,4 16.05,19.01 C 1.7,27.29 -3.22,45.65 5.07,60 Z" />
  </g>
</svg>
