<svg id="Icon" xmlns="http://www.w3.org/2000/svg" width="64" height="64" viewBox="0 0 64 64">
  <g id="Rectangle_7" data-name="Rectangle 7" fill="#161617" stroke="#707070" stroke-width="1" opacity="0">
    <rect width="64" height="64" stroke="none"/>
    <rect x="0.5" y="0.5" width="63" height="63" fill="none"/>
  </g>
  <g id="Group_6" data-name="Group 6" transform="translate(-856.578 -422)">
    <path id="Path_9612" data-name="Path 9612" d="M906.312,427h1.92a3.312,3.312,0,0,1,1.988,3.444q-.061,23.555,0,47.111A3.312,3.312,0,0,1,908.232,481h-2.64c-1.509-.1-3.017-.211-4.528-.282q-14.668-.687-29.337-1.352c-2.212-.1-3.057-.94-3.139-3.176-.172-4.712-.361-9.423-.539-14.134q-.56-14.795-1.108-29.59c-.073-2.03.909-2.976,2.94-3.1,7.018-.437,14.033-.9,21.05-1.351,2.695-.172,5.39-.32,8.085-.479v6.793l2.925-2.1c.393.294.725.582,1.1.807.42.255.875.453,1.314.676a10.963,10.963,0,0,0,.214-1.461c.027-1.658.01-3.317.01-4.945Zm-17.231,9.727c-.464.032-1.184.06-1.9.134-5.45.566-8.871,4.326-8.821,9.648.034,3.674,1.923,6.261,4.84,8.193,1.861,1.232,3.86,2.257,5.721,3.489a10.086,10.086,0,0,1,2.439,2.243,2.737,2.737,0,0,1,.1,3.168c-.622,1.038-1.683.937-2.686.84a2.021,2.021,0,0,1-1.861-1.616,9.663,9.663,0,0,1-.286-2.481c.014-.737-.327-1.092-.94-1.107-2.225-.056-4.453-.079-6.677-.017a1.284,1.284,0,0,0-.923.84c-.248,4.279.935,8.933,6.411,10.614a16.267,16.267,0,0,0,9.1.194c5.9-1.572,8.723-7.164,6.471-12.722a11.514,11.514,0,0,0-5.154-5.491c-1.68-1-3.452-1.849-5.1-2.9a8.785,8.785,0,0,1-2.357-2.145,2.5,2.5,0,0,1,.027-2.94,2.556,2.556,0,0,1,2.7-.862c1.117.13,1.609.947,1.858,1.934a3.322,3.322,0,0,1,.126,1.182c-.137,1.113.414,1.59,1.426,1.54q2.98-.148,5.951-.441c.277-.028.736-.468.734-.713-.036-3.645-1.013-6.878-4.288-8.973A12.5,12.5,0,0,0,889.081,436.727Z" fill="#161617"/>
  </g>
</svg>
