<svg id="Layer_1" data-name="Layer 1" xmlns="http://www.w3.org/2000/svg" viewBox="0 0 40 40"><title>SkylineIcons</title><path class="cls-1" d="M34.52,33.65c-3,0-4.57-15.94-4.57-15.94v-.06c0-1.52-.76-1.52-.76-1.52H29c-.23-.12-.56-.45-.56-1.46V13.14C28.11,10.5,25.55,9,21.64,8.65h1.11l.32-.32a1.09,1.09,0,0,0,0-1.53l-.32-.32H21.67V4.91A2.7,2.7,0,1,0,17.41,2.7a2.65,2.65,0,0,0,1,2.09V6.48H17.35L17,6.8a1.09,1.09,0,0,0,0,1.53l.32.32h1.11C14.54,9,12,10.5,11.67,13.14v1.53c0,1-.33,1.34-.56,1.46h-.2s-.77,0-.77,1.58c0,0-1.52,15.94-4.37,15.94h-.2C4.05,33.65,4.05,36,4.05,36h32S36.05,33.65,34.52,33.65ZM20.05,4.32A1.62,1.62,0,1,1,21.67,2.7,1.61,1.61,0,0,1,20.05,4.32Z"/><path class="cls-1" d="M16.19,37a4,4,0,0,0,7.72,0Z"/></svg>