<?xml version="1.0" encoding="iso-8859-1"?>
<!-- Generator: Adobe Illustrator 22.1.0, SVG Export Plug-In . SVG Version: 6.00 Build 0)  -->
<svg version="1.1" id="Layer_1" xmlns="http://www.w3.org/2000/svg" xmlns:xlink="http://www.w3.org/1999/xlink" x="0px" y="0px"
	 viewBox="0 0 16 16" style="enable-background:new 0 0 16 16;" xml:space="preserve">
<path style="opacity:0.7;" d="M15.335,12.982H0.832c0,0,0-1.065,0.691-1.065h0.008h0.081c1.292,0,1.983-7.152,1.983-7.152
	c0-0.72,0.345-0.72,0.345-0.72h0.093c0.103-0.052,0.253-0.204,0.253-0.662V2.693C4.43,1.49,5.601,0.791,7.393,0.651V0.276
	C7.393,0.16,7.517,0.062,7.695,0h0.777C8.65,0.062,8.774,0.16,8.774,0.276v0.375c1.791,0.14,2.963,0.839,3.108,2.042v0.691
	c0,0.457,0.15,0.609,0.253,0.662h0.093c0,0,0.345,0,0.345,0.691v0.029c0,0,0.691,7.152,2.072,7.152
	C15.335,11.917,15.335,12.982,15.335,12.982z M5.848,14c0.056,1.113,0.968,2,2.095,2s2.039-0.887,2.095-2H5.848z"/>
</svg>
