<?xml version="1.0" encoding="iso-8859-1"?>
<!-- Generator: Adobe Illustrator 22.1.0, SVG Export Plug-In . SVG Version: 6.00 Build 0)  -->
<svg version="1.1" id="Layer_1" xmlns="http://www.w3.org/2000/svg" xmlns:xlink="http://www.w3.org/1999/xlink" x="0px" y="0px"
	 viewBox="0 0 40 40" style="enable-background:new 0 0 40 40;" xml:space="preserve">
<path style="fill:#4C4C4C;" d="M37,16v8c0,1.105-0.895,2-2,2h-5l-7,4l1-4h-1c-1.105,0-2-0.895-2-2v-8c0-1.105,0.895-2,2-2h12
	C36.105,14,37,14.895,37,16z M35.282,36H25.233h-1.952h-8h-3.048H3.282c0,0,0-2.35,1.524-2.35h0.018h0.178
	c2.851,0,4.375-15.936,4.375-15.936c0-1.588,0.762-1.588,0.762-1.588h0.204c0.227-0.116,0.558-0.451,0.558-1.46v-1.524
	c0.318-2.639,2.877-4.176,6.79-4.498H16.58l-0.317-0.317c-0.422-0.422-0.422-1.106,0-1.528l0.317-0.317h1.081V4.795
	c-0.613-0.495-1.013-1.244-1.013-2.093C16.648,1.21,17.857,0,19.349,0c1.492,0,2.702,1.21,2.702,2.702
	c0,0.912-0.455,1.716-1.148,2.205v1.577h1.081L22.3,6.8c0.422,0.422,0.422,1.106,0,1.528l-0.317,0.317h-1.111
	c3.304,0.272,5.624,1.419,6.464,3.355h-4.42c-2.206,0-4,1.794-4,4v8c0,1.679,1.041,3.121,2.51,3.712l-1.587,6.35L30.448,28h0.375
	c0.732,3.077,1.71,5.65,2.935,5.65C35.282,33.65,35.282,36,35.282,36z M19.282,4.323c0.895,0,1.621-0.726,1.621-1.621
	c0-0.895-0.726-1.621-1.621-1.621s-1.621,0.726-1.621,1.621C17.661,3.597,18.387,4.323,19.282,4.323z M19.282,40
	c1.862,0,3.413-1.278,3.859-3h-7.717C15.869,38.722,17.42,40,19.282,40z"/>
</svg>
