<?xml version="1.0" encoding="iso-8859-1"?>
<!-- Generator: Adobe Illustrator 22.0.1, SVG Export Plug-In . SVG Version: 6.00 Build 0)  -->
<svg version="1.1" id="Layer_1" xmlns="http://www.w3.org/2000/svg" xmlns:xlink="http://www.w3.org/1999/xlink" x="0px" y="0px"
	 viewBox="0 0 16 16" style="enable-background:new 0 0 16 16;" xml:space="preserve">
<path style="fill:#C42126;" d="M7.913,1c-3.866,0-7,3.134-7,7c0,3.866,3.134,7,7,7s7-3.134,7-7C14.913,4.134,11.779,1,7.913,1z M8,3
	c2.761,0,5,2.239,5,5c0,1.019-0.308,1.964-0.832,2.754L5.246,3.832C6.036,3.308,6.981,3,8,3z M3,8c0-1.019,0.308-1.964,0.832-2.754
	l6.923,6.923C9.964,12.692,9.019,13,8,13C5.239,13,3,10.761,3,8z"/>
</svg>
