<?xml version="1.0" encoding="iso-8859-1"?>
<!-- Generator: Adobe Illustrator 22.0.1, SVG Export Plug-In . SVG Version: 6.00 Build 0)  -->
<svg version="1.1" id="Layer_1" xmlns="http://www.w3.org/2000/svg" xmlns:xlink="http://www.w3.org/1999/xlink" x="0px" y="0px"
	 viewBox="0 0 16 16" style="enable-background:new 0 0 16 16;" xml:space="preserve">
<g style="opacity:0.7;">
	<path style="fill:#FFFFFF;" d="M14.038,4.151c0,0.709-0.104,1.336-0.311,1.881s-0.5,1.017-0.879,1.417s-0.834,0.759-1.363,1.075
		c-0.531,0.316-1.128,0.605-1.795,0.863v2.403H5.985V8.239c0.498-0.133,0.949-0.269,1.353-0.41c0.403-0.14,0.826-0.371,1.268-0.686
		c0.414-0.281,0.738-0.608,0.973-0.98C9.814,5.79,9.932,5.368,9.932,4.898c0-0.702-0.227-1.204-0.679-1.502
		C8.8,3.097,8.164,2.947,7.343,2.947c-0.505,0-1.076,0.109-1.71,0.326C4.997,3.491,4.417,3.772,3.89,4.116H3.469V0.905
		C3.918,0.716,4.61,0.518,5.543,0.31C6.476,0.104,7.424,0,8.385,0c1.733,0,3.109,0.383,4.126,1.148
		C13.529,1.914,14.038,2.915,14.038,4.151z M9.985,16H5.732v-2.779h4.253V16z"/>
</g>
</svg>
