<?xml version="1.0" encoding="iso-8859-1"?>
<!-- Generator: Adobe Illustrator 22.0.1, SVG Export Plug-In . SVG Version: 6.00 Build 0)  -->
<svg version="1.1" id="Layer_1" xmlns="http://www.w3.org/2000/svg" xmlns:xlink="http://www.w3.org/1999/xlink" x="0px" y="0px"
	 viewBox="0 0 16 16" style="enable-background:new 0 0 16 16;" xml:space="preserve">
<path style="fill:#18A8C9;" d="M8.029-0.001c-4.418,0-8,3.582-8,8s3.582,8,8,8s8-3.582,8-8S12.447-0.001,8.029-0.001z M7.146,3.147
	C7.383,2.908,7.67,2.788,8.006,2.788c0.341,0,0.629,0.12,0.864,0.359c0.235,0.24,0.353,0.527,0.353,0.862S9.105,4.63,8.867,4.867
	C8.629,5.104,8.342,5.223,8.006,5.223c-0.331,0-0.617-0.119-0.857-0.359c-0.24-0.24-0.36-0.525-0.36-0.855
	C6.789,3.674,6.908,3.387,7.146,3.147z M10.21,13.012H5.864v-1.615h1.065V7.615H5.864V6h3.303v5.396h1.043V13.012z"/>
</svg>
