<svg id="Layer_1" data-name="Layer 1" xmlns="http://www.w3.org/2000/svg" viewBox="0 0 40 40"><title>SkylineIcons</title><path class="cls-1" d="M34,5l2,1V14l-2,1Zm0,20,2-1V17l-2-1Zm0,11,2-1V27l-2-1ZM28,19H17v1H28Zm0-3H17v1H28ZM33,6V34a2,2,0,0,1-2,2H12V4H31A2,2,0,0,1,33,6Zm-4,8H16v8H29ZM7.33,7H4.67C4.3,7,4,7.22,4,7.5s.3.5.67.5H7.33C7.7,8,8,7.78,8,7.5S7.7,7,7.33,7Zm0,5H4.67c-.37,0-.67.22-.67.5s.3.5.67.5H7.33c.37,0,.67-.22.67-.5S7.7,12,7.33,12Zm0,5H4.67c-.37,0-.67.22-.67.5s.3.5.67.5H7.33c.37,0,.67-.22.67-.5S7.7,17,7.33,17Zm0,5H4.67c-.37,0-.67.22-.67.5s.3.5.67.5H7.33c.37,0,.67-.22.67-.5S7.7,22,7.33,22Zm0,5H4.67c-.37,0-.67.22-.67.5s.3.5.67.5H7.33c.37,0,.67-.22.67-.5S7.7,27,7.33,27ZM6,4V6H7.33A1.57,1.57,0,0,1,9,7.5,1.57,1.57,0,0,1,7.33,9H6v2H7.33A1.57,1.57,0,0,1,9,12.5,1.57,1.57,0,0,1,7.33,14H6v2H7.33a1.51,1.51,0,1,1,0,3H6v2H7.33a1.51,1.51,0,1,1,0,3H6v2H7.33a1.51,1.51,0,1,1,0,3H6v2H7.33a1.51,1.51,0,1,1,0,3H6v2h5V4ZM7.33,32H4.67c-.37,0-.67.22-.67.5s.3.5.67.5H7.33c.37,0,.67-.22.67-.5S7.7,32,7.33,32Z"/></svg>