<?xml version="1.0" encoding="iso-8859-1"?>
<!-- Generator: Adobe Illustrator 22.1.0, SVG Export Plug-In . SVG Version: 6.00 Build 0)  -->
<svg version="1.1" id="Layer_1" xmlns="http://www.w3.org/2000/svg" xmlns:xlink="http://www.w3.org/1999/xlink" x="0px" y="0px"
	 viewBox="0 0 40 40" style="enable-background:new 0 0 40 40;" xml:space="preserve">
<path style="opacity:0.7;" d="M13.564,32.264c-1.743-0.172-3.323-0.435-4.691-0.764c-0.354-0.084-0.687-0.172-1.01-0.264
	c-0.309-0.088-0.608-0.176-0.887-0.273c-2.457-0.823-3.884-1.867-3.884-2.861v-2.756c0.032,0.032,0.084,0.058,0.122,0.092
	c0.266,0.226,0.563,0.449,0.909,0.653c0.03,0.017,0.052,0.034,0.082,0.052c0.374,0.217,0.803,0.419,1.259,0.608
	c0.011,0.006,0.017,0.011,0.026,0.013c0.09,0.036,0.185,0.075,0.275,0.114c0.144,0.054,0.303,0.099,0.449,0.15
	c0.253,0.092,0.509,0.185,0.773,0.268c0.092,0.03,0.176,0.067,0.275,0.094c0.047,0.015,0.105,0.028,0.159,0.043
	c0.503,0.148,1.033,0.277,1.585,0.4c0.12,0.026,0.232,0.049,0.357,0.079c0.586,0.122,1.199,0.23,1.824,0.327
	c0.12,0.019,0.245,0.034,0.365,0.052c0.578,0.084,1.164,0.155,1.768,0.217c0.038,0.003,0.073,0.009,0.109,0.013l-1.803,1.805
	L13.564,32.264z M6.978,9.485C7.262,9.582,7.556,9.672,7.87,9.76c0.32,0.09,0.655,0.178,1.007,0.262
	c2.483,0.597,5.636,0.984,9.247,0.984c3.613,0,6.771-0.387,9.254-0.984c0.352-0.084,0.687-0.172,1.01-0.264
	c0.311-0.086,0.606-0.176,0.891-0.273c2.457-0.821,3.888-1.869,3.888-2.861c0-2.073-6.178-4.38-15.043-4.38
	c-8.858,0-15.03,2.307-15.03,4.38C3.095,7.616,4.525,8.664,6.978,9.485z M21.832,28.6l0.022,0.022l0.025-0.025
	C21.863,28.598,21.847,28.599,21.832,28.6z M6.976,16.623c0.279,0.097,0.578,0.185,0.887,0.273c0.322,0.092,0.655,0.18,1.01,0.264
	c2.481,0.597,5.636,0.986,9.249,0.986c3.617,0,6.775-0.389,9.258-0.986c0.352-0.084,0.687-0.172,1.01-0.264
	c0.307-0.088,0.606-0.176,0.887-0.271c2.457-0.825,3.888-1.871,3.888-2.863v-2.756c-0.039,0.034-0.09,0.06-0.127,0.092
	c-0.268,0.226-0.561,0.445-0.904,0.649c-0.028,0.017-0.054,0.039-0.088,0.056c-0.374,0.217-0.799,0.417-1.252,0.608
	c-0.011,0.004-0.019,0.011-0.032,0.013c-0.09,0.041-0.185,0.077-0.279,0.114c-0.14,0.052-0.299,0.099-0.44,0.15
	c-0.258,0.092-0.507,0.185-0.775,0.268c-0.095,0.03-0.176,0.067-0.271,0.092c-0.054,0.017-0.116,0.03-0.172,0.049
	c-0.505,0.142-1.031,0.273-1.579,0.393c-0.12,0.026-0.236,0.054-0.361,0.079c-0.586,0.125-1.192,0.234-1.817,0.331
	c-0.122,0.017-0.247,0.032-0.367,0.049c-0.582,0.084-1.173,0.157-1.776,0.217c-0.092,0.011-0.185,0.021-0.279,0.032
	c-0.664,0.062-1.336,0.11-2.008,0.144c-0.15,0.006-0.299,0.013-0.449,0.021c-0.692,0.028-1.379,0.047-2.064,0.047
	c-0.683,0-1.375-0.019-2.062-0.047c-0.15-0.009-0.301-0.015-0.453-0.021c-0.668-0.034-1.34-0.082-2.002-0.144
	c-0.092-0.011-0.187-0.021-0.286-0.032c-0.604-0.062-1.19-0.133-1.768-0.217c-0.12-0.017-0.245-0.032-0.365-0.049
	c-0.625-0.097-1.237-0.206-1.824-0.331c-0.125-0.026-0.236-0.054-0.357-0.079c-0.552-0.12-1.083-0.251-1.585-0.395
	c-0.054-0.017-0.112-0.03-0.159-0.045c-0.099-0.028-0.183-0.064-0.275-0.094c-0.264-0.084-0.52-0.176-0.773-0.268
	c-0.146-0.052-0.305-0.099-0.449-0.153c-0.09-0.036-0.185-0.073-0.275-0.112c-0.009-0.002-0.015-0.006-0.026-0.013
	c-0.455-0.191-0.885-0.391-1.259-0.608c-0.03-0.017-0.052-0.034-0.082-0.052c-0.346-0.204-0.642-0.427-0.909-0.655
	c-0.039-0.032-0.09-0.058-0.122-0.09v2.756C3.093,14.754,4.519,15.8,6.976,16.623z M6.976,23.793
	c0.279,0.097,0.578,0.185,0.887,0.273c0.322,0.092,0.655,0.18,1.01,0.264c2.139,0.515,4.78,0.873,7.782,0.963l0.934-0.935
	l0.952,0.953c2.731-0.023,5.187-0.267,7.278-0.654l5.159-5.158c-0.063,0.027-0.121,0.056-0.185,0.083
	c-0.011,0.004-0.019,0.011-0.032,0.013c-0.09,0.041-0.185,0.077-0.279,0.114c-0.14,0.052-0.299,0.101-0.44,0.15
	c-0.258,0.092-0.507,0.185-0.775,0.268c-0.095,0.03-0.176,0.064-0.271,0.092c-0.054,0.017-0.116,0.03-0.172,0.049
	c-0.505,0.142-1.031,0.275-1.579,0.393c-0.12,0.028-0.236,0.054-0.361,0.079c-0.586,0.125-1.192,0.234-1.817,0.329
	c-0.122,0.019-0.247,0.034-0.367,0.052c-0.582,0.084-1.173,0.157-1.776,0.217c-0.092,0.011-0.185,0.021-0.279,0.032
	c-0.664,0.06-1.336,0.11-2.008,0.144c-0.15,0.006-0.299,0.013-0.449,0.019c-0.692,0.03-1.379,0.049-2.064,0.049
	c-0.683,0-1.375-0.019-2.062-0.049c-0.15-0.009-0.301-0.013-0.453-0.019c-0.668-0.034-1.34-0.084-2.002-0.144
	c-0.092-0.011-0.187-0.021-0.286-0.032c-0.604-0.062-1.19-0.133-1.768-0.217c-0.12-0.017-0.245-0.032-0.365-0.052
	c-0.625-0.095-1.237-0.204-1.824-0.329c-0.125-0.026-0.236-0.052-0.357-0.079c-0.552-0.118-1.083-0.251-1.585-0.397
	c-0.054-0.015-0.112-0.028-0.159-0.043c-0.099-0.03-0.183-0.064-0.275-0.094c-0.264-0.084-0.52-0.176-0.773-0.268
	c-0.146-0.049-0.305-0.099-0.449-0.153c-0.09-0.036-0.185-0.073-0.275-0.112c-0.009-0.002-0.015-0.006-0.026-0.013
	c-0.455-0.191-0.885-0.391-1.259-0.608c-0.03-0.017-0.052-0.034-0.082-0.052c-0.346-0.204-0.642-0.427-0.909-0.655
	c-0.039-0.032-0.09-0.058-0.122-0.09v2.756C3.093,21.924,4.519,22.97,6.976,23.793z M34.257,19.084L21.854,31.487l-4.264-4.264
	l-3.1,3.102l7.236,7.236l15.503-15.505L34.257,19.084z"/>
</svg>
