<?xml version="1.0" encoding="iso-8859-1"?>
<!-- Generator: Adobe Illustrator 22.1.0, SVG Export Plug-In . SVG Version: 6.00 Build 0)  -->
<svg version="1.1" id="Layer_1" xmlns="http://www.w3.org/2000/svg" xmlns:xlink="http://www.w3.org/1999/xlink" x="0px" y="0px"
	 viewBox="0 0 16 16" style="enable-background:new 0 0 16 16;" xml:space="preserve">
<path style="opacity:0.7;" d="M10.361,12.769c-2.111,0-2.77-1.683-3.351-3.167L6.783,9.034C6.67,8.737,6.578,8.478,6.494,8.24
	c-0.426-1.199-0.548-1.394-0.87-1.394c-0.321,0-0.411,0.087-0.816,1.173C4.691,8.335,4.557,8.691,4.386,9.087L4.254,9.404
	c-0.648,1.571-1.383,3.351-3.662,3.351H0v-2.658h0.592c0.424,0,0.64-0.421,1.199-1.722l0.177-0.41
	c0.082-0.197,0.162-0.405,0.242-0.61C2.79,5.868,3.447,4.181,5.624,4.181c2.12,0,2.751,1.699,3.307,3.197l0.223,0.59
	c0.11,0.273,0.207,0.529,0.296,0.763c0.459,1.207,0.569,1.374,0.911,1.374c0.345,0,0.545-0.422,0.99-1.542
	c0.107-0.268,0.223-0.559,0.355-0.869l0.129-0.304c0.635-1.503,1.355-3.206,3.558-3.216l0.591-0.002L16,6.846h-0.596
	c-0.489,0-0.675,0.326-1.326,1.849c0,0-0.238,0.579-0.318,0.779C13.183,10.942,12.464,12.769,10.361,12.769z"/>
</svg>
