<?xml version="1.0" encoding="iso-8859-1"?>
<!-- Generator: Adobe Illustrator 22.1.0, SVG Export Plug-In . SVG Version: 6.00 Build 0)  -->
<svg version="1.1" id="Layer_1" xmlns="http://www.w3.org/2000/svg" xmlns:xlink="http://www.w3.org/1999/xlink" x="0px" y="0px"
	 viewBox="0 0 16 16" style="enable-background:new 0 0 16 16;" xml:space="preserve">
<path style="opacity:0.7;" d="M13.012,1.586l-1.61,0.297c-0.552,0.042-0.933,0.083-1.187,0.083C8.901,2.051,7.904,2.263,7.226,2.56
	C6.548,2.877,5.955,3.386,5.469,4.108C5.002,4.764,4.726,5.59,4.62,6.587l1.569-0.764C6.189,4.806,6.486,4,7.078,3.45
	C7.672,2.9,8.541,2.603,9.643,2.603c0.423,0,0.911,0.042,1.503,0.106L7.715,8.622c-0.976,1.652-1.802,2.819-2.48,3.455
	c-0.677,0.656-1.42,0.973-2.183,0.973c-0.826,0-1.483-0.38-1.971-1.165L0,12.966c0.721,0.656,1.569,0.975,2.543,0.975
	c1.017,0,1.908-0.297,2.67-0.869c0.742-0.573,1.526-1.59,2.373-3.052h4.345l0.318,3.92l3.645-0.615L16,12.817
	c-0.529,0.044-0.847,0.044-0.932,0.044c-0.509,0-0.847-0.191-1.039-0.614c-0.212-0.403-0.361-1.251-0.446-2.523l-0.466-5.489
	L13.012,1.586z M7.926,9.426l3.432-5.955l0.509,5.955H7.926z"/>
</svg>
