<?xml version="1.0" encoding="iso-8859-1"?>
<!-- Generator: Adobe Illustrator 22.1.0, SVG Export Plug-In . SVG Version: 6.00 Build 0)  -->
<svg version="1.1" id="Layer_1" xmlns="http://www.w3.org/2000/svg" xmlns:xlink="http://www.w3.org/1999/xlink" x="0px" y="0px"
	 viewBox="0 0 16 16" style="enable-background:new 0 0 16 16;" xml:space="preserve">
<path style="opacity:0.7;" d="M7.999,1.001C4.134,1.001,1,4.134,1,8.001C1,11.866,4.134,15,7.999,15
	c3.866,0,6.999-3.134,6.999-6.999C14.999,4.134,11.866,1.001,7.999,1.001 M8.459,6.613c0.219-0.219,1.66-1.663,1.811-1.815
	c0.163-0.163,0.712-0.297,0.978-0.297c0,0.179-0.119,0.713-0.267,0.921c-0.135,0.19-1.58,1.642-1.831,1.894
	c0.09,0.192,0.141,0.406,0.141,0.632c0,0.225-0.051,0.44-0.141,0.632l2.543,2.548c0,0,0.623,0.654,0.534,1.248
	c-0.415,0-0.831-0.119-1.424-0.714C10.273,11.131,8.769,9.6,8.458,9.283c-0.196,0.096-0.417,0.15-0.65,0.15
	c-0.819,0-1.483-0.665-1.483-1.485c0-0.821,0.663-1.486,1.483-1.486C8.042,6.462,8.263,6.516,8.459,6.613"/>
</svg>
