<?xml version="1.0" encoding="iso-8859-1"?>
<!-- Generator: Adobe Illustrator 22.1.0, SVG Export Plug-In . SVG Version: 6.00 Build 0)  -->
<svg version="1.1" id="Layer_1" xmlns="http://www.w3.org/2000/svg" xmlns:xlink="http://www.w3.org/1999/xlink" x="0px" y="0px"
	 viewBox="0 0 40 40" style="enable-background:new 0 0 40 40;" xml:space="preserve">
<path style="opacity:0.7;" d="M1,1v38h38V1H1z M5,5h9v10H5V5z M35,35H5v-3.568c2.032-0.987,3.282-3.111,4.414-5.053
	C11.006,23.655,12.119,22,14.17,22s3.164,1.655,4.756,4.38C20.461,29.014,22.205,32,25.84,32c3.633,0,5.374-2.986,6.909-5.62
	c0.811-1.392,1.5-2.499,2.251-3.254V35z M35,20.069c-2.029,0.988-3.278,3.111-4.409,5.052c-1.589,2.726-2.703,4.38-4.751,4.38
	c-2.051,0-3.164-1.655-4.756-4.38c-1.536-2.634-3.279-5.62-6.914-5.62s-5.378,2.986-6.914,5.62C6.442,26.513,5.753,27.62,5,28.376
	V17h30V20.069z M35,15H16V5h19V15z"/>
</svg>
