<svg id="Layer_1" data-name="Layer 1" xmlns="http://www.w3.org/2000/svg" viewBox="0 0 40 40"><title>SkylineIcons</title><path class="cls-1" d="M20.33,18.13l3-3a3.11,3.11,0,0,1,1.59-.48,3.64,3.64,0,0,1-.44,1.5c-.21.31-2.56,2.67-3,3.08a2.4,2.4,0,0,1,0,2.05l4.13,4.15a3,3,0,0,1,.87,2,3.09,3.09,0,0,1-2.31-1.16c-.87-.87-3.31-3.36-3.82-3.87a2.49,2.49,0,0,1-1,.24,2.42,2.42,0,1,1,0-4.83,2.35,2.35,0,0,1,1,.25m17.55,7.06.62-7.27-4.09-.35a14.73,14.73,0,0,0-1.24-3.89L36.31,11l-4.7-5.58L28.46,8.1A13.36,13.36,0,0,0,26.73,7a13.83,13.83,0,0,0-1.89-.82l.35-4.1L17.92,1.5l-.35,4.1a14.71,14.71,0,0,0-3.89,1.23L11,3.69,5.45,8.4l2.64,3.14a14.61,14.61,0,0,0-1.87,3.62l-4.1-.35L1.5,22.08l4.1.36a14.64,14.64,0,0,0,1.23,3.88L3.69,29l4.7,5.59,3.15-2.65a15,15,0,0,0,3.62,1.87l-.35,4.1,7.27.62.36-4.1a14.29,14.29,0,0,0,3.88-1.23L29,36.31l5.59-4.7-2.65-3.15a14.28,14.28,0,0,0,1.87-3.62ZM20,30.64A10.64,10.64,0,1,1,30.64,20,10.65,10.65,0,0,1,20,30.64Z"/></svg>