<?xml version="1.0" encoding="iso-8859-1"?>
<!-- Generator: Adobe Illustrator 22.1.0, SVG Export Plug-In . SVG Version: 6.00 Build 0)  -->
<svg version="1.1" id="Layer_1" xmlns="http://www.w3.org/2000/svg" xmlns:xlink="http://www.w3.org/1999/xlink" x="0px" y="0px"
	 viewBox="0 0 40 40" style="enable-background:new 0 0 40 40;" xml:space="preserve">
<path style="opacity:0.7;" d="M34.643,23.314c-0.579,0-1.129,0.118-1.633,0.324c0.355-1.131,0.548-2.333,0.548-3.581
	c0-6.596-5.347-11.943-11.943-11.943c-5.931,0-10.839,4.329-11.771,9.996c-0.561-0.142-1.146-0.225-1.752-0.225
	c-3.925,0-7.107,3.16-7.107,7.057c0,3.699,2.867,6.728,6.514,7.027V32h27.143c2.398,0,4.343-1.944,4.343-4.343
	S37.041,23.314,34.643,23.314z M19.721,30l1.333-2.667l-0.01-0.01c-3.953-0.111-7.125-3.343-7.125-7.323
	c0-1.737,0.608-3.33,1.617-4.586l1.235,0.618c-0.94,1.059-1.518,2.445-1.518,3.969c0,3.24,2.583,5.881,5.797,5.99l-1.328-2.656
	l6.667,3.337L19.721,30z M26.957,24.601l-1.235-0.618c0.947-1.06,1.53-2.452,1.53-3.983c0-3.254-2.606-5.906-5.84-5.992l1.329,2.659
	l-6.667-3.337L22.742,10l-1.333,2.667l0.008,0.008c3.973,0.088,7.169,3.331,7.169,7.325C28.586,21.744,27.973,23.342,26.957,24.601z
	"/>
</svg>
