<svg id="Layer_1" data-name="Layer 1" xmlns="http://www.w3.org/2000/svg" viewBox="0 0 40 40"><title>SkylineIcons</title><path class="cls-1" d="M28.05,36.15h-.14V34.64H26.66a7.67,7.67,0,0,0,1.1-3.88c0-5.63-6.43-8.9-6.43-11.26s6.43-5.63,6.43-11.26a7.67,7.67,0,0,0-1.1-3.88h1.25V2.85h.14A1.72,1.72,0,0,0,29.59,1H9.41A1.72,1.72,0,0,0,11,2.85h.14V4.36h1.25a7.67,7.67,0,0,0-1.1,3.88c0,5.63,6.43,8.85,6.43,11.26s-6.43,5.63-6.43,11.26a7.67,7.67,0,0,0,1.1,3.88H11.09v1.51H11A1.72,1.72,0,0,0,9.41,38H29.59A1.72,1.72,0,0,0,28.05,36.15ZM19.5,34.78c-4.83,0-6.09-1.8-6.09-4,0,0,4-2,5.31-2,.83,0,.89-10.83,0-11.65l-3-3.09h7.56l-3,3.09c-.83.88-.85,11.65,0,11.65,1.28,0,5.36,2,5.36,2C25.64,33,24.38,34.78,19.5,34.78Z"/></svg>