<?xml version="1.0" encoding="iso-8859-1"?>
<!-- Generator: Adobe Illustrator 22.0.1, SVG Export Plug-In . SVG Version: 6.00 Build 0)  -->
<svg version="1.1" id="Layer_1" xmlns="http://www.w3.org/2000/svg" xmlns:xlink="http://www.w3.org/1999/xlink" x="0px" y="0px"
	 viewBox="0 0 40 40" style="enable-background:new 0 0 40 40;" xml:space="preserve">
<path style="opacity:0.7;" d="M36.652,17.016c1.602,0,2.836,1.044,3.348,1.491v-5.664c-1.026-0.417-2.157-0.651-3.348-0.651
	c-3.188,0-5.96,1.658-7.372,4.099c-0.225-1.23-0.888-2.294-2.095-3.011c-0.027-0.015-0.054-0.032-0.08-0.046
	c-0.345-0.196-0.734-0.365-1.168-0.502c-0.116-0.035-0.232-0.066-0.352-0.094c-0.836-0.196-1.715-0.285-2.576-0.287
	c-0.564-0.001-1.126-0.001-1.689-0.003c-1.656-0.003-3.311-0.006-4.965-0.007c0,0,0.001,2.45,0.001,5.365
	c-1.061-3.167-4.237-5.465-7.989-5.465C3.746,12.24,0,15.724,0,20.024c0,4.299,3.746,7.784,8.368,7.784
	c3.753,0,6.929-2.301,7.99-5.468c0,2.714,0,4.916-0.003,4.916v0.3h5.386v-4.609c0.482,0,0.951,0.007,1.412,0.011h1.93
	c1.348,0,2.55-0.623,3.335-1.595c0.702,3.638,4.121,6.397,8.234,6.397c1.191,0,2.322-0.232,3.348-0.65v-5.493
	c-0.568,0.527-1.439,1.36-3.348,1.36c-1.609,0-2.912-1.365-2.912-3.001C33.74,18.342,35.043,17.016,36.652,17.016z M8.368,22.984
	c-1.609,0-2.912-1.326-2.912-2.96c0-1.636,1.303-2.962,2.912-2.962c1.608,0,2.912,1.326,2.912,2.962
	C11.28,21.658,9.975,22.984,8.368,22.984z M24.061,18.426c-0.247,0.485-0.626,0.647-1.058,0.699h-1.258v-2.607h1.244
	c0.387,0.037,0.743,0.161,1.01,0.547C24.225,17.388,24.245,18.063,24.061,18.426z"/>
</svg>
