<svg id="Layer_1" data-name="Layer 1" xmlns="http://www.w3.org/2000/svg" viewBox="0 0 40 40"><title>SkylineIcons</title><path class="cls-1" d="M4.71,7.69A9.51,9.51,0,0,0,3.46,10.1L.73,9.86.32,14.71,3,14.94a9.93,9.93,0,0,0,.83,2.59l-2.1,1.76L4.91,23,7,21.25a10.37,10.37,0,0,0,1.15.7,11.72,11.72,0,0,0,1.26.55l-.23,2.73,4.84.41.24-2.73a9.48,9.48,0,0,0,2.58-.82l1.77,2.09,3.72-3.13L20.56,19a9.51,9.51,0,0,0,1.25-2.41l2.73.24L25,11.93l-2.72-.23a9.93,9.93,0,0,0-.83-2.59l2.1-1.76L20.36,3.63,18.27,5.39a10.37,10.37,0,0,0-1.15-.7,11.72,11.72,0,0,0-1.26-.55l.23-2.72L11.25,1,11,3.73a9.59,9.59,0,0,0-2.58.82L6.66,2.46,2.94,5.59Zm12.23,9.93a6.09,6.09,0,0,1-4.82,1.76,6,6,0,0,1-2.29-.66A6.08,6.08,0,0,1,13.15,7.26a6,6,0,0,1,2.29.66,6.1,6.1,0,0,1,1.5,9.7m-6-6a2.49,2.49,0,0,0-.71,1.51,2.46,2.46,0,0,0,1.3,2.37,2.57,2.57,0,0,0,.92.26,2.42,2.42,0,0,0,2.63-2.21,2.46,2.46,0,0,0-1.3-2.37,2.46,2.46,0,0,0-2.84.44m25,19.06a7.54,7.54,0,0,0,0-2.07l1.92-.83-1.46-3.4-1.92.82a7.26,7.26,0,0,0-.69-.78,7.35,7.35,0,0,0-.79-.67l.77-1.94-3.44-1.38-.78,1.94a7.55,7.55,0,0,0-2.07,0l-.82-1.92-3.41,1.46L24,23.83a7.1,7.1,0,0,0-.71.63,8.67,8.67,0,0,0-.74.85l-1.93-.77L19.27,28l1.94.78a7.55,7.55,0,0,0,0,2.07l-1.92.82,1.46,3.41,1.92-.82a8.19,8.19,0,0,0,.68.76,7.37,7.37,0,0,0,.8.68l-.77,1.94L26.84,39l.77-1.94a7.54,7.54,0,0,0,2.07,0L30.51,39l3.41-1.46-.83-1.92a5.42,5.42,0,0,0,.72-.63,6.55,6.55,0,0,0,.73-.85l1.94.78,1.38-3.45Zm-3.05.77a4.48,4.48,0,0,1-1,1.55,4.62,4.62,0,0,1-5,1,4.7,4.7,0,0,1-1.52-1,4.64,4.64,0,0,1,5-7.62,4.93,4.93,0,0,1,1.52,1A4.66,4.66,0,0,1,32.87,31.43Zm-5.62-3a1.92,1.92,0,0,0-.41.62,1.86,1.86,0,0,0,3,2,2,2,0,0,0,.41-.62,1.88,1.88,0,0,0-.43-2,1.91,1.91,0,0,0-.6-.4,1.87,1.87,0,0,0-2,.42"/></svg>