<svg id="Layer_1" data-name="Layer 1"
    xmlns="http://www.w3.org/2000/svg" viewBox="0 0 16 16">
    <path class="cls-1" d="M13.8358,4.75H9.57017a.71094.71094,0,0,0-.71093.71094V7.49219a.71094.71094,0,0,0,.71093.71093h.35547L9.57017,9.625l2.48828-1.42188H13.8358a.71093.71093,0,0,0,.71094-.71093V5.46094A.71094.71094,0,0,0,13.8358,4.75ZM8.19574,11H2.75s0-.74554.5-.74554h.06451C4.25,10.25446,4.75,5.33563,4.75,5.33563c0-.50372.25-.50372.25-.50372h.067c.07452-.03674.183-.14313.183-.4632v-.4834c.105-.8421.95294-1.33135,2.25-1.4295V2.19336c0-.0816.0896-.15009.21851-.19336h.5628c.1286.04327.21863.11176.21863.19336v.26245c1.22369.09259,2.03918.53748,2.21667,1.29419H9.57031A1.71294,1.71294,0,0,0,7.85938,5.46094V7.49219a1.71165,1.71165,0,0,0,.84472,1.4751ZM6,12h4a2.04908,2.04908,0,0,1-2,2A2.04917,2.04917,0,0,1,6,12Zm7.25-1H9.17944l2.869-1.63934c.19757.52673.43054.8938.7016.8938C13.25,10.25446,13.25,11,13.25,11Z"/>
</svg>