<?xml version="1.0" encoding="UTF-8"?>
<svg id="Layer_1" xmlns="http://www.w3.org/2000/svg" viewBox="0 0 16 16">
	<path class="cls-1"
		d="M14,8.79016V3h-2v-1h-2v1h-4v-1h-2v1h-2v11h7.46967c.54492.35004,1.18945.5589,1.88519.5589,1.93329,0,3.5-1.56708,3.5-3.5,0-.87042-.32922-1.65643-.85486-2.26874ZM3,6h10v1.9873c-.49249-.26447-1.04694-.42841-1.64514-.42841-1.93292,0-3.5,1.56671-3.5,3.5,0,.71844.21796,1.38544.58923,1.9411H3v-7ZM12.9776,13.04132c-.26575-.26611-1.13165-1.14532-1.28717-1.30383-.09839.04822-.20862.07532-.32556.07532-.41016,0-.74243-.33295-.74243-.7439,0-.41132.33228-.74426.74243-.74426.11694,0,.22754.0271.32593.07532.1095-.1095.83154-.83295.90686-.90869.08167-.08167.35638-.14886.49005-.14886,0,.08948-.05945.35712-.13367.46143-.06757.09503-.79108.8222-.91687.94843.04492.09613.0705.20343.0705.31665,0,.11285-.02557.22015-.0705.31628l1.38629,1.38849s.31177.32745.26727.62512c-.20789,0-.41614-.05975-.71313-.35748Z"/>
</svg>