<svg id="Layer_1" data-name="Layer 1"
    xmlns="http://www.w3.org/2000/svg" viewBox="0 0 16 16">
    <path class="cls-1" d="M8,2a6,6,0,1,0,6,6A6,6,0,0,0,8,2Zm.07477,1.71429A4.26349,4.26349,0,0,1,10.484,4.457l-2.37,2.37-2.4-2.4A4.2619,4.2619,0,0,1,8.07477,3.71429Zm-3.573,1.92493,2.4,2.4-2.37,2.37a4.27261,4.27261,0,0,1-.03-4.77Zm3.573,6.64649a4.25584,4.25584,0,0,1-2.30988-.68512L8.114,9.2514l2.32154,2.32154A4.26147,4.26147,0,0,1,8.07477,12.28571Zm3.57294-1.925L9.32623,8.03925l2.34912-2.34919a4.25137,4.25137,0,0,1-.02764,4.67066Z"/>
</svg>