<svg id="Layer_1" data-name="Layer 1"
    xmlns="http://www.w3.org/2000/svg" viewBox="0 0 16 16">
    <path class="cls-1" d="M8,2a6,6,0,1,0,6,6A5.99974,5.99974,0,0,0,8,2m.57591,4.87045c.18773-.18772,1.42545-1.428,1.55464-1.55781a1.63486,1.63486,0,0,1,.84-.25519,1.97856,1.97856,0,0,1-.2291.791c-.11581.16291-1.35609,1.40955-1.57181,1.62591a1.2775,1.2775,0,0,1,0,1.085l2.37649,2.38032a1.59737,1.59737,0,0,1,.45818,1.07163,1.62129,1.62129,0,0,1-1.22245-.61282c-.45564-.45627-1.93995-1.96349-2.20659-2.23522a1.27543,1.27543,0,1,1,.00064-2.29282"/>
</svg>