<svg id="Layer_1" data-name="Layer 1"
    xmlns="http://www.w3.org/2000/svg" viewBox="0 0 16 16">
    <path class="cls-1" d="M13,14H7.33333V9.33333a2,2,0,0,1,2-2H14V13A1,1,0,0,1,13,14ZM12,2h0a.66667.66667,0,0,0-.66667.66667v2h1.33334v-2A.66667.66667,0,0,0,12,2ZM8.44445,2h0a.66666.66666,0,0,0-.66666.66667v2H9.11111v-2A.66667.66667,0,0,0,8.44445,2ZM2,8.44444v0a.66667.66667,0,0,0,.66667.66666h2V7.77778h-2A.66666.66666,0,0,0,2,8.44444ZM2,12H2a.66667.66667,0,0,0,.66667.66667h2V11.33333h-2A.66667.66667,0,0,0,2,12ZM13.55556,3.77778v.88889a.44445.44445,0,0,1-.44445.44444H10.88889a.44445.44445,0,0,1-.44445-.44444V3.77778H10v.88889a.44444.44444,0,0,1-.44444.44444H7.33333a.44444.44444,0,0,1-.44444-.44444V3.77778H4.66667a.88889.88889,0,0,0-.88889.88889V6.88889h.88889a.44444.44444,0,0,1,.44444.44444V9.55556A.44444.44444,0,0,1,4.66667,10H3.77778v.44444h.88889a.44445.44445,0,0,1,.44444.44445v2.22222a.44445.44445,0,0,1-.44444.44445H3.77778V14H6.88889V8.22222A1.33333,1.33333,0,0,1,8.22222,6.88889H14V3.77778Z"/>
</svg>