<?xml version="1.0" encoding="UTF-8"?>
<svg id="Layer_1"
    xmlns="http://www.w3.org/2000/svg" viewBox="0 0 16 16">
    <path class="cls-1" d="m5.83215,3.90222c.63196-.14679,1.30273-.23444,2.02356-.24493,3.26404.08978,5.67657,1.42645,7.14429,4.34326-.5434,1.22229-1.27893,2.15717-2.17273,2.85291l-.83051-.82532c1.2771-.88849,1.56018-2.02759,1.56018-2.02759-.70789-1.60358-2.203-2.71997-3.94159-2.94324,1.03925.60638,1.67413,1.72284,1.66388,2.92596.00342.39447-.0697.77637-.19653,1.1366L5.83215,3.90222Zm-.67407,3.50494h-.18097c-.03363.19025-.05127.38293-.0528.57611-.01038,1.23083.65546,2.3681,1.73383,2.96155l-.00104.0011c-1.83246-.15179-3.44189-1.27673-4.21399-2.94537,0,0,.25214-.98096,1.30267-1.83997.02887-.02362.06714-.0451.09723-.06848l-.82819-.82819c-.82367.68341-1.50281,1.58502-2.01483,2.73663,1.46875,2.91669,3.88202,4.25287,7.14648,4.3421.62067-.00909,1.19879-.08356,1.75372-.19336l-4.74213-4.74213Zm-1.77094-4.73269l-.70711.70711,9.89949,9.89949.70711-.70711L3.38714,2.67448Z"/>
</svg>