<svg id="Layer_1" data-name="Layer 1"
    xmlns="http://www.w3.org/2000/svg" viewBox="0 0 16 16">
    <path id="Path_6037" data-name="Path 6037" class="cls-1" d="M7.8557,3.65731A7.00442,7.00442,0,0,0,1,8.00054a7.58806,7.58806,0,0,0,7.14647,4.34215A7.00224,7.00224,0,0,0,15,8.00054,7.586,7.586,0,0,0,7.8557,3.65731M6.65709,10.94592a5.10784,5.10784,0,0,1-4.214-2.94538s.66446-2.58462,4.32923-3.03692A2.786,2.786,0,0,0,5.35939,6.187L8.14647,7.40715H4.97709a3.46976,3.46976,0,0,0-.05277.57616,3.34816,3.34816,0,0,0,1.73384,2.96154m2.84954.01938a3.3991,3.3991,0,0,0,.10768-5.90692,5.00551,5.00551,0,0,1,3.94155,2.94323s-.60307,2.44138-4.04923,2.96369"/>
</svg>