<svg id="Layer_1" data-name="Layer 1"
    xmlns="http://www.w3.org/2000/svg" viewBox="0 0 16 16">
    <path class="cls-1" d="M7.465,5.59185A2.90783,2.90783,0,0,1,9.9634,7.02018c-.3582.35984-.68958.69216-1.06084,1.06438-.05294-.10252-.09488-.19127-.14369-.2759a1.48041,1.48041,0,0,0-1.27672-.76852,1.43014,1.43014,0,0,0-.97695.39424c-.7494.69352-1.46922,1.42077-2.165,2.16727a1.43112,1.43112,0,0,0,.05363,2.03793,1.50715,1.50715,0,0,0,1.03883.43277,1.28076,1.28076,0,0,0,.9529-.41694c.10313-.11078.43588-.43965.81058-.805a3.45766,3.45766,0,0,0,1.90785.18714C8.09817,12.073,6.92527,13.22479,6.10781,13.41881A2.98164,2.98164,0,0,1,5.41548,13.5,2.91049,2.91049,0,0,1,3.23262,8.65768c.74114-.79123,1.5036-1.56457,2.29768-2.30213A2.82579,2.82579,0,0,1,7.465,5.59185M10.58326,2.5a3.00122,3.00122,0,0,0-.69026.08119A10.37637,10.37637,0,0,0,6.8968,4.95762,3.47386,3.47386,0,0,1,7.46469,4.904,3.57927,3.57927,0,0,1,8.7751,5.153c.38019-.33162.70126-.646.8752-.83388a1.22123,1.22123,0,0,1,.91234-.39493,1.51324,1.51324,0,0,1,1.07458.46855,1.43256,1.43256,0,0,1,.022,2.0049c-.69989.74307-1.41972,1.46962-2.165,2.16728a1.41883,1.41883,0,0,1-.9749.39492A1.4829,1.4829,0,0,1,7.23987,8.192c-.04881-.08532-.08937-.17476-.15194-.29792-.36713.38392-.69095.72312-1.045,1.09327a2.88179,2.88179,0,0,0,2.49293,1.42009,2.80754,2.80754,0,0,0,1.93054-.75958c.78033-.73,1.5311-1.493,2.26605-2.267A2.91129,2.91129,0,0,0,10.58326,2.5"/>
</svg>