<?xml version="1.0" encoding="UTF-8"?>
<svg id="Layer_1" xmlns="http://www.w3.org/2000/svg" viewBox="0 0 16 16">
    <path class="cls-1"
        d="M14.98547,2.01586c.28517.28433.64483.44028,1.01453.48472-.36885.04483-.72766.20055-1.01221.48426-.28563.28478-.44221.64406-.48654,1.0133-.044-.36986-.20075-.72976-.48677-1.01494-.28517-.28433-.64483-.44028-1.01448-.48472.3688-.04483.72755-.20055,1.01209-.48426.28563-.28478.44221-.64406.48654-1.0133.044.36986.20075.72976.48683,1.01494ZM13,7.99445c0,2.20706-2.23859,3.9963-5,3.9963s-5-1.78924-5-3.9963,2.23859-3.9963,5-3.9963,5,1.78924,5,3.9963ZM6,7.99445c.55231,0,1-.44734,1-.99907,0-.55186-.44769-.99907-1-.99907s-1,.44722-1,.99907c0,.55174.44769.99907,1,.99907ZM10.5,9.0023h-5s.91681,1.48093,2.5,1.48093c1.5141,0,2.5-1.48093,2.5-1.48093ZM11,6.99537c0-.55186-.44769-.99907-1-.99907s-1,.44722-1,.99907c0,.55174.44769.99907,1,.99907s1-.44734,1-.99907ZM14.69232,9.75368c-.87787,2.45183-3.54132,4.23521-6.69232,4.23521-.61707,0-1.2124-.07525-1.78241-.20355l-3.21759,1.71465v-3.3c-.76367-.67272-1.36298-1.52652-1.69232-2.44632-.61157-.33526-1.30768-.99298-1.30768-1.75924s.69611-1.42397,1.30768-1.75924c.87787-2.45183,3.54138-4.23521,6.69232-4.23521,1.0752,0,2.08972.21367,3,.58454v-1.58362h1v2.07803c1.26709.7576,2.22913,1.86253,2.69232,3.15626.61157.33526,1.30768.99298,1.30768,1.75924s-.69611,1.42397-1.30768,1.75924ZM14,7.99445c0-2.75441-2.69159-4.99537-6-4.99537S2,5.24004,2,7.99445s2.69159,4.99537,6,4.99537,6-2.24097,6-4.99537Z" />
</svg>