<?xml version="1.0" encoding="UTF-8"?>
<svg id="Layer_1" xmlns="http://www.w3.org/2000/svg" viewBox="0 0 16 16">
    <path class="cls-1"
        d="M6,8v-4c0-1.10461.89545-2,2-2s2,.89539,2,2v4c0,1.10455-.89545,2-2,2s-2-.89545-2-2ZM12,8v-.5c0-.27618-.22388-.5-.5-.5s-.5.22382-.5.5v.5c0,1.65686-1.34314,3-3,3s-3-1.34314-3-3v-.5c0-.27618-.22388-.5-.5-.5s-.5.22382-.5.5v.5c0,1.8587,1.27948,3.41095,3,3.85803v2.14197h2v-2.14197c1.72052-.44708,3-1.99933,3-3.85803Z" />
    <path class="cls-1"
        d="M6,8v-4c0-1.10461.89545-2,2-2s2,.89539,2,2v4c0,1.10455-.89545,2-2,2s-2-.89545-2-2ZM12,8v-.5c0-.27618-.22388-.5-.5-.5s-.5.22382-.5.5v.5c0,1.65686-1.34314,3-3,3s-3-1.34314-3-3v-.5c0-.27618-.22388-.5-.5-.5s-.5.22382-.5.5v.5c0,1.8587,1.27948,3.41095,3,3.85803v2.14197h2v-2.14197c1.72052-.44708,3-1.99933,3-3.85803Z" />
</svg>