<?xml version="1.0" encoding="UTF-8"?>
<svg id="Layer_1" data-name="Layer 1" xmlns="http://www.w3.org/2000/svg" viewBox="0 0 16 16">
  <path class="cls-1" d="M11.77,10.85c-.09-.04-.18-.05-.27-.05-.27,0-.53.16-.65.43-.15.36.02.77.38.92.09.04.18.05.27.05.27,0,.53-.16.65-.43.15-.36-.02-.77-.38-.91Z"/>
  <path class="cls-1" d="M14.27,11.11l.73-.3-.53-1.29-.73.3c-.15-.21-.34-.39-.55-.55l.3-.73-1.29-.54-.3.73c-.13-.02-.26-.03-.39-.03s-.26,0-.39.03l-.3-.73-1.29.53.3.73c-.21.15-.39.34-.55.55l-.73-.3-.54,1.29.73.3c-.04.26-.04.53,0,.78l-.73.3.53,1.29.73-.3c.16.21.34.39.55.55l-.3.73,1.29.54.3-.73c.13.02.26.03.39.03s.26,0,.39-.03l.3.73,1.29-.53-.3-.73c.21-.16.39-.34.55-.55l.73.3.54-1.29-.73-.3c.04-.26.04-.53,0-.78ZM13.11,12.17c-.28.67-.93,1.08-1.62,1.08-.22,0-.45-.04-.67-.13-.89-.37-1.31-1.39-.94-2.29.28-.67.93-1.08,1.62-1.08.22,0,.45.04.67.13.89.37,1.31,1.39.94,2.29ZM7.01,11h-1.01v-1h1.23c.12-.35.28-.69.48-1h-1.7v-1h2.62c.68-.56,1.51-.91,2.43-1h-5.06v-1h6v1h0c.73.1,1.42.33,2,.73V2H2v12h5.73c-.48-.72-.77-1.59-.77-2.52,0-.16.03-.32.05-.48ZM4,4h8v1H4v-1ZM5,11h-1v-1h1v1ZM5,9h-1v-1h1v1ZM5,7h-1v-1h1v1Z"/>
</svg>