<?xml version="1.0" encoding="UTF-8"?>
<svg id="Layer_1"
    xmlns="http://www.w3.org/2000/svg" viewBox="0 0 16 16">
    <path class="cls-1" d="m12,4H4c-1.10455,0-2,.89539-2,2v4c0,1.10455.89545,2,2,2h8c1.10455,0,2-.89545,2-2v-4c0-1.10461-.89545-2-2-2Zm-8,4.75c-.41418,0-.75-.33582-.75-.75,0-.41425.33582-.75.75-.75s.75.33575.75.75c0,.41418-.33582.75-.75.75Zm3,.5c-.69037,0-1.25-.55963-1.25-1.25s.55963-1.25,1.25-1.25,1.25.55963,1.25,1.25-.55963,1.25-1.25,1.25Zm4,.5c-.96649,0-1.75-.78351-1.75-1.75s.78351-1.75,1.75-1.75,1.75.78351,1.75,1.75-.78351,1.75-1.75,1.75Z"/>
</svg>