<?xml version="1.0" encoding="UTF-8"?>
<svg id="Layer_1" xmlns="http://www.w3.org/2000/svg" viewBox="0 0 16 16">
    <path class="cls-1"
        d="M14,10h-2V3h2v7ZM2,6.55353c0,.48804.55774.92321.58112,1.15814s-.19446.50299-.19446.79657c0,.63446.51041,1.49176,1.31561,1.49176.66681.00037,2.04773,0,2.04773,0,.33551,0,.52472.32733.42603.64801-.09601.31201-.17603.35193-.17603.85199,0,1.49994,1.00128,2.5,2,2.5.27612,0,.5-.22369.5-.5v-1.49963c0-1.50043,1.31717-1.13085,2.5-3.00043V2.99994s-2.74493-.99994-4.5-.99994h-1.43622c-1.38252,0-1.02986,1.33414-1.22449,1.40375-.45316.16206-1.02374.67578-1.02374,1.34991,0,.17188.14562.39371.08441.48633-.12266.18559-.89996.68884-.89996,1.31354Z" />
</svg>