<svg id="Layer_1" data-name="Layer 1"
    xmlns="http://www.w3.org/2000/svg" viewBox="0 0 16 16">
    <path class="cls-1" d="M9.77088,11.22456c-1.583,0-2.07724-1.26188-2.51334-2.37535l-.1701-.42612c-.08462-.22218-.15361-.41658-.217-.59536C6.55066,6.92862,6.45954,6.782,6.21827,6.782c-.24083,0-.30809.06509-.61185.88-.08852.23692-.18832.50423-.3172.801l-.09851.23779c-.486,1.17857-1.0371,2.51335-2.74636,2.51335H2V9.22066h.44435c.31807,0,.48036-.31591.89954-1.29139L3.47668,7.622c.06118-.14753.1215-.30375.18181-.45736.43437-1.11608.92645-2.38143,2.55978-2.38143,1.59037,0,2.06292,1.274,2.47993,2.39792l.1675.44261c.08244.20482.15535.39661.22174.57192.34411.90519.427,1.03016.68344,1.03016.25863,0,.40877-.31677.74246-1.15686.08028-.20135.16707-.41918.266-.65177l.09677-.22825c.47646-1.12736,1.01627-2.40486,2.66826-2.4118l.44348-.00174L14,6.782h-.44695c-.36668,0-.506.24474-.99414,1.38685,0,0-.17878.43393-.23823.58407C11.88761,9.8542,11.34823,11.22456,9.77088,11.22456Z"/>
</svg>