<?xml version="1.0" encoding="windows-1252"?>
<!-- Generator: Adobe Illustrator 26.2.1, SVG Export Plug-In . SVG Version: 6.00 Build 0)  -->
<svg version="1.1" id="Layer_1" xmlns="http://www.w3.org/2000/svg"
    xmlns:xlink="http://www.w3.org/1999/xlink" x="0px" y="0px" viewBox="0 0 16 16" style=""
    xml:space="preserve">
<path style="" d="M12.139,3.621c0.513,0.513,0.915,1.127,1.206,1.845c0.29,0.716,0.436,1.519,0.436,2.407  c0,0.641-0.091,1.292-0.275,1.954c-0.183,0.662-0.412,1.211-0.687,1.646H9.343l-0.11-0.536c-0.261,0.174-0.513,0.313-0.756,0.415  c-0.242,0.104-0.593,0.155-1.051,0.155c-0.747,0-1.351-0.308-1.813-0.924C5.151,9.967,4.919,9.137,4.919,8.093  c0-0.558,0.078-1.047,0.234-1.467c0.156-0.418,0.369-0.784,0.639-1.095c0.252-0.293,0.556-0.522,0.914-0.687  C7.062,4.679,7.418,4.596,7.77,4.596c0.302,0,0.57,0.056,0.804,0.169c0.234,0.112,0.414,0.23,0.543,0.353V4.693h1.594v5.605h1.168  c0.165-0.362,0.288-0.755,0.368-1.178c0.079-0.424,0.12-0.83,0.12-1.22c0-0.774-0.108-1.453-0.323-2.036  c-0.215-0.585-0.512-1.069-0.892-1.453c-0.389-0.393-0.844-0.687-1.366-0.879C9.263,3.339,8.698,3.243,8.089,3.243  c-0.581,0-1.133,0.115-1.657,0.343C5.907,3.815,5.446,4.124,5.049,4.514C4.642,4.912,4.311,5.412,4.057,6.011  S3.676,7.268,3.676,7.983c0,0.778,0.12,1.468,0.36,2.068c0.24,0.6,0.559,1.099,0.958,1.497c0.397,0.393,0.86,0.694,1.386,0.9  c0.526,0.206,1.082,0.309,1.668,0.309c0.389,0,0.831-0.035,1.328-0.106c0.497-0.072,0.936-0.164,1.321-0.279v1.333  c-0.426,0.096-0.85,0.17-1.271,0.22C9.004,13.974,8.544,14,8.045,14c-0.838,0-1.613-0.144-2.325-0.433  c-0.712-0.288-1.33-0.699-1.852-1.23c-0.517-0.527-0.921-1.163-1.212-1.91C2.365,9.681,2.22,8.867,2.22,7.983  c0-0.852,0.151-1.641,0.453-2.366c0.302-0.726,0.719-1.359,1.25-1.9C4.44,3.186,5.061,2.767,5.781,2.46C6.503,2.153,7.268,2,8.079,2  c0.806,0,1.558,0.142,2.257,0.426C11.034,2.709,11.635,3.108,12.139,3.621z M9.082,9.652V6.19C8.894,6.094,8.72,6.024,8.56,5.98  C8.4,5.937,8.218,5.915,8.017,5.915c-0.44,0-0.778,0.192-1.017,0.577s-0.357,0.912-0.357,1.58c0,0.723,0.098,1.259,0.295,1.607  c0.197,0.348,0.522,0.522,0.975,0.522c0.238,0,0.446-0.047,0.625-0.141C8.718,9.967,8.898,9.831,9.082,9.652z"/>
</svg>