<?xml version="1.0" encoding="UTF-8"?>
<svg id="Layer_1" xmlns="http://www.w3.org/2000/svg" viewBox="0 0 16 16">
    <path class="cls-1"
        d="M7.1167,11H2.75s0-.74554.5-.74554h.06451c.93549,0,1.43549-4.91882,1.43549-4.91882,0-.50372.25-.50372.25-.50372h.06702c.07452-.03674.18304-.14313.18304-.4632v-.4834c.10498-.8421.95294-1.33136,2.25-1.4295v-.26245c0-.0816.0896-.15009.21851-.19336h.56281c.1286.04327.21863.11176.21863.19336v.26245c1.297.09814,2.14496.5874,2.25,1.4295v.4834c0,.32007.10846.42645.18298.4632h.06702s.25006,0,.25006.4834v.02032s.14075,1.36914.41925,2.66309l-1.17908,1.16461-1.5459-1.60352-2.67139,2.58887.84375.85132ZM8.10785,12h-2.10785c.05347,1.11267.92432,2,2,2,.57025,0,1.07825-.25385,1.44208-.65387l-1.33423-1.34613ZM15.69527,7.78846l-1.16253-1.21254-4.05985,4.01067-1.55259-1.61063-1.22503,1.1875,2.78823,2.8125,5.21177-5.1875Z" />
</svg>