<?xml version="1.0" encoding="UTF-8"?>
<svg id="Layer_1" xmlns="http://www.w3.org/2000/svg" viewBox="0 0 16 16">
    <path class="cls-1"
        d="M9.95147,14c-1.07568,0-1.94653-.88736-2-2.00007h4c-.05347,1.11271-.92419,2.00007-2,2.00007ZM2.70147,10.9999s0-.74554.49997-.74554h.06454c.93549,0,1.43546-4.91902,1.43546-4.91902,0-.50374.25003-.50374.25003-.50374h.06702c.07452-.03671.18301-.1431.18301-.46318v-.48341c.10501-.84213.95297-1.3314,2.25-1.42955v-.26249c0-.08158.08963-.15006.21854-.19337h.56277c.12863.04331.21863.11179.21863.19337v.26249c1.29703.09815,2.14499.58742,2.25,1.42955v.48341c0,.32008.10849.42647.18301.46318h.06702s.25003,0,.25003.48341v.02033s.49997,4.91902,1.5,4.91902c.49997,0,.49997.74554.49997.74554H2.70147ZM15,8.00002v-1.00003h-2v1.00003h2ZM3,8.00002v-1.00003H1v1.00003h2ZM13.01213,1.7095l-.70711-.70713-1.41421,1.41426.70711.70713,1.41421-1.41426ZM3.41421,3.12376l.70711-.70713-1.41421-1.41426-.70711.70713,1.41421,1.41426Z" />
</svg>