<?xml version="1.0" encoding="UTF-8"?>
<svg id="Layer_1"
    xmlns="http://www.w3.org/2000/svg" viewBox="0 0 16 16">
    <path class="cls-1" d="M6,10c0-.34729,.05847-.67847,.14203-1h-1.14203v-1h1.55634c.22052-.37823,.49811-.71362,.82593-1h-2.38226v-1h5c.73181,0,1.4093,.21185,2,.55634V2H3V13H7.38226c-.8399-.73376-1.38226-1.79968-1.38226-3Zm-1-6h5v1H5v-1Z"/>
    <path class="cls-1" d="M9.98916,7.01086c-.02514,0-.05008,.00031-.07535,.00092-1.65636,.04083-2.96598,1.41669-2.92514,3.07303,.04021,1.6311,1.37528,2.92609,2.99769,2.92609,.02514,0,.05007-.00034,.07535-.00095,.61566-.01517,1.1826-.21597,1.65086-.54587l1.59321,1.52966,.68951-.72437-1.57895-1.51596c.36822-.51218,.58726-1.13727,.57051-1.8165-.04022-1.6311-1.37528-2.92606-2.99769-2.92606h0Zm.01084,4.98914c-1.10278,0-2-.89722-2-2,0-1.10284,.89722-2,2-2,1.10284,0,2,.89716,2,2,0,1.10278-.89716,2-2,2h0Z"/>
</svg>