<?xml version="1.0" encoding="UTF-8"?>
<svg id="Layer_1" data-name="Layer 1" xmlns="http://www.w3.org/2000/svg" viewBox="0 0 16 16">
  <defs>
    <style>
      .cls-1 {
        fill: #161617;
      }
    </style>
  </defs>
  <path class="cls-1" d="M3,13h3v1H2V3h2v-1h2v1h4v-1h2v1h2v3H3v7ZM9.4,12.88c-.42-.46-.68-1.07-.68-1.74,0-1.44,1.17-2.61,2.61-2.61.06,0,.11,0,.16,0l-.29-.86c-1.86.07-3.35,1.59-3.35,3.47,0,.93.37,1.75.96,2.37l-1.31.44,3.48,1.16-1.16-3.48-.42,1.26ZM15.3,8.46l-3.48-1.16,1.16,3.48.41-1.24c.34.44.55.98.55,1.58,0,1.44-1.17,2.61-2.61,2.61-.02,0-.04,0-.07,0l.28.85c1.82-.11,3.27-1.61,3.27-3.46,0-.86-.32-1.63-.83-2.23l1.32-.44ZM10.29,11.13c0,.58.47,1.04,1.04,1.04s1.04-.47,1.04-1.04-.47-1.04-1.04-1.04-1.04.47-1.04,1.04Z"/>
</svg>