<?xml version="1.0" encoding="UTF-8"?>
<svg id="Layer_1" data-name="Layer 1" xmlns="http://www.w3.org/2000/svg" viewBox="0 0 16 16">
  <path d="M10,9c0,1.1-.9,2-2,2s-2-.9-2-2,.9-2,2-2,2,.9,2,2ZM4,4.25c0-.14-.11-.25-.25-.25h-.5c-.14,0-.25.11-.25.25v.25h1v-.25ZM14,5.5v7c0,.28-.22.5-.5.5H2.5c-.28,0-.5-.22-.5-.5v-7c0-.28.22-.5.5-.5h2.5l.86-1.72c.08-.17.26-.28.45-.28h3.38c.19,0,.36.11.45.28l.86,1.72h2.5c.28,0,.5.22.5.5ZM11,9c0-1.66-1.34-3-3-3s-3,1.34-3,3,1.34,3,3,3,3-1.34,3-3ZM13,6.5c0-.28-.22-.5-.5-.5s-.5.22-.5.5.22.5.5.5.5-.22.5-.5Z"/>
</svg>