<?xml version="1.0" encoding="UTF-8"?>
<svg id="Layer_1" data-name="Layer 1" xmlns="http://www.w3.org/2000/svg" viewBox="0 0 16 16">
  <path class="cls-1" d="M12.07,4.56c.79.93,1.28,2.12,1.28,3.43,0,2.84-2.22,5.15-5.02,5.32l-.44-1.31s.06,0,.1,0c2.22,0,4.02-1.8,4.02-4.02,0-.92-.32-1.76-.85-2.44l-.63,1.9-1.79-5.36,5.36,1.78-2.03.68ZM5.03,10.68c-.65-.71-1.05-1.65-1.05-2.68,0-2.22,1.8-4.02,4.02-4.02.09,0,.17,0,.25,0l-.45-1.33c-2.87.11-5.16,2.45-5.16,5.34,0,1.42.57,2.7,1.48,3.65l-2.02.67,5.36,1.78-1.79-5.36-.64,1.93ZM6.39,7.99c0,.89.72,1.61,1.61,1.61s1.61-.72,1.61-1.61-.72-1.61-1.61-1.61-1.61.72-1.61,1.61Z"/>
</svg>