<?xml version="1.0" encoding="UTF-8"?>
<svg id="Layer_1" xmlns="http://www.w3.org/2000/svg" viewBox="0 0 16 16">
    <defs>
        <style>.cls-1{fill:#c42126;}</style>
    </defs>
    <path class="cls-1"
        d="m2.82133,5.11363h1.35642v.88637h-1.35642v-.88637Zm-.0232-4.11363l.15443,3.55936h1.09489l.15443-3.55936h-1.40374Zm7.48123,2.57495l.00079-.00079c-.00439-.00226-.00922-.00391-.01361-.00616-.1958-.10034-.396-.18805-.60571-.26221-.17072-.06287-.34479-.1181-.52332-.16248-.0943-.02203-.18903-.03918-.28528-.05579-.27704-.05133-.55939-.08752-.85223-.08752-.01556,0-.02991.00446-.04547.00458-.26849.00269-.52881.03345-.78412.0791-.09741.0163-.19427.03064-.28961.05255-.19684.04761-.38812.10895-.57562.17865-.47968.17371-.90729.43823-1.30518.73987v2.94525h-1.89111c-.00555.03064-.0116.06104-.01727.0918-.05316.28241-.08533.57214-.08771.86969-.00012.01312-.00391.02527-.00391.03845,0,.29285.03619.57532.08759.85242.01654.09601.03369.19049.05566.28461.04504.18158.10107.35876.16522.53223.07336.20599.16003.40253.25854.59509.00262.00513.00446.01074.00714.01587l.00092-.00092c.83069,1.60901,2.4903,2.72076,4.42578,2.72076,2.76135,0,4.99915-2.23828,4.99915-4.99915,0-1.93585-1.11163-3.59528-2.72064-4.4259Zm-.27576,7.04102c-.37903-.37958-1.45325-1.47284-1.67505-1.69891-.14032.06879-.29755.10748-.46429.10748-.58496,0-1.05884-.47485-1.05884-1.06097,0-.58655.47388-1.06146,1.05884-1.06146.16675,0,.32452.03864.46484.10748.15613-.15613,1.18585-1.18799,1.29333-1.29596.11646-.11652.50818-.21234.69879-.21234,0,.12762-.08472.50928-.19061.65808-.09631.1355-1.12811,1.17261-1.30762,1.35266.06409.13708.10059.2901.10059.45154,0,.16095-.0365.31396-.10059.45105l1.81641,1.81964s.44476.46692.38123.89148c-.29651,0-.59351-.08527-1.01703-.50977Z" />
</svg>