<?xml version="1.0" encoding="UTF-8"?>
<svg id="Layer_1"
    xmlns="http://www.w3.org/2000/svg" viewBox="0 0 16 16">
    <path class="cls-1" d="M5.0791,11.9768c-.32812-.01074-.81396-.05371-1.29395-.2002-1.03125-.31543-1.90186-1.57617-1.90186-2.75488,0-1.50781,1.14307-2.76855,2.63037-2.93652,.65869-1.58789,2.1792-2.60547,3.91748-2.60547,2.31641,0,4.20605,1.86328,4.24854,4.16992,.85498,.3291,1.43701,1.16309,1.43701,2.08984,0,1.2334-1.00342,2.2373-2.2373,2.2373l-4.94727,.00293c-1.01025,0-1.78955-.00098-1.85303-.00293Zm-.22705-4.57324c-.89893,0-1.63037,.72559-1.63037,1.61816,0,.84277,.70264,1.60938,1.47412,1.60938l7.18359,.00781c.49561,0,.89893-.40332,.89893-.89941s-.40332-.89941-.89941-.89941c-.11475,0-.22803,.02246-.3374,.06738l-.49268,.20117,.15918-.50781c.08887-.28223,.13379-.5752,.13379-.87207,0-1.60547-1.30566-2.91113-2.91064-2.91113-1.43018,0-2.63672,1.02441-2.86865,2.43652l-.04395,.26758-.26318-.06641c-.14014-.03516-.27246-.05176-.40332-.05176Z"/>
</svg>