<svg id="Layer_1" data-name="Layer 1"
    xmlns="http://www.w3.org/2000/svg" viewBox="0 0 16 16">
    <path class="cls-1" d="M12.42856,10.1c.00082-.03355.00163-.06752.00163-.10107A3.99836,3.99836,0,0,0,4.68943,8.59077a2.71487,2.71487,0,0,0-2.556,2.70084,2.78219,2.78219,0,0,0,1.72444,2.51587,4.85408,4.85408,0,0,0,1.22474.18967v.00021h.004c.18947.00593,6.79272,0,6.79272,0A1.98743,1.98743,0,0,0,12.42856,10.1Zm-.54943,3.05952L4.69556,13.1516A1.86653,1.86653,0,0,1,4.85229,9.424a1.89146,1.89146,0,0,1,.4636.05949,3.15922,3.15922,0,1,1,6.1309,1.46285,1.14887,1.14887,0,1,1,.43234,2.2131ZM4.5,4.5a1,1,0,1,1,1-1A.99993.99993,0,0,1,4.5,4.5Zm5.1381.681.49606-1.24138H7V3.112h3.13416L9.6381,1.81905,13,3.50181Z"/>
</svg>