<svg id="Layer_1" data-name="Layer 1"
    xmlns="http://www.w3.org/2000/svg" viewBox="0 0 16 16">
    <path class="cls-1" d="M13.14743,11.648c-.01026.00631-.01974.01421-.03237.02052a4.09913,4.09913,0,0,1-.46031.22344l-.01184.00474c-.03316.015-.0679.02842-.10264.04185-.05132.019-.10975.03632-.16186.05526-.09474.034-.18633.06791-.285.0987-.03474.011-.06474.02447-.09948.03395-.01974.00631-.04264.01105-.06317.01816q-.27831.07817-.58031.14448c-.04422.00948-.08685.01974-.13265.02922q-.32331.06869-.66795.12159c-.045.00631-.0908.01184-.135.01816-.214.03079-.43109.05763-.653.07974l-.10264.01184c-.244.0229-.4911.04027-.73823.0529-.05527.00237-.10974.00474-.165.0079-.25423.01026-.50689.01737-.75875.01737-.25108,0-.50531-.00711-.758-.01737-.05526-.00316-.11053-.00553-.16659-.0079-.24555-.01263-.49267-.03-.73585-.0529l-.105-.01184c-.22186-.0229-.43741-.04895-.6498-.07974-.04421-.00632-.09-.01185-.13422-.01816-.22976-.03553-.45478-.0758-.67032-.12159-.0458-.00948-.08685-.01974-.13107-.02922-.20291-.04421-.39793-.09237-.58268-.14527-.01974-.00632-.04106-.01106-.05843-.01658-.03631-.01027-.06711-.02369-.10106-.03474-.09711-.03079-.19107-.06474-.28423-.0987-.05369-.01894-.11212-.03631-.165-.05605-.03316-.01342-.0679-.02685-.10106-.04106l-.00947-.00474a4.076,4.076,0,0,1-.46268-.22344l-.03-.01895a2.34275,2.34275,0,0,1-.334-.24081c-.01421-.01184-.03316-.02131-.045-.03316v1.013c0,.36476.52427.74927,1.42751,1.05167.10264.03553.21238.0679.32608.10027.11843.03395.24081.06632.37108.09711A14.79328,14.79328,0,0,0,7.99724,14a14.8175,14.8175,0,0,0,3.40293-.3624c.12948-.03079.25265-.06316.37109-.09711.1129-.03237.22265-.06474.32608-.09948.90323-.30319,1.42907-.6877,1.42907-1.05246v-1.013c-.01421.01264-.03316.02211-.04658.03395a2.47813,2.47813,0,0,1-.3324.23845m.37976-1.88306c0-.76191-2.27072-1.60988-5.52916-1.60988-3.25608,0-5.52444.848-5.52444,1.60988,0,.36477.52584.75006,1.42749,1.05167.10422.03553.21239.06869.32766.10106.11765.03316.24082.06553.3703.09632a14.79981,14.79981,0,0,0,3.399.36161,14.81674,14.81674,0,0,0,3.40135-.36161c.12949-.03079.25265-.06316.37109-.09711.11448-.03158.22265-.06474.32766-.10027.90323-.30161,1.42906-.6869,1.42906-1.05167M3.93082,7.69674,2.80236,7.60068,2.97317,5.6221l1.12846.09516a3.984,3.984,0,0,1,.51653-.98558L3.8891,3.87642,5.42639,2.59564l.73048.85572A4.08536,4.08536,0,0,1,7.227,3.1149L7.32326,2l2.00357.16961L9.23009,3.28406a3.94853,3.94853,0,0,1,.52033.22259,4.0266,4.0266,0,0,1,.4777.28824l.8656-.72121L12.3901,4.59344,11.524,5.3142A3.96117,3.96117,0,0,1,11.865,6.37192l1.127.09465L12.85892,8.006A10.2113,10.2113,0,0,0,10.377,7.38849c.00707-.0484.02131-.09414.02561-.1435A2.47926,2.47926,0,0,0,9.057,4.82915a2.54307,2.54307,0,0,0-2.938.44993,2.40762,2.40762,0,0,0-.69837,2.13983,11.8796,11.8796,0,0,0-1.48148.31135C3.937,7.71884,3.93274,7.70821,3.93082,7.69674Zm4.06757-.46769c-.33177,0-.69735.01181-1.07751.03477a.97153.97153,0,0,1-.02545-.31407.99006.99006,0,0,1,.29124-.61769,1.01126,1.01126,0,0,1,1.17442-.1799.99207.99207,0,0,1,.53842.96675.92267.92267,0,0,1-.036.13219C8.55977,7.23623,8.2682,7.22905,7.99839,7.22905Z"/>
</svg>