<svg id="Layer_1" data-name="Layer 1"
    xmlns="http://www.w3.org/2000/svg" viewBox="0 0 16 16">
    <path class="cls-1" d="M5.919,12.10268A11.86918,11.86918,0,0,1,4.32506,11.843c-.12043-.02846-.23356-.05838-.343-.08978-.10508-.02993-.20653-.05983-.30141-.09268-.835-.27954-1.31961-.63425-1.31961-.97219V9.75194c.01095.011.02848.01973.0416.0314a2.22566,2.22566,0,0,0,.30874.22189l.02773.0175a3.64957,3.64957,0,0,0,.42771.20656l.00876.00437c.03065.0124.06277.02555.09342.03868.04891.01825.10291.03358.15254.0511.08613.03138.173.06276.26276.09123.03137.01022.05983.02263.0934.0321.01608.00513.03578.0095.054.0146.17078.05038.35106.09416.53862.13576.04088.00877.07883.0168.12116.027.19926.0416.40727.0781.61965.111.04088.00658.08321.01168.12408.01751.19634.02847.39559.05255.60068.07372l.03714.00446-.61277.61314Zm-2.23765-7.74c.09633.03283.19634.06349.30289.09341.10876.03065.22261.06058.34232.08905a13.68092,13.68092,0,0,0,3.14206.33427,13.69663,13.69663,0,0,0,3.14424-.33427c.1197-.02847.23356-.0584.343-.08977.10582-.0292.20581-.05986.30288-.09269.835-.27881,1.32106-.635,1.32106-.97219,0-.7043-2.09909-1.48819-5.11122-1.48819-3.01,0-5.10687.78389-5.10687,1.48819C2.36173,3.72768,2.84782,4.08384,3.68133,4.36265Zm5.04692,6.49512.0074.00741.00856-.00857ZM3.68061,6.788c.09488.03283.19633.06275.30141.09268.10948.0314.22261.06132.343.08978a13.675,13.675,0,0,0,3.14279.335,13.69728,13.69728,0,0,0,3.14571-.335c.11971-.02846.23356-.05838.343-.08978.10438-.02993.20583-.05985.30144-.092.835-.28026,1.32105-.6357,1.32105-.97291V4.87938c-.01314.0117-.03065.02045-.04307.0314a2.29028,2.29028,0,0,1-.30726.22041.3532.3532,0,0,1-.02993.019,3.78834,3.78834,0,0,1-.42552.20655l-.011.00438c-.03065.01387-.06275.02628-.09488.03868-.04743.01752-.10145.03357-.14961.0511-.0876.03138-.17225.06275-.26348.09123-.03213.01022-.05985.02262-.092.03137-.01825.00585-.03942.01023-.0584.0168q-.25726.07224-.53645.13356c-.04087.00875-.08028.01825-.1226.027q-.29889.06349-.61748.11241c-.0416.00582-.08393.011-.1248.01677-.19779.02848-.3985.05328-.6036.07373l-.09488.01095c-.22554.02115-.454.03723-.68243.0489-.05108.00218-.10144.00438-.15254.0073-.235.00948-.46857.016-.7014.016-.23209,0-.4671-.00657-.70066-.016-.0511-.00292-.10218-.00512-.154-.0073-.227-.01167-.45543-.02775-.68023-.0489l-.09708-.01095C5.63079,5.93258,5.43154,5.9085,5.2352,5.88c-.04087-.00582-.0832-.011-.12408-.01677-.21238-.03285-.42039-.07008-.61965-.11241-.04233-.00875-.08028-.01825-.12116-.027-.18756-.04088-.36784-.0854-.53862-.1343-.01825-.00583-.03795-.01021-.054-.01533-.03357-.00948-.062-.02188-.0934-.0321-.08978-.02848-.17663-.05985-.26276-.09123-.04963-.01753-.10363-.03358-.15254-.05183-.03065-.0124-.06277-.02482-.09342-.03795l-.00876-.00438a3.76777,3.76777,0,0,1-.42771-.20655l-.02773-.01753a2.16733,2.16733,0,0,1-.30874-.22259c-.01312-.011-.03065-.01972-.0416-.03067V5.8158C2.361,6.153,2.84565,6.50845,3.68061,6.788Zm0,2.43628c.09488.03283.19633.06275.30141.09268.10948.0314.22261.06132.343.08978a13.14682,13.14682,0,0,0,2.64429.32709l.31747-.31766.32363.32367a14.37732,14.37732,0,0,0,2.47286-.22228l1.7528-1.75273c-.0213.00927-.0411.019-.0628.02819l-.011.00437c-.03065.01388-.06275.02628-.09488.03868-.04743.01752-.10145.0343-.14961.0511-.0876.03138-.17225.06275-.26348.09123-.03213.01022-.05985.0219-.092.03138-.01825.00584-.03942.01022-.0584.01679-.17151.04816-.35034.09341-.53645.13356-.04087.0095-.08028.01825-.1226.027q-.29889.06349-.61748.11168c-.0416.00658-.08393.01168-.1248.01751-.19779.02847-.3985.05329-.6036.07372l-.09488.011c-.22554.02043-.454.03723-.68243.0489l-.15254.00658c-.235.0102-.46857.01678-.7014.01678-.23209,0-.4671-.00658-.70066-.01678-.0511-.00293-.10218-.0044-.154-.00658-.227-.01167-.45543-.02847-.68023-.0489L5.83588,8.39c-.20509-.02117-.40434-.04525-.60068-.07372-.04087-.00583-.0832-.01093-.12408-.01751-.21238-.03212-.42039-.06935-.61965-.11168-.04233-.00875-.08028-.0175-.12116-.027-.18756-.04015-.36784-.0854-.53862-.135-.01825-.0051-.03795-.00948-.054-.0146-.03357-.0102-.062-.02188-.0934-.0321-.08978-.02848-.17663-.05985-.26276-.09123-.04963-.0168-.10363-.03358-.15254-.05183-.03065-.0124-.06277-.02482-.09342-.03795L3.16678,7.793a3.76946,3.76946,0,0,1-.42771-.20656l-.02773-.01751a2.169,2.169,0,0,1-.30874-.22261c-.01312-.011-.03065-.01972-.0416-.03067v.93642C2.361,8.58929,2.84565,8.94473,3.68061,9.22427ZM12.95,7.62435,8.73574,11.8386,7.287,10.38981,6.23351,11.44375,8.692,13.90227l5.2677-5.26819Z"/>
</svg>