<?xml version="1.0" encoding="UTF-8"?><svg id="Layer_1" xmlns="http://www.w3.org/2000/svg" viewBox="0 0 16 16"><defs><style>.cls-1{fill:#161617;stroke-width:0px;}</style></defs><path class="cls-1" d="M13.87497,11.67261c0,.55225-.44769,1-1,1-.55225,0-1-.44775-1-1,0-.02045.01044-.03754.01166-.05768l-.74078-.49384c-1.17438,1.66187-3.14587,2.87891-3.14587,2.87891,0,0-2.00293-1.36005-3.17358-3.02722l-.96307.64203c.00122.0202.01166.03729.01166.0578,0,.55225-.44769,1-1,1-.55225,0-1-.44775-1-1,0-.55231.44775-1,1-1,.1579,0,.30212.04413.43494.10931l1.01038-.67358c-.19604-.42285-.32031-.85297-.32031-1.27631v-.15918h-.52844c-.17426.2934-.48053.49976-.84656.49976-.55225,0-1-.44775-1-1,0-.55231.44775-1,1-1,.36621,0,.67267.2066.84692.50024h.52808v-2.67285h1.37494v-.90332c-.29346-.17426-.49994-.48065-.49994-.84668,0-.55231.44775-1,1-1,.55231,0,1,.44769,1,1,0,.36609-.20648.67255-.50006.8468v.9032h3.25v-.90332c-.29346-.17426-.49994-.48065-.49994-.84668,0-.55231.44775-1,1-1,.55231,0,1,.44769,1,1,0,.36609-.20648.67255-.50006.8468v.9032h1.37506v2.67285h.27808c.17426-.29364.48071-.50024.84692-.50024.55231,0,1,.44769,1,1,0,.55225-.44769,1-1,1-.36597,0-.6723-.20636-.84656-.49976h-.27844v.15918c0,.48785-.13312.96698-.34613,1.42584l.78619.52411c.13281-.06519.27698-.10938.43494-.10938.55231,0,1,.44769,1,1Z"/></svg>