<?xml version="1.0" encoding="UTF-8"?><svg id="Layer_1" xmlns="http://www.w3.org/2000/svg" viewBox="0 0 16 16"><defs><style>.cls-1{fill:#161617;}</style></defs><path class="cls-1" d="M7.80316,11h-.80316v-2h-2v2h-1v-3h6v.61652l1.46893-1.47058c.14978-.14978.32452-.26526.51361-.34674l.01746-3.25299c0-.33044-.21545-.5462-.54547-.5462H2.58319c-.32996,0-.58319.26733-.58319.59778v6.90222l1.5,1.49713,3.87225.0014.43091-.99854ZM3,7v-3h8v3H3ZM14.16608,8.93463l-1.07562-1.07526c-.25085-.25079-.65753-.25061-.90826.00037l-3.38831,3.39227-1.50317,3.48285,3.48682-1.49927,3.38885-3.39307c.25055-.25085.25037-.65723-.00031-.9079ZM8.48346,13.73785l-.19812-.19855.91547-2.11676.34088,1.06079,1.05768.34906-2.11591.90546Z"/></svg>