<?xml version="1.0" encoding="UTF-8"?>
<svg id="Layer_1" xmlns="http://www.w3.org/2000/svg" viewBox="0 0 16 16">
    <path class="cls-2"
        d="m7.1709,11.1084l.12714-.1084h-.29803v-2h-2v2h-1v-3h6v.69604l1.62598-1.38647c.10681-.09033.22827-.15417.35492-.20538l.0191-3.55798c0-.33044-.21545-.5462-.54547-.5462H2.58319c-.32996,0-.58319.26733-.58319.59778v6.90222l1.5,1.49713,3.13635.00116.53455-.88989ZM3,7v-3h8v3H3Z" />
    <path class="cls-1"
        d="m12.27537,8.07076c.21743-.18528.69291-.00845,1.20444.55146.51224.55957.63478,1.03732.4177,1.22261l-.91874.78374-1.6218-1.77474.91839-.78306Zm-4.92072,6.11237l1.98033-.89904-.98526.16365.04307-.93927-.32037.1606.10434-.65222-1.16943,1.78624.34733.38004Zm2.21247-.64545l-3.56712,1.46233,1.94462-3.2364,2.09973-1.79063,1.62215,1.77407-2.09937,1.79063Zm2.86196-2.48917l-1.62215-1.77407c-.11834-.1295.14775-.34927.26225-.22417l1.6225,1.77441c.11694.12814-.14916.34792-.2626.22383h0Zm-.52169.45104l-1.62215-1.77407c-.11834-.1295.1474-.34927.26225-.22349l1.62215,1.77373c.11729.12814-.14915.34792-.26225.22383h0Z" />
</svg>