<?xml version="1.0" encoding="UTF-8"?>
<svg id="Layer_1" data-name="Layer 1" xmlns="http://www.w3.org/2000/svg" viewBox="0 0 16 16">
  <path class="cls-1" d="M13,11v-7c0-.55-.45-1-1-1h-1v4.24l-1.53-3.3c-.23-.57-.78-.94-1.39-.94h-4.07l1,1v3h-2v2.19c-.31.35-.5.81-.5,1.31,0,1.1.9,2,2,2,.5,0,.96-.19,1.31-.5h3.04c.39.32.88.52,1.42.52s1.04-.2,1.42-.52h3.3l-2-1ZM4.5,11.25c-.41,0-.75-.34-.75-.75s.34-.75.75-.75.75.34.75.75-.34.75-.75.75ZM8.68,8.68l-1.68-1.68h-1v-3h2.07c.21,0,.39.12.47.34l1.71,3.68c-.62,0-1.18.25-1.58.66ZM10.27,11.27c-.55,0-1-.45-1-1s.45-1,1-1,1,.45,1,1-.45,1-1,1Z"/>
</svg>