<?xml version="1.0" encoding="UTF-8"?>
<svg id="Layer_1" data-name="Layer 1" xmlns="http://www.w3.org/2000/svg" viewBox="0 0 16 16">
  <path class="cls-1" d="M5.99,8.01l-3.99,1.99.5-2h-.5c-.55,0-1-.45-1-1V3c0-.55.45-1,1-1h6c.55,0,1,.45,1,1v3h-1c-1.1,0-2,.91-2.01,2.01ZM8,7h6c.55,0,1,.45,1,1v4c0,.55-.45,1-1,1h-.5l.5,2-4-2h-2c-.55,0-1-.45-1-1v-4c0-.55.45-1,1-1ZM12.5,1c-.07.62-.34,1.22-.81,1.69s-1.07.73-1.69.81c.62.07,1.22.33,1.69.81s.74,1.08.81,1.69c.07-.62.34-1.22.81-1.69s1.07-.73,1.69-.81c-.62-.07-1.22-.33-1.69-.81-.48-.48-.74-1.08-.81-1.69Z"/>
</svg>