<?xml version="1.0" encoding="UTF-8"?>
<svg id="Layer_1" xmlns="http://www.w3.org/2000/svg" viewBox="0 0 16 16">
    <defs>
        <style>.cls-1{fill:#161617;}</style>
    </defs>
    <path class="cls-1"
        d="M13.45699,10.09675l-1.46774-3.01073-1.19488-1.02554-.67741.47987-2.34277-3.5565-3.086,5.15591-1.20431-.67736-1.46774,1.54301-1.01614,3.99459h14l-1.54301-2.90325ZM2.97931,9.89745l-.93898,1.0461.37206-1.65124.97456-.99283,2.72194,3.03919-3.12958-1.44123ZM8.90322,10.66132l-1.72178-1.32662.16901-1.95734-2.19129.8959,2.44593-4.08465,1.79418,2.87177-.11116.94288,1.1981-1.03836,2.22749,4.3456-3.81048-.64916ZM4.5,4.48673c0,.82843-.67157,1.5-1.5,1.5s-1.5-.67157-1.5-1.5.67157-1.5,1.5-1.5,1.5.67157,1.5,1.5Z" />
</svg>