<?xml version="1.0" encoding="iso-8859-1"?>
<!-- Generator: Adobe Illustrator 26.2.1, SVG Export Plug-In . SVG Version: 6.00 Build 0)  -->
<svg version="1.1" id="Layer_1" xmlns="http://www.w3.org/2000/svg" xmlns:xlink="http://www.w3.org/1999/xlink" x="0px" y="0px"
	 viewBox="0 0 16 16" style="enable-background:new 0 0 16 16;" xml:space="preserve">
<path d="M14,11H6v2h8V11z M14,7H6v2h8V7z M14,3H6v2h8V3z"/>
<g>
	<path d="M1.999,4.644h0.73V2.302H2.144V2.031c0.295-0.05,0.505-0.13,0.681-0.235h0.32v2.848h0.656v0.346H1.999V4.644z"/>
</g>
<g>
	<path d="M1.804,9.509c0.951-0.932,1.501-1.521,1.501-2.037c0-0.365-0.2-0.621-0.605-0.621c-0.265,0-0.496,0.17-0.676,0.381
		L1.789,7.006c0.265-0.3,0.551-0.495,0.961-0.495c0.591,0,0.961,0.375,0.961,0.936c0,0.621-0.561,1.196-1.336,1.987
		C2.549,9.418,2.745,9.408,2.91,9.408h0.956v0.355H1.804V9.509z"/>
</g>
<g>
	<path d="M1.733,13.884l0.21-0.271c0.19,0.201,0.44,0.376,0.816,0.376c0.385,0,0.661-0.226,0.661-0.581
		c0-0.38-0.26-0.635-1.021-0.635v-0.315c0.676,0,0.906-0.261,0.906-0.596c0-0.306-0.21-0.501-0.55-0.501
		c-0.266,0-0.491,0.136-0.681,0.32l-0.221-0.26c0.246-0.23,0.541-0.4,0.916-0.4c0.556,0,0.956,0.295,0.956,0.811
		c0,0.386-0.23,0.631-0.576,0.761v0.021c0.385,0.09,0.691,0.37,0.691,0.811c0,0.565-0.471,0.91-1.056,0.91
		C2.274,14.334,1.949,14.119,1.733,13.884z"/>
</g>
</svg>
