<?xml version="1.0" encoding="UTF-8"?>
<svg id="Layer_1" data-name="Layer 1" xmlns="http://www.w3.org/2000/svg" viewBox="0 0 16 16">
  <path d="M11.48,4.99l.52-1.99h-6c-1.66-.02-2.97,1.24-2.99,2.89,0,.55.41,1.09.97,1.1h.02v1l-.53,2.65c-.2.98.38,1.89,1.25,2.21-.02.13-.07.31-.2.45-.12.12-.28.18-.5.18h-2v.5h2c.36,0,.65-.11.86-.33.21-.22.29-.49.33-.69.06,0,.12.02.19.02.93,0,.74-.66.92-1.58l1.68-3.42v-1h2.98l.25-1h-.5l.25-1h.5ZM9.88,5.49h-2.9s0-.5.5-.5h2.5l-.1.5ZM13.74,4.73h-.93c-.14,0-.25-.11-.25-.25h0c0-.14.11-.25.25-.25h.93c.14,0,.25.11.25.25h0c0,.14-.11.25-.25.25ZM13.76,2.58l-.68.68c-.1.1-.26.1-.35,0h0c-.1-.1-.1-.26,0-.35l.68-.68c.1-.1.26-.1.35,0h0c.1.1.1.26,0,.35ZM12.62,6.96l-.59-.59c-.1-.1-.1-.26,0-.35h0c.1-.1.26-.1.35,0l.59.59c.1.1.1.26,0,.35h0c-.1.1-.26.1-.35,0Z"/>
</svg>