<?xml version="1.0" encoding="UTF-8"?>
<svg id="Layer_1"
    xmlns="http://www.w3.org/2000/svg" viewBox="0 0 16 16">
    <path d="M12,10c-.6012,0-1.13403,.27069-1.50067,.69055l-4.54468-2.27234c.02881-.13507,.04535-.2746,.04535-.41821,0-.14368-.01654-.28314-.04535-.41821l4.54468-2.2724c.36664,.4198,.89954,.69061,1.50067,.69061,1.10455,0,2-.89545,2-2,0-1.10461-.89545-2-2-2s-2,.89539-2,2c0,.14362,.01654,.28314,.04535,.41821l-4.54468,2.27234c-.36664-.41986-.89948-.69055-1.50067-.69055-1.10455,0-2,.89539-2,2,0,1.10455,.89545,2,2,2,.60114,0,1.13403-.27081,1.50067-.69061l4.54468,2.2724c-.02881,.13507-.04535,.27454-.04535,.41821,0,1.10455,.89545,2,2,2s2-.89545,2-2c0-1.10461-.89545-2-2-2Z"/>
</svg>