<?xml version="1.0" encoding="UTF-8"?>
<svg id="Layer_1" data-name="Layer 1" xmlns="http://www.w3.org/2000/svg" viewBox="0 0 16 16">
  <path class="cls-1" d="M14.21,7.52l-.11-.06c-2.36-1.29-4.3-3.23-5.59-5.59l-.06-.11c-.19-.36-.7-.36-.9,0l-.06.11c-1.29,2.36-3.23,4.3-5.59,5.59l-.11.06c-.36.19-.36.7,0,.9l.11.06c2.36,1.29,4.3,3.23,5.59,5.59l.06.11c.19.36.7.36.9,0l.06-.11c1.29-2.36,3.23-4.3,5.59-5.59l.11-.06c.36-.19.36-.7,0-.9ZM12.5,7.88l-.08.04c-1.58.87-2.89,2.17-3.75,3.75l-.04.08c-.13.24-.47.24-.6,0l-.04-.08c-.87-1.58-2.17-2.89-3.75-3.75l-.08-.04c-.24-.13-.24-.47,0-.6l.08-.04c1.58-.87,2.89-2.17,3.75-3.75l.04-.08c.13-.24.47-.24.6,0l.04.08c.87,1.58,2.17,2.89,3.75,3.75l.08.04c.24.13.24.47,0,.6Z"/>
  <path class="cls-1" d="M11.36,7.6l-.03.02c-1.12.61-2.04,1.53-2.65,2.65l-.02.03c-.1.18-.35.18-.45,0l-.02-.03c-.61-1.12-1.53-2.04-2.65-2.65l-.03-.02c-.18-.1-.18-.35,0-.45l.03-.02c1.12-.61,2.04-1.53,2.65-2.65l.02-.03c.1-.18.35-.18.45,0l.02.03c.61,1.12,1.53,2.04,2.65,2.65l.03.02c.18.1.18.35,0,.45Z"/>
</svg>