<?xml version="1.0" encoding="UTF-8"?><svg id="Layer_1" xmlns="http://www.w3.org/2000/svg" viewBox="0 0 16 16"><defs><style>.cls-1{fill:#161617;stroke-width:0px;}</style></defs><path class="cls-1" d="M11.49773,2c-.0739.61597-.33487,1.21532-.81091,1.6904-.47424.47329-1.07216.73306-1.68682.80785.61608.07413,1.21551.33428,1.6908.80861.4767.47574.73795,1.07613.81129,1.69314.0739-.61597.33487-1.21532.81091-1.6904.47424-.47329,1.07225-.73306,1.68701-.80785-.61618-.07413-1.21561-.33428-1.69089-.80861-.4768-.47574-.73805-1.07613-.81138-1.69314Z"/><path class="cls-1" d="M7.495,3c-.16258,1.35513-.73671,2.6737-1.784,3.71888-1.04334,1.04123-2.35875,1.61274-3.71101,1.77728,1.35538.16308,2.67412.73542,3.71975,1.77894,1.04875,1.04663,1.6235,2.36749,1.78483,3.72491.16258-1.35513.73671-2.6737,1.784-3.71888,1.04334-1.04123,2.35896-1.61274,3.71142-1.77728-1.35559-.16308-2.67433-.73542-3.71996-1.77894-1.04896-1.04663-1.62371-2.36749-1.78504-3.72491Z"/></svg>