<?xml version="1.0" encoding="UTF-8"?><svg id="Layer_1" xmlns="http://www.w3.org/2000/svg" xmlns:xlink="http://www.w3.org/1999/xlink" viewBox="0 0 16 16"><defs><style>.cls-1{fill:url(#linear-gradient);stroke-width:0px;}</style><linearGradient id="linear-gradient" x1="2.04359" y1="8" x2="13.95641" y2="8" gradientUnits="userSpaceOnUse"><stop offset="0" stop-color="#009b65"/><stop offset=".5" stop-color="#00a7d2"/><stop offset="1" stop-color="#bb3bff"/></linearGradient></defs><path class="cls-1" d="M13.95641,7.97195c.00002.00284-.00101.05798-.00144.06564-.0012.02293-.00622.06865-.00622.06865-.06214.51372-.49935.91187-1.02983.91187-.5731,0-1.0377-.46459-1.0377-1.03769,0-.10786.04477-.33025.04384-.34059.03399-.22888.07012-.45753.07012-.69585,0-2.61493-2.11989-4.73476-4.73483-4.73476-.64187,0-1.2526.13067-1.81076.36211.76731-.35767,1.61564-.57133,2.51819-.57133,3.30191,0,5.9795,2.67219,5.98863,5.97195ZM4.00481,9.05603c0-.23832.03613-.46696.07012-.69585-.00093-.01033.04382-.23273.04382-.34059,0-.5731-.4646-1.03768-1.0377-1.03768-.53049,0-.9677.39815-1.02982.91187,0,0-.00501.04571-.00622.06865-.00043.00765-.00148.0628-.00144.06564.00913,3.29976,2.6867,5.97194,5.98861,5.97194.90255,0,1.7509-.21365,2.51821-.57132-.55819.23144-1.1689.36211-1.81076.36211-2.61494,0-4.73483-2.11983-4.73483-4.73477ZM8,9.59429c.91519,0,1.70577.19746,2.07788.48359-.28611-.37211-.48359-1.1627-.48359-2.07788s.19747-1.70576.48359-2.07787c-.37211.28611-1.1627.48358-2.07788.48358s-1.70576-.19746-2.07787-.48358c.28611.37211.48358,1.16269.48358,2.07787s-.19747,1.70577-.48359,2.07788c.37211-.28612,1.16269-.48359,2.07787-.48359Z"/></svg>