<?xml version="1.0" encoding="UTF-8"?>
<svg id="Layer_1"
    xmlns="http://www.w3.org/2000/svg" viewBox="0 0 16 16">
    <path class="cls-1" d="M7.24867,2.54916c0.41287,-0.41287,1.08379,-0.41287,1.49786,0,0.41287,0.41287,0.41287,1.08379,0,1.49786,-0.08762,0.08762,-0.18723,0.15603,-0.29405,0.20644v1.85912c0.46208,0.08762,0.90376,0.31085,1.26142,0.66851,0.16563,0.16563,0.30245,0.35166,0.41047,0.54729l1.7679,-0.5737c0.0156,-0.11642,0.04921,-0.23164,0.10562,-0.34326,0.26525,-0.52089,0.90256,-0.72853,1.42344,-0.46328,0.52089,0.26525,0.72853,0.90256,0.46328,1.42344,-0.26525,0.52089,-0.90256,0.72853,-1.42344,0.46328,-0.11042,-0.05641,-0.20524,-0.13082,-0.28685,-0.21604l-1.7679,0.5737c0.08762,0.69492,-0.12602,1.41984,-0.63851,1.96474l1.09339,1.50386c0.11522,-0.0216,0.23644,-0.0252,0.35886,-0.0048,0.5773,0.09122,0.97217,0.63371,0.87975,1.21101,-0.09122,0.5773,-0.63371,0.97217,-1.21101,0.87975,-0.5773,-0.09122,-0.97217,-0.63371,-0.87975,-1.21101,0.0192,-0.12242,0.06001,-0.23644,0.11642,-0.33966l-1.09219,-1.50386c-0.65291,0.30725,-1.41384,0.30725,-2.06676,0l-1.09219,1.50386c0.05641,0.10322,0.09602,0.21604,0.11642,0.33966,0.09122,0.5785,-0.30245,1.11979,-0.87975,1.21101,-0.5785,0.09122,-1.11979,-0.30245,-1.21101,-0.87975,-0.09122,-0.5785,0.30245,-1.11979,0.87975,-1.21101,0.12242,-0.0192,0.24364,-0.0156,0.35886,0.0048l1.09339,-1.50386c-0.51249,-0.54489,-0.72612,-1.27102,-0.63851,-1.96474l-1.7679,-0.5737c-0.08041,0.08521,-0.17643,0.15963,-0.28685,0.21604,-0.52089,0.26525,-1.1582,0.05881,-1.42344,-0.46328,-0.26525,-0.52089,-0.05761,-1.1582,0.46328,-1.42344,0.52089,-0.26525,1.1582,-0.05881,1.42344,0.46328,0.05641,0.11042,0.09002,0.22684,0.10562,0.34326l1.7679,0.5737c0.10802,-0.19683,0.24484,-0.38047,0.41047,-0.54729,0.35766,-0.35766,0.79934,-0.5809,1.26142,-0.66851v-1.85912c-0.10562,-0.05041,-0.20524,-0.11882,-0.29405,-0.20644,-0.41287,-0.41287,-0.41287,-1.08379,0,-1.49786ZM9.32143,12.25402c-0.42007,0.14763,-0.86535,0.22444,-1.32383,0.22444s-0.90376,-0.07681,-1.32383,-0.22444l0.5665,-0.77893c0.24484,0.06241,0.49929,0.09362,0.75733,0.09362s0.51249,-0.03241,0.75733,-0.09362l0.5665,0.77893ZM11.97869,8.40016c0,0.03241,0.0024,0.06481,0.0024,0.09722,0,0.88575,-0.28805,1.7271,-0.81974,2.41842l-0.5665,-0.77773h0c0.27365,-0.43087,0.43447,-0.92296,0.46688,-1.44025l0.91456,-0.29765ZM4.93348,8.69781c0.03241,0.50169,0.18843,0.99857,0.46568,1.43785l-0.5665,0.77893c-0.5641,-0.73693,-0.83654,-1.62748,-0.81494,-2.51443l0.91456,0.29765ZM6.85981,5.64449c-0.37686,0.15003,-0.73093,0.37686,-1.03458,0.68052h0c-0.06721,0.06721,-0.12962,0.13682,-0.18963,0.20884l-0.91576,-0.29765c0.13562,-0.19443,0.28805,-0.38047,0.46088,-0.5545,0.47528,-0.47528,1.05018,-0.81614,1.67789,-1.00217v0.96497ZM9.1354,4.67952c0.62771,0.18603,1.20261,0.52689,1.67789,1.00217,0.17163,0.17163,0.32646,0.35766,0.46208,0.5545l-0.91576,0.29765c-0.06001,-0.07201,-0.12242,-0.14162,-0.18963,-0.20884h0c-0.30485,-0.30365,-0.65771,-0.53049,-1.03458,-0.68052v-0.96497Z"/>
</svg>