<?xml version="1.0" encoding="UTF-8"?>
<svg id="Layer_1" data-name="Layer 1" xmlns="http://www.w3.org/2000/svg" viewBox="0 0 16 16">
  <path class="cls-1" d="M8,11.95c.9,0,1.72-.31,2.39-.83v2.88h-4.77v-2.88c.66.52,1.49.83,2.39.83ZM11.19,10.64h-.1v3.36h2.91v-.48c0-1.59-1.26-2.89-2.81-2.89ZM2,13.52v.48h2.91v-3.36h-.1c-1.55,0-2.81,1.29-2.81,2.89ZM8,11.23c1.78,0,3.22-1.48,3.22-3.31v-.52h-6.44v.52c0,1.82,1.44,3.31,3.22,3.31ZM12,6.81v-.73s-.8,0-.8,0c-.06-.59-.27-1.14-.62-1.62-.31-.42-.71-.76-1.17-.99v1.8h-.7v-2.27h-1.41v2.27h-.7v-1.8c-.46.23-.86.57-1.17.99-.35.48-.56,1.03-.62,1.62h-.81v.73h8.01Z"/>
</svg>