<svg xmlns="http://www.w3.org/2000/svg" width="197" height="64" viewBox="0 0 197 64">
  <g id="Cluster" transform="translate(-52)">
    <g id="Icon" transform="translate(52)">
      <g id="Rectangle_7" data-name="Rectangle 7" fill="#161617" stroke="#707070" stroke-width="1" opacity="0">
        <rect width="64" height="64" stroke="none"/>
        <rect x="0.5" y="0.5" width="63" height="63" fill="none"/>
      </g>
      <g id="Group_6" data-name="Group 6" transform="translate(-856.578 -422)">
        <path id="Path_9616" data-name="Path 9616" d="M-129.136,204.438c.136-.985.252-1.973.41-2.954a25.7,25.7,0,0,1,4.3-10.571,26.653,26.653,0,0,1,13.336-10.222,26.729,26.729,0,0,1,11.6-1.345,26.089,26.089,0,0,1,13.358,5.161,26.556,26.556,0,0,1,9.813,14.061,26.384,26.384,0,0,1,.811,11.3,26.707,26.707,0,0,1-10.774,18.06,25.078,25.078,0,0,1-7.2,3.733,1.362,1.362,0,0,1-2-1.415c-.01-2.333,0-4.666-.006-7a7.835,7.835,0,0,0-.575-3.395,20.636,20.636,0,0,0-1.071-1.79c.983-.183,2.052-.32,3.088-.587a11.293,11.293,0,0,0,6.869-4.335,12.682,12.682,0,0,0,2.02-5.854,15.423,15.423,0,0,0-.063-4.766,9.774,9.774,0,0,0-2.278-4.665.654.654,0,0,1-.145-.745,9.185,9.185,0,0,0-.346-6.518.606.606,0,0,0-.429-.278,4.657,4.657,0,0,0-2.645.519c-1.359.641-2.673,1.378-4.019,2.047a1.319,1.319,0,0,1-.823.132,25.511,25.511,0,0,0-12.594,0,1.167,1.167,0,0,1-.818-.146,19.388,19.388,0,0,0-5.484-2.476c-.033-.009-.066-.022-.1-.03-1.257-.265-1.48-.123-1.841,1.112a9.14,9.14,0,0,0,.01,5.736.655.655,0,0,1-.1.545c-2.261,2.571-2.773,5.612-2.465,8.9a15.393,15.393,0,0,0,1.5,5.491,9.593,9.593,0,0,0,5.753,4.787,42.625,42.625,0,0,0,4.59,1.071c.08.018.162.027.177.03-.393.713-.8,1.417-1.167,2.139a1.99,1.99,0,0,0-.231.8.954.954,0,0,1-.835.964c-1.707.462-3.4.76-5.032-.241a5.921,5.921,0,0,1-2-2.122,5.711,5.711,0,0,0-3.338-2.726,5.237,5.237,0,0,0-1.749-.083c-.355.021-.47.31-.23.609a3.214,3.214,0,0,0,.793.824,7.31,7.31,0,0,1,2.907,3.627,6.346,6.346,0,0,0,1.425,2.3,6.1,6.1,0,0,0,3.961,1.466c1.268.058,2.542.012,3.9.012,0,.763,0,1.653,0,2.544,0,.684.026,1.368.024,2.052a1.4,1.4,0,0,1-2.028,1.465,26.039,26.039,0,0,1-10.425-6.512,27.255,27.255,0,0,1-6.369-10.163,26.827,26.827,0,0,1-1.379-6.777c-.016-.207-.055-.411-.083-.616Z" transform="translate(991.714 248.5)" fill="#161617"/>
      </g>
    </g>
  </g>
</svg>
