<svg id="Layer_1" data-name="Layer 1" xmlns="http://www.w3.org/2000/svg" viewBox="0 0 16 16"><path d="M7.29389,3.61826l-.70609.70609L6.43564,2.76ZM8.05,7.75434l5.32089,5.32088-.42827.42826L8.47911,9.04ZM4.88906,2.62556l.147,1.83834-.42827.42827L2.77351,4.74941l-.072-.78087L4.11372,2.55636ZM4.47039,6.44347l-.70694.70523-.8574-.85739Zm-.70694,2.1174H6.5878l5.49741,5.4974,1.273.44173.857-.857.13957-1.55173-.35307-.353h-.70608l-.70609-.70609,0-.70609-.353-.353h-.70609V9.267L10.47129,8.20783,9.7652,8.19312l-.353-.33833V7.1487l-.70609-.70609V3.61826L6.89041,1.80261,3.76345,1.5,1.6452,3.61826l.30259,3.127Z" opacity="0.7"/></svg>