<svg id="Layer_1" data-name="Layer 1" xmlns="http://www.w3.org/2000/svg" viewBox="0 0 40 40"><path d="M34.5246,33.65027c-3.04761,0-4.57141-15.936-4.57141-15.936v-.064c0-1.52381-.76191-1.52381-.76191-1.52381h-.20422c-.227-.11584-.55768-.451-.55768-1.45983V13.14282C28.11121,10.504,25.55231,8.967,21.639,8.64514H22.75l.31653-.31653a1.08059,1.08059,0,0,0,0-1.52819L22.75,6.48389H21.66937V4.90643A2.70869,2.70869,0,1,0,18.42743,4.795V6.48389H17.3468l-.31653.31653a1.08061,1.08061,0,0,0,0,1.52819l.31653.31653h1.111c-3.91333.3219-6.47222,1.85889-6.7904,4.49768v1.52381c0,1.00879-.33063,1.344-.55768,1.45983h-.20422s-.7619,0-.7619,1.58777c0,0-1.52381,15.936-4.37488,15.936H5.5722C4.0484,33.65027,4.0484,36,4.0484,36h32S36.0484,33.65027,34.5246,33.65027ZM20.0484,4.32257a1.621,1.621,0,1,1,1.621-1.621A1.62094,1.62094,0,0,1,20.0484,4.32257Z" opacity="0.7"/><path d="M16.18982,37A3.98144,3.98144,0,0,0,23.907,37Z" opacity="0.7"/></svg>