<svg id="Layer_1" data-name="Layer 1" xmlns="http://www.w3.org/2000/svg" viewBox="0 0 16 16"><path d="M9.72907,2.25239,9.56146,3.97555l-.77778-.77777ZM7.47812,9.17,2.56146,14.08666l-.47175-.47175L7.95082,7.7538Zm4.80861-7.14194,1.55555,1.55555-.07927.86016L11.74248,4.601l-.47175-.47175.16194-2.025ZM13.617,6.14222l-.94444.94444-.77873-.77683Zm1.05556.5.33331-3.44444L12.67257.86444l-3.44445.33334-2,2V6.30889l-.77778.77777v.77778l-.38888.37269-.77778.0162L4.117,9.42v.77778H3.33923l-.38888.38888,0,.77778-.77777.77778H1.39479l-.38891.38889.15374,1.70928.944.944,1.40231-.48658L9.56146,8.64222h3.11111Z" opacity="0.7"/></svg>