<svg id="Layer_1" data-name="Layer 1" xmlns="http://www.w3.org/2000/svg" viewBox="0 0 16 16"><path d="M12.04468,7.34821l-.65177-.65178,1.444-.14045Zm-3.81792.69793L3.31518,12.95771l-.39532-.39532L7.04,8.44225ZM12.961,5.12837l-1.69693.1357-.39532-.39532.13177-1.69319.72081-.06643L13.0249,4.41267ZM9.4368,4.74191l-.651-.65257.79144-.79144ZM7.48227,4.08934V6.69643L2.40775,11.77095,2,12.94608l.791.791,1.43237.12884.32588-.32591v-.65177l.65178-.65178h.65177l.32589-.32588v-.65178H6.8305l.97766-.97765.01358-.65178.3123-.32588h.65178l.65177-.65178h2.60709l1.676-1.676L14,4.08934,12.04468,2.134l-2.88642.27932Z" style="fill:#161617"/></svg>