<svg id="Layer_1" data-name="Layer 1" xmlns="http://www.w3.org/2000/svg" viewBox="0 0 16 16"><path d="M13.939,7.173,15.5,6.53l-1.143-2.772L12.796,4.401a5.92334,5.92334,0,0,0-1.181-1.186l.648-1.558L9.497.505,8.848,2.064a5.8892,5.8892,0,0,0-.846-.061,6.006,6.006,0,0,0-.828.058L6.529.5,3.758,1.643l.644,1.561A5.9269,5.9269,0,0,0,3.215,4.385l-1.559-.648L.504,6.50305l1.559.649A6.0222,6.0222,0,0,0,2.06,8.827L.5,9.47l1.142,2.772,1.561-.643a6.02676,6.02676,0,0,0,1.181,1.186l-.648,1.559,2.768,1.151.648-1.558a5.84632,5.84632,0,0,0,.843.06,5.924,5.924,0,0,0,.832-.058L9.47,15.5l2.772-1.142-.643-1.561A6.03465,6.03465,0,0,0,12.786,11.616l1.557.648,1.152-2.768-1.559-.648A5.90966,5.90966,0,0,0,13.939,7.173ZM11.99939,9.90247c0,.264-.38055.54223-1.03418.76165-.07489.02515-.1543.04859-.236.072-.0857.02453-.17481.048-.26856.07025a10.72149,10.72149,0,0,1-2.46264.26226A10.7041,10.7041,0,0,1,5.5376,10.8064c-.0943-.02228-.18286-.04572-.26856-.07025-.08227-.02344-.16174-.04688-.236-.07258C4.37939,10.4447,4,10.16644,4,9.90247v-.7331c.00854.00861.02228.01544.03253.024a1.69794,1.69794,0,0,0,.2417.17432l.02173.01367a2.95227,2.95227,0,0,0,.33484.16174l.00683.00342c.024.01025.04914.02.07312.02972.03833.01429.08057.02741.11945.04053.06744.0246.13544.04913.20569.07141.0246.00806.04687.01715.07312.02515.01257.004.028.00744.0423.01147.13372.03882.27484.07428.42169.10572.032.00738.0617.01428.09485.02111.156.03315.31884.06226.4851.08741.032.00512.06513.00915.09717.01373.15369.02228.30969.04114.47022.05768l.076.0086c.176.016.35485.02912.53253.03827.04059.00171.08056.00287.1206.00513.1828.008.36682.01318.54853.01318.18225,0,.36511-.00519.54907-.01318l.11944-.00513c.17884-.00915.35767-.02228.53424-.03827l.07428-.0086c.16059-.016.31769-.0354.47254-.05768.032-.00458.06512-.00861.09772-.01373q.24939-.03773.48339-.08741c.03315-.00683.064-.01373.096-.02111.14569-.03144.28565-.0669.41992-.10462.0149-.00513.03144-.00854.04572-.01312.02515-.00745.04687-.01654.072-.0246.07141-.02228.1377-.04681.20624-.07141.03772-.01312.08-.02624.11719-.04.02508-.0097.05023-.01941.07428-.03027l.00854-.00342a2.97241,2.97241,0,0,0,.33313-.16174c.00916-.00458.016-.01026.02344-.01483A1.78958,1.78958,0,0,0,11.9657,9.194c.0097-.00861.02344-.016.03369-.0246Zm0-1.90729c0,.264-.38055.54223-1.03418.76166-.07489.02514-.1543.04858-.236.072-.0857.02453-.17481.048-.26856.07025A10.72143,10.72143,0,0,1,7.998,9.16138,10.704,10.704,0,0,1,5.5376,8.89911c-.0943-.02228-.18286-.04572-.26856-.07025-.08227-.02344-.16174-.04688-.236-.07257C4.37939,8.53741,4,8.25916,4,7.99518v-.7331c.00854.00855.02228.01545.03253.024a1.697,1.697,0,0,0,.2417.17426l.02173.01373a2.94215,2.94215,0,0,0,.33484.16168l.00683.00348c.024.01026.04914.02.07312.02966.03833.01429.08057.02686.11945.04059.06744.0246.13544.04914.20569.07141.0246.008.04687.0177.07312.02515.01257.004.028.00745.0423.012.13372.03827.27484.07312.42169.10511.032.00689.0617.01428.09485.02118.156.03314.31884.06225.4851.08795.032.00458.06513.0086.09717.01318.15369.02228.30969.04114.47022.05768l.076.00861c.176.01654.35485.02911.53253.03826.04059.00171.08056.00342.1206.00574.1828.00739.36682.01251.54853.01251.18225,0,.36511-.00512.54907-.01251.04-.00232.07947-.004.11944-.00574.17884-.00915.35767-.02172.53424-.03826L9.275,8.10315c.16059-.016.31769-.0354.47254-.05768.032-.00458.06512-.0086.09772-.01318q.24939-.03855.48339-.08795c.03315-.0069.064-.01429.096-.02118q.21854-.048.41992-.10456c.0149-.00512.03144-.00854.04572-.01312.02515-.0069.04687-.0166.072-.0246.07141-.02227.1377-.04681.20624-.07141.03772-.01373.08-.0263.11719-.04.02508-.0097.05023-.01947.07428-.03027l.00854-.00348a2.96207,2.96207,0,0,0,.33313-.16168c.00916-.00458.016-.01025.02344-.01483a1.79509,1.79509,0,0,0,.24054-.17261c.0097-.00854.02344-.01538.03369-.02454ZM10.96576,6.85754c-.076.0257-.1543.04969-.23712.07257-.0857.02454-.17487.048-.26856.07026a10.7218,10.7218,0,0,1-2.46154.26171A10.7094,10.7094,0,0,1,5.5387,7.00037c-.09369-.02228-.1828-.04572-.268-.06971-.08343-.02343-.16174-.04742-.23712-.07312-.65253-.21826-1.03308-.49713-1.03308-.7611,0-.5514,1.6416-1.165,3.998-1.165C10.35669,4.9314,12,5.545,12,6.09644,12,6.36041,11.61945,6.63928,10.96576,6.85754Z" opacity="0.7"/></svg>