<svg id="Layer_1" data-name="Layer 1" xmlns="http://www.w3.org/2000/svg" viewBox="0 0 16 16"><path d="M8,1a2.5424,2.5424,0,0,1,2.54578,2.54578V4.81831c.75452,0,.44085,1.086,0,1.69695a4.98408,4.98408,0,0,1-.39083.42442c-.10932.29366-.22721.588-.36154.86526l.24293,1.25538h.50944l3.2049,1.782a2.506,2.506,0,0,1,1.239,2.16352V15H1V13.04869A2.52357,2.52357,0,0,1,2.239,10.868l3.21527-1.8077h.50944l.24579-1.24681c-.13576-.28008-.25436-.57732-.3644-.87383a4.98408,4.98408,0,0,1-.39083-.42442c-.44085-.6109-.75452-1.69695,0-1.69695V3.54578A2.5424,2.5424,0,0,1,8,1" opacity="0.7"/></svg>