<svg id="Layer_1" data-name="Layer 1" xmlns="http://www.w3.org/2000/svg" viewBox="0 0 16 16"><path d="M13.55679,11.58006c-.01108.00682-.02131.01534-.035.02216a4.42427,4.42427,0,0,1-.49691.24121l-.01278.00512c-.0358.01619-.0733.03068-.11081.04517-.0554.02046-.11847.03921-.17473.05966-.10228.03665-.20115.0733-.30769.10654-.0375.01194-.06989.02643-.10739.03666-.02131.00681-.046.01193-.06819.0196q-.30045.08438-.62646.156c-.04773.01022-.09376.0213-.1432.03153q-.349.07416-.72107.13126c-.04858.00682-.098.01279-.14575.01961-.231.03324-.46537.06222-.70488.08608l-.1108.01279c-.26337.02471-.53015.04346-.79693.0571-.05967.00256-.11848.00512-.17814.00853-.27445.01108-.5472.01875-.81909.01875-.271,0-.5455-.00767-.81824-.01875-.05967-.00341-.11933-.006-.17985-.00853-.26507-.01364-.53185-.03239-.79437-.0571l-.11336-.01279c-.23951-.02472-.47219-.05284-.70147-.08608-.04773-.00682-.09717-.01279-.1449-.01961-.248-.03835-.49094-.08182-.72363-.13126-.04943-.01023-.09376-.02131-.14149-.03153-.21905-.04773-.42957-.09973-.629-.15683-.02131-.00682-.04432-.01194-.06307-.0179-.03921-.01108-.07245-.02557-.1091-.03751-.10484-.03324-.20626-.06989-.30684-.10654-.058-.02045-.121-.0392-.17814-.06051-.03579-.01449-.0733-.029-.1091-.04432l-.01022-.00512a4.39954,4.39954,0,0,1-.49947-.24121c-.01193-.00682-.02046-.01363-.03239-.02045a2.531,2.531,0,0,1-.36054-.26c-.01534-.01278-.03579-.023-.04858-.03579v1.09354c0,.39378.56595.80886,1.541,1.13531.1108.03835.22928.0733.352.10824.12785.03665.26.0716.4006.10484a15.96946,15.96946,0,0,0,3.67015.39122,15.99555,15.99555,0,0,0,3.67355-.39122c.13979-.03324.27275-.06819.4006-.10484.12188-.03494.24036-.06989.352-.10739.97507-.3273,1.54273-.74238,1.54273-1.13616V11.286c-.01534.01363-.0358.02386-.05029.03665a2.67567,2.67567,0,0,1-.35883.2574m.41-2.03281c0-.8225-2.45131-1.73791-5.96889-1.73791-3.515,0-5.96378.91541-5.96378,1.73791,0,.39378.56766.80971,1.541,1.1353.11251.03836.22928.07416.35372.1091.127.0358.26.07075.39974.104a15.97721,15.97721,0,0,0,3.6693.39037,15.99546,15.99546,0,0,0,3.67185-.39037c.13978-.03324.27275-.06819.4006-.10484.12359-.03409.24036-.06989.35372-.10825.97507-.32559,1.54272-.74152,1.54272-1.1353M3.60721,7.31462,2.389,7.21092,2.5734,5.075l1.2182.10273a4.30124,4.30124,0,0,1,.55762-1.064l-.787-.92328L5.22172,1.80784l.78857.92377A4.41073,4.41073,0,0,1,7.1655,2.36839l.104-1.20355,2.1629.1831L9.32792,2.551a4.26161,4.26161,0,0,1,.5617.24029,4.3466,4.3466,0,0,1,.51569.31116l.93445-.77856,1.39947,1.64062-.935.77808a4.27639,4.27639,0,0,1,.36816,1.14184l1.21661.10218-.14367,1.66186a11.02316,11.02316,0,0,0-2.67926-.66663c.00763-.05224.023-.10162.02764-.1549A2.67642,2.67642,0,0,0,9.141,4.219a2.74525,2.74525,0,0,0-3.17169.48571,2.599,2.599,0,0,0-.75391,2.31,12.82474,12.82474,0,0,0-1.59931.33612C3.61393,7.33848,3.60929,7.327,3.60721,7.31462Zm4.39106-.50488c-.35816,0-.75281.01275-1.16321.03753a1.04861,1.04861,0,0,1-.02747-.33905A1.06879,1.06879,0,0,1,7.122,5.84141,1.09173,1.09173,0,0,1,8.38981,5.6472,1.071,1.071,0,0,1,8.971,6.69084a.99479.99479,0,0,1-.03888.1427C8.60428,6.81749,8.28953,6.80974,7.99827,6.80974Z" opacity="0.7"/></svg>