<svg id="Layer_1" data-name="Layer 1" xmlns="http://www.w3.org/2000/svg" viewBox="0 0 16 16"><path d="M5.81708,14h4.18927a2.09687,2.09687,0,0,1-4.18927,0Zm8.79584-2.08276c-.572,0-1.02363-1.23011-1.35877-2.66724h-.08227L8.30566,12.03076l.73926-2.95947A1.87674,1.87674,0,0,1,7.96875,7.375v-2.5A1.87705,1.87705,0,0,1,9.84375,3h2.00671V2.69336c-.145-1.203-1.31628-1.90192-3.10772-2.04211v-.375c0-.11658-.12433-.21436-.30207-.27625H7.66339c-.17816.06189-.30194.15967-.30194.27625v.375C5.57.79144,4.39874,1.49036,4.25372,2.69336V3.384c0,.45716-.1499.60907-.2528.66156H3.90839s-.34534,0-.34534.71967c0,0-.69055,7.152-1.98273,7.152h-.089c-.69067,0-.69067,1.06488-.69067,1.06488H15.30353S15.30353,11.91724,14.61292,11.91724ZM15.09375,4h-5.25a.875.875,0,0,0-.875.875v2.5a.875.875,0,0,0,.875.875h.4375L9.84375,10l3.0625-1.75h2.1875a.875.875,0,0,0,.875-.875v-2.5A.875.875,0,0,0,15.09375,4Z" opacity="0.7"/></svg>