<svg id="Layer_1" data-name="Layer 1" xmlns="http://www.w3.org/2000/svg" viewBox="0 0 40 40"><path d="M37,16v8a2,2,0,0,1-2,2H30l-7,4,1-4H23a2,2,0,0,1-2-2V16a2,2,0,0,1,2-2H35A2,2,0,0,1,37,16ZM35.28186,36h-32s0-2.34973,1.5238-2.34973H5.0022c2.85107,0,4.37488-15.936,4.37488-15.936,0-1.58777.7619-1.58777.7619-1.58777h.20422c.22705-.11584.55768-.451.55768-1.45983V13.14282C11.21906,10.504,13.778,8.967,17.69128,8.64514h-1.111l-.31653-.31653a1.08061,1.08061,0,0,1,0-1.52819l.31653-.31653h1.08063V4.795a2.69521,2.69521,0,1,1,3.24194.11145V6.48389h1.08063L22.3,6.80042a1.08061,1.08061,0,0,1,0,1.52819l-.31653.31653h-1.111c3.30371.27173,5.624,1.41925,6.4638,3.35486H22.91669a4.00458,4.00458,0,0,0-4,4v8a4.0069,4.0069,0,0,0,2.51025,3.7124L19.83954,34.062,30.44794,28h.37549c.73248,3.07727,1.71032,5.65027,2.93463,5.65027C35.28186,33.65027,35.28186,36,35.28186,36Zm-16-31.67743a1.621,1.621,0,1,0-1.621-1.621A1.62094,1.62094,0,0,0,19.28186,4.32257Zm0,35.67743a3.99066,3.99066,0,0,0,3.85858-3H15.42328A3.99077,3.99077,0,0,0,19.28186,40Z" fill="#4c4c4c"/></svg>