<svg id="Layer_1" data-name="Layer 1" xmlns="http://www.w3.org/2000/svg" viewBox="0 0 16 16"><path d="M15.3348,12.98214H.83187s0-1.06492.69063-1.06492h.08907c1.29215,0,1.98275-7.152,1.98275-7.152,0-.71961.34531-.71961.34531-.71961h.09255c.1029-.05249.25277-.20441.25277-.66161V2.69338C4.43,1.49035,5.60127.79145,7.39271.65126v-.375c0-.11656.12379-.21438.30192-.27625H8.472c.17768.06187.302.15969.302.27625v.375c1.79144.14019,2.96272.83909,3.10776,2.04212V3.384c0,.4572.14986.60912.25277.66161H12.227s.34531,0,.34531.69062v.029s.69061,7.152,2.07183,7.152C15.3348,11.91722,15.3348,12.98214,15.3348,12.98214ZM5.84833,14a2.09687,2.09687,0,0,0,4.18927,0Z" opacity="0.7"/></svg>