<svg id="Layer_1" data-name="Layer 1"
    xmlns="http://www.w3.org/2000/svg" viewBox="0 0 16 16">
    <polygon class="cls-1" points="12.26 8.735 14 14 8.75 12.237 11.045 11.78 8.015 8.758 8 8.742 7.985 8.758 8 8.772 4.977 11.795 7.273 12.245 2 13.985 3.762 8.742 4.22 11.037 7.235 8.022 7.242 8.015 7.258 8 7.242 7.985 7.227 8 4.197 4.97 3.74 7.265 2 2 7.25 3.762 4.955 4.22 7.985 7.242 8 7.258 8.015 7.242 8 7.227 11.023 4.205 8.727 3.755 14 2.015 12.238 7.258 11.78 4.963 8.742 8 8.758 8.015 8.773 8 11.803 11.03 12.26 8.735"/>
</svg>