<svg id="Layer_1" data-name="Layer 1"
    xmlns="http://www.w3.org/2000/svg" viewBox="0 0 16 16">
    <path class="cls-1" d="M8,14a2.04917,2.04917,0,0,1-2-2h4A2.04908,2.04908,0,0,1,8,14ZM2.75,11s0-.74551.5-.74551h.06454C4.25,10.25449,4.75,5.33563,4.75,5.33563c0-.50372.25-.50372.25-.50372h.067c.07452-.03671.183-.1431.183-.46317V3.88535c.105-.84211.953-1.33136,2.25-1.42951V2.19336c0-.08157.08963-.15006.21854-.19336h.56277C8.41,2.0433,8.5,2.11179,8.5,2.19336v.26248c1.297.09815,2.145.5874,2.25,1.42951v.48339c0,.32007.10849.42646.183.46317H11s.25,0,.25.4834v.02032s.5,4.91886,1.5,4.91886c.5,0,.5.74551.5.74551Z"/>
</svg>