<svg id="Layer_1" data-name="Layer 1"
    xmlns="http://www.w3.org/2000/svg" viewBox="0 0 16 16">
    <path class="cls-1" d="M1.5,8V8A6.5,6.5,0,0,0,8,14.5H8A6.5,6.5,0,0,0,14.5,8V8A6.5,6.5,0,0,0,8,1.5H8A6.5,6.5,0,0,0,1.5,8ZM8,12a1.02458,1.02458,0,0,1-1-1H9A1.02453,1.02453,0,0,1,8,12ZM4.5,10s0-.497.33331-.497h.043c.62366,0,.957-3.27924.957-3.27924,0-.33581.16669-.33581.16669-.33581h.04468c.04968-.02448.122-.0954.122-.30878V5.2569c.07-.5614.63531-.88758,1.5-.953v-.175c0-.05439.05975-.1.14569-.12891h.37518c.08576.02887.14575.07452.14575.12891v.175c.86469.06543,1.43.39161,1.5.953v.32226c0,.21338.07233.2843.122.30878H10s.16669,0,.16669.32227v.01354s.33331,3.27924,1,3.27924C11.5,9.503,11.5,10,11.5,10Z"/>
</svg>