<svg id="Layer_1" data-name="Layer 1"
    xmlns="http://www.w3.org/2000/svg" viewBox="0 0 16 16">
    <path class="cls-1" d="M7.04167,11h2a1,1,0,0,1-2,0Zm4.5-1h-7s0-.497.33331-.497h.043c.62366,0,.957-3.27924.957-3.27924,0-.33581.16669-.33581.16669-.33581h.04467c.04969-.02448.122-.0954.122-.30878V5.2569c.07-.5614.63532-.88758,1.5-.953v-.175c0-.05439.05976-.1.14569-.12891h.37519c.08575.02887.14575.07452.14575.12891v.175c.86468.06543,1.43.39161,1.5.953v.32226c0,.21338.07233.2843.122.30878h.04468s.16668,0,.16668.32227v.01354s.33332,3.27924,1,3.27924C11.54167,9.503,11.54167,10,11.54167,10Zm-3.5-7.5a5.5,5.5,0,1,1-5.5,5.5,5.50623,5.50623,0,0,1,5.5-5.5m0-1a6.5,6.5,0,1,0,6.5,6.5,6.5,6.5,0,0,0-6.5-6.5Z"/>
</svg>