<svg id="Layer_1" data-name="Layer 1" xmlns="http://www.w3.org/2000/svg" viewBox="0 0 16 16"><path d="M5.77479,6.01324c-.321.0705-.56851.12525-.62327.13725.006.003-.52951.13726-.80176.20551a3.16417,3.16417,0,0,0-2.349,2.96707,3.11168,3.11168,0,0,0,.0165.336l.0045.08925c.0075.069.01725.1365.02925.20475a3.04074,3.04074,0,0,0,.07575.351l.01125.045A3.14828,3.14828,0,0,0,5.12752,12.6074a3.11231,3.11231,0,0,0,.57152-.05325c.49126-.093.97877-.20476,1.467-.31426L6.82256,10.7016c-.46126.10126-.92327.19951-1.38678.28726l-.00525.00075-.03075-.01425a1.30584,1.30584,0,0,1-.22425.033l-.04876.00075a1.50868,1.50868,0,0,1-.99227-.36l-.054-.04725-.12675-.144-.10425-.13351-.021-.03825a1.69054,1.69054,0,0,1-.21526-.54l-.021-.1935-.0105-.15526a1.54679,1.54679,0,0,1,1.182-1.509c.24525-.06225.78076-.18,1.362-.30375Z" opacity="0.7"/><path d="M10.43666,6.041l-.35325,1.575c.73651.17625,1.38.33376,1.413.34576a1.51434,1.51434,0,0,1,.78826.768l.02925.066.05326.18525.0375.16425.00225.04426a1.66668,1.66668,0,0,1-.03525.57976l-.06375.18525-.05626.14251a1.54619,1.54619,0,0,1-1.39953.89327,1.66112,1.66112,0,0,1-.31275-.03075c-.38476-.07425-.768-.15675-1.15128-.23926l-.34651,1.54954c.135.03225.27.06525.40651.09675l-.01275-.0165c.27526.057.54976.11776.82577.17251a3.01965,3.01965,0,0,0,.57751.05625,3.18815,3.18815,0,0,0,2.81181-1.74,3.01754,3.01754,0,0,0,.12826-.31126l.03375-.0825.06075-.19726a3.04719,3.04719,0,0,0,.08175-.351l.00825-.04425a3.13166,3.13166,0,0,0-2.28155-3.51233c-.297-.07726-.77627-.19051-1.245-.29926" opacity="0.7"/><polygon points="7.932 1.393 6.875 5.075 7.624 5.075 7.925 8.107 9.125 4.325 8.374 4.325 7.932 1.393" opacity="0.7"/></svg>