<svg id="Layer_1" data-name="Layer 1"
    xmlns="http://www.w3.org/2000/svg" viewBox="0 0 16 16">
    <path class="cls-1" d="M4,4.023V2.977A.97647.97647,0,0,1,4.977,2h.046A.97647.97647,0,0,1,6,2.977V4.023A.9771.9771,0,0,1,5.023,5H4.977A.9771.9771,0,0,1,4,4.023ZM13,4V4.023A1.97906,1.97906,0,0,1,11.023,6h-.0459A1.97906,1.97906,0,0,1,9,4.023V4H7V4.023A1.97906,1.97906,0,0,1,5.023,6h-.0459A1.97906,1.97906,0,0,1,3,4.023V4A1,1,0,0,0,2,5v8a1,1,0,0,0,1,1H13a1,1,0,0,0,1-1V5A1,1,0,0,0,13,4ZM6,12H4V11H6Zm.001-1.999H4V9H6.001ZM6.001,8H4V7H6.001ZM9,12H7V11H9Zm0-1.999H7V9H9ZM9,8H7V7H9Zm3,4H10V11h2Zm.001-1.999H10V9h2.001Zm0-2.001H10V7h2.001ZM10,4.023V2.977A.97647.97647,0,0,1,10.977,2h.046A.97647.97647,0,0,1,12,2.977V4.023A.9771.9771,0,0,1,11.023,5h-.046A.9771.9771,0,0,1,10,4.023Z"/>
</svg>