<svg id="Layer_1" data-name="Layer 1" xmlns="http://www.w3.org/2000/svg" viewBox="0 0 16 16"><path d="M11.023,1h-.046A.97647.97647,0,0,0,10,1.977V3.023A.97711.97711,0,0,0,10.977,4h.046A.97711.97711,0,0,0,12,3.023V1.977A.97647.97647,0,0,0,11.023,1M11,6h2V8H11ZM8,6h2V8H8ZM5,6H7V8H5ZM2,6H4V8H2Zm9,3h2v2H11ZM8,9h2v2H8ZM5,9H7v2H5ZM2,9H4v2H2Zm3,5V12H7v2H5ZM2,14V12H4v2H2ZM9,2H6v.896A2.08371,2.08371,0,0,1,4.011,5c-.022,0-.044-.001-.066-.002A1.98646,1.98646,0,0,1,2,3.023V2.28A2.00168,2.00168,0,0,0,1,4.007V13a2.00009,2.00009,0,0,0,2,2h8.992A2.008,2.008,0,0,0,14,12.992V4.007A2.00168,2.00168,0,0,0,13,2.28v.616A2.08371,2.08371,0,0,1,11.011,5c-.022,0-.044-.001-.066-.002A1.98646,1.98646,0,0,1,9,3.023ZM4.023,1H3.977A.97647.97647,0,0,0,3,1.977V3.023A.97711.97711,0,0,0,3.977,4h.046A.97711.97711,0,0,0,5,3.023V1.977A.97647.97647,0,0,0,4.023,1" opacity="0.7"/></svg>