<svg id="Layer_1" data-name="Layer 1" xmlns="http://www.w3.org/2000/svg" viewBox="0 0 40 40"><path d="M13.86007,12.3901q2.28344,2.28342,4.56686,4.56533l8.192-8.384v6.09524L21.182,19.71048c4.49067,4.49219,7.85371,7.85523,12.3459,12.3459A2.31153,2.31153,0,0,1,31.89131,36a2.2396,2.2396,0,0,1-1.59695-.71009c-4.72686-4.72839-8.09143-8.27734-12.81829-13.0042l-4.57142,4.57143V22.28571l2.09066-2.29638c-1.38666-1.38666-2.22781-2.41219-3.61447-3.79885L9.857,17.71429H3.76179l4.80152-4.157q-.29028-.288-.57752-.576a2.30225,2.30225,0,0,1,1.632-3.93142,2.08753,2.08753,0,0,1,1.00419.26057L15.95226,4h5.699Z" opacity="0.7"/></svg>