<svg id="Layer_1" data-name="Layer 1" xmlns="http://www.w3.org/2000/svg" viewBox="0 0 16 16"><path d="M9.44491,8.12549a3.17219,3.17219,0,0,1,.82545,3.02907c-.55388.00126-1.06585.002-1.63936.00273.03824-.11992.07436-.22073.102-.32367A1.615,1.615,0,0,0,8.341,9.256a1.56024,1.56024,0,0,0-1.05773-.44951c-1.11305-.04309-2.22931-.03737-3.34186.00177a1.56122,1.56122,0,0,0-1.53067,1.6134,1.64422,1.64422,0,0,0,.46752,1.13518,1.39718,1.39718,0,0,0,1.05667.41343c.165-.0059.67538-.0029,1.24624.00431a3.77194,3.77194,0,0,0,1.32734,1.61606c-1.57465.02287-3.36786.00655-4.14811-.47436a3.25279,3.25279,0,0,1-.59668-.47142A3.17508,3.17508,0,0,1,3.81517,7.22566c1.18205-.03864,2.36675-.047,3.54824-.00344a3.0827,3.0827,0,0,1,2.0815.90327m4.79043.0204a3.27431,3.27431,0,0,0-.59509-.46983c-.60627-.37381-2.35383-.46654-4.14439-.47808a3.78835,3.78835,0,0,1,.47946.39667,3.90435,3.90435,0,0,1,.81871,1.203c.54909.03746,1.03931.04259,1.31837.03187a1.33227,1.33227,0,0,1,1.00841.39912A1.65084,1.65084,0,0,1,13.5883,10.419a1.56279,1.56279,0,0,1-1.52959,1.56353c-1.11308.03331-2.2288.03849-3.34186.00177a1.54779,1.54779,0,0,1-1.05666-.44739,1.61768,1.61768,0,0,1-.39467-1.57926c.02816-.10347.06586-.20375.1126-.347-.57935.01294-1.09079.0248-1.64945.03721a3.14375,3.14375,0,0,0,.82758,3.01846,3.0628,3.0628,0,0,0,2.07513.90327c1.16505.03883,2.33276.02937,3.49678-.00077a3.176,3.176,0,0,0,2.10718-5.42288" opacity="0.7"/><polygon points="10.5 5.286 8.714 3.5 10.5 1.714 9.786 1 8 2.786 6.214 1 5.5 1.714 7.286 3.5 5.5 5.286 6.214 6 8 4.214 9.786 6 10.5 5.286" fill="#575757"/></svg>