<svg id="Layer_1" data-name="Layer 1" xmlns="http://www.w3.org/2000/svg" viewBox="0 0 16 16"><path d="M12.42856,10.1c.00082-.03355.00163-.06752.00163-.10107A3.99836,3.99836,0,0,0,4.68943,8.59077a2.71487,2.71487,0,0,0-2.556,2.70084,2.78219,2.78219,0,0,0,1.72444,2.51587,4.85408,4.85408,0,0,0,1.22474.18967v.00021h.004c.18947.00593,6.79272,0,6.79272,0A1.98743,1.98743,0,0,0,12.42856,10.1Zm-.54943,3.05952L4.69556,13.1516A1.86653,1.86653,0,0,1,4.85229,9.424a1.89146,1.89146,0,0,1,.4636.05949,3.15922,3.15922,0,1,1,6.1309,1.46285,1.14887,1.14887,0,1,1,.43234,2.2131Z" style="fill:#161617"/><circle cx="4.5" cy="3.5" r="1" style="fill:#161617"/><polygon points="13 3.502 9.638 1.819 10.134 3.112 7 3.112 7 3.94 10.134 3.94 9.638 5.181 13 3.502" style="fill:#161617"/></svg>