<svg id="Layer_1" data-name="Layer 1" xmlns="http://www.w3.org/2000/svg" viewBox="0 0 40 40"><path d="M34.64288,23.31427a4.32219,4.32219,0,0,0-1.63342.32361A11.93791,11.93791,0,1,0,9.84381,18.1106,7.08679,7.08679,0,0,0,.98572,24.94287,7.07374,7.07374,0,0,0,7.5,31.97028V32H34.64288a4.34287,4.34287,0,0,0,0-8.68573ZM19.72113,30l1.33331-2.66669-.01049-.0105a7.32225,7.32225,0,0,1-5.50788-11.9093l1.23462.618a5.97949,5.97949,0,0,0,4.27863,9.9582l-1.32819-2.65638L26.38776,26.67Zm7.23547-5.39929-1.23455-.61786a5.98093,5.98093,0,0,0-4.30933-9.97473L22.742,16.66663,16.07526,13.33,22.742,10l-1.33331,2.66669.00824.00824A7.32258,7.32258,0,0,1,26.9566,24.60071Z" opacity="0.7"/></svg>