<svg id="Layer_1" data-name="Layer 1" xmlns="http://www.w3.org/2000/svg" viewBox="0 0 16 16"><defs><style>.cls-1{fill:#161617;}</style></defs><path class="cls-1" d="M12.75116,7.3384,14,6.824l-.9144-2.2176-1.24884.51438A4.7393,4.7393,0,0,0,10.892,4.172l.51838-1.24642L9.19757,2.004,8.67839,3.2512a4.71535,4.71535,0,0,0-.67681-.04879,4.8031,4.8031,0,0,0-.66239.04643L6.82317,2l-2.21676.9144.51517,1.24884A4.74113,4.74113,0,0,0,4.172,5.108l-1.2472-.51844L2.00316,6.80243l1.24725.51918a4.81569,4.81569,0,0,0-.00242,1.34L2,9.176l.91356,2.2176,1.24883-.51438a4.823,4.823,0,0,0,.94477.94882l-.51839,1.2472,2.2144.92083.51844-1.24647a4.67338,4.67338,0,0,0,.67439.048,4.73749,4.73749,0,0,0,.66555-.04637L9.176,14l2.2176-.91361-.51438-1.24878a4.82623,4.82623,0,0,0,.94955-.94483l1.24563.51845.92161-2.2144-1.2472-.51844A4.729,4.729,0,0,0,12.75116,7.3384ZM11.69174,9.75607c0,.24367-.35128.50052-.95462.70306-.06913.02322-.14243.04485-.21787.06649-.0791.02264-.16136.04428-.2479.06484a9.89613,9.89613,0,0,1-2.27321.2421,9.88007,9.88007,0,0,1-2.27113-.2421c-.087-.02056-.16879-.0422-.24789-.06484-.07595-.02164-.1493-.04327-.21787-.067-.60335-.202-.95356-.45889-.95356-.70256V9.07936c.00789.008.02057.01426.03.02215a1.56682,1.56682,0,0,0,.22311.1609l.02006.01262A2.72481,2.72481,0,0,0,4.89,9.42434l.00631.00315c.02214.00947.04535.01842.06749.02744.03538.01318.07437.02529.11026.03741.06226.0227.125.04535.18987.06592.0227.00743.04327.01583.06749.02321.01161.00372.02586.00687.03905.01059.12344.03583.2537.06857.38925.09758.02952.00682.057.01318.08755.01949.144.0306.29432.05747.44779.08068.02953.00474.06012.00845.0897.01268.14186.02056.28587.038.434.05324l.07015.008c.16248.01476.32756.02687.49156.03532.03747.00158.07437.00265.11133.00473.16874.00738.33861.01217.50633.01217.16823,0,.337-.00479.50684-.01217L8.61523,9.899c.16508-.00845.33016-.02056.49315-.03532l.06857-.008c.14823-.01476.29325-.03268.43618-.05324.02952-.00423.06012-.00794.0902-.01268q.2302-.03481.44622-.08068c.03059-.00631.059-.01267.08862-.01949.13448-.029.26367-.06175.38762-.09657.01375-.00473.029-.00788.0422-.01211.02321-.00687.04327-.01527.06648-.0227.06592-.02057.1271-.04322.19037-.06592.03482-.01212.07386-.02423.10818-.03691.02315-.009.04636-.01791.06856-.02794l.00789-.00315A2.744,2.744,0,0,0,11.417,9.275c.00845-.00422.01476-.00946.02164-.01369a1.651,1.651,0,0,0,.222-.15927c.009-.00794.02164-.01476.0311-.02271Zm0-1.76058c0,.24367-.35128.50053-.95462.70307-.06913.02321-.14243.04485-.21787.06648-.0791.02265-.16136.04429-.2479.06485A9.89675,9.89675,0,0,1,7.99814,9.072,9.88068,9.88068,0,0,1,5.727,8.82989c-.087-.02056-.16879-.0422-.24789-.06485-.07595-.02163-.1493-.04327-.21787-.067-.60335-.202-.95356-.45889-.95356-.70256v-.6767c.00789.00789.02057.01426.03.02214a1.56588,1.56588,0,0,0,.22311.16085l.02006.01268A2.71639,2.71639,0,0,0,4.89,7.66371l.00631.00321c.02214.00946.04535.01842.06749.02738.03538.01318.07437.02479.11026.03746.06226.02271.125.04536.18987.06592.0227.00738.04327.01634.06749.02321l.03905.0111c.12344.03533.2537.0675.38925.097.02952.00637.057.01319.08755.01955.144.03059.29432.05747.44779.08119l.0897.01217c.14186.02056.28587.038.434.05324l.07015.00794c.16248.01527.32756.02688.49156.03533.03747.00158.07437.00315.11133.00529.16874.00682.33861.01155.50633.01155.16823,0,.337-.00473.50684-.01155.037-.00214.07335-.00371.11025-.00529.16508-.00845.33016-.02006.49315-.03533L9.177,8.09516c.14823-.01476.29325-.03268.43618-.05324.02952-.00423.06012-.00795.0902-.01217q.2302-.03558.44622-.08119c.03059-.00636.059-.01318.08862-.01955q.20172-.04428.38762-.09651c.01375-.00473.029-.00789.0422-.01211.02321-.00637.04327-.01533.06648-.02271.06592-.02056.1271-.04321.19037-.06592.03482-.01267.07386-.02428.10818-.0369.02315-.009.04636-.018.06856-.02794l.00789-.00321a2.73533,2.73533,0,0,0,.3075-.14925c.00845-.00422.01476-.00946.02164-.01369a1.65655,1.65655,0,0,0,.222-.15933c.009-.00789.02164-.0142.0311-.02265Zm-.95412-1.05012c-.07014.02372-.14242.04586-.21888.067-.0791.02265-.16141.04428-.24789.06484a9.89648,9.89648,0,0,1-2.2722.24159A9.88494,9.88494,0,0,1,5.728,7.0772c-.08648-.02056-.16874-.04219-.24734-.06434-.077-.02163-.1493-.04377-.21888-.06749-.60233-.20147-.95361-.45889-.95361-.70256,0-.509,1.51532-1.07542,3.69045-1.07542,2.17676,0,3.69366.56644,3.69366,1.07542C11.69231,6.48648,11.341,6.7439,10.73762,6.94537Z"/></svg>