<svg id="Layer_1" data-name="Layer 1"
    xmlns="http://www.w3.org/2000/svg" viewBox="0 0 16 16">
    <path class="cls-1" d="M6.7121,5.95612a.75994.75994,0,0,1-.22437.47662.78669.78669,0,0,1-.90838.1391.76185.76185,0,0,1-.191-1.22382.78142.78142,0,0,1,.90765-.1391A.7669.7669,0,0,1,6.7121,5.95612ZM14,11.60992l-.441,1.08765-.61957-.24554a2.27586,2.27586,0,0,1-.23278.26837,2.38588,2.38588,0,0,1-.2298.19958l.26282.6059-1.09021.46069-.26252-.60626a2.35313,2.35313,0,0,1-.66205.00793L10.47675,14l-1.09937-.435.24817-.61242a2.27273,2.27273,0,0,1-.25586-.21442,2.35826,2.35826,0,0,1-.21777-.24268l-.61438.25934L8.072,11.67841l.61365-.25934a2.28668,2.28668,0,0,1-.00806-.65412L8.058,10.51941,8.49829,9.4325l.61951.2456a2.3808,2.3808,0,0,1,.23468-.26947,2.46315,2.46315,0,0,1,.22833-.19885l-.26245-.60559,1.08984-.46106.26252.60632a2.42161,2.42161,0,0,1,.662-.008l.2486-.61207,1.09973.436-.24817.61176a2.35126,2.35126,0,0,1,.47327.45739l.61365-.25927.46667,1.076-.61365.26007a2.33868,2.33868,0,0,1,.00843.65375Zm-1.93372-1.59106a1.49493,1.49493,0,0,0-2.08551.01123,1.4543,1.4543,0,0,0,.011,2.08112,1.47881,1.47881,0,0,0,.48572.31256,1.49547,1.49547,0,0,0,1.60016-.32416,1.45366,1.45366,0,0,0-.01136-2.08075ZM9.03552,8.3313l-1.18847.9895-.56421-.661a3.10358,3.10358,0,0,1-.827.25934L6.381,9.7804l-1.5473-.13.074-.862a3.0747,3.0747,0,0,1-.77057-.3941l-.67011.55706L2.46594,7.77679l.66937-.55706a3.01511,3.01511,0,0,1-.26318-.81708L2,6.32843l.132-1.52911.87213.07348a3.08056,3.08056,0,0,1,.39923-.76165l-.56348-.661L4.028,2.46033l.56458.66131a3.15867,3.15867,0,0,1,.827-.26L5.494,2l1.5484.1311-.07477.86127a3.04649,3.04649,0,0,1,.40216.172,3.111,3.111,0,0,1,.36914.22278l.669-.55744L9.40979,4.00427l-.66937.55707a3.06071,3.06071,0,0,1,.26355.81744l.871.07319L9.74268,6.98218l-.87177-.07392a3.02564,3.02564,0,0,1-.39923.76166ZM7.87378,6.05353a1.91612,1.91612,0,0,0-1.04-1.86707,1.96538,1.96538,0,0,0-2.27063.34772A1.90691,1.90691,0,0,0,5.04193,7.5946a1.965,1.965,0,0,0,2.27026-.34735A1.90267,1.90267,0,0,0,7.87378,6.05353Zm3.3761,4.46771a.59907.59907,0,0,0-.64044.13.591.591,0,0,0-.13086.19592.58392.58392,0,0,0,.33032.761.59709.59709,0,0,0,.63965-.12933.59048.59048,0,0,0,.13092-.19592.58277.58277,0,0,0-.13568-.63672A.59628.59628,0,0,0,11.24988,10.52124Z"/>
</svg>