<svg id="Layer_1" data-name="Layer 1" xmlns="http://www.w3.org/2000/svg" viewBox="0 0 40 40"><path d="M20,0A20,20,0,1,0,40,20,20,20,0,0,0,20,0Zm13.63,8.421H27.40344A18.66424,18.66424,0,0,0,24.55727,2.7133,17.8776,17.8776,0,0,1,33.63005,8.421ZM24.55727,37.2867A18.66424,18.66424,0,0,0,27.40344,31.579h6.22661A17.8776,17.8776,0,0,1,24.55727,37.2867Zm10.60418-7.813H28.00672a35.50234,35.50234,0,0,0,.69272-3.95565l-2.28921,1.145c-.16659.98074-.35451,1.932-.58555,2.8107H20.79044L16.5812,31.579h8.61026C23.81611,35.49143,21.84712,37.89474,20,37.89474c-1.72421,0-3.54833-2.1124-4.90292-5.57354l-1.867.93377a16.729,16.729,0,0,0,2.21262,4.03173A17.8776,17.8776,0,0,1,6.37,31.579H7.42573a3.18726,3.18726,0,0,1-.05731-.56724v-1.538H4.83855A17.76729,17.76729,0,0,1,2.1584,21.05263h5.21V18.94737h-5.21a17.76729,17.76729,0,0,1,2.68015-8.421H7.36842V8.96812A3.16638,3.16638,0,0,1,7.4238,8.421H6.37A17.8776,17.8776,0,0,1,15.44273,2.7133a16.72334,16.72334,0,0,0-2.20934,4.02363l1.86651.93455C16.45424,4.21477,18.277,2.10526,20,2.10526c1.84712,0,3.81611,2.40331,5.19146,6.31579H16.59694l4.20474,2.10527h5.023c.23084.87781.41857,1.82816.5851,2.80793l2.28946,1.14631a35.49312,35.49312,0,0,0-.69252-3.95424h7.15473a17.76729,17.76729,0,0,1,2.68015,8.421H35.60393a3.06521,3.06521,0,0,1-.00174,2.10526H37.8416A17.76729,17.76729,0,0,1,35.16145,29.47368Z" opacity="0.7"/><path d="M33.09662,19.03638,11.11261,8.02954a1.09148,1.09148,0,0,0-1.63892.93854V31.01172A1.08938,1.08938,0,0,0,10.56317,32.105l.49445-.11737L33.05005,20.98816a1.0855,1.0855,0,0,0,.04657-1.95178ZM20.42078,22.67755l-2.36322-1.23346-.801,3.0318-.79913-3.03332L14.09229,22.6745l1.233-2.36359-3.10163-.80218,3.10163-.79914-1.23-2.36474,2.36322,1.23309.80255-3.0318.79913,3.0329,2.36475-1.23-1.233,2.36206,3.03173.80219-3.03289.79913Z" opacity="0.7"/></svg>