<svg id="Layer_1" data-name="Layer 1" xmlns="http://www.w3.org/2000/svg" viewBox="0 0 40 40"><path d="M14.5,31.25A3.25,3.25,0,1,1,11.25,28,3.25,3.25,0,0,1,14.5,31.25ZM39,1V39H1V1ZM5,5V16.37619a16.606,16.606,0,0,0,2.25586-3.25607C8.7915,10.48584,10.53467,7.5,14.16992,7.5s5.37842,2.98584,6.91406,5.62012C22.67578,15.84473,23.78906,17.5,25.83984,17.5c2.04834,0,3.16162-1.654,4.751-4.37988C31.72226,11.1792,32.971,9.05624,35,8.06854V5ZM17,31.25A5.75,5.75,0,1,0,11.25,37,5.74992,5.74992,0,0,0,17,31.25ZM35,32H22v3H35Zm0-5H22v3H35Zm0-4V11.12549a16.58784,16.58784,0,0,0-2.251,3.25439C31.21338,17.01416,29.47266,20,25.83984,20c-3.63525,0-5.37841-2.98584-6.91406-5.62012C17.334,11.65527,16.2207,10,14.16992,10s-3.16406,1.65527-4.75586,4.37988C8.28232,16.32141,7.03171,18.44528,5,19.43253V23Z" opacity="0.7"/></svg>