<svg id="Layer_1" data-name="Layer 1" xmlns="http://www.w3.org/2000/svg" viewBox="0 0 40 40"><path d="M1,1V39H39V1ZM5,5h9V15H5ZM35,35H5V31.4325c2.03168-.98725,3.28229-3.11109,4.41406-5.05262C11.00586,23.65527,12.11914,22,14.16992,22s3.16406,1.65527,4.75586,4.37988C20.46143,29.01416,22.20459,32,25.83984,32c3.63282,0,5.37354-2.98584,6.90918-5.62012A16.586,16.586,0,0,1,35,23.12549Zm0-14.93146c-2.02893.98767-3.27777,3.11066-4.40918,5.05158C29.00146,27.846,27.88818,29.5,25.83984,29.5c-2.05078,0-3.16406-1.65527-4.75586-4.37988C19.54834,22.48584,17.80518,19.5,14.16992,19.5S8.7915,22.48584,7.25586,25.12012A16.606,16.606,0,0,1,5,28.37616V17H35ZM35,15H16V5H35Z" opacity="0.7"/></svg>