<svg id="Layer_1" data-name="Layer 1" xmlns="http://www.w3.org/2000/svg" viewBox="0 0 40 40"><title>SkylineIcons</title><path class="cls-1" d="M14.5,31.25A3.25,3.25,0,1,1,11.25,28,3.26,3.26,0,0,1,14.5,31.25ZM39,1V39H1V1ZM5,5V16.38a17.27,17.27,0,0,0,2.26-3.26c1.53-2.63,3.27-5.62,6.91-5.62s5.38,3,6.91,5.62,2.71,4.38,4.76,4.38,3.16-1.65,4.75-4.38c1.13-1.94,2.38-4.06,4.41-5V5ZM17,31.25A5.75,5.75,0,1,0,11.25,37,5.74,5.74,0,0,0,17,31.25ZM35,32H22v3H35Zm0-5H22v3H35Zm0-4V11.13a16.41,16.41,0,0,0-2.25,3.25C31.21,17,29.47,20,25.84,20s-5.38-3-6.91-5.62S16.22,10,14.17,10,11,11.66,9.41,14.38C8.28,16.32,7,18.45,5,19.43V23Z"/></svg>