<svg id="Layer_1" data-name="Layer 1" xmlns="http://www.w3.org/2000/svg" viewBox="0 0 16 16"><path d="M6,12a1,1,0,1,1-1-1A1,1,0,0,1,6,12ZM16,0V16H0V0ZM2,2V6.42267a6.457,6.457,0,0,0,.90234-1.26585C3.5166,4.1327,4.21387,2.97191,5.668,2.97191S7.81934,4.1327,8.43359,5.15682c.63672,1.05923,1.082,1.70275,1.90235,1.70275.81933,0,1.26465-.643,1.90039-1.70275A4.60822,4.60822,0,0,1,14,3.19294V2ZM7,12a2,2,0,1,0-2,2A2,2,0,0,0,7,12Zm6,1H9v1h4Zm0-3H9v1h4Zm1-1V4.38138a6.44917,6.44917,0,0,0-.90039,1.26519c-.61426,1.02412-1.31055,2.18491-2.76367,2.18491-1.4541,0-2.15137-1.16079-2.76563-2.18491C6.93359,4.58734,6.48828,3.94383,5.668,3.94383s-1.26563.64351-1.90235,1.70274A4.605,4.605,0,0,1,2,7.61087V9Z" opacity="0.7"/></svg>