<svg id="Layer_1" data-name="Layer 1" xmlns="http://www.w3.org/2000/svg" viewBox="0 0 40 40"><path d="M36.47715,33H31.98881L29.42548,29.407,26.79173,33h-4.3978l4.73342-6.00823L22.46892,21h4.48742l2.52126,3.5208L32.01258,21h4.41153L31.7547,26.91038Z" opacity="0.7"/><path d="M23.75562,10.6684h-.66511a9.1098,9.1098,0,0,0-1.12511-.28011,7.14326,7.14326,0,0,0-1.37772-.14079,3.82262,3.82262,0,0,0-2.37539.6758,3.70585,3.70585,0,0,0-1.15678,2.50612L16.689,16.05261h5.27186v3.58948H15.95615l-1.07326,6.89434A9.89111,9.89111,0,0,1,13.564,30.335a7.2991,7.2991,0,0,1-2.23716,2.2626,8.70194,8.70194,0,0,1-2.68,1.0844A14.02571,14.02571,0,0,1,5.59954,34q-.78468,0-1.79514-.08427a10.25982,10.25982,0,0,1-1.58565-.21783V28.61578H2.561a1.60666,1.60666,0,0,0,1.21.68411,7.3824,7.3824,0,0,0,1.42784.1431A3.7708,3.7708,0,0,0,7.762,28.63367,4.39692,4.39692,0,0,0,8.972,25.875l.94129-6.23289h-4.105V16.05261h5.11651l.51052-3.25305a8.13923,8.13923,0,0,1,1.26688-3.48574,7.12268,7.12268,0,0,1,2.16952-2.05409,7.63683,7.63683,0,0,1,2.68457-.99593A16.32071,16.32071,0,0,1,20.36673,6q.83929,0,1.67861.06966.83929.07113,1.71028.21193Z" opacity="0.7"/></svg>