<svg id="Layer_1" data-name="Layer 1" xmlns="http://www.w3.org/2000/svg" viewBox="0 0 40 40"><path d="M23,21H16V20H14v4h2V23h7v3H16V25H13V16H12V15H9V30h3V29H22v3H12V31H8V10H6V7h8v3H9v4h3V13H22v3H14v3h2V18h7Z" opacity="0.7"/><path d="M16.05083,15.52668H15.6757c.12738.02475.24328.05359.37513.07665Z" fill="#696e73"/><path d="M33.86462,18.56274a4.22746,4.22746,0,0,1-.56811.40747l-.05536.03522a7.029,7.029,0,0,1-.78674.3819l-.02033.00806-.17541.07153-.27668.09442c-.16192.058-.31842.11609-.48712.1687l-.17.05811-.108.031q-.47562.13358-.99182.24695l-.22681.04987q-.55261.11755-1.14166.20788l-.23078.031c-.36572.05267-.73681.09857-1.11609.13635l-.17541.02026c-.417.03913-.83936.06879-1.26178.0904l-.282.01349c-.43464.01757-.8664.02966-1.29688.02966-.16357,0-.32874-.00659-.49353-.01129v2.34356c.16364.00507.32336.01319.49353.01319a25.32866,25.32866,0,0,0,5.81641-.61939c.22137-.05267.43188-.108.63427-.166.193-.0553.38062-.11066.55738-.17,1.54382-.51818,2.44268-1.17541,2.44268-1.79888V18.50464Z" opacity="0.7"/><path d="M33.86462,23.06744a4.23923,4.23923,0,0,1-.56811.40754l-.05536.03509a7.0082,7.0082,0,0,1-.78674.3819l-.02033.00812-.17541.07153-.27668.09448c-.16192.05805-.31842.116-.48712.1687l-.17.058-.108.03106c-.31708.08905-.64771.17273-.99182.247l-.22681.04987q-.55261.11736-1.14166.20648l-.23078.03241c-.36572.05267-.73681.09851-1.11609.13629l-.17541.0202c-.417.03778-.83936.06891-1.26178.09046l-.282.01214c-.43464.01892-.8664.03107-1.29688.03107-.16357,0-.32874-.0069-.49353-.01184v2.344c.16364.00513.32336.01325.49353.01325a25.32866,25.32866,0,0,0,5.81641-.61939c.22137-.05267.43188-.108.63427-.166.193-.05536.38062-.11066.55738-.17,1.54382-.51824,2.44268-1.17541,2.44268-1.799V23.0094Z" opacity="0.7"/><path d="M33.86462,27.5722a4.23923,4.23923,0,0,1-.56811.40754l-.05536.03509a6.79379,6.79379,0,0,1-.78674.3819l-.02033.00806-.17541.07159-.27668.09442c-.16192.05811-.31842.11609-.48712.16876l-.17.058-.108.03106c-.31708.09034-.64771.17139-.99182.24829l-.22681.04993c-.36841.07691-.749.14435-1.14166.20514l-.23078.03241c-.36572.05261-.73681.09985-1.11609.13629l-.17541.02161c-.417.03637-.83936.06744-1.26178.09033l-.282.01221c-.43464.01751-.8664.02966-1.29688.02966-.4292,0-.86371-.01215-1.29559-.02966L23,29.61633V31.9505c.48584.02539.97406.0495,1.49353.0495a25.32833,25.32833,0,0,0,5.81641-.61945c.22137-.05267.43188-.108.63427-.166.193-.05536.38062-.11066.55738-.17,1.54382-.51825,2.44268-1.17414,2.44268-1.799V27.51416Z" opacity="0.7"/><path d="M24.72314,13c-.60015,0-1.16552.0274-1.72314.05939V17h1v1.48541c.23938.00782.47388.01923.72314.01923a25.32925,25.32925,0,0,0,5.81373-.618c.22137-.05268.43188-.108.63427-.166.19568-.054.38062-.11065.56006-.17145,1.54382-.5155,2.44269-1.174,2.44269-1.79754C34.17389,14.4494,30.29266,13,24.72314,13Z" opacity="0.7"/></svg>