<svg id="Layer_1" data-name="Layer 1" xmlns="http://www.w3.org/2000/svg" viewBox="0 0 40 40"><path d="M32,33H18V20a2,2,0,0,1,2-2H33V32A1,1,0,0,1,32,33ZM30,7.5A1.5,1.5,0,0,0,28.5,6h0A1.5,1.5,0,0,0,27,7.5V12h3Zm-8,0A1.5,1.5,0,0,0,20.5,6h0A1.5,1.5,0,0,0,19,7.5V12h3ZM7.5,19A1.5,1.5,0,0,0,6,20.5H6A1.5,1.5,0,0,0,7.5,22H12V19Zm0,8A1.5,1.5,0,0,0,6,28.5H6A1.5,1.5,0,0,0,7.5,30H12V27ZM32,10v2a1,1,0,0,1-1,1H26a1,1,0,0,1-1-1V10H24v2a1,1,0,0,1-1,1H18a1,1,0,0,1-1-1V10H12a2,2,0,0,0-2,2v5h2a1,1,0,0,1,1,1v5a1,1,0,0,1-1,1H10v1h2a1,1,0,0,1,1,1v5a1,1,0,0,1-1,1H10v1h7V20a3,3,0,0,1,3-3H33V10Z" opacity="0.7"/></svg>