<svg id="Layer_1" data-name="Layer 1"
    xmlns="http://www.w3.org/2000/svg" viewBox="0 0 16 16">
    <path id="path14" d="M14,3.1094l-1.17775-.6315L10.94656,4.61136a5.4239,5.4239,0,0,0-.71537-.09387L8.76554,2l-2.1374.62724.20065,2.86311a5.22636,5.22636,0,0,0-.52781.46936l-2.7699-.73818-1.05562,1.95,2.181,1.86891a5.1881,5.1881,0,0,0-.08724.704L2,11.144l.65867,2.09933,2.91385-.19628a4.96125,4.96125,0,0,0,.45365.52483l-.13086.4267h7.23228a.81811.81811,0,0,0,.871-.75812L14,13.20069Zm-1.33479,7.87675a2.87661,2.87661,0,0,1-3.74149,1.47639,2.76844,2.76844,0,0,1-1.50929-3.6599,2.87643,2.87643,0,0,1,3.72843-1.48178,2.76082,2.76082,0,0,1,1.53468,3.63673Z"/>
</svg>