<svg id="Layer_1" data-name="Layer 1"
    xmlns="http://www.w3.org/2000/svg" viewBox="0 0 16 16">
    <path class="cls-1" d="M6.8232,2l-2.2168.9144.5152,1.2488a4.74286,4.74286,0,0,0-.9496.9448L2.9248,4.5896,2.0032,6.8024l1.2472.5192a4.82,4.82,0,0,0-.0024,1.34L2,9.176l.9136,2.2176,1.2488-.5144a4.82445,4.82445,0,0,0,.9448.9488l-.5184,1.2472,2.2144.9208.5184-1.2464a4.67952,4.67952,0,0,0,.6744.048,4.73972,4.73972,0,0,0,.6656-.0464L9.176,14l2.2176-.9136-.5144-1.2488a4.82822,4.82822,0,0,0,.9496-.9448l1.2456.5184.9216-2.2144-1.2472-.5184a4.72984,4.72984,0,0,0,.0024-1.34L14,6.824l-.9144-2.2176-1.2488.5144a4.73891,4.73891,0,0,0-.9448-.9488l.5184-1.2464L9.1976,2.004,8.6784,3.2512a4.714,4.714,0,0,0-.6768-.0488,4.808,4.808,0,0,0-.6624.0464Zm1.1752,8.9992A2.99857,2.99857,0,1,1,10.768,9.1528a2.98374,2.98374,0,0,1-2.7696,1.8464M8,6.8008a1.20061,1.20061,0,1,0,.4608.0928A1.19837,1.19837,0,0,0,8,6.8008"/>
</svg>