<svg id="Layer_1" data-name="Layer 1" xmlns="http://www.w3.org/2000/svg" viewBox="0 0 16 16"><path d="M6.53966.51l-2.771,1.143.644,1.561a5.92857,5.92857,0,0,0-1.187,1.181l-1.559-.648L.51466,6.513l1.559.649a6.025,6.025,0,0,0-.003,1.675l-1.56.643,1.142,2.772,1.561-.643a6.03057,6.03057,0,0,0,1.181,1.186l-.648,1.559,2.768,1.151.648-1.558a5.84941,5.84941,0,0,0,.843.06,5.92466,5.92466,0,0,0,.832-.058l.643,1.561,2.772-1.142-.643-1.561a6.03527,6.03527,0,0,0,1.187-1.181l1.557.648,1.152-2.768-1.559-.648a5.91231,5.91231,0,0,0,.003-1.675l1.561-.643-1.143-2.772-1.561.643a5.92364,5.92364,0,0,0-1.181-1.186l.648-1.558L9.50766.515l-.649,1.559a5.89249,5.89249,0,0,0-.846-.061,6.01,6.01,0,0,0-.828.058Zm1.469,11.249a3.74822,3.74822,0,1,1,3.462-2.308,3.72968,3.72968,0,0,1-3.462,2.308m.002-5.248a1.50076,1.50076,0,1,0,.576.116,1.498,1.498,0,0,0-.576-.116" opacity="0.7"/></svg>