<?xml version="1.0" encoding="iso-8859-1"?>
<!-- Generator: Adobe Illustrator 22.0.1, SVG Export Plug-In . SVG Version: 6.00 Build 0)  -->
<svg version="1.1" id="Layer_1" xmlns="http://www.w3.org/2000/svg" xmlns:xlink="http://www.w3.org/1999/xlink" x="0px" y="0px"
	 viewBox="0 0 16 16" style="enable-background:new 0 0 16 16;" xml:space="preserve">
<path style="opacity:0.7;" d="M12.553,0.898c0.435-0.384,1.386-0.018,2.409,1.142c1.025,1.159,1.27,2.148,0.836,2.532L13.96,6.195
	L10.716,2.52L12.553,0.898z M2.71,13.557l3.961-1.862L4.7,12.034l0.086-1.945l-0.641,0.333L4.354,9.07L2.015,12.77L2.71,13.557z
	 M7.135,12.22L0,15.249l3.89-6.703l4.2-3.709l3.245,3.674L7.135,12.22z M12.86,7.065L9.615,3.391
	C9.379,3.122,9.911,2.667,10.14,2.926l3.246,3.675C13.619,6.867,13.087,7.322,12.86,7.065 M11.817,7.999L8.572,4.325
	C8.335,4.057,8.867,3.601,9.096,3.862l3.245,3.674C12.576,7.801,12.043,8.256,11.817,7.999"/>
</svg>
