<svg id="Layer_1" data-name="Layer 1" xmlns="http://www.w3.org/2000/svg" viewBox="0 0 16 16"><path d="M12.55277.89772c.43494-.38374,1.386-.0175,2.40929,1.14212,1.02464,1.15893,1.26977,2.1484.83554,2.53214l-1.83778,1.6232L10.7157,2.51952ZM2.70974,13.557l3.96131-1.862-1.97085.33892.08615-1.94531-.64085.33262.20872-1.3508L2.015,12.76991Zm4.42565-1.3368L0,15.24882,3.88987,8.546,8.09,4.83738l3.24483,3.67425Zm5.72485-5.1553L9.61541,3.39064c-.23672-.2682.29556-.72336.52458-.46427l3.24553,3.675c.23392.2654-.29836.72056-.52528.46357M11.81668,7.999,8.57186,4.32479c-.23673-.2682.29486-.72337.52458-.46287l3.24482,3.67355c.23463.2654-.29836.72057-.52458.46357" opacity="0.7"/></svg>