<svg id="Layer_1" data-name="Layer 1" xmlns="http://www.w3.org/2000/svg" viewBox="0 0 40 40"><path d="M35,9H26V1.55005Zm-1.47058.98486L25,10V2.2713A1.50985,1.50985,0,0,0,23.52942,1H7V25.476A8.93655,8.93655,0,1,1,21.30615,36H35V11C35,10.31262,34.22491,10.00018,33.52942,9.98486Zm-18.792,14.86758a5.09423,5.09423,0,1,1-5.09422,5.09423,5.09448,5.09448,0,0,1,5.09422-5.09423M7.79079,29.94667a6.921,6.921,0,0,0,.56314,2.74655l-7.038,4.105.93363,1.60053L9.30856,34.2814a6.94724,6.94724,0,1,0-1.51777-4.33473Z" opacity="0.7"/></svg>