<svg id="Layer_1" data-name="Layer 1" xmlns="http://www.w3.org/2000/svg" viewBox="0 0 16 16"><path d="M10,6V2H6V7.22308A3.65379,3.65379,0,0,1,7.21973,7,3.70117,3.70117,0,0,1,10.916,10.69775,3.66156,3.66156,0,0,1,10.66718,12H14V6Z" style="fill:#161617"/><polygon points="11 2 11 5 14 5 11 2" style="fill:#161617"/><path d="M7.17744,8a2.69885,2.69885,0,0,0-2.523,3.65368L2.04185,13.177,2.52149,14l2.62258-1.52962A2.69744,2.69744,0,1,0,7.17744,8Zm0,4.44312A1.74559,1.74559,0,1,1,8.9225,10.69754,1.74768,1.74768,0,0,1,7.17744,12.44312Z" style="fill:#161617"/></svg>