<svg id="Layer_1" data-name="Layer 1" xmlns="http://www.w3.org/2000/svg" viewBox="0 0 40 40"><path d="M36,30.95833H4V26.49581c2.16712-1.05306,3.50111-3.31849,4.70833-5.38945,1.69792-2.90625,2.88542-4.67188,5.07292-4.67188s3.375,1.76563,5.07292,4.67188c1.638,2.8099,3.49739,5.99479,7.375,5.99479,3.875,0,5.73177-3.18489,7.36979-5.99479A17.69118,17.69118,0,0,1,36,17.635Zm0-16.58407c-2.16419,1.05352-3.49629,3.318-4.70312,5.38835-1.69532,2.90755-2.88282,4.67187-5.06771,4.67187-2.1875,0-3.375-1.76562-5.07292-4.67187-1.638-2.8099-3.4974-5.99479-7.375-5.99479s-5.737,3.18489-7.375,5.99479A17.71326,17.71326,0,0,1,4,23.23572V9.04516H36Z" opacity="0.7"/></svg>