<svg id="Layer_1" data-name="Layer 1" xmlns="http://www.w3.org/2000/svg" viewBox="0 0 16 16"><path d="M11.9719,5.59427a3.29383,3.29383,0,0,1-.19429,1.17539,2.63019,2.63019,0,0,1-.5491.88548,3.96,3.96,0,0,1-.85172.6719,7.45856,7.45856,0,0,1-1.12188.53945v1.50169H6.93923V8.149q.46708-.125.84558-.25613a3.19847,3.19847,0,0,0,.7925-.42893,2.09749,2.09749,0,0,0,.60831-.61225,1.45089,1.45089,0,0,0,.2206-.79075,1.04157,1.04157,0,0,0-.4241-.939,2.16268,2.16268,0,0,0-1.19424-.27981,3.33749,3.33749,0,0,0-1.06881.20394,4.85287,4.85287,0,0,0-1.089.52629H5.36693V3.56586a8.14715,8.14715,0,0,1,1.296-.37192,8.20523,8.20523,0,0,1,1.77623-.19385A4.19534,4.19534,0,0,1,11.018,3.7176,2.24133,2.24133,0,0,1,11.9719,5.59427ZM9.43912,12.99963H6.78134V11.26287H9.43912Z" style="fill:#161617"/><path d="M11.69192,5.59381a3.29383,3.29383,0,0,1-.19429,1.17539,2.6301,2.6301,0,0,1-.5491.88548,3.96017,3.96017,0,0,1-.85171.6719A7.45807,7.45807,0,0,1,8.97494,8.866v1.50169H6.65925V8.14852q.46709-.125.84558-.25613a3.19836,3.19836,0,0,0,.79251-.42893,2.09745,2.09745,0,0,0,.6083-.61225,1.45081,1.45081,0,0,0,.22061-.79075,1.04152,1.04152,0,0,0-.42411-.939A2.16259,2.16259,0,0,0,7.5079,4.84165a3.33749,3.33749,0,0,0-1.06881.20394,4.85308,4.85308,0,0,0-1.089.52629H5.087V3.5654a8.147,8.147,0,0,1,1.296-.37192,8.20539,8.20539,0,0,1,1.77624-.19385,4.19544,4.19544,0,0,1,2.57883.71751A2.24135,2.24135,0,0,1,11.69192,5.59381ZM9.15914,12.99918H6.50137V11.26241H9.15914Z" style="fill:#161617"/></svg>