<svg id="Layer_1" data-name="Layer 1" xmlns="http://www.w3.org/2000/svg" viewBox="0 0 16 16"><g opacity="0.7"><path d="M14.03763,4.15088a5.27023,5.27023,0,0,1-.31088,1.8807,4.20841,4.20841,0,0,1-.8786,1.41684,6.33631,6.33631,0,0,1-1.3628,1.07509,11.93459,11.93459,0,0,1-1.79509.86316v2.4028H5.985V8.2386q.74736-.2,1.353-.40983a5.11756,5.11756,0,0,0,1.26807-.68631,3.35633,3.35633,0,0,0,.97333-.97965,2.3215,2.3215,0,0,0,.353-1.26527,1.66655,1.66655,0,0,0-.6786-1.50245,3.46035,3.46035,0,0,0-1.91088-.44772,5.34039,5.34039,0,0,0-1.71017.32631,7.76507,7.76507,0,0,0-1.74246.84211H3.46921V.90526A13.03619,13.03619,0,0,1,5.54289.31018,13.12869,13.12869,0,0,1,8.385,0a6.71289,6.71289,0,0,1,4.12631,1.14807A3.58628,3.58628,0,0,1,14.03763,4.15088ZM9.985,16H5.73237V13.22105H9.985Z" fill="#fff"/></g><g opacity="0.7"><path d="M13.58965,4.15014a5.27025,5.27025,0,0,1-.31088,1.88071,4.20841,4.20841,0,0,1-.8786,1.41684,6.33656,6.33656,0,0,1-1.3628,1.07509,11.93409,11.93409,0,0,1-1.79509.86315v2.40281H5.537V8.23786q.74737-.2,1.353-.40982a5.11779,5.11779,0,0,0,1.26807-.68632,3.35633,3.35633,0,0,0,.97333-.97965,2.32146,2.32146,0,0,0,.353-1.26526,1.66654,1.66654,0,0,0-.67859-1.50245,3.46037,3.46037,0,0,0-1.91088-.44772,5.34049,5.34049,0,0,0-1.71018.32631,7.76478,7.76478,0,0,0-1.74245.84211H3.02122V.90453A13.03758,13.03758,0,0,1,5.09491.30944,13.12928,13.12928,0,0,1,7.937-.00073a6.7129,6.7129,0,0,1,4.12632,1.14807A3.5863,3.5863,0,0,1,13.58965,4.15014ZM9.537,15.99927H5.28438V13.22032H9.537Z"/></g></svg>