<svg id="Layer_1" data-name="Layer 1"
    xmlns="http://www.w3.org/2000/svg" viewBox="0 0 16 16">
    <path d="M11.30263,5.5943a3.29385,3.29385,0,0,1-.1943,1.17544,2.63016,2.63016,0,0,1-.54912.88552,3.96029,3.96029,0,0,1-.85175.67193,7.4597,7.4597,0,0,1-1.12193.53948v1.50175H6.26974V8.14912q.4671-.125.84561-.25614A3.19855,3.19855,0,0,0,7.90789,7.464a2.0976,2.0976,0,0,0,.60834-.61229A1.45092,1.45092,0,0,0,8.73684,6.061a1.04158,1.04158,0,0,0-.42412-.939,2.16276,2.16276,0,0,0-1.1943-.27982,3.33782,3.33782,0,0,0-1.06886.20394,4.853,4.853,0,0,0-1.089.52632H4.69737V3.56579a8.14756,8.14756,0,0,1,1.29605-.37193A8.20544,8.20544,0,0,1,7.76974,3a4.19554,4.19554,0,0,1,2.57894.71754A2.24143,2.24143,0,0,1,11.30263,5.5943ZM8.76974,13H6.11184V11.26316h2.6579Z"/>
</svg>