<svg id="Layer_1" data-name="Layer 1" xmlns="http://www.w3.org/2000/svg" viewBox="0 0 16 16"><path d="M10.77419,13.4h-.04692v-.4909h-.40473a2.49126,2.49126,0,0,0,.35511-1.25674c0-1.82616-2.08256-2.886-2.08256-3.65235s2.08256-1.82619,2.08256-3.65235a2.49126,2.49126,0,0,0-.35511-1.25674h.40473V2.6h.04692a.55646.55646,0,0,0,.49854-.6H4.72727a.55646.55646,0,0,0,.49854.6h.04692v.49092h.40473a2.49146,2.49146,0,0,0-.35511,1.25674C5.32235,6.17381,7.40491,7.21726,7.40491,8S5.32235,9.82619,5.32235,11.65235a2.49146,2.49146,0,0,0,.35511,1.25674H5.27273V13.4H5.22581a.55613.55613,0,0,0-.49854.6h6.54546A.55613.55613,0,0,0,10.77419,13.4ZM8,12.95654c-1.56546,0-1.97455-.58471-1.97455-1.30419A7.18327,7.18327,0,0,1,7.748,10.99563c.26783,0,.28855-3.51219,0-3.77837l-.98758-1.001H9.21411L8.252,7.21726c-.26779.28529-.27545,3.77837,0,3.77837a7.65138,7.65138,0,0,1,1.7384.65672C9.99038,12.37183,9.58127,12.95654,8,12.95654Z" style="fill:#161617"/></svg>