<svg id="Layer_1" data-name="Layer 1" xmlns="http://www.w3.org/2000/svg" viewBox="0 0 40 40"><path d="M28.05374,36.15h-.14465V34.63635H26.66116a7.68123,7.68123,0,0,0,1.09491-3.87494c0-5.63067-6.4212-8.89849-6.4212-11.26141s6.4212-5.63074,6.4212-11.26141a7.68123,7.68123,0,0,0-1.09491-3.87494h1.24793V2.85h.14465A1.71577,1.71577,0,0,0,29.59091,1H9.40909a1.71577,1.71577,0,0,0,1.53717,1.85h.14465V4.36365h1.24793a7.68183,7.68183,0,0,0-1.09491,3.87494c0,5.63067,6.4212,8.848,6.4212,11.26141,0,2.41339-6.4212,5.63074-6.4212,11.26141a7.68183,7.68183,0,0,0,1.09491,3.87494H11.09091V36.15h-.14465A1.71474,1.71474,0,0,0,9.40909,38H29.59091A1.71474,1.71474,0,0,0,28.05374,36.15ZM19.5,34.78265c-4.82684,0-6.0882-1.80285-6.0882-4.02124,0,0,3.97748-2.0249,5.31116-2.0249.82581,0,.88971-10.82922,0-11.65L15.678,14H23.2435L20.277,17.08655c-.82569.87964-.84931,11.65,0,11.65,1.285,0,5.36,2.0249,5.36,2.0249C25.637,32.9798,24.37558,34.78265,19.5,34.78265Z" opacity="0.7"/></svg>