<svg id="Layer_1" data-name="Layer 1" xmlns="http://www.w3.org/2000/svg" viewBox="0 0 40 40"><path d="M31.80579,4.75024A2.39325,2.39325,0,0,0,34.1192,2.27472a2.4192,2.4192,0,0,0-4.83337.20331A2.40215,2.40215,0,0,0,31.80579,4.75024Z" opacity="0.7"/><path d="M19.999,8.0871c6.45771,0,12.08112,2.30426,15.00873,5.70886a15.9938,15.9938,0,0,0-30.01733,0C7.918,10.39136,13.54144,8.0871,19.999,8.0871Z" opacity="0.7"/><path d="M19.999,30.24506c-6.45758,0-12.08105-2.30457-15.0086-5.70893a15.994,15.994,0,0,0,30.01733,0C32.08014,27.94049,26.45673,30.24506,19.999,30.24506Z" opacity="0.7"/><path d="M7.96655,34.01056a2.99663,2.99663,0,1,0,3.1778,2.86511A3.01746,3.01746,0,0,0,7.96655,34.01056Z" opacity="0.7"/><path d="M5.7262,7.31824A1.75667,1.75667,0,1,0,3.86346,5.63849,1.76892,1.76892,0,0,0,5.7262,7.31824Z" opacity="0.7"/><path d="M21.71631,19.67389c-.13031.37707-.239.77563-.33679,1.08807h-.02167c-.087-.31244-.21735-.72174-.33691-1.06646l-1.15168-3.08094H18.82611L20.771,21.41907a.81868.81868,0,0,1,.06518.24774.67649.67649,0,0,1-.076.2262,2.87758,2.87758,0,0,1-.804,1.05566,2.5366,2.5366,0,0,1-.83673.46326l.23907.79712a2.60063,2.60063,0,0,0,1.17352-.614,7.92177,7.92177,0,0,0,1.80365-3.264L23.77,16.61456h-1.0105Z" opacity="0.7"/><path d="M26.28986,15.1217l-.93445.24781v1.24957h-.81488v.7218h.81488v2.84375a1.91967,1.91967,0,0,0,.36938,1.35736,1.33092,1.33092,0,0,0,1.03229.39856,2.35871,2.35871,0,0,0,.84753-.12927l-.04351-.71094a2.14456,2.14456,0,0,1-.55408.0647c-.53247,0-.71716-.36633-.71716-1.01264V17.34088h1.36908v-.7218H26.28986Z" opacity="0.7"/><path d="M30.97156,16.50031a2.5389,2.5389,0,0,0-2.46649,2.81152,2.43109,2.43109,0,0,0,2.58606,2.62842,4.2924,4.2924,0,0,0,1.74932-.32312l-.163-.67871a3.48223,3.48223,0,0,1-1.45593.26934A1.67792,1.67792,0,0,1,29.41779,19.398h3.69427a3.52863,3.52863,0,0,0,.03265-.44165A2.21468,2.21468,0,0,0,30.97156,16.50031Zm-1.54291,2.21911a1.57668,1.57668,0,0,1,1.46686-1.54053,1.3529,1.3529,0,0,1,1.32556,1.54053Z" opacity="0.7"/><path d="M15.94714,16.50031a2.07141,2.07141,0,0,0-1.86889,1.01257h-.02173l-.04352-.89411h-.8584c.02179.49555.04352,1.03418.04352,1.702v5.64459h.94531V21.13232h.02173a1.84889,1.84889,0,0,0,1.619.81873c1.23871,0,2.39044-.92639,2.39044-2.80072A2.3688,2.3688,0,0,0,15.94714,16.50031Zm-.326,4.70745a1.47305,1.47305,0,0,1-1.43426-1.10949,2.11744,2.11744,0,0,1-.04346-.38782v-.89417a1.644,1.644,0,0,1,1.51032-1.56195c1.0105,0,1.56463.89417,1.56463,1.939C17.21838,20.3891,16.63165,21.20776,15.62115,21.20776Z" opacity="0.7"/><path d="M36.87384,16.50031a1.57553,1.57553,0,0,0-1.456,1.1419h-.04346l-.03259-1.02344h-.83667c.03259.48475.04345,1.01264.04345,1.62659v3.58722h.94532v-2.7793a2.639,2.639,0,0,1,.04351-.44165,1.33638,1.33638,0,0,1,1.28211-1.21722,1.45188,1.45188,0,0,1,.326.03229v-.894A1.0406,1.0406,0,0,0,36.87384,16.50031Z" opacity="0.7"/><path d="M4.25616,20.97742c0,1.24957-.09783,1.65887-.35858,1.96051a1.55477,1.55477,0,0,1-1.04309.39856l.09778.74322a2.43981,2.43981,0,0,0,1.62988-.59234,2.84278,2.84278,0,0,0,.63019-2.14368V16.61456H4.25616Z" opacity="0.7"/><path d="M11.395,16.61456h-.95624V19.814a1.336,1.336,0,0,1-1.34729,1.34656c-.86926,0-1.17352-.66791-1.17352-1.659v-2.887H6.96167v3.04865c0,1.83124.98883,2.28363,1.81464,2.28363a1.98151,1.98151,0,0,0,1.73852-.96942h.02173l.05432.851h.84747c-.03259-.4093-.04339-.88336-.04339-1.42188Z" opacity="0.7"/></svg>