<svg id="Layer_1" data-name="Layer 1" xmlns="http://www.w3.org/2000/svg" viewBox="0 0 16 16"><path d="M9.74661,1.55079,9.55934,3.47612l-.869-.869ZM7.23158,9.28,1.73806,14.77352l-.5271-.5271L7.75973,7.69765Zm5.37277-7.97986L14.34241,3.0382l-.08858.96107L11.99625,4.175l-.5271-.5271.18094-2.26257ZM14.09071,5.897,13.03546,6.95224l-.87009-.868Zm1.1794.55867.37244-3.84857L13.03546,0,9.18689.37244,6.95224,2.60709V6.08321l-.869.869v.869l-.43451.41642-.869.0181L3.47612,9.55934v.869h-.869l-.43451.43451v.869l-.869.869h-.869L0,13.03546l.17176,1.90982L1.22648,16l1.56683-.54367,6.766-6.766h3.47612Z" opacity="0.7"/></svg>