<svg id="Layer_1" data-name="Layer 1" xmlns="http://www.w3.org/2000/svg" viewBox="0 0 16 16"><path d="M7.41633,5.37292a3.17221,3.17221,0,0,1,2.72556,1.55819c-.39076.39255-.75227.75508-1.15728,1.16114-.05775-.11184-.1035-.20866-.15675-.301a1.615,1.615,0,0,0-1.39278-.83839A1.56024,1.56024,0,0,0,6.3693,7.383c-.81751.75658-1.60278,1.54994-2.3618,2.36431a1.56122,1.56122,0,0,0,.0585,2.22319,1.64422,1.64422,0,0,0,1.13328.47211,1.39717,1.39717,0,0,0,1.03952-.45484c.1125-.12085.47551-.47962.88427-.87817a3.77187,3.77187,0,0,0,2.0813.20415c-1.09728,1.12961-2.37681,2.38607-3.26858,2.59773A3.25231,3.25231,0,0,1,5.18053,14a3.17508,3.17508,0,0,1-2.3813-5.28253c.80851-.86316,1.64028-1.7068,2.50655-2.51141a3.08265,3.08265,0,0,1,2.11055-.83314M10.8181,2a3.27419,3.27419,0,0,0-.753.08857c-.693.16437-1.9943,1.33452-3.26858,2.59247A3.79006,3.79006,0,0,1,7.416,4.6225a3.9043,3.9043,0,0,1,1.42953.27171c.41476-.36178.765-.70479.95477-.9097a1.33224,1.33224,0,0,1,.99527-.43082,1.65083,1.65083,0,0,1,1.17228.51113,1.56281,1.56281,0,0,1,.024,2.18717c-.76352.81062-1.54879,1.60322-2.3618,2.3643a1.54778,1.54778,0,0,1-1.06353.43083,1.61769,1.61769,0,0,1-1.39578-.83764c-.05325-.09307-.0975-.19064-.16575-.325-.40051.41882-.75377.78885-1.14,1.19266a3.14379,3.14379,0,0,0,2.71956,1.54918,3.0628,3.0628,0,0,0,2.106-.82863c.85127-.79636,1.67029-1.62875,2.472-2.47314A3.176,3.176,0,0,0,10.8181,2" style="fill:#161617"/><rect id="Rollover" x="-12.21053" y="11.31579" width="16" height="16" style="fill:#52b48a;fill-opacity:0"/></svg>