<svg id="Layer_1" data-name="Layer 1"
    xmlns="http://www.w3.org/2000/svg" viewBox="0 0 16 16">
    <path class="cls-1" d="M9.20207,9.45a2.638,2.638,0,0,1,.68646,2.519c-.46061.00105-.88637.00165-1.36331.00227.03181-.09972.06184-.18356.08481-.26916a1.343,1.343,0,0,0-.326-1.312,1.29743,1.29743,0,0,0-.87961-.37381c-.92563-.03584-1.85391-.03108-2.77912.00147a1.29831,1.29831,0,0,0-1.27291,1.34172,1.36731,1.36731,0,0,0,.38878.944,1.16191,1.16191,0,0,0,.87875.34381c.13721-.0049.56164-.00242,1.03637.00359a3.13676,3.13676,0,0,0,1.10383,1.34392,8.1332,8.1332,0,0,1-3.4496-.39448,2.70508,2.70508,0,0,1-.4962-.392,2.64042,2.64042,0,0,1,1.706-4.5066c.983-.03213,1.96821-.03912,2.95075-.00286a2.56357,2.56357,0,0,1,1.731.75116m3.98377.017a2.7234,2.7234,0,0,0-.49489-.39072,9.41358,9.41358,0,0,0-3.4465-.39757,3.15141,3.15141,0,0,1,.39872.32987,3.24693,3.24693,0,0,1,.68084,1.00039c.45663.03116.8643.03542,1.09638.02651a1.10788,1.10788,0,0,1,.83859.33191,1.37283,1.37283,0,0,1,.38877.98991,1.29961,1.29961,0,0,1-1.272,1.30024c-.92565.0277-1.8535.032-2.77912.00147a1.28716,1.28716,0,0,1-.87873-.372,1.34529,1.34529,0,0,1-.32821-1.31333c.02342-.086.05477-.16944.09364-.28858-.48179.01077-.90711.02063-1.3717.031a2.6144,2.6144,0,0,0,.68822,2.51017,2.547,2.547,0,0,0,1.7257.75116c.96886.03229,1.93994.02443,2.908-.00063A2.64115,2.64115,0,0,0,13.18584,9.467M10.48466,6.25942,8.7099,4.48466,10.48466,2.7099,9.77476,2,8,3.77476,6.22524,2l-.7099.7099L7.2901,4.48466,5.51534,6.25942l.7099.70991L8,5.19457,9.77476,6.96933Z"/>
</svg>