<svg id="Layer_1" data-name="Layer 1"
    xmlns="http://www.w3.org/2000/svg" viewBox="0 0 16 16">
    <path d="M6.1258,8.58453c-.58127.12375-1.11678.2415-1.362.30375a1.54679,1.54679,0,0,0-1.182,1.509l.0105.15526.021.1935a1.69054,1.69054,0,0,0,.21526.54l.021.03825.10425.13351.12675.144.054.04725a1.50868,1.50868,0,0,0,.99227.36l.04876-.00075a1.30584,1.30584,0,0,0,.22425-.033l.03075.01425.00525-.00075c.46351-.08775.92552-.186,1.38678-.28726l.34351,1.53829c-.48826.1095-.97577.22126-1.467.31426a3.11231,3.11231,0,0,1-.57152.05325A3.14828,3.14828,0,0,1,2.138,11.34909l-.01125-.045a3.04074,3.04074,0,0,1-.07575-.351c-.012-.06825-.02175-.13575-.02925-.20475l-.0045-.08925a3.11168,3.11168,0,0,1-.0165-.336A3.16417,3.16417,0,0,1,4.34976,7.356c.27225-.06825.80776-.20251.80176-.20551.05476-.012.30226-.06675.62327-.13725ZM10.43666,7.041l-.35325,1.575c.73651.17625,1.38.33376,1.413.34576a1.51434,1.51434,0,0,1,.78826.768l.02925.066.05326.18525.0375.16425.00225.04426a1.66668,1.66668,0,0,1-.03525.57976l-.06375.18525-.05626.14251a1.54619,1.54619,0,0,1-1.39953.89327,1.66112,1.66112,0,0,1-.31275-.03075c-.38476-.07425-.768-.15675-1.15128-.23926l-.34651,1.54954c.135.03225.27.06525.40651.09675l-.01275-.0165c.27526.057.54976.11776.82577.17251a3.01965,3.01965,0,0,0,.57751.05625,3.18815,3.18815,0,0,0,2.81181-1.74,3.01754,3.01754,0,0,0,.12826-.31126l.03375-.0825.06075-.19726a3.04719,3.04719,0,0,0,.08175-.351l.00825-.04425a3.13166,3.13166,0,0,0-2.28155-3.51233c-.297-.07726-.77627-.19051-1.245-.29926M7.93191,2.3926,6.87514,6.07519H7.6244l.30076,3.03157,1.2-3.78159H8.37442Z"/>
</svg>