<svg id="Layer_1" data-name="Layer 1"
    xmlns="http://www.w3.org/2000/svg" viewBox="0 0 16 16">
    <path d="M8.47562,7.29767,6.54931,11.14616l1.48007-.56786v3.4062h.94736V10.5783l1.42106.56786ZM15,9.00529a2.37354,2.37354,0,0,1-2.37109,2.3711h-.9981l-.49939-.99976H12.6286A1.37147,1.37147,0,1,0,12.11273,7.736,3.76986,3.76986,0,1,0,4.7973,5.99046,2.23811,2.23811,0,0,0,2,8.14806a2.22286,2.22286,0,0,0,2.05713,2.21917l1.75831.0094-.448.89471a10.5674,10.5674,0,0,1-2.30981-.12151A3.22382,3.22382,0,0,1,4.0498,4.92522a4.77087,4.77087,0,0,1,9.23633,1.68017c0,.04-.001.08057-.002.12061A2.3754,2.3754,0,0,1,15,9.00529Z"/>
</svg>