<svg id="Layer_1" data-name="Layer 1" xmlns="http://www.w3.org/2000/svg" viewBox="0 0 16 16"><path d="M8.47562,7.29767,6.54931,11.14616l1.48007-.56786v3.4062h.94736V10.5783l1.42106.56786Z" style="fill:#161617"/><path d="M13.28418,6.726c.001-.04.002-.08057.002-.12061A4.77087,4.77087,0,0,0,4.0498,4.92522a3.22382,3.22382,0,0,0-.99218,6.22461,10.5674,10.5674,0,0,0,2.30981.12151l.448-.89471-1.75831-.0094a2.22716,2.22716,0,0,1,.187-4.44775,2.25711,2.25711,0,0,1,.55316.071A3.7696,3.7696,0,1,1,12.11273,7.736a1.37084,1.37084,0,1,1,.51587,2.64068H11.13142l.49939.99976h.9981A2.37141,2.37141,0,0,0,13.28418,6.726Z" style="fill:#161617"/></svg>