<svg id="Layer_1" data-name="Layer 1" xmlns="http://www.w3.org/2000/svg" viewBox="0 0 16 16"><path d="M13.55729,11.4135a2.67481,2.67481,0,0,0,.35883-.25741c.01449-.01278.035-.02386.05029-.03665V12.213c0,.39463-.56766.80886-1.54273,1.13616-.11165.0375-.23013.07245-.352.10739-.12785.03665-.26081.0716-.4006.10484a15.99555,15.99555,0,0,1-3.67355.39122,15.96946,15.96946,0,0,1-3.67015-.39122c-.14064-.03324-.27275-.06819-.4006-.10484-.12273-.03494-.24121-.06989-.352-.10824-.97507-.32645-1.541-.74068-1.541-1.13531V11.11944c.01279.01279.03324.023.04858.03665a2.596,2.596,0,0,0,.36054.25911c.01193.00682.02046.01364.03239.02046a4.26166,4.26166,0,0,0,.49947.24121l.01022.00511c.0358.01449.07331.02984.1091.04518.05711.02131.12018.03921.17814.05966.10058.03665.202.0733.30684.10654.03665.01194.06989.02642.1091.03751.01875.006.04176.01108.06307.017.19945.05881.41.10995.629.15854.04773.01022.09206.0196.14149.03153.23269.04859.4756.0912.72363.12956.04773.00767.09717.01363.1449.02045.22928.03324.462.06137.70147.08609.03921.00341.07671.00852.11336.01364.26252.023.5293.04261.79437.0571.06052.00086.12018.00426.17985.00767.27274.01108.54719.01875.81824.01875.27189,0,.54464-.00767.81909-.01875.05966-.00341.11847-.00681.17814-.00767.26678-.01449.53356-.03409.79693-.0571.0375-.00512.07415-.01023.1108-.01364.23951-.023.4739-.05285.70488-.08609.04773-.00682.09717-.01278.14575-.02045.248-.03836.48839-.081.72107-.12956.04944-.01193.09547-.02131.1432-.03153.21734-.04859.42616-.09973.62646-.15683.02216-.00767.04688-.01279.06819-.01961.0375-.01023.06989-.02471.10739-.03665.10654-.03324.20541-.06989.30769-.10654.05626-.02045.11933-.03835.17473-.05966.03751-.01449.075-.02813.11081-.04518l.01278-.00511a4.28386,4.28386,0,0,0,.49691-.24121c.01364-.00682.02387-.01534.035-.02216m0-2.84509c-.01108.00682-.02131.01534-.035.02216a4.426,4.426,0,0,1-.49691.24121l-.01278.00512c-.0358.01619-.0733.03068-.11081.04517-.0554.02046-.11847.04006-.17473.05966-.10228.03665-.20115.0733-.30769.10654-.0375.01194-.06989.02557-.10739.03665-.02131.00682-.046.01194-.06819.01961-.2003.05625-.40912.1091-.62646.156-.04773.01108-.09376.0213-.1432.03153q-.349.07416-.72107.13041c-.04858.00767-.098.01364-.14575.02045-.231.03325-.46537.06222-.70488.08609l-.1108.01279c-.26337.02386-.53015.04346-.79693.0571l-.17814.00767c-.27445.01194-.5472.01961-.81909.01961-.271,0-.5455-.00767-.81824-.01961-.05967-.00341-.11933-.00511-.17985-.00767-.26507-.01364-.53185-.03324-.79437-.0571L6.0917,9.529c-.23951-.02472-.47219-.05284-.70147-.08609-.04773-.00681-.09717-.01278-.1449-.02045-.248-.0375-.49094-.081-.72363-.13041-.04943-.01023-.09376-.02045-.14149-.03153-.21905-.04688-.42957-.09973-.629-.15769-.02131-.006-.04432-.01108-.06307-.017-.03921-.01194-.07245-.02557-.1091-.03751-.10484-.03324-.20626-.06989-.30684-.10654-.058-.0196-.121-.0392-.17814-.06051-.03579-.01449-.0733-.029-.1091-.04432l-.01022-.00512a4.40123,4.40123,0,0,1-.49947-.24121c-.01193-.00682-.02046-.01364-.03239-.02045a2.531,2.531,0,0,1-.36054-.26c-.01534-.01278-.03579-.023-.04858-.03579V9.3679c0,.39378.56595.80886,1.541,1.13531.1108.03835.22928.0733.352.10824.12785.03665.26.0716.4006.10484a15.96946,15.96946,0,0,0,3.67015.39122,15.99555,15.99555,0,0,0,3.67355-.39122c.13979-.03324.27275-.06819.4006-.10484.12188-.03494.24036-.06989.352-.10739.97507-.3273,1.54273-.74238,1.54273-1.13616V8.27436c-.01534.01278-.0358.02386-.05029.03665a2.67567,2.67567,0,0,1-.35883.2574m0-2.84509c-.01108.00682-.02131.01534-.035.02216a4.42427,4.42427,0,0,1-.49691.24121l-.01278.00512c-.0358.01619-.0733.03068-.11081.04517-.0554.02046-.11847.03921-.17473.05966-.10228.03665-.20115.07331-.30769.10655-.0375.01193-.06989.02642-.10739.03665-.02131.00682-.046.01193-.06819.0196q-.30045.08438-.62646.156c-.04773.01023-.09376.02131-.1432.03153q-.349.07416-.72107.13126c-.04858.00682-.098.01279-.14575.01961-.231.03324-.46537.06222-.70488.08608l-.1108.01279c-.26337.02471-.53015.04347-.79693.0571-.05967.00256-.11848.00512-.17814.00853-.27445.01108-.5472.01875-.81909.01875-.271,0-.5455-.00767-.81824-.01875-.05967-.00341-.11933-.006-.17985-.00853-.26507-.01363-.53185-.03239-.79437-.0571L6.0917,6.6839c-.23951-.02472-.47219-.05284-.70147-.08608-.04773-.00682-.09717-.01279-.1449-.01961-.248-.03835-.49094-.08182-.72363-.13126-.04943-.01022-.09376-.0213-.14149-.03153-.21905-.04773-.42957-.09973-.629-.15683-.02131-.00682-.04432-.01193-.06307-.0179-.03921-.01108-.07245-.02557-.1091-.0375-.10484-.03324-.20626-.0699-.30684-.10655-.058-.02045-.121-.0392-.17814-.06051-.03579-.01449-.0733-.029-.1091-.04432l-.01022-.00512a4.39954,4.39954,0,0,1-.49947-.24121c-.01193-.00682-.02046-.01363-.03239-.02045a2.53094,2.53094,0,0,1-.36054-.26c-.01534-.01279-.03579-.023-.04858-.0358V6.52281c0,.39378.56595.80886,1.541,1.13531.1108.03835.22928.0733.352.10825.12785.03665.26.07159.4006.10483a15.96946,15.96946,0,0,0,3.67015.39122,15.99555,15.99555,0,0,0,3.67355-.39122c.13979-.03324.27275-.06818.4006-.10483.12188-.035.24036-.0699.352-.1074.97507-.3273,1.54273-.74238,1.54273-1.13616V5.42927c-.01534.01364-.0358.02386-.05029.03665a2.67567,2.67567,0,0,1-.35883.2574m.41-2.03281c0-.8225-2.45131-1.73791-5.96889-1.73791-3.515,0-5.96378.91541-5.96378,1.73791,0,.39378.56766.80971,1.541,1.13531.11251.03835.22928.07415.35372.10909.127.0358.26.07075.39974.104a15.97721,15.97721,0,0,0,3.6693.39037,15.99546,15.99546,0,0,0,3.67185-.39037c.13978-.03324.27275-.06819.4006-.10484.12359-.03409.24036-.06989.35372-.10824.97507-.3256,1.54272-.74153,1.54272-1.13531" opacity="0.7"/></svg>