<svg id="Layer_1" data-name="Layer 1"
    xmlns="http://www.w3.org/2000/svg" viewBox="0 0 16 16">
    <path class="cls-1" d="M13.95288,11.80975c.01337-.01074.03223-.01928.04633-.03076v.917c0,.33021-.52271.67829-1.42066.95276-.10284.03144-.21191.06079-.32416.09009-.11773.0307-.24017.06-.36889.08789a16.11553,16.11553,0,0,1-3.38288.32807,16.08889,16.08889,0,0,1-3.37976-.32807c-.12951-.02789-.25116-.05719-.36889-.08789-.113-.0293-.22217-.05865-.32422-.09082-.89789-.27374-1.41907-.62182-1.41907-.952v-.917c.01178.01074.03064.01929.04474.03a2.34024,2.34024,0,0,0,.332.218l.02979.01715a4.235,4.235,0,0,0,.46.20227l.00946.00427c.033.01288.0675.025.10046.03717.05255.01789.11066.03363.164.05078.09265.0307.186.06147.2826.0893.03375.01.06433.02215.10046.03149.01727.005.03845.00928.058.015.18372.04785.37757.09149.57929.13147.04394.0086.08478.01788.13031.02649.21423.04144.43793.07788.66638.11.04395.00574.08948.01074.13342.01642.21112.02789.42542.05151.64594.07221l.10443.01074c.2417.02069.48737.03644.73151.04785.05572.0022.11065.00433.16558.0072.25116.00928.50391.01569.75354.01569.25037,0,.50153-.00641.75428-.01569.05493-.00287.10907-.005.164-.0072.24573-.01141.49139-.02716.73389-.04785l.10205-.01074c.22058-.02.4364-.04432.6491-.07221.044-.00568.08948-.01068.13422-.01642q.34258-.04824.664-.11c.04553-.00861.08795-.01789.1319-.02649q.30019-.06.5769-.1308c.02039-.00641.04316-.01068.06275-.01642.03454-.00861.06439-.02075.09894-.03076.09808-.02783.18914-.0586.28332-.0893.05182-.01715.10986-.03289.16089-.05.03455-.01215.06909-.0243.10205-.03791l.01178-.00427a4.252,4.252,0,0,0,.45758-.20227c.01257-.00574.022-.01288.03217-.01862A2.46845,2.46845,0,0,0,13.95288,11.80975ZM8.50336,8.86353c-3.23688,0-5.49189.76763-5.49189,1.45739,0,.3302.52277.679,1.41907.952.10364.03216.21118.06219.32575.09149.11694.03.23938.05933.3681.08722a16.10108,16.10108,0,0,0,3.379.32733,16.11964,16.11964,0,0,0,3.38134-.32733c.12873-.02789.25116-.05719.3689-.088.11383-.02857.22138-.0586.32575-.09076.89788-.273,1.42065-.62183,1.42065-.952C14,9.63116,11.74261,8.86353,8.50336,8.86353ZM14,6V5H5V3H7V2H2V3H4V8.581a9.6316,9.6316,0,0,1,1-.25518V6H8V8h6V7H9V6Z"/>
</svg>