<svg id="Layer_1" data-name="Layer 1" xmlns="http://www.w3.org/2000/svg" viewBox="0 0 16 16"><path d="M3,3H1V1H6V3H4V4H14V6H8V7h6V9h-.33429A13.44908,13.44908,0,0,0,8.5,8.00568V8H7V6H6V5H4V8.45337a8.73576,8.73576,0,0,0-1,.311V3Zm10.62107,9.77064a2.67579,2.67579,0,0,0,.35884-.2574c.01449-.01279.03494-.023.05028-.03665v1.09354c0,.39378-.56765.80886-1.54272,1.13616-.11166.0375-.23013.07245-.352.10739-.12785.03665-.26082.0716-.4006.10484a15.99571,15.99571,0,0,1-3.67356.39122,15.96936,15.96936,0,0,1-3.67014-.39122c-.14064-.03324-.27275-.06819-.4006-.10484-.12274-.03494-.24121-.06989-.352-.10824-.97507-.32645-1.541-.74153-1.541-1.13531V12.47659c.01278.01278.03324.023.04858.0358a2.53037,2.53037,0,0,0,.36054.26c.01193.00682.02045.01363.03239.02045a4.39936,4.39936,0,0,0,.49946.24121l.01023.00512c.0358.01534.0733.02983.1091.04432.05711.02131.12018.04006.17814.06051.10057.03665.202.0733.30684.10655.03665.01193.06989.02642.1091.0375.01875.006.04176.01108.06307.0179.19945.0571.41.1091.629.15683.04773.01022.09205.0213.14149.03153.23269.04944.4756.09291.72363.13126.04773.00682.09717.01279.1449.01961.22927.03324.462.06136.70147.08608l.11336.01279c.26252.02471.5293.04347.79437.0571.06052.00256.12018.00512.17984.00853.27275.01108.5472.01875.81824.01875.2719,0,.54465-.00767.8191-.01875.05966-.00341.11847-.006.17813-.00853.26678-.01363.53356-.03239.79694-.0571l.1108-.01279c.2395-.02386.4739-.05284.70488-.08608.04773-.00682.09716-.01279.14575-.01961q.372-.05753.72107-.13126c.04944-.01023.09546-.02131.14319-.03153q.326-.07159.62647-.156c.02216-.00767.04688-.01279.06818-.0196.03751-.01023.0699-.02472.1074-.03665.10654-.03325.20541-.0699.30769-.10655.05625-.02045.11933-.0392.17473-.05966.0375-.01449.075-.029.1108-.04517l.01279-.00512a4.42511,4.42511,0,0,0,.49691-.24121c.01364-.00682.02386-.01534.03494-.02216m.41-2.03281c0,.39378-.56766.80971-1.54273,1.13531-.11336.03835-.23013.07415-.35372.10824-.12785.03665-.26081.0716-.40059.10484a15.99546,15.99546,0,0,1-3.67185.39037,15.97715,15.97715,0,0,1-3.6693-.39037c-.13978-.03324-.27275-.06819-.39974-.104-.12444-.03494-.24121-.07074-.35372-.10909-.97337-.3256-1.541-.74153-1.541-1.13531,0-.8225,2.44875-1.73791,5.96378-1.73791,3.51758,0,5.96889.91541,5.96889,1.73791" opacity="0.7"/></svg>