<svg id="Layer_1" data-name="Layer 1"
    xmlns="http://www.w3.org/2000/svg" viewBox="0 0 16 16">
    <path class="cls-1" d="M13.58774,11.46089a2.68941,2.68941,0,0,0,.36083-.2574c.01458-.01279.03515-.02387.05057-.03665v1.09354c0,.39463-.57081.80886-1.55132,1.13616-.11227.0375-.23141.07245-.354.10739-.12856.03665-.26227.0716-.40283.10484A16.17051,16.17051,0,0,1,7.997,14a16.14406,16.14406,0,0,1-3.69059-.39122c-.14142-.03324-.27427-.06819-.40283-.10484-.12342-.03494-.24256-.06989-.354-.10824C2.5691,13.06924,2,12.655,2,12.26038V11.16684c.01286.01278.03343.023.04885.03665a2.61072,2.61072,0,0,0,.36255.25911c.012.00682.02057.01364.03257.02045a4.29409,4.29409,0,0,0,.50225.24121l.01028.00512c.036.01449.07371.02983.10971.04517.05742.02131.12085.03921.17913.05966.10114.03666.20313.07331.30855.10655.03685.01193.07028.02642.10971.0375.01885.006.042.01108.06342.017.20056.05881.41226.10995.63253.15853.048.01023.09256.0196.14227.03154.234.04858.47825.0912.72766.12955.048.00767.09771.01364.14571.02046.23055.03324.46454.06136.70538.08608.03942.00341.07713.00853.114.01364.264.023.53225.04262.7988.05711.06085.00085.12085.00426.18084.00767.27427.01108.55025.01875.8228.01875.27341,0,.54768-.00767.82366-.01875.06-.00341.11913-.00682.17913-.00767.26826-.01449.53653-.0341.80137-.05711.03771-.00511.07456-.01023.11142-.01364.24084-.023.47653-.05284.7088-.08608.048-.00682.09771-.01279.14657-.02046.24941-.03835.4911-.081.72509-.12955.04971-.01194.096-.02131.144-.03154.21855-.04858.42854-.09972.63-.15683.02228-.00767.04714-.01278.06857-.0196.03771-.01023.07028-.02472.108-.03665.10714-.03324.20656-.06989.30941-.10655.05656-.02045.12-.03835.1757-.05966.03771-.01449.07542-.02813.11142-.04517l.01285-.00512a4.316,4.316,0,0,0,.49968-.24121.41509.41509,0,0,0,.03514-.02216m0-2.84508c-.01114.00682-.02142.01534-.03514.02216a4.46091,4.46091,0,0,1-.49968.24121l-.01285.00511c-.036.0162-.07371.03069-.11142.04518-.05571.02045-.11914.04006-.1757.05966-.10285.03665-.20227.0733-.30941.10654-.03771.01194-.07028.02557-.108.03665-.02143.00682-.04629.01194-.06857.01961-.20141.05625-.4114.10909-.63.156-.048.01108-.09428.02131-.144.03154q-.351.07415-.72509.13041c-.04886.00767-.09857.01363-.14657.02045-.23227.03324-.468.06222-.7088.08609l-.11142.01278c-.26484.02387-.53311.04347-.80137.05711L8.82066,9.654c-.276.01193-.55025.0196-.82366.0196-.27255,0-.54853-.00767-.8228-.0196-.06-.00341-.12-.00511-.18084-.00767-.26655-.01364-.53482-.03324-.7988-.05711l-.114-.01278c-.24084-.02472-.47483-.05285-.70538-.08609-.048-.00682-.09771-.01278-.14571-.02045-.24941-.03751-.49368-.081-.72766-.13041-.04971-.01023-.09428-.02046-.14227-.03154-.22027-.04688-.432-.09972-.63253-.15768-.02143-.006-.04457-.01108-.06342-.017-.03943-.01194-.07286-.02557-.10971-.03751-.10542-.03324-.20741-.06989-.30855-.10654-.05828-.0196-.12171-.03921-.17913-.06051-.036-.01449-.07371-.029-.10971-.04433l-.01028-.00511A4.43638,4.43638,0,0,1,2.444,8.638c-.012-.00682-.02057-.01364-.03257-.02046a2.54365,2.54365,0,0,1-.36255-.26c-.01542-.01278-.036-.023-.04885-.0358V9.4153c0,.39377.5691.80886,1.5496,1.1353.11142.03836.23056.0733.354.10825.12856.03665.26141.0716.40283.10484a16.14462,16.14462,0,0,0,3.69059.39122,16.17108,16.17108,0,0,0,3.694-.39122c.14056-.03324.27427-.06819.40283-.10484.12256-.03495.2417-.06989.354-.10739.98051-.3273,1.55132-.74239,1.55132-1.13616V8.32175c-.01542.01279-.036.02387-.05057.03666a2.68941,2.68941,0,0,1-.36083.2574m0-2.84508c-.01114.00681-.02142.01534-.03514.02216a4.46265,4.46265,0,0,1-.49968.24121l-.01285.00511c-.036.0162-.07371.03068-.11142.04517-.05571.02046-.11914.03921-.1757.05967-.10285.03665-.20227.0733-.30941.10654-.03771.01193-.07028.02642-.108.03665-.02143.00682-.04629.01193-.06857.0196q-.30212.08439-.63.156c-.048.01023-.09428.02131-.144.03154q-.351.07414-.72509.13125c-.04886.00682-.09857.01279-.14657.01961-.23227.03324-.468.06222-.7088.08608l-.11142.01279c-.26484.02472-.53311.04347-.80137.05711-.06.00255-.11914.00511-.17913.00852-.276.01108-.55025.01875-.82366.01875-.27255,0-.54853-.00767-.8228-.01875-.06-.00341-.12-.006-.18084-.00852-.26655-.01364-.53482-.03239-.7988-.05711l-.114-.01279c-.24084-.02471-.47483-.05284-.70538-.08608-.048-.00682-.09771-.01279-.14571-.01961-.24941-.03835-.49368-.08182-.72766-.13125-.04971-.01023-.09428-.02131-.14227-.03154-.22027-.04773-.432-.09972-.63253-.15683-.02143-.00682-.04457-.01193-.06342-.0179-.03943-.01108-.07286-.02557-.10971-.0375-.10542-.03324-.20741-.06989-.30855-.10654-.05828-.02046-.12171-.03921-.17913-.06052-.036-.01449-.07371-.029-.10971-.04432L2.94622,6.0341A4.43809,4.43809,0,0,1,2.444,5.79289c-.012-.00682-.02057-.01364-.03257-.02046a2.54365,2.54365,0,0,1-.36255-.26c-.01542-.01279-.036-.023-.04885-.0358V6.57021c0,.39378.5691.80887,1.5496,1.13531.11142.03835.23056.0733.354.10825.12856.03665.26141.07159.40283.10483A16.14406,16.14406,0,0,0,7.997,8.30982a16.17051,16.17051,0,0,0,3.694-.39122c.14056-.03324.27427-.06818.40283-.10483.12256-.035.2417-.0699.354-.1074.98051-.32729,1.55132-.74238,1.55132-1.13616V5.47667c-.01542.01364-.036.02387-.05057.03665a2.68944,2.68944,0,0,1-.36083.25741M14,3.73791C14,2.91541,11.535,2,7.99786,2c-3.53461,0-5.997.9154-5.997,1.7379,0,.39378.57081.80972,1.5496,1.13531.11314.03836.23056.07415.35569.1091q.19155.0537.402.104a16.1519,16.1519,0,0,0,3.68974.39037,16.17028,16.17028,0,0,0,3.6923-.39037c.14057-.03324.27427-.06818.40283-.10483.12428-.0341.2417-.06989.35569-.10825C13.42918,4.54763,14,4.13169,14,3.73791"/>
</svg>