<svg id="Layer_1" data-name="Layer 1" xmlns="http://www.w3.org/2000/svg" width="16" height="16" viewBox="0 0 16 16"><path d="M9.116,2.29878A1.87127,1.87127,0,0,1,10.47562.73406C12.12734.27484,13.02218.36059,16,.34319c-1.79029,1.58151-3.20091,4.0653-2.89081,6.49753a20.93686,20.93686,0,0,1-1.635-1.85493,6.669,6.669,0,0,0,.55-1.24035c.18953-.732.72333-.90229,1.41186-.88489.05157,0-.05283-.57854-.24173-.6295-.499-.13609-.929.03418-1.5144-.187a.67.67,0,0,0-.56735.10191c-.48222.238-.79168.76558-1.3261.93585ZM.02869,1.82284c-.051.03418-.03419.1361.05156.17027A6.79487,6.79487,0,0,1,2.88533,3.643C4.93414,5.63212,6.41374,7.94628,8.54767,9.8677a.72328.72328,0,0,0,.65436.13609,24.52871,24.52871,0,0,0,4.079-1.88786c.069-.03356.069-.289,0-.37472A65.56079,65.56079,0,0,0,7.5329,1.22815C6.397.15621,4.744.173,3.23021.44516A8.24883,8.24883,0,0,0,.02869,1.82284m7.50383,7.654c-.91223-1.1229-2.03079-2.34771-2.994-3.47a15.42187,15.42187,0,0,1-.724,4.491,8.46043,8.46043,0,0,0-.15473,4.76191,13.79259,13.79259,0,0,1,3.85527-4.04791Z" fill="#231f20" opacity="0.7"/></svg>