<svg id="Layer_1" data-name="Layer 1" xmlns="http://www.w3.org/2000/svg" viewBox="0 0 24 24"><path d="M23,7.176v14.7185a1.10323,1.10323,0,0,1-1.1,1.1H3.2l-2.2-2.2v-18.7A1.01721,1.01721,0,0,1,2,1h9.28558l-.04242.03125L10.27515,2H3V12H9.69165l2.00012,2H6.14288A1.14621,1.14621,0,0,0,5,15.14282v5.7143A1.14622,1.14622,0,0,0,6.14288,22H17.85712A1.14622,1.14622,0,0,0,19,20.85712v-5.7143A1.14621,1.14621,0,0,0,17.85712,14H16.17694l1.99976-2H21V9.17627ZM10,20.98438V15.01562H7v5.96876ZM22.08653-.01967,14.018,8.04891,11.2441,5.27507,9.2272,7.29293,13.93427,12,24.01976,1.91356Z" opacity="0.7"/></svg>