<svg id="Layer_1" data-name="Layer 1" xmlns="http://www.w3.org/2000/svg" viewBox="0 0 32 32"><path d="M29.31889,13.32263A4.2229,4.2229,0,0,1,31.997,14.51517V9.984a7.09918,7.09918,0,0,0-2.67813-.52074,6.77519,6.77519,0,0,0-5.89729,3.27889,3.42716,3.42716,0,0,0-1.67608-2.40873c-.02141-.0124-.04283-.02592-.06425-.0372a4.82828,4.82828,0,0,0-.93441-.40127c-.09243-.02818-.186-.053-.28179-.07551a9.22962,9.22962,0,0,0-2.06044-.22994c-.45087-.00113-.9006-.00113-1.35147-.00226q-1.98661-.00339-3.9721-.00563s.00113,1.96012.00113,4.29221a6.65859,6.65859,0,0,0-6.391-4.37224A6.47308,6.47308,0,0,0-.003,15.72911a6.47381,6.47381,0,0,0,6.69419,6.22754,6.66089,6.66089,0,0,0,6.39211-4.37449c0,2.1709,0,3.93265-.00226,3.93265v.24009h4.30912V18.068c.38549,0,.76083.00564,1.12942.009h1.5442a3.42028,3.42028,0,0,0,2.668-1.27594,6.57818,6.57818,0,0,0,6.58711,5.1173,7.09859,7.09859,0,0,0,2.67813-.51963V17.00392a3.50437,3.50437,0,0,1-2.67813,1.08771,2.37692,2.37692,0,0,1-2.32983-2.40084A2.34917,2.34917,0,0,1,29.31889,13.32263ZM6.69121,18.09727A2.369,2.369,0,1,1,9.021,15.72911,2.34917,2.34917,0,0,1,6.69121,18.09727Zm12.55428-3.64635a.99286.99286,0,0,1-.8465.55906H17.39244V12.92474h.99528a1.01906,1.01906,0,0,1,.80817.43734A1.26083,1.26083,0,0,1,19.24549,14.45092Z" opacity="0.7"/></svg>