<svg id="Layer_1" data-name="Layer 1" xmlns="http://www.w3.org/2000/svg" viewBox="0 0 16 16"><path d="M14.65177,6.648a2.11151,2.11151,0,0,1,1.33907.59626V4.97868a3.5496,3.5496,0,0,0-1.33907-.26038,3.38758,3.38758,0,0,0-2.94864,1.63945,1.71361,1.71361,0,0,0-.838-1.20437L10.833,5.13479a2.41365,2.41365,0,0,0-.4672-.20064c-.04622-.01409-.093-.02649-.1409-.03776a4.61507,4.61507,0,0,0-1.03022-.115q-.33814-.00084-.67573-.00112-.9933-.0017-1.986-.00282s.00056.98006.00056,2.14611A3.32929,3.32929,0,0,0,3.33793,4.73746,3.23654,3.23654,0,0,0-.00916,7.85124,3.23691,3.23691,0,0,0,3.33793,10.965,3.33045,3.33045,0,0,0,6.534,8.77776c0,1.08545,0,1.96633-.00113,1.96633v.12H8.68742V9.02066c.19274,0,.38042.00282.56471.00451h.7721a1.71013,1.71013,0,0,0,1.334-.638,3.28909,3.28909,0,0,0,3.29355,2.55865,3.5493,3.5493,0,0,0,1.33907-.25981V8.48864a1.75221,1.75221,0,0,1-1.33907.54386,1.18846,1.18846,0,0,1-1.16491-1.20042A1.17458,1.17458,0,0,1,14.65177,6.648ZM3.33793,9.03531A1.18452,1.18452,0,1,1,4.50285,7.85124,1.17458,1.17458,0,0,1,3.33793,9.03531ZM9.61507,7.21214a.49643.49643,0,0,1-.42325.27953H8.68855V6.44905h.49764a.50952.50952,0,0,1,.40408.21867A.63038.63038,0,0,1,9.61507,7.21214Z" opacity="0.7"/></svg>