<svg id="Layer_1" data-name="Layer 1" xmlns="http://www.w3.org/2000/svg" viewBox="0 0 40 40"><path d="M36.65234,17.01585A5.27868,5.27868,0,0,1,40,18.50652v-5.664a8.874,8.874,0,0,0-3.34766-.65093,8.469,8.469,0,0,0-7.37161,4.09862,4.284,4.284,0,0,0-2.0951-3.01092c-.02677-.01549-.05354-.0324-.08031-.0465a6.03591,6.03591,0,0,0-1.168-.50158c-.11553-.03522-.23248-.06622-.35223-.0944a11.53763,11.53763,0,0,0-2.57556-.28742q-.84537-.00211-1.68933-.00282-2.48326-.00423-4.96512-.007s.00141,2.45016.00141,5.36527a8.32327,8.32327,0,0,0-7.98873-5.46531C3.74639,12.23952,0,15.72385,0,20.024c0,4.2987,3.74639,7.78443,8.36774,7.78443a8.32612,8.32612,0,0,0,7.99014-5.46812c0,2.71363,0,4.91582-.00282,4.91582v.3001h5.3864V22.94751c.48185,0,.951.007,1.41176.01128h1.93026a4.27536,4.27536,0,0,0,3.335-1.59493,8.22271,8.22271,0,0,0,8.23388,6.39662A8.87322,8.87322,0,0,0,40,27.111V21.61747a4.3805,4.3805,0,0,1-3.34766,1.35964A2.97116,2.97116,0,0,1,33.74,19.97605,2.93647,2.93647,0,0,1,36.65234,17.01585Zm-28.2846,5.9683A2.96131,2.96131,0,1,1,11.28,20.024,2.93646,2.93646,0,0,1,8.36774,22.98415Zm15.69285-4.55794a1.24108,1.24108,0,0,1-1.05812.69883H21.74428V16.51849h1.2441a1.2738,1.2738,0,0,1,1.01021.54667A1.576,1.576,0,0,1,24.06059,18.42621Z" opacity="0.7"/></svg>