<svg id="Layer_1" data-name="Layer 1"
    xmlns="http://www.w3.org/2000/svg" viewBox="0 0 16 16">
    <path class="cls-1" d="M11.41305,2.67416c.32614-.28776,1.03936-.01313,1.80667.85645.76835.86906.95217,1.611.62655,1.89879L12.46816,6.6466,10.03547,3.89031ZM4.032,12.16707l2.9705-1.39626L5.52458,11.025l.06459-1.45875-.48055.24942L5.26513,8.8027,3.511,11.57685Zm3.31871-1.00243L2,13.43573,4.91693,8.40939l3.14958-2.781,2.43323,2.75524Zm4.29293-3.86585L9.21039,4.54355c-.17752-.20112.22163-.54244.39337-.34815l2.43375,2.75577c.17541.199-.22374.54033-.3939.34762m-.78254.70049L8.42785,5.244c-.17752-.20112.2211-.54244.39337-.3471l2.43322,2.75472c.17594.199-.22373.54034-.39337.34762"/>
</svg>