<svg id="Layer_1" data-name="Layer 1" xmlns="http://www.w3.org/2000/svg" viewBox="0 0 40 40"><path d="M33.9998,5.0007l2,1.039v7.922l-2,1.039Zm0,19.9999,2-1.039v-6.922l-2-1.039Zm0,10.9999,2-1.039v-7.921l-2-1.04ZM28,19H17v1H28Zm0-3H17v1H28ZM33,6V34a2.00591,2.00591,0,0,1-2,2H12V4H31A2.00591,2.00591,0,0,1,33,6Zm-4,8H16v8H29ZM7.333,7H4.667C4.298,7,4,7.224,4,7.5s.298.5.667.5H7.333C7.702,8,8,7.776,8,7.5S7.702,7,7.333,7Zm0,5H4.667c-.369,0-.667.224-.667.5s.298.5.667.5H7.333c.369,0,.667-.224.667-.5S7.702,12,7.333,12Zm0,5H4.667c-.369,0-.667.224-.667.5s.298.5.667.5H7.333c.369,0,.667-.224.667-.5S7.702,17,7.333,17Zm0,5H4.667c-.369,0-.667.224-.667.5s.298.5.667.5H7.333c.369,0,.667-.224.667-.5S7.702,22,7.333,22Zm0,5H4.667c-.369,0-.667.224-.667.5s.298.5.667.5H7.333c.369,0,.667-.224.667-.5S7.702,27,7.333,27ZM6,4V6H7.333A1.57311,1.57311,0,0,1,9,7.5,1.57311,1.57311,0,0,1,7.333,9H6v2H7.333A1.57311,1.57311,0,0,1,9,12.5,1.57311,1.57311,0,0,1,7.333,14H6v2H7.333a1.50836,1.50836,0,1,1,0,3H6v2H7.333a1.50836,1.50836,0,1,1,0,3H6v2H7.333a1.50836,1.50836,0,1,1,0,3H6v2H7.333a1.50836,1.50836,0,1,1,0,3H6v2h5V4ZM7.333,32H4.667c-.369,0-.667.224-.667.5s.298.5.667.5H7.333c.369,0,.667-.224.667-.5S7.702,32,7.333,32Z" opacity="0.7"/></svg>