<svg id="Layer_1" data-name="Layer 1" xmlns="http://www.w3.org/2000/svg" viewBox="0 0 24 24"><path d="M7,15.01562h3v5.96876H7ZM19,16.668v4.18909A1.14622,1.14622,0,0,1,17.85712,22H6.14288A1.14622,1.14622,0,0,1,5,20.85712v-5.7143A1.14621,1.14621,0,0,1,6.14288,14H9.01941a10.08867,10.08867,0,0,1-1.50452-2H3V2H7.514a10.07032,10.07032,0,0,1,.65985-1H2A1.01721,1.01721,0,0,0,1,2.09448v18.7l2.2,2.2H21.9a1.10323,1.10323,0,0,0,1.1-1.1V14.43518A10.02707,10.02707,0,0,1,19,16.668ZM16.23567,0a7.07876,7.07876,0,0,1,1.361.133l.376,1.125a5.99836,5.99836,0,0,0-5.977,9.984l.707-2.121,1.123,3.366.014.006.408,1.219-.014-.005.238.715-5.305-1.766,2.122-.707A6.9995,6.9995,0,0,1,16.23567,0m7.78,2.05-2.121.707.081.242a6.98852,6.98852,0,0,1-5.732,10.994,7.14769,7.14769,0,0,1-.865-.053l-.358-1.07a5.9917,5.9917,0,0,0,6.132-9.302l-.672,2.017-1.259-3.783-.015-.01-.441-1.318.016.008-.067-.202Zm-7.7775,1.9493a3,3,0,1,0,3,3,2.99981,2.99981,0,0,0-3-3" opacity="0.7"/></svg>