<svg id="Layer_1" data-name="Layer 1" xmlns="http://www.w3.org/2000/svg" viewBox="0 0 24 24"><path d="M12.23816,4.99927a2,2,0,1,1-2,2A1.99986,1.99986,0,0,1,12.23816,4.99927Zm4,2a2,2,0,1,0,2-2A1.99986,1.99986,0,0,0,16.23816,6.99927Zm-8,0a2,2,0,1,0-2,2A1.99986,1.99986,0,0,0,8.23816,6.99927ZM7,20.98438h3V15.01562H7ZM23,2V21.89453a1.10323,1.10323,0,0,1-1.1,1.1H3.2l-2.2-2.2v-18.7A1.01721,1.01721,0,0,1,2,1H22A.93963.93963,0,0,1,23,2ZM19,14H6.14288A1.14621,1.14621,0,0,0,5,15.14282v5.7143A1.14622,1.14622,0,0,0,6.14288,22H17.85712A1.14622,1.14622,0,0,0,19,20.85712Zm2-2V2H3V12Z" opacity="0.7"/></svg>