<svg id="Layer_1" data-name="Layer 1" xmlns="http://www.w3.org/2000/svg" viewBox="0 0 16 16"><path d="M6.529.5,3.758,1.643l.644,1.561A5.92857,5.92857,0,0,0,3.215,4.385L1.656,3.737.504,6.503l1.559.649A6.025,6.025,0,0,0,2.06,8.827L.5,9.47l1.142,2.772,1.561-.643a6.03057,6.03057,0,0,0,1.181,1.186l-.648,1.559,2.768,1.151.648-1.558a5.84941,5.84941,0,0,0,.843.06,5.92466,5.92466,0,0,0,.832-.058L9.47,15.5l2.772-1.142-.643-1.561a6.03527,6.03527,0,0,0,1.187-1.181l1.557.648,1.152-2.768-1.559-.648a5.91231,5.91231,0,0,0,.003-1.675L15.5,6.53,14.357,3.758l-1.561.643a5.92364,5.92364,0,0,0-1.181-1.186l.648-1.558L9.497.505,8.848,2.064a5.89249,5.89249,0,0,0-.846-.061,6.01,6.01,0,0,0-.828.058ZM7.998,11.749A3.74822,3.74822,0,1,1,11.46,9.441a3.72968,3.72968,0,0,1-3.462,2.308M8,6.501a1.50076,1.50076,0,1,0,.576.116A1.498,1.498,0,0,0,8,6.501" opacity="0.7"/></svg>