<svg id="Layer_1" data-name="Layer 1"
    xmlns="http://www.w3.org/2000/svg" viewBox="0 0 16 16">
    <path class="cls-1" d="M14,12H2V10.37084A4.61009,4.61009,0,0,0,3.76562,8.40327c.63672-1.061,1.082-1.7056,1.90235-1.7056s1.26562.64459,1.90234,1.7056c.61426,1.02583,1.31153,2.18856,2.76563,2.18856,1.45312,0,2.14941-1.16273,2.76367-2.18856A6.45866,6.45866,0,0,1,14,7.136Zm0-6.05447A4.61316,4.61316,0,0,0,12.23633,7.9127c-.63574,1.06148-1.08106,1.70559-1.90039,1.70559-.82032,0-1.26563-.64459-1.90235-1.70559C7.81934,6.88687,7.12207,5.72413,5.668,5.72413S3.5166,6.88687,2.90234,7.9127A6.468,6.468,0,0,1,2,9.18065V4H14Z"/>
</svg>