<svg id="Layer_1" data-name="Layer 1" xmlns="http://www.w3.org/2000/svg" viewBox="0 0 16 16"><path d="M13.30328,4.25H11.37372A6.1045,6.1045,0,0,0,9.80536,1.75946,6.50281,6.50281,0,0,1,13.30328,4.25ZM9.80536,14.24054A6.50281,6.50281,0,0,0,13.30328,11.75H11.37372A6.1045,6.1045,0,0,1,9.80536,14.24054ZM16,8A8,8,0,1,1,8,0,8,8,0,0,1,16,8ZM4.609,4.05475A.40564.40564,0,0,0,4,4.4035v8.19037a.40477.40477,0,0,0,.40479.40625l.18377-.04364,8.17133-4.08685a.40335.40335,0,0,0,.01727-.72522ZM15,8A7,7,0,1,0,3.19989,13.08575a1.29634,1.29634,0,0,1-.09943-.49188v-.34326A5.52208,5.52208,0,0,1,2.69672,11.75h.40374v-.5H2.37671a6.4623,6.4623,0,0,1,0-6.5h.72375V4.4035A1.21455,1.21455,0,0,1,3.13159,4.25H2.69672A6.50281,6.50281,0,0,1,6.19464,1.75946,5.3,5.3,0,0,0,5.06677,3.278l.4491.22485C6.155,2.28174,7.03552,1.5,8,1.5c1.15149,0,2.19189,1.10022,2.834,2.75H7.00806l.99865.5h3.00367a10.21846,10.21846,0,0,1,.36139,1.68481l.53869.26978A10.93047,10.93047,0,0,0,11.54108,4.75h2.08221a6.4623,6.4623,0,0,1,0,6.5H11.54108c.08123-.27051.131-.57.191-.86047l-.58081.29046c-.04657.19062-.0835.39044-.14093.57H10.0116l-.9997.5H10.834C10.19189,13.39978,9.15149,14.5,8,14.5a2.61837,2.61837,0,0,1-2.01715-1.235l-.44275.22144a4.634,4.634,0,0,0,.65454.75415,6.012,6.012,0,0,1-1.16913-.49677l-.03454.01728-.09326.04663-.10145.02405-.18377.04364-.10242.02429H4.40479a1.23376,1.23376,0,0,1-.243-.04926A6.99589,6.99589,0,0,0,15,8ZM6,10H7V9H8V8H7V7H6V8H5V9H6Z" opacity="0.7"/></svg>