<svg id="Layer_1" data-name="Layer 1" xmlns="http://www.w3.org/2000/svg" viewBox="0 0 40 40"><path d="M27.03326,9a17.731,17.731,0,0,0-2.70385-5.42236A16.98373,16.98373,0,0,1,32.94855,9ZM24.32941,36.42236A16.98373,16.98373,0,0,0,32.94855,31H27.03326A17.731,17.731,0,0,1,24.32941,36.42236ZM40,20A20,20,0,1,1,20,0,20,20,0,0,1,40,20Zm-1,0A19,19,0,1,0,20,39,19,19,0,0,0,39,20Zm-4.17792,1h2.12744a16.87882,16.87882,0,0,1-2.54614,8h-6.797a33.7289,33.7289,0,0,0,.65809-3.75787l-2.17475,1.0877c-.15826.93171-.33679,1.83539-.55627,2.67017H20.75092l-3.99878,2h8.17974C23.62531,34.71686,21.75476,37,20,37c-1.638,0-3.37091-2.00677-4.65778-5.29486l-1.77362.88708a15.89272,15.89272,0,0,0,2.102,3.83014A16.98373,16.98373,0,0,1,7.05145,31h1.003A3.02846,3.02846,0,0,1,8,30.46112V29H5.59662a16.87882,16.87882,0,0,1-2.54614-8H8V19H3.05048a16.87882,16.87882,0,0,1,2.54614-8H8V9.51971A3.00828,3.00828,0,0,1,8.05261,9H7.05145a16.98373,16.98373,0,0,1,8.61914-5.42236,15.887,15.887,0,0,0-2.09887,3.82245l1.77319.88781C16.63153,5.004,18.3631,3,20,3c1.75476,0,3.62531,2.28314,4.93188,6H16.76709l3.99451,2h4.77185c.2193.83392.39764,1.73676.55584,2.66754l2.175,1.089A33.71865,33.71865,0,0,0,27.60638,11h6.797a16.87882,16.87882,0,0,1,2.54614,8H34.82373a2.91188,2.91188,0,0,1-.00165,2Zm-2.42456-.06122a1.0312,1.0312,0,0,0,.04425-1.85419L11.557,8.62805A1.037,1.037,0,0,0,10,9.51971V30.46112a1.03493,1.03493,0,0,0,1.035,1.03864l.46973-.11152ZM17.99951,15h-2v4h-4v2h4v4h2V21h4V19h-4Z" opacity="0.7"/></svg>