<svg id="Layer_1" data-name="Layer 1" xmlns="http://www.w3.org/2000/svg" viewBox="0 0 16 16"><path d="M3.6492,6.107l-.53876.93759-2.333-1.347,1.347-2.333,2.333,1.3415-.53884.93218.90519.528L7.25372,4.76012V3.71483H6.17619v-2.694h2.694v2.694H7.79257V4.76012l2.42995,1.40623.90519-.52261-.53885-.93759,2.333-1.3415,1.347,2.333-2.33832,1.347L11.39168,6.107l-.90519.52269-.00727,2.91312.90511.52269.53885-.93751,2.33832,1.347-1.347,2.33291-2.33291-1.34158.53877-.93751-.90519-.52261-2.43,1.40089v.88331H8.86284v2.68874h-2.694V12.29043H7.24646v-.88331l-2.43-1.40089-.90511.528.53877.9321-2.333,1.34158L.7701,10.475l2.333-1.347.53885.93751.91052-.52269.00735-2.91312Z" fill="#575757"/></svg>