<svg id="Layer_1" data-name="Layer 1" xmlns="http://www.w3.org/2000/svg" viewBox="0 0 32 32"><path d="M7.77084,11.94286,6.61611,13.95237l-5.00025-2.887,2.887-5.00025L9.50311,8.94035l-1.1549,1.99792L10.28829,12.07,15.49635,9.056V6.81566H13.18689v-5.774h5.774v5.774H16.65125V9.056L21.85932,12.07l1.94007-1.12009-1.1549-2.00952,5.00026-2.87523,2.887,5.00025-5.01168,2.887-1.1549-2.00951-1.94008,1.12026-.01558,6.24365L24.34942,20.427l1.15489-2.00935,5.01169,2.887-2.887,5.00009-5.00008-2.8754L23.78365,21.42l-1.94008-1.1201-5.20806,3.00251v1.89318h2.30963v5.76272h-5.774V25.19561h2.30963V23.30243l-5.20823-3.00251-1.93991,1.1317,1.15474,1.99775-5.00026,2.8754-2.887-5.00009,5.00026-2.887L7.75527,20.427l1.95151-1.12026.01574-6.24365Z" fill="#575757"/></svg>