<svg id="Layer_1" data-name="Layer 1" xmlns="http://www.w3.org/2000/svg" viewBox="0 0 16 16"><path d="M7,11H9a1,1,0,0,1-2,0Zm4.5-1h-7s0-.497.33331-.497h.043c.62366,0,.957-3.27924.957-3.27924,0-.33581.16669-.33581.16669-.33581h.04468c.04968-.02448.122-.0954.122-.30878V5.2569c.07-.5614.63531-.88758,1.5-.953v-.175c0-.05439.05975-.1.14569-.12891h.37518c.08576.02887.14575.07452.14575.12891v.175c.86469.06543,1.43.39161,1.5.953v.32226c0,.21338.07233.2843.122.30878H10s.16669,0,.16669.32227v.01354s.33331,3.27924,1,3.27924C11.5,9.503,11.5,10,11.5,10Z" style="fill:#ff4b00"/><path d="M8,2.5A5.5,5.5,0,1,1,2.5,8,5.50623,5.50623,0,0,1,8,2.5m0-1A6.5,6.5,0,1,0,14.5,8,6.5,6.5,0,0,0,8,1.5Z" style="fill:#ff4b00;stroke:#ff4b00;stroke-miterlimit:10"/></svg>