<svg id="Layer_1" data-name="Layer 1" xmlns="http://www.w3.org/2000/svg" viewBox="0 0 16 16"><rect x="1" y="1" width="14" height="14" fill="#a12a26"/><path d="M7,11a1,1,0,1,0,2,0Z" fill="#fff"/><path d="M11.5,10h-7s0-.497.33334-.497h.043c.62367,0,.957-3.27925.957-3.27925C5.83333,5.888,6,5.888,6,5.888h.04467c.04966-.0245.122-.0954.122-.30876V5.25691c.07-.56141.63533-.88757,1.5-.953v-.175c0-.05439.05975-.1.14573-.12891h.37518c.08576.02887.14577.07452.14577.12891v.175c.86466.06542,1.43.39158,1.5.953V5.5792c0,.21336.07234.28426.122.30876H10s.16667,0,.16667.32229v.01353s.33333,3.27925,1,3.27925C11.5,9.503,11.5,10,11.5,10Z" fill="#fff"/></svg>