<svg id="Layer_1" data-name="Layer 1" xmlns="http://www.w3.org/2000/svg" viewBox="0 0 24 24"><circle cx="12" cy="12" r="12" fill="#e08600"/><path d="M18.345,16H5.655s0-.93181.6043-.93181H6.3372c1.13064,0,1.73492-6.14861,1.73492-6.14861,0-.62966.30214-.62966.30214-.62966h.081c.09-.04593.22117-.17886.22117-.57891v-.6043c.12691-1.05266,1.15178-1.66419,2.71929-1.78686V4.99171c0-.102.10832-.18757.26418-.24171H12.34c.15547.05414.26426.13973.26426.24171v.32814c1.56751.12267,2.59238.7342,2.71929,1.78686V7.711c0,.40005.13113.533.22117.57891h.081s.30214,0,.30214.60429v.02537s.60428,6.14861,1.81285,6.14861C18.345,15.06819,18.345,16,18.345,16ZM9.98528,17A2.00951,2.00951,0,0,0,14,17Z" fill="#fff"/></svg>