<svg id="Layer_1" data-name="Layer 1"
    xmlns="http://www.w3.org/2000/svg" viewBox="0 0 16 16">
    <path d="M12.57,7.28l-.06049.01251A4.55587,4.55587,0,0,0,11.13,4.68414V3.44a.48142.48142,0,0,0-.48-.48h-.48V2H5.85v.96H5.37a.48142.48142,0,0,0-.48.48V4.68079a4.5454,4.5454,0,0,0,0,6.63842V12.56a.48142.48142,0,0,0,.48.48h.48V14h4.32v-.96h.48a.48141.48141,0,0,0,.48-.48V11.31921a4.54657,4.54657,0,0,0,1.37854-2.61169L12.57,8.72a.48141.48141,0,0,0,.48-.48V7.76A.48142.48142,0,0,0,12.57,7.28ZM10.2691,9.9422a1.59012,1.59012,0,0,0-.18127-.26062L8.74664,8.33807a.78455.78455,0,0,0,0-.66644c.13251-.13293.89435-.89868.96552-.99872a1.21578,1.21578,0,0,0,.14075-.4859,1.00421,1.00421,0,0,0-.516.15674c-.07934.07977-.83966.84161-.955.95691a.78364.78364,0,1,0-.00043,1.40839c.16382.16693.95691.97412,1.23682,1.25439a1.47731,1.47731,0,0,0,.36029.27563,3.055,3.055,0,1,1,.29046-.29687Z"/>
</svg>