<svg id="Layer_1" data-name="Layer 1" xmlns="http://www.w3.org/2000/svg" viewBox="0 0 16 16"><path d="M1,1V15H15V1ZM11.78113,5.75488l-.02075-.09472a2.91736,2.91736,0,0,0-.61927-1.46894,2.62775,2.62775,0,0,0-1.59668-.3247H8.84692v7.40405c0,.68762.13672.89447.21875.95672a2.23488,2.23488,0,0,0,1.098.24408l.11218.008v.50568h-4.528v-.50519l.11121-.00849c.73523-.057.99634-.17907,1.08582-.27142.0736-.07544.196-.31811.196-1.10187V3.86652H6.436a2.72815,2.72815,0,0,0-1.58729.32562,2.51149,2.51149,0,0,0-.62023,1.46423l-.0188.09851h-.5835L3.7196,3.01495h8.54786l.08679,2.73993Z" opacity="0.7"/></svg>