<svg id="Layer_1" data-name="Layer 1" xmlns="http://www.w3.org/2000/svg" viewBox="0 0 16 16"><path d="M2,2V14H14V2Zm9.03344,4.19852-.01665-.076a2.34073,2.34073,0,0,0-.4969-1.17867,2.10849,2.10849,0,0,0-1.28117-.26055H8.679v5.941c0,.55175.1097.71773.17552.76768a1.79335,1.79335,0,0,0,.88105.19585l.09.00642V12H6.1924v-.40536l.08923-.00681c.59-.04574.79946-.14369.87126-.21779.05906-.06053.15731-.25526.15731-.88414V4.68329H6.74454a2.18907,2.18907,0,0,0-1.27363.26128,2.01525,2.01525,0,0,0-.49768,1.1749l-.01509.07905H4.49L4.56488,4h6.85879l.06964,2.19852Z" style="fill:#161617"/></svg>