<svg id="Layer_1" data-name="Layer 1"
    xmlns="http://www.w3.org/2000/svg" viewBox="0 0 16 16">
    <path d="M8,3a4.95136,4.95136,0,0,0-2.15228.50476L7.0957,6H3.42206A4.9972,4.9972,0,1,0,8,3Zm2.00305,7.61554C9.624,10.2359,8.54956,9.14246,8.3277,8.91632a1.06124,1.06124,0,1,1,.00055-1.90778c.15619-.15618,1.18609-1.18823,1.29358-1.2962A1.36014,1.36014,0,0,1,10.32074,5.5a1.64645,1.64645,0,0,1-.19061.65814C10.03375,6.2937,9.00177,7.331,8.82227,7.51105a1.06316,1.06316,0,0,1,0,.90277L10.639,10.23376a1.32921,1.32921,0,0,1,.38128.89167A1.34922,1.34922,0,0,1,10.00305,10.61554Z"/>
    <polygon points="5.477 5 1.522 5 3.5 1.045 5.477 5"/>
</svg>