<svg id="Layer_1" data-name="Layer 1" xmlns="http://www.w3.org/2000/svg" viewBox="0 0 40 40"><path d="M13.56384,32.26428a34.92473,34.92473,0,0,1-4.691-.76422c-.35443-.08374-.68737-.17181-1.00958-.26422-.30926-.08807-.60785-.17609-.88708-.27277-2.45734-.82269-3.88367-1.86663-3.88367-2.8612V25.34595c.03223.03222.0838.058.12244.0924a6.5469,6.5469,0,0,0,.90863.653c.03009.01715.05157.03436.0816.05151a10.73718,10.73718,0,0,0,1.25879.60791.09575.09575,0,0,0,.02576.01288c.09021.0365.18475.0752.275.11383.14392.05371.30286.09882.44891.15039.25348.09235.5091.1847.77332.2685.09234.03009.17608.06659.2749.09448.0473.01507.10529.028.159.043.50262.14825,1.0332.2771,1.5852.39953.1203.02582.232.04944.35657.07947.58643.12244,1.19861.22986,1.82367.32654.1203.01935.24487.03436.36517.05151.57782.0838,1.16425.15467,1.76782.217.03785.0033.07264.00879.10932.01313l-1.80341,1.8045ZM6.97833,9.485c.28351.09661.57782.18682.89142.2749.32007.09021.65515.17828,1.00745.26208a40.26416,40.26416,0,0,0,9.24725.98377,40.31,40.31,0,0,0,9.25366-.98377c.3523-.0838.68738-.17187,1.00959-.26422.31146-.08594.60571-.17615.89141-.27276,2.45734-.82056,3.88794-1.86878,3.88794-2.86121,0-2.07282-6.17773-4.37982-15.0426-4.37982C9.266,2.244,3.09467,4.551,3.09467,6.62378,3.09467,7.61621,4.52527,8.66443,6.97833,9.485ZM21.83167,28.60046l.02178.02179.02521-.0252ZM6.9762,16.62286c.27923.09662.57782.1847.88708.27277.32221.09241.65515.18048,1.00958.26422a40.24466,40.24466,0,0,0,9.24939.986,40.31052,40.31052,0,0,0,9.258-.986c.35229-.08374.68738-.17181,1.00958-.26422.30719-.08807.60578-.17615.88715-.27063,2.45733-.82483,3.88794-1.87091,3.88794-2.86334V11.00574c-.0387.03442-.09021.06018-.12677.0924a6.7405,6.7405,0,0,1-.9043.64869,1.03978,1.03978,0,0,1-.08807.05584,11.15018,11.15018,0,0,1-1.25232.60791.14337.14337,0,0,1-.03223.01288c-.09021.04083-.18469.07733-.27924.11383-.13958.05158-.29858.09882-.4403.15039-.25782.09235-.507.1847-.77545.2685-.09455.03009-.17615.06659-.27063.09234-.05372.01721-.116.03009-.17188.04944q-.75714.21259-1.5788.39307c-.1203.02575-.23626.05371-.36084.07947q-.87963.18686-1.81726.33081c-.12243.01715-.247.03222-.36731.04937-.58209.0838-1.17279.1568-1.77642.217-.09235.01075-.1847.02149-.27924.03223-.66376.06226-1.33606.10956-2.00842.14392-.15033.00641-.29853.01288-.44892.02149-.69165.02789-1.379.04724-2.06427.04724-.683,0-1.37469-.01935-2.06207-.04724-.15039-.00861-.30072-.01508-.45325-.02149-.668-.03436-1.34033-.08166-2.002-.14392-.09235-.01074-.18689-.02148-.28571-.03223-.60357-.06231-1.19-.13318-1.76782-.217-.1203-.01715-.24487-.03222-.36517-.04937-.62506-.09668-1.23724-.20624-1.82367-.33081-.12457-.02576-.23627-.05372-.35657-.07947-.552-.1203-1.08258-.25134-1.5852-.39527-.05371-.01715-.1117-.03-.159-.0451-.09882-.02789-.18256-.06439-.2749-.09448-.26422-.0838-.51984-.17615-.77332-.2685-.146-.05157-.305-.09881-.44891-.15252-.09021-.0365-.18475-.07306-.275-.1117a.09575.09575,0,0,1-.02576-.01288,11.08834,11.08834,0,0,1-1.25879-.60791c-.03-.01715-.05151-.03436-.0816-.05157A6.37678,6.37678,0,0,1,3.215,11.096c-.03864-.03223-.09021-.058-.12244-.09027v2.75592C3.09253,14.75409,4.51886,15.80017,6.9762,16.62286Zm0,7.17011c.27923.09662.57782.18469.88708.27276.32221.09241.65515.18049,1.00958.26423a38.69033,38.69033,0,0,0,7.78229.96264l.93433-.93487.95245.95257a42.31527,42.31527,0,0,0,7.27777-.65417l5.15857-5.15839c-.06268.02728-.121.056-.18481.083a.14432.14432,0,0,1-.03223.01288c-.09021.04083-.18469.07733-.27924.11383-.13958.05157-.29858.101-.4403.15039-.25782.09234-.507.18469-.77545.26849-.09455.03009-.17615.06445-.27063.09235-.05372.01721-.116.03009-.17188.04944-.50476.14172-1.03107.2749-1.5788.39306-.1203.028-.23626.05371-.36084.07947q-.87963.18685-1.81726.32867c-.12243.01935-.247.03437-.36731.05152-.58209.0838-1.17279.15686-1.77642.217-.09235.01074-.1847.02148-.27924.03223-.66376.06011-1.33606.10955-2.00842.14392-.15033.0064-.29853.01287-.44892.01934-.69165.03-1.379.04938-2.06427.04938-.683,0-1.37469-.01935-2.06207-.04938-.15039-.0086-.30072-.01294-.45325-.01934-.668-.03437-1.34033-.08381-2.002-.14392-.09235-.01075-.18689-.02149-.28571-.03223-.60357-.06232-1.19-.13318-1.76782-.217-.1203-.01715-.24487-.03217-.36517-.05152-.62506-.09454-1.23724-.2041-1.82367-.32867-.12457-.02576-.23627-.05151-.35657-.07947-.552-.11816-1.08258-.25134-1.5852-.3974-.05371-.015-.1117-.02789-.159-.043-.09882-.03-.18256-.06439-.2749-.09448-.26422-.0838-.51984-.17615-.77332-.26849-.146-.04944-.305-.09882-.44891-.15253-.09021-.0365-.18475-.07306-.275-.11169a.096.096,0,0,1-.02576-.01288,11.08834,11.08834,0,0,1-1.25879-.60791c-.03-.01715-.05151-.03436-.0816-.05152a6.38167,6.38167,0,0,1-.90863-.65515c-.03864-.03222-.09021-.058-.12244-.09027v2.75592C3.09253,21.92419,4.51886,22.97028,6.9762,23.793Zm27.28031-4.70865L21.85372,31.4871l-4.26387-4.26387L14.48952,30.325l7.23557,7.23556L37.2282,22.056Z" opacity="0.7"/></svg>