<svg id="Layer_1" data-name="Layer 1" xmlns="http://www.w3.org/2000/svg" viewBox="0 0 16 16"><path d="M1.94465,2.81488a4.12483,4.12483,0,0,0-.52589,1.01556l-1.14884-.098L.09607,5.77125l1.14884.099a4.05451,4.05451,0,0,0,.34673,1.08944l-.88179.74272L2.02868,9.26848l.88276-.74271a4.03367,4.03367,0,0,0,1.01507.52541L3.829,10.2005l2.03837.17337.09851-1.14836a4.05285,4.05285,0,0,0,1.08944-.34577l.7432.88131,1.5656-1.31931L8.62136,7.56a4.05237,4.05237,0,0,0,.52589-1.01556l1.14836.09851.17433-2.04029-1.1474-.09755a4.11606,4.11606,0,0,0-.34721-1.08992l.8818-.74272L8.53733,1.10635,7.656,1.84954a4.08793,4.08793,0,0,0-.48629-.297A3.98519,3.98519,0,0,0,6.64,1.32317L6.73849.17481,4.69868,0l-.098,1.14884a4.12315,4.12315,0,0,0-1.08944.34673L2.76753.61378,1.20242,1.93357ZM7.09392,6.99639a2.56012,2.56012,0,1,1,.73981-1.59167,2.5517,2.5517,0,0,1-.73981,1.59167M4.55961,4.464A1.02272,1.02272,0,0,0,4.8112,6.09577a1.02415,1.02415,0,0,0,1.49219-.82095A1.02285,1.02285,0,0,0,4.55961,4.464m10.52916,8.02281a3.152,3.152,0,0,0-.01108-.87166l.80838-.34673-.61474-1.43472-.8084.34576a3.1124,3.1124,0,0,0-.62343-.6099l.32692-.81563L12.7177,8.17252l-.32742.8161a3.15638,3.15638,0,0,0-.87213.01064l-.34575-.8084-1.4357.61476.34576.80743a3.2456,3.2456,0,0,0-.30084.26512,3.16249,3.16249,0,0,0-.30909.35928L8.65643,9.91l-.58,1.44922.81613.32739a3.0824,3.0824,0,0,0,.01061.87216l-.80838.34575.61329,1.4352.80935-.34576a3.13446,3.13446,0,0,0,.28686.32356,3.00087,3.00087,0,0,0,.33707.28587l-.32693.8166L11.2627,16l.32693-.81563a3.06464,3.06464,0,0,0,.87212-.01063l.34576.8084,1.43619-.61426L13.89745,14.56a3.15012,3.15012,0,0,0,.30278-.26608,3.02431,3.02431,0,0,0,.30664-.35784l.81613.32742.58093-1.45019Zm-1.28646.32547a1.95045,1.95045,0,1,1-.44573-2.12045A1.94463,1.94463,0,0,1,13.80231,12.8123ZM11.4375,11.535a.78007.78007,0,0,0,.00628,1.10925.76446.76446,0,0,0,.25643.1666A.78066.78066,0,1,0,11.4375,11.535" opacity="0.7"/></svg>