<svg id="Layer_1" data-name="Layer 1" xmlns="http://www.w3.org/2000/svg" viewBox="0 0 40 40"><path d="M4.706,7.68534a9.79686,9.79686,0,0,0-1.249,2.41195L.7285,9.86447.31561,14.70673l2.7285.23511a9.62953,9.62953,0,0,0,.82348,2.58743l-2.09426,1.764,3.13222,3.71943,2.09655-1.764a9.57872,9.57872,0,0,0,2.4108,1.24784l-.23167,2.72965,4.84111.41174.234-2.72735a9.62533,9.62533,0,0,0,2.58743-.82119l1.76509,2.09311,3.71829-3.13336-1.764-2.09426a9.62426,9.62426,0,0,0,1.249-2.412l2.72735.234.414-4.8457-2.72506-.23167A9.776,9.776,0,0,0,21.40385,9.111l2.09426-1.764-3.1345-3.71943-2.09312,1.7651a9.707,9.707,0,0,0-1.15493-.70535,9.46342,9.46342,0,0,0-1.25816-.54479l.234-2.72735L11.24682,1,11.014,3.7285A9.7931,9.7931,0,0,0,8.42656,4.552L6.66032,2.45772,2.94318,5.59223Zm12.22951,9.9311a6.08026,6.08026,0,1,1,1.75707-3.78022,6.06032,6.06032,0,0,1-1.75707,3.78022m-6.019-6.0144a2.429,2.429,0,0,0,.59755,3.87541,2.43235,2.43235,0,0,0,3.544-1.94975A2.42929,2.42929,0,0,0,10.9165,11.602M35.92328,30.65621a7.48686,7.48686,0,0,0-.02633-2.07018l1.9199-.82348-1.46-3.40746-1.91995.82117a7.39134,7.39134,0,0,0-1.48065-1.44852l.77644-1.93711L30.292,20.40974,29.51435,22.348a7.49633,7.49633,0,0,0-2.0713.02526l-.82117-1.91995-3.40977,1.46005.82117,1.91765a7.71322,7.71322,0,0,0-.71449.62965,7.51265,7.51265,0,0,0-.73409.8533l-1.93823-.77762L19.269,27.97821l1.9383.77757a7.321,7.321,0,0,0,.0252,2.07136l-1.91989.82118,1.45656,3.40858,1.9222-.82117a7.44458,7.44458,0,0,0,.68131.76846,7.125,7.125,0,0,0,.80052.67893l-.77644,1.93942L26.83636,39l.77644-1.93711a7.27888,7.27888,0,0,0,2.0713-.02527l.82118,1.92,3.411-1.45887-.82236-1.91877a7.48093,7.48093,0,0,0,.71911-.632,7.18214,7.18214,0,0,0,.72829-.84987l1.93829.77763,1.37971-3.44421Zm-3.05536.773a4.63231,4.63231,0,1,1-1.05861-5.03608A4.618,4.618,0,0,1,32.86792,31.42922Zm-5.61641-3.03354a1.85261,1.85261,0,0,0,.01491,2.63446,1.81577,1.81577,0,0,0,.609.39568,1.85406,1.85406,0,1,0-.62392-3.03014" opacity="0.7"/></svg>