<svg id="Layer_1" data-name="Layer 1" xmlns="http://www.w3.org/2000/svg" viewBox="0 0 16 16"><g opacity="0.25"><path d="M9.92745,11.19061A2.78236,2.78236,0,0,1,14.293,10.128a2.79749,2.79749,0,1,0-3.95164,3.926A2.808,2.808,0,0,1,9.92745,11.19061Z"/></g><path d="M16,5.10953,14.84779,4.478l-1.835,2.13371a5.19755,5.19755,0,0,0-.69986-.09388L10.87909,4l-2.091.62731.1963,2.86344a5.15193,5.15193,0,0,0-.51636.46942L5.75818,7.22191,4.72546,9.17212l2.13371,1.86913a5.29932,5.29932,0,0,0-.08534.70413L4.26031,13.14509l.64438,2.09958,2.85064-.19631a4.934,4.934,0,0,0,.44382.5249L8.07112,16H16ZM14.69417,12.9872a2.78251,2.78251,0,1,1,.01206-.02857Z" fill="#f7901e"/><g opacity="0.25"><path d="M8.16927,15.52205a4.31611,4.31611,0,0,1-.42674-.47795l-2.62873.1835.14936.49928S8.17781,15.53485,8.16927,15.52205Z"/></g></svg>