<svg id="Layer_1" data-name="Layer 1" xmlns="http://www.w3.org/2000/svg" viewBox="0 0 16 16"><path d="M13.0124,1.58557l-1.61028.297c-.55235.0417-.9328.08341-1.1871.08341a9.20379,9.20379,0,0,0-2.98862.59406A4.31894,4.31894,0,0,0,5.46863,4.1083a5.13051,5.13051,0,0,0-.84837,2.479l1.56856-.76394a3.1029,3.1029,0,0,1,.88906-2.37319A3.67061,3.67061,0,0,1,9.64333,2.6028a14.4416,14.4416,0,0,1,1.50347.10579L7.71467,8.62174a16.695,16.695,0,0,1-2.48,3.45451,3.11263,3.11263,0,0,1-2.183.97349A2.21987,2.21987,0,0,1,1.0803,11.885L0,12.96633a3.64714,3.64714,0,0,0,2.54307.9745,4.33676,4.33676,0,0,0,2.67023-.86871,10.62869,10.62869,0,0,0,2.3732-3.05169h4.34458l.3184,3.9204,3.64473-.61542L16,12.8168c-.529.04374-.84735.04374-.93178.04374a1.02076,1.02076,0,0,1-1.03859-.61441,7.504,7.504,0,0,1-.44555-2.52273l-.46589-5.489ZM7.92625,9.42637l3.43213-5.95486L11.867,9.42637Z" opacity="0.7"/></svg>