<svg id="Layer_1" data-name="Layer 1" xmlns="http://www.w3.org/2000/svg" viewBox="0 0 16 16"><path d="M10.59653,9.84366H7.86524a7.46546,7.46546,0,0,1-1.67539,2.11643,3.32283,3.32283,0,0,1-2.04153.66664,2.83539,2.83539,0,0,1-1.96479-.75263L2,11.70582l1.153-1.15206.15719.25149a1.34664,1.34664,0,0,0,1.19921.71565,1.976,1.976,0,0,0,1.38552-.625A11.54637,11.54637,0,0,0,7.61744,8.49282L9.86886,4.61317c-.2538-.02312-.4771-.037-.67866-.037a2.3648,2.3648,0,0,0-1.66059.53905A1.96722,1.96722,0,0,0,6.97392,6.626V6.7l-.06657.10633-1.564.76188.04438-.42347a3.8453,3.8453,0,0,1,.64491-1.87325,3.3118,3.3118,0,0,1,1.34068-1.177,6.74089,6.74089,0,0,1,2.208-.44381c.12713,0,.27645-.01294.47108-.02866l.36846-.03051,1.38737-.257.08645,2.15433.32962,3.88612a4.86162,4.86162,0,0,0,.29033,1.70127.49753.49753,0,0,0,.52795.31067c.05779,0,.27784,0,.64168-.03143L14,11.32951l-.172.83122-3.00265.50483Zm-.08507-.89594-.27553-3.2204L8.38071,8.94772Z" style="fill:#161617"/></svg>