<svg id="Layer_1" data-name="Layer 1" xmlns="http://www.w3.org/2000/svg" viewBox="0 0 16 16"><path d="M7.99948,1.001A6.99949,6.99949,0,1,0,14.999,8.00052,6.99919,6.99919,0,0,0,7.99948,1.001M8.459,6.6126c.21867-.21867,1.66041-1.66337,1.81088-1.81459a1.90441,1.90441,0,0,1,.97845-.29724,2.30488,2.30488,0,0,1-.26685.92138c-.13491.18976-1.57961,1.64187-1.83089,1.8939a1.488,1.488,0,0,1,0,1.26383l2.54323,2.54768a1.86067,1.86067,0,0,1,.5337,1.24827,1.88853,1.88853,0,0,1-1.42394-.71382c-.53074-.53148-2.03474-2.06217-2.34532-2.37868A1.48565,1.48565,0,1,1,8.459,6.6126" opacity="0.7"/></svg>