<svg id="Layer_1" data-name="Layer 1"
    xmlns="http://www.w3.org/2000/svg" viewBox="0 0 16 16">
    <path class="cls-1" d="M8,2a6,6,0,1,0,6,6A5.99974,5.99974,0,0,0,8,2m.39389,4.81027c.18745-.18744,1.42331-1.42585,1.5523-1.55547A1.63242,1.63242,0,0,1,10.78492,5a1.97576,1.97576,0,0,1-.22874.78981c-.11565.16266-1.354,1.40742-1.56945,1.62346a1.27566,1.27566,0,0,1,0,1.08337l2.18007,2.18388a1.595,1.595,0,0,1,.45749,1.07,1.61886,1.61886,0,0,1-1.22061-.6119c-.455-.45558-1.74419-1.7677-2.01042-2.039a1.27352,1.27352,0,1,1,.00063-2.28937"/>
</svg>