<svg id="Layer_1" data-name="Layer 1" xmlns="http://www.w3.org/2000/svg" viewBox="0 0 16 16"><path d="M10.36118,12.769c-2.11066,0-2.76966-1.68251-3.35113-3.16714l-.2268-.56817c-.11282-.29623-.20482-.55543-.28929-.7938C6.06755,7.04106,5.946,6.8455,5.62436,6.8455c-.32111,0-.41079.08679-.8158,1.17336-.118.3159-.2511.67231-.42294,1.068L4.25429,9.404c-.648,1.57142-1.38281,3.35113-3.66183,3.35113H0v-2.658H.59246c.4241,0,.64049-.4212,1.1994-1.72185l.177-.40963c.08158-.19672.162-.405.24243-.60982.57915-1.4881,1.23526-3.17524,3.413-3.17524,2.12049,0,2.75056,1.69871,3.30657,3.19722l.22333.59015c.10993.27309.20713.52882.29566.76257.45881,1.20691.56932,1.37354.91126,1.37354.34483,0,.545-.42236.98994-1.54249.107-.26846.22276-.5589.35467-.869l.129-.30433c.63527-1.50315,1.355-3.20648,3.55767-3.21574l.59131-.00231L16,6.8455h-.59594c-.48889,0-.67462.32632-1.32552,1.84914,0,0-.23837.57858-.31764.77876C13.18348,10.94184,12.46431,12.769,10.36118,12.769Z" opacity="0.7"/></svg>