<svg id="Layer_1" data-name="Layer 1"
    xmlns="http://www.w3.org/2000/svg" viewBox="0 0 16 16">
    <path d="M5.68412,13v-.72885l.221-.0181c.7641-.05812.947-.1896.98514-.22866.02573-.02668.1572-.202.1572-.99276V4.07755H6.47918A2.45938,2.45938,0,0,0,5.002,4.36909a2.26179,2.26179,0,0,0-.56259,1.35957l-.03811.19626H3.6038L3.70384,3h8.59994l.09242,2.92492h-.78411l-.02144-.09527a2.81746,2.81746,0,0,0-.58832-1.46532c-.14719-.13148-.52305-.28678-1.481-.28678H8.9606v7.12272c0,.67835.13815.8184.16578.83936a2.09154,2.09154,0,0,0,1.00943.21342l.223.0181V13Z"/>
</svg>