<svg id="Layer_1" data-name="Layer 1" xmlns="http://www.w3.org/2000/svg" viewBox="0 0 40 40"><path d="M32.27548,13.16418l-.06244-.285c-.49917-2.276-1.1258-3.76345-1.86336-4.42-.72874-.64811-2.3427-.977-4.80441-.977H23.44646V29.76088c0,2.06905.41139,2.69146.65822,2.87879.32324.25087,1.15409.57979,3.304.73443l.33756.02406v1.52158H14.12158V33.39963l.33462-.02553c2.2123-.17153,2.998-.53884,3.26722-.81671.22148-.227.58989-.95721.58989-3.31552V7.48209H16.1921c-2.35114,0-3.95923.3304-4.77612.9798-.811.64665-1.441,2.12856-1.8663,4.40588l-.05657.29641H7.73737l.281-8.24444H33.73884L34,13.16418Z" opacity="0.7"/></svg>