<svg id="Layer_1" data-name="Layer 1" xmlns="http://www.w3.org/2000/svg" viewBox="0 0 40 40"><path d="M20.33332,18.12525c.35555-.35555,2.69978-2.7046,2.94445-2.95048a3.09651,3.09651,0,0,1,1.59094-.48331,3.74768,3.74768,0,0,1-.43389,1.49814c-.21936.30855-2.56841,2.66965-2.977,3.07944a2.41958,2.41958,0,0,1,0,2.055l4.13524,4.14247a3.02547,3.02547,0,0,1,.86779,2.02966,3.0707,3.0707,0,0,1-2.3153-1.16067c-.863-.86417-3.30844-3.353-3.81344-3.86767a2.41565,2.41565,0,1,1,.0012-4.34255M37.87823,25.193l.62177-7.277L34.40762,17.568a14.67938,14.67938,0,0,0-1.2384-3.88739l3.14508-2.649L31.607,5.446,28.46372,8.09672a14.57,14.57,0,0,0-1.73444-1.05925,14.21471,14.21471,0,0,0-1.8894-.81819l.35133-4.09576L17.91593,1.5l-.34964,4.09752a14.70771,14.70771,0,0,0-3.88569,1.2367L11.02817,3.68914,5.44593,8.3964l2.64729,3.14333a14.71111,14.71111,0,0,0-1.87563,3.62214L2.12,14.81223,1.5,22.08407l4.09752.35309a14.4612,14.4612,0,0,0,1.23664,3.88569l-3.145,2.649L8.3929,34.55751l3.14852-2.649a14.38592,14.38592,0,0,0,3.6204,1.87394l-.34789,4.09927L22.08407,38.5l.35134-4.09577A14.45484,14.45484,0,0,0,26.3211,33.171l2.65073,3.14333,5.58393-4.7055-2.649-3.145a14.45309,14.45309,0,0,0,1.87569-3.62214ZM20,30.6375A10.6375,10.6375,0,1,1,30.6375,20,10.6375,10.6375,0,0,1,20,30.6375Z" opacity="0.7"/></svg>