<svg id="Layer_1" data-name="Layer 1"
    xmlns="http://www.w3.org/2000/svg" viewBox="0 0 16 16">
    <path d="M8.1081,7.392c.11532-.11531.87561-.87717.955-.95691a1.00423,1.00423,0,0,1,.516-.15675,1.2154,1.2154,0,0,1-.14072.48588c-.07114.10007-.833.86584-.96551.99874a.78474.78474,0,0,1,0,.66648L9.814,9.77291a.98122.98122,0,0,1,.28144.65827.99591.99591,0,0,1-.75091-.37643c-.27988-.28027-1.073-1.08747-1.23679-1.25438A.78346.78346,0,1,1,8.1081,7.392M13.79835,9.6842,14,7.32408l-1.32726-.11283a4.76081,4.76081,0,0,0-.40164-1.26077l1.02-.85915L11.76445,3.27978l-1.01946.8597a4.7256,4.7256,0,0,0-.56252-.34354,4.60972,4.60972,0,0,0-.61278-.26536l.114-1.32836L7.32408,2,7.21069,3.32892A4.77034,4.77034,0,0,0,5.95046,3.73L5.09022,2.71,3.27976,4.23667l.85858,1.01946A4.77113,4.77113,0,0,0,3.53,6.43088l-1.32894-.1134L2,8.67592l1.32892.11451A4.68992,4.68992,0,0,0,3.73,10.05065l-1.02.85913,1.52554,1.81158,1.02115-.85915A4.66565,4.66565,0,0,0,6.43086,12.47L6.318,13.79946,8.67592,14l.11394-1.32836a4.68794,4.68794,0,0,0,1.26023-.4l.85969,1.01946,1.811-1.52612-.85915-1.02A4.68741,4.68741,0,0,0,12.47,9.57026ZM8,11.45A3.45,3.45,0,1,1,11.45,8,3.45,3.45,0,0,1,8,11.45Z"/>
</svg>