<svg id="Layer_1" data-name="Layer 1" xmlns="http://www.w3.org/2000/svg" viewBox="0 0 40 40"><path d="M20,4A16,16,0,1,0,36,20,15.99932,15.99932,0,0,0,20,4m1.05038,12.82738c.49985-.49985,3.79549-3.80226,4.13946-4.14792A4.35311,4.35311,0,0,1,27.42646,12a5.26847,5.26847,0,0,1-.61,2.10615c-.30838.43378-3.61079,3.75313-4.1852,4.32923a3.40156,3.40156,0,0,1,0,2.889l5.81354,5.8237s1.4233,1.49448,1.22,2.8534a4.317,4.317,0,0,1-3.255-1.63172c-1.2132-1.2149-4.65116-4.71386-5.36112-5.43738a3.396,3.396,0,1,1,.00169-6.105" opacity="0.7"/></svg>