<svg id="Layer_1" data-name="Layer 1" xmlns="http://www.w3.org/2000/svg" viewBox="0 0 16 16"><path id="Path_6037" data-name="Path 6037" d="M8.1785,3.3425a7.636,7.636,0,0,0-6.866,4.533,8.242,8.242,0,0,0,7.136,4.532,7.634,7.634,0,0,0,6.864-4.532,8.24,8.24,0,0,0-7.134-4.533m-1.113,7.268a4.743,4.743,0,0,1-3.913-2.735s.617-2.4,4.02-2.82a2.587,2.587,0,0,0-1.312,1.136l2.588,1.133H5.5055a3.2217,3.2217,0,0,0-.049.535,3.109,3.109,0,0,0,1.61,2.75m2.646.018a3.15631,3.15631,0,0,0,.1-5.485,4.648,4.648,0,0,1,3.66,2.733s-.56,2.267-3.76,2.752" opacity="0.7"/></svg>