<svg id="Layer_1" data-name="Layer 1" xmlns="http://www.w3.org/2000/svg" viewBox="0 0 40 40"><title>SkylineIcons</title><path class="cls-1" d="M27,31H33a16.93,16.93,0,0,1-8.62,5.42A17.47,17.47,0,0,0,27,31ZM40,20A20,20,0,1,1,20,0,20,20,0,0,1,40,20Zm-1,0A19,19,0,1,0,20,39,19,19,0,0,0,39,20ZM33,9a16.93,16.93,0,0,0-8.62-5.42A17.47,17.47,0,0,1,27,9Zm1.87,12H37a16.87,16.87,0,0,1-2.55,8H27.61a34.16,34.16,0,0,0,.65-3.76l-2.17,1.09c-.16.93-.34,1.84-.56,2.67H20.75l-4,2h8.18c-1.3,3.72-3.18,6-4.93,6s-3.37-2-4.66-5.29l-1.77.88a15.65,15.65,0,0,0,2.1,3.83A16.93,16.93,0,0,1,7.05,31h1A3.19,3.19,0,0,1,8,30.46V29H5.6a16.87,16.87,0,0,1-2.55-8H8V19H3.05A16.87,16.87,0,0,1,5.6,11H8V9.52A3,3,0,0,1,8.05,9h-1a16.93,16.93,0,0,1,8.62-5.42,16.1,16.1,0,0,0-2.1,3.82l1.77.89C16.63,5,18.36,3,20,3s3.63,2.28,4.93,6H16.77l4,2h4.77c.22.83.4,1.74.56,2.67l2.17,1.09A34.16,34.16,0,0,0,27.61,11H34.4A16.87,16.87,0,0,1,37,19H34.82a2.87,2.87,0,0,1,0,2ZM33,20a1,1,0,0,0-.56-.92L11.56,8.63A1,1,0,0,0,10,9.52V30.46a1,1,0,0,0,1,1l.46-.11L32.4,20.94A1,1,0,0,0,33,20ZM18,16H16v3H13v2h3v3h2V21h3V19H18Z"/></svg>