<svg id="Layer_1" data-name="Layer 1"
    xmlns="http://www.w3.org/2000/svg" viewBox="0 0 16 16">
    <path d="M8,2a6,6,0,1,0,6,6A6,6,0,0,0,8,2Zm4.089,2.52631H10.221A5.59839,5.59839,0,0,0,9.36719,2.814,5.36328,5.36328,0,0,1,12.089,4.52631ZM9.36719,13.186a5.59853,5.59853,0,0,0,.85382-1.71228h1.868A5.3627,5.3627,0,0,1,9.36719,13.186Zm3.18127-2.34387H10.402a10.64353,10.64353,0,0,0,.20776-1.1867l-.6867.3435c-.05.29419-.10639.57959-.17572.8432H8.23712l-1.26275.63159H9.55743C9.14484,12.6474,8.55414,13.36841,8,13.36841c-.51727,0-1.06451-.63373-1.47089-1.67206l-.56005.28015A5.01751,5.01751,0,0,0,6.63281,13.186,5.3627,5.3627,0,0,1,3.911,11.47369h.31671a.95452.95452,0,0,1-.01721-.17022V10.8421h-.759a5.33045,5.33045,0,0,1-.804-2.5263h1.563V7.6842h-1.563a5.33,5.33,0,0,1,.804-2.5263h.759V4.69043a.95019.95019,0,0,1,.0166-.16412H3.911A5.36328,5.36328,0,0,1,6.63281,2.814,5.01722,5.01722,0,0,0,5.97,4.02106L6.53,4.30145c.40631-1.037.95312-1.66986,1.47-1.66986.55414,0,1.14484.72095,1.55743,1.89472H6.97906l1.26142.63159h1.5069c.06927.2633.12561.5484.17553.84234l.68689.34394A10.66013,10.66013,0,0,0,10.402,5.1579h2.14642a5.33,5.33,0,0,1,.804,2.5263h-.67133a.91975.91975,0,0,1-.00049.6316h.67182A5.33045,5.33045,0,0,1,12.54846,10.8421Zm-.44317-2.84179a.32646.32646,0,0,1-.19025.29614l-6.59778,3.2998-.14831.03522a.32681.32681,0,0,1-.32685-.32794V4.69043a.32744.32744,0,0,1,.4917-.28156l6.59522,3.302A.326.326,0,0,1,12.10529,8.00031Z"/>
</svg>