<svg id="Layer_1" data-name="Layer 1"
    xmlns="http://www.w3.org/2000/svg" viewBox="0 0 16 16">
    <path d="M8,2a6,6,0,1,0,6,6A6,6,0,0,0,8,2Zm4.08905,2.52631h-1.868A5.59977,5.59977,0,0,0,9.36719,2.814,5.3637,5.3637,0,0,1,12.08905,4.52631ZM9.36719,13.186a5.5999,5.5999,0,0,0,.85388-1.71228h1.868A5.36312,5.36312,0,0,1,9.36719,13.186Zm3.18127-2.34387H10.402a10.65713,10.65713,0,0,0,.20782-1.1867l-.68676.3435c-.05.29419-.10639.57959-.17566.8432H8.23712l-1.26275.63159H9.55743C9.14484,12.6474,8.55414,13.36841,8,13.36841c-.51727,0-1.06445-.63373-1.47089-1.67206l-.56005.28015A5.01956,5.01956,0,0,0,6.63281,13.186,5.363,5.363,0,0,1,3.911,11.47369h.31671a.96008.96008,0,0,1-.01715-.17022V10.8421h-.759a5.32985,5.32985,0,0,1-.80408-2.5263h1.563V7.6842h-1.563A5.32943,5.32943,0,0,1,3.4516,5.1579h.759V4.69043a.95019.95019,0,0,1,.0166-.16412H3.911A5.36353,5.36353,0,0,1,6.63281,2.814,5.01929,5.01929,0,0,0,5.97,4.02106L6.53,4.30145c.40631-1.037.95312-1.66986,1.47-1.66986.55414,0,1.14484.72095,1.55743,1.89472H6.97913l1.26141.63159h1.5069c.06921.2633.12555.5484.17553.84234l.68683.34394A10.64628,10.64628,0,0,0,10.402,5.1579h2.14642a5.33,5.33,0,0,1,.804,2.5263h-.67127a.91929.91929,0,0,1-.00055.6316h.67182A5.33045,5.33045,0,0,1,12.54846,10.8421ZM11.929,7.71088,5.3338,4.40881a.32738.32738,0,0,0-.49164.28156v6.6131a.32677.32677,0,0,0,.32685.32794l.14831-.03516L11.915,8.29639a.32563.32563,0,0,0,.014-.58551ZM5.84229,10.21576V5.78021l4.43164,2.21973Z"/>
</svg>