<svg id="Layer_1" data-name="Layer 1" xmlns="http://www.w3.org/2000/svg" viewBox="0 0 16 16"><path d="M11.46352,4.72884A2.057,2.057,0,0,1,12.79567,4.157a2.057,2.057,0,0,1-.57185,1.33215L9.40663,8.3064l.00966.03011.07644.21434.03339.10872a1.57682,1.57682,0,0,1,.03878.34357,1.61539,1.61539,0,1,1-3.23077,0,1.56615,1.56615,0,0,1,.03879-.34245l.03983-.12923.06356-.18523.014-.03983.0161-.01617a1.62011,1.62011,0,0,1,.72908-.72908l.01729-.01722.03871-.013.1874-.06461L7.606,7.42654a1.54078,1.54078,0,0,1,.687,0l.12712.03983.18739.06461.03872.013ZM15,9.00314a6.97536,6.97536,0,0,1-2.09863,4.99372l-1.52678-1.52672a4.76581,4.76581,0,0,0,.96768-5.57694l.64165-.64179a3.00561,3.00561,0,0,0,.7467-1.2609A6.96231,6.96231,0,0,1,15,9.00314Zm-7-7A6.99723,6.99723,0,0,0,3.09863,13.99686l1.52678-1.52672a4.82935,4.82935,0,0,1,5.41827-7.84529l.65809-.65769a2.99912,2.99912,0,0,1,1.24835-.74137A6.965,6.965,0,0,0,8,2.00314Z" opacity="0.7"/></svg>