<svg id="Layer_1" data-name="Layer 1"
    xmlns="http://www.w3.org/2000/svg" viewBox="0 0 16 16">
    <path d="M10.96873,5.19615A1.76316,1.76316,0,0,1,12.11058,4.706a1.76313,1.76313,0,0,1-.49016,1.14184L9.20568,8.26263l.00828.0258.06552.18373.02863.09319a1.35151,1.35151,0,0,1,.03324.29449,1.38462,1.38462,0,0,1-2.76923,0,1.34252,1.34252,0,0,1,.03324-.29354l.03414-.11076L6.694,8.29677l.012-.03414.0138-.01386a1.38856,1.38856,0,0,1,.62493-.62492l.01482-.01477.03318-.0111.16063-.05538.109-.03414a1.32061,1.32061,0,0,1,.58886,0l.109.03414.16062.05538.03319.0111ZM14,8.85984a5.97881,5.97881,0,0,1-1.79883,4.28032L10.8925,11.83155a4.08492,4.08492,0,0,0,.82944-4.78023l.55-.55011a2.57632,2.57632,0,0,0,.64-1.08077A5.96769,5.96769,0,0,1,14,8.85984Zm-6-6A5.99761,5.99761,0,0,0,3.79883,13.14016L5.1075,11.83155A4.13944,4.13944,0,0,1,9.75173,5.107l.56408-.56374a2.57061,2.57061,0,0,1,1.07-.63546A5.97,5.97,0,0,0,8,2.85984Z"/>
</svg>