<svg xmlns="http://www.w3.org/2000/svg" xmlns:xlink="http://www.w3.org/1999/xlink" width="796" height="36" viewBox="0 0 796 36">
  <defs>
    <filter id="Fill_1" x="0" y="0" width="796" height="36" filterUnits="userSpaceOnUse">
      <feOffset dy="3" input="SourceAlpha"/>
      <feGaussianBlur stdDeviation="2" result="blur"/>
      <feFlood flood-opacity="0.2"/>
      <feComposite operator="in" in2="blur"/>
      <feComposite in="SourceGraphic"/>
    </filter>
  </defs>
  <g id="Banners_24" transform="translate(6 3)">
    <g id="Background" transform="translate(-0.5 6)">
      <g transform="matrix(1, 0, 0, 1, -5.5, -9)" filter="url(#Fill_1)">
        <path id="Fill_1-2" data-name="Fill 1" d="M0,0H784a0,0,0,0,1,0,0V20a4,4,0,0,1-4,4H4a4,4,0,0,1-4-4V0A0,0,0,0,1,0,0Z" transform="translate(6 3)" fill="#c4000c"/>
      </g>
      <path id="Error" d="M6.118,10.873H9.373V13H6.118ZM6.062,1l.371,8.542H9.06L9.431,1Z" transform="translate(16.438 -1.041)" fill="#fff" opacity="0.6"/>
      <g id="Button_Icon_Ghost_16" transform="translate(752.5 -2)">
        <g id="Background-2" data-name="Background" transform="translate(-327.853 -328)">
          <rect id="Background-3" data-name="Background" width="16" height="16" transform="translate(327.853 328)" fill="none" opacity="0"/>
          <rect id="Rollover" width="16" height="16" transform="translate(327.853 328)" fill="#fff" opacity="0"/>
        </g>
        <g id="Icon" transform="translate(-8 -7)">
          <rect id="IconAlignment" width="16" height="16" transform="translate(8 7)" fill="#649fff" opacity="0"/>
          <path id="Close_Icon" data-name="Close Icon" d="M-1926.5-1873v-4.5h-4.5v-2h4.5v-4.5h2v4.5h4.5v2h-4.5v4.5Z" transform="translate(49.234 2704.834) rotate(45)" fill="#fff"/>
        </g>
      </g>
    </g>
    <g id="Warning_badge" data-name="Warning badge" transform="translate(64 4)">
      <text id="Error_message." data-name="Error message." fill="#fff" font-size="12" font-family="SourceSansPro-Regular, Source Sans Pro"><tspan x="0" y="12">Error message.</tspan></text>
    </g>
  </g>
</svg>
