<svg xmlns="http://www.w3.org/2000/svg" xmlns:xlink="http://www.w3.org/1999/xlink" width="796" height="36" viewBox="0 0 796 36">
  <defs>
    <filter id="Fill_1" x="0" y="0" width="796" height="36" filterUnits="userSpaceOnUse">
      <feOffset dy="3" input="SourceAlpha"/>
      <feGaussianBlur stdDeviation="2" result="blur"/>
      <feFlood flood-opacity="0.161"/>
      <feComposite operator="in" in2="blur"/>
      <feComposite in="SourceGraphic"/>
    </filter>
  </defs>
  <g id="Banner_AlertSecondary_Error_24_40" transform="translate(6 3)">
    <g id="Background" transform="translate(-0.5)">
      <g transform="matrix(1, 0, 0, 1, -5.5, -3)" filter="url(#Fill_1)">
        <g id="Fill_1-2" data-name="Fill 1" transform="translate(6 3)" fill="#fff" stroke="#fff" stroke-width="1">
          <rect width="784" height="24" stroke="none"/>
          <rect x="0.5" y="0.5" width="783" height="23" fill="none"/>
        </g>
      </g>
      <rect id="Fill_2" data-name="Fill 2" width="735" height="22" transform="translate(48.02 1)" fill="none" opacity="0"/>
      <g id="Button_Icon_Ghost_16" transform="translate(748.5)">
        <g id="Background-2" data-name="Background" transform="translate(-323.853 -324)">
          <rect id="Background-3" data-name="Background" width="24" height="24" transform="translate(323.853 324)" fill="#161617" opacity="0"/>
          <rect id="Rollover" width="16" height="16" transform="translate(327.853 328)" fill="#00b888" opacity="0"/>
        </g>
        <g id="Icon" transform="translate(-4 -3)">
          <rect id="IconAlignment" width="16" height="16" transform="translate(8 7)" fill="#649fff" opacity="0"/>
          <rect id="Icon-2" data-name="Icon" width="12" height="12" transform="translate(10 9)" fill="#161617" opacity="0"/>
          <path id="Close_Icon" data-name="Close Icon" d="M-1926.5-1873v-4.5h-4.5v-2h4.5v-4.5h2v4.5h4.5v2h-4.5v4.5Z" transform="translate(49.012 2704.612) rotate(45)" fill="#161617"/>
        </g>
      </g>
      <rect id="Divider_2" data-name="Divider 2" width="2" height="16" transform="translate(734.5 4)" fill="#161617" opacity="0.15"/>
      <rect id="Divider_1" data-name="Divider 1" width="2" height="16" transform="translate(48.5 4)" fill="#161617" opacity="0.15"/>
    </g>
    <g id="Warning_badge" data-name="Warning badge" transform="translate(49 -2)">
      <text id="Error_message_text._" data-name="Error message text. " transform="translate(15 6)" fill="#c4000c" font-size="12" font-family="SourceSansPro-Regular, Source Sans Pro"><tspan x="0" y="12">Error message text. </tspan></text>
      <g id="Icon-3" data-name="Icon">
        <rect id="Icon_Placement" data-name="Icon Placement" width="16" height="16" transform="translate(-33 6)" fill="#3cb4e7" opacity="0"/>
        <path id="Error" d="M6.118,10.873H9.373V13H6.118ZM6.062,1l.371,8.542H9.06L9.431,1Z" transform="translate(-33.004 7)" fill="#c4000c"/>
      </g>
    </g>
  </g>
</svg>
