<svg xmlns="http://www.w3.org/2000/svg" xmlns:xlink="http://www.w3.org/1999/xlink" width="185" height="55.5" viewBox="0 0 185 55.5">
  <defs>
    <filter id="Fill" x="0" y="45.5" width="185" height="10" filterUnits="userSpaceOnUse">
      <feOffset dy="2" input="SourceAlpha"/>
      <feGaussianBlur stdDeviation="1.5" result="blur"/>
      <feFlood flood-opacity="0.161"/>
      <feComposite operator="in" in2="blur"/>
      <feComposite in="SourceGraphic"/>
    </filter>
    <filter id="Stroke" x="0" y="45.5" width="185" height="10" filterUnits="userSpaceOnUse">
      <feOffset dy="2" input="SourceAlpha"/>
      <feGaussianBlur stdDeviation="1.5" result="blur-2"/>
      <feFlood flood-opacity="0.161"/>
      <feComposite operator="in" in2="blur-2"/>
      <feComposite in="SourceGraphic"/>
    </filter>
    <clipPath id="clip-path">
      <rect y="1" width="85" height="14" fill="none"/>
    </clipPath>
    <clipPath id="clip-path-2">
      <rect x="-45" y="1" width="82" height="16" fill="none"/>
    </clipPath>
    <clipPath id="clip-path-3">
      <rect y="1" width="112" height="17" fill="none"/>
    </clipPath>
  </defs>
  <g id="Component_132" data-name="Component 132" transform="translate(4.5)">
    <g id="DropDownGroup_Icon" transform="translate(0 48)" opacity="0">
      <g transform="matrix(1, 0, 0, 1, -4.5, -48)" filter="url(#Fill)">
        <rect id="Fill-2" data-name="Fill" width="176" height="1" transform="translate(4.5 48)" fill="#fff"/>
      </g>
      <g transform="matrix(1, 0, 0, 1, -4.5, -48)" filter="url(#Stroke)">
        <g id="Stroke-2" data-name="Stroke" transform="translate(4.5 48)" fill="none" stroke="#161617" stroke-width="1" opacity="0.3">
          <rect width="176" height="1" stroke="none"/>
          <rect x="0.5" y="0.5" width="175" fill="none"/>
        </g>
      </g>
    </g>
    <g id="Stroke-3" data-name="Stroke" transform="translate(0 17)" fill="none" stroke="#161617" stroke-width="1" opacity="0.3">
      <rect width="176" height="32" stroke="none"/>
      <rect x="0.5" y="0.5" width="175" height="31" fill="none"/>
    </g>
    <rect id="Fill_2" data-name="Fill 2" width="176" height="32" transform="translate(0 17)" fill="#161617" opacity="0"/>
    <g id="Label" transform="translate(0 1)" clip-path="url(#clip-path)" style="isolation: isolate">
      <text id="SHOW_LABEL" data-name="SHOW LABEL" transform="translate(0 12)" fill="#161617" font-size="11" font-family="SpaceMono-Regular, Space Mono"><tspan x="0" y="0">SHOW LABEL</tspan></text>
    </g>
    <g id="Metric" transform="translate(139 -1)" clip-path="url(#clip-path-2)" style="isolation: isolate">
      <text id="Metric-2" data-name="Metric" transform="translate(37 14)" fill="#161617" font-size="14" font-family="SourceSansPro-Regular, Source Sans Pro" opacity="0"><tspan x="-36.274" y="0">Metric</tspan></text>
    </g>
    <g id="Stroke-4" data-name="Stroke" transform="translate(0 17)" fill="none" stroke="#161617" stroke-width="1" opacity="0">
      <rect width="176" height="32" stroke="none"/>
      <rect x="0.5" y="0.5" width="175" height="31" fill="none"/>
    </g>
    <rect id="InteractionState" width="24" height="24" transform="translate(148 21)" fill="#00b888" opacity="0"/>
    <rect id="IconLocation" width="16" height="16" transform="translate(152 25)" fill="#3cb4e7" opacity="0"/>
    <path id="Page_Arrow" data-name="Page Arrow" d="M0,0,6,4,0,8" transform="translate(164 29.5) rotate(90)" fill="none" stroke="#363738" stroke-width="2"/>
    <g id="Scroll_Group_With_icon" data-name="Scroll Group With icon" transform="translate(8 23.001)" clip-path="url(#clip-path-3)" style="isolation: isolate">
      <text id="Section_1" data-name="Section 1" transform="translate(24 14)" fill="#161617" font-size="14" font-family="SourceSansPro-Regular, Source Sans Pro"><tspan x="0" y="0">Section 1</tspan></text>
      <rect id="IconLocation-2" data-name="IconLocation" width="16" height="16" transform="translate(0 1.999)" fill="#c1e0ff" opacity="0"/>
      <path id="Icon_1" data-name="Icon 1" d="M729.3,486.319v14h14v-14Zm6,6h-4v-4h4Z" transform="translate(-728.296 -483.32)" fill="#818386"/>
    </g>
    <g id="ErrorLocation" transform="translate(-41 17)">
      <g id="ErrorLocation-2" data-name="ErrorLocation" transform="translate(169 8)" fill="#fff" stroke="#707070" stroke-width="1" opacity="0">
        <rect width="16" height="16" stroke="none"/>
        <rect x="0.5" y="0.5" width="15" height="15" fill="none"/>
      </g>
      <text id="_" data-name="!" transform="translate(174 20)" fill="#c4000c" font-size="14" font-family="Verdana-Bold, Verdana" font-weight="700" opacity="0"><tspan x="0" y="0">!</tspan></text>
    </g>
  </g>
</svg>
