<svg id="RSlide_Header_Tab_Button" xmlns="http://www.w3.org/2000/svg" width="784" height="158" viewBox="0 0 784 158">
  <rect id="Top_Cover" data-name="Top Cover" width="784" height="158" fill="#fff"/>
  <rect id="Divider_Top" data-name="Divider Top" width="784" height="2" transform="translate(0 156)" fill="#161617" opacity="0.1"/>
  <g id="Header" transform="translate(64 32)">
    <text id="Add_system" data-name="Add system" transform="translate(0 22)" fill="#161617" stroke="rgba(0,0,0,0)" stroke-width="1" font-size="22" font-family="SourceSansPro-Light, Source Sans Pro" font-weight="300" letter-spacing="0.01em"><tspan x="0" y="0">Add system</tspan></text>
  </g>
  <g id="Tabs_Horizontal_Text_Stack_32" transform="translate(48 76)">
    <g id="Tabs_Horizontal_Text_Single_32" transform="translate(228)">
      <g id="Background">
        <rect id="Background-2" data-name="Background" width="76" height="32" fill="none" opacity="0"/>
        <rect id="Rollover" width="76" height="2" transform="translate(0 30)" fill="#161617" opacity="0"/>
        <rect id="SelectionRectangle" height="2" transform="translate(49 30)" fill="#00b888" opacity="0"/>
      </g>
      <g id="Stacks_Group" data-name="Stacks Group">
        <text id="Section" transform="translate(16 20)" fill="#161617" font-size="14" font-family="SourceSansPro-Regular, Source Sans Pro"><tspan x="0" y="0">Section</tspan></text>
      </g>
    </g>
    <g id="Tabs_Horizontal_Text_Single_32-2" data-name="Tabs_Horizontal_Text_Single_32" transform="translate(152)">
      <g id="Background-3" data-name="Background">
        <rect id="Background-4" data-name="Background" width="76" height="32" fill="none" opacity="0"/>
        <rect id="Rollover-2" data-name="Rollover" width="76" height="2" transform="translate(0 30)" fill="#161617" opacity="0"/>
        <rect id="SelectionRectangle-2" data-name="SelectionRectangle" height="2" transform="translate(49 30)" fill="#00b888" opacity="0"/>
      </g>
      <g id="Stacks_Group-2" data-name="Stacks Group">
        <text id="Section-2" data-name="Section" transform="translate(16 20)" fill="#161617" font-size="14" font-family="SourceSansPro-Regular, Source Sans Pro"><tspan x="0" y="0">Section</tspan></text>
      </g>
    </g>
    <g id="Tabs_Horizontal_Text_Single_32-3" data-name="Tabs_Horizontal_Text_Single_32" transform="translate(76)">
      <g id="Background-5" data-name="Background">
        <rect id="Background-6" data-name="Background" width="76" height="32" fill="none" opacity="0"/>
        <rect id="Rollover-3" data-name="Rollover" width="76" height="2" transform="translate(0 30)" fill="#161617" opacity="0"/>
        <rect id="SelectionRectangle-3" data-name="SelectionRectangle" height="2" transform="translate(49 30)" fill="#00b888" opacity="0"/>
      </g>
      <g id="Stacks_Group-3" data-name="Stacks Group">
        <text id="Section-3" data-name="Section" transform="translate(16 20)" fill="#161617" font-size="14" font-family="SourceSansPro-Regular, Source Sans Pro"><tspan x="0" y="0">Section</tspan></text>
      </g>
    </g>
    <g id="Tabs_Horizontal_Text_Single_32-4" data-name="Tabs_Horizontal_Text_Single_32">
      <g id="Background-7" data-name="Background">
        <rect id="Background-8" data-name="Background" width="76" height="32" fill="none" opacity="0"/>
        <rect id="Rollover-4" data-name="Rollover" width="76" height="2" transform="translate(0 30)" fill="#161617" opacity="0"/>
        <rect id="SelectionRectangle-4" data-name="SelectionRectangle" width="76" height="2" transform="translate(0 30)" fill="#00b888"/>
      </g>
      <g id="Stacks_Group-4" data-name="Stacks Group">
        <text id="Section-4" data-name="Section" transform="translate(16 20)" fill="#161617" font-size="14" font-family="SourceSansPro-Regular, Source Sans Pro"><tspan x="0" y="0">Section</tspan></text>
      </g>
    </g>
  </g>
  <g id="Button_IconText_Ghost_32" transform="translate(613 116)">
    <g id="Background-9" data-name="Background" transform="translate(0 -0.389)" opacity="0">
      <rect id="Background-10" data-name="Background" width="123" height="32" transform="translate(0 0.389)" fill="#161617" opacity="0"/>
      <rect id="Rollover-5" data-name="Rollover" width="123" height="2.024" transform="translate(0 30.365)" fill="none" opacity="0"/>
      <rect id="SelectionRectangle-5" data-name="SelectionRectangle" height="2.024" transform="translate(61 30.365)" fill="#00b888" opacity="0"/>
    </g>
    <g id="Stacks_Group-5" data-name="Stacks Group">
      <text id="Text_button" data-name="Text button" transform="translate(40 20)" fill="#161617" font-size="14" font-family="SourceSansPro-Regular, Source Sans Pro"><tspan x="0" y="0">Text button</tspan></text>
      <g id="Icon" transform="translate(0 1)">
        <rect id="IconLocation_16x16" data-name="IconLocation 16x16" width="16" height="16" transform="translate(16 7)" fill="#3cb4e7" opacity="0"/>
        <path id="Icon_12x12" data-name="Icon 12x12" d="M0,0H12V12H0Z" transform="translate(18 9)" fill="#161617" opacity="0"/>
        <path id="Add_icon" data-name="Add icon" d="M4.179,11.353V6.77H-.4V4.936H4.179V.354H6.012V4.936H10.6V6.77H6.012v4.583Z" transform="translate(24.536 7.258) rotate(45)" fill="#161617"/>
      </g>
    </g>
  </g>
  <g id="Button_Icon_Ghost_Menu_32" transform="translate(688 32)">
    <g id="Background-11" data-name="Background" transform="translate(-319.853 -320)">
      <rect id="Background-12" data-name="Background" width="32" height="32" transform="translate(319.853 320)" fill="#161617" opacity="0"/>
      <g id="Rollover-6" data-name="Rollover" transform="translate(319.853 320)" fill="none" stroke="#00b888" stroke-width="2" opacity="0">
        <rect width="32" height="32" stroke="none"/>
        <rect x="1" y="1" width="30" height="30" fill="none"/>
      </g>
      <rect id="Mousedown" width="32" height="32" transform="translate(319.853 320)" fill="#00b888" opacity="0"/>
    </g>
    <g id="Icon-2" data-name="Icon" transform="translate(0 1)">
      <rect id="IconAlignment" width="16" height="16" transform="translate(8 7)" fill="#649fff" opacity="0"/>
      <rect id="Icon-3" data-name="Icon" width="12" height="12" transform="translate(10 9)" fill="#161617" opacity="0"/>
      <path id="More_Icon" data-name="More Icon" d="M-858-8015a1.5,1.5,0,0,1,1.5-1.5,1.5,1.5,0,0,1,1.5,1.5,1.5,1.5,0,0,1-1.5,1.5A1.5,1.5,0,0,1-858-8015Zm-6,0a1.5,1.5,0,0,1,1.5-1.5,1.5,1.5,0,0,1,1.5,1.5,1.5,1.5,0,0,1-1.5,1.5A1.5,1.5,0,0,1-864-8015Zm-6,0a1.5,1.5,0,0,1,1.5-1.5,1.5,1.5,0,0,1,1.5,1.5,1.5,1.5,0,0,1-1.5,1.5A1.5,1.5,0,0,1-870-8015Z" transform="translate(878.5 8030)" fill="#161617"/>
    </g>
  </g>
</svg>
