<svg id="ButtonSplit_Icon_Outline32" xmlns="http://www.w3.org/2000/svg" width="64" height="32" viewBox="0 0 64 32">
  <g id="Stroke" fill="none" stroke="#161617" stroke-width="1" opacity="0.3">
    <rect width="64" height="32" stroke="none"/>
    <rect x="0.5" y="0.5" width="63" height="31" fill="none"/>
  </g>
  <g id="Button_2" data-name="Button 2" transform="translate(0)">
    <g id="Background" transform="translate(-291.852 -324)">
      <rect id="Fill_1" data-name="Fill 1" width="32" height="32" transform="translate(323.853 324)" fill="#161617" opacity="0"/>
      <g id="Fill_2" data-name="Fill 2" transform="translate(323.853 353.98)" fill="#00b888" stroke="#00b888" stroke-width="1" opacity="0">
        <rect width="32" height="1.996" stroke="none"/>
        <rect x="0.5" y="0.5" width="31" height="0.996" fill="none"/>
      </g>
      <g id="Rollover" transform="translate(323.853 324)" fill="none" stroke="#00b888" stroke-width="2" opacity="0">
        <rect width="32" height="32" stroke="none"/>
        <rect x="1" y="1" width="30" height="30" fill="none"/>
      </g>
    </g>
    <g id="Stack_Group" data-name="Stack Group" transform="translate(-8 1)">
      <g id="Icon" transform="translate(40)">
        <rect id="IconAlignment" width="16" height="16" transform="translate(8 7)" fill="#649fff" opacity="0"/>
        <rect id="Icon-2" data-name="Icon" width="12" height="12" transform="translate(10 9)" fill="#161617"/>
      </g>
    </g>
  </g>
  <g id="Button_1" data-name="Button 1">
    <g id="Background-2" data-name="Background" transform="translate(-323.852 -324)">
      <rect id="Fill_1-2" data-name="Fill 1" width="32" height="32" transform="translate(323.853 324)" fill="#161617" opacity="0"/>
      <rect id="Fill_2-2" data-name="Fill 2" width="32" height="32" transform="translate(323.852 324)" fill="#00b888" opacity="0.2"/>
      <g id="Rollover-2" data-name="Rollover" transform="translate(323.853 324)" fill="none" stroke="#00b888" stroke-width="2" opacity="0">
        <rect width="32" height="32" stroke="none"/>
        <rect x="1" y="1" width="30" height="30" fill="none"/>
      </g>
    </g>
    <g id="Stack_Group-2" data-name="Stack Group" transform="translate(-40 1)">
      <g id="Icon-3" data-name="Icon" transform="translate(40)">
        <rect id="IconAlignment-2" data-name="IconAlignment" width="16" height="16" transform="translate(8 7)" fill="#649fff" opacity="0"/>
        <rect id="Icon-4" data-name="Icon" width="12" height="12" transform="translate(10 9)" fill="#161617" opacity="0.995"/>
      </g>
    </g>
  </g>
</svg>
