<svg xmlns="http://www.w3.org/2000/svg" xmlns:xlink="http://www.w3.org/1999/xlink" width="796" height="36" viewBox="0 0 796 36">
  <defs>
    <filter id="Fill_1" x="0" y="0" width="796" height="36" filterUnits="userSpaceOnUse">
      <feOffset dy="3" input="SourceAlpha"/>
      <feGaussianBlur stdDeviation="2" result="blur"/>
      <feFlood flood-opacity="0.2"/>
      <feComposite operator="in" in2="blur"/>
      <feComposite in="SourceGraphic"/>
    </filter>
  </defs>
  <g id="Banner_Alert_InformationPrimary_24" transform="translate(6 3)">
    <g id="Background" transform="translate(-0.5 0)">
      <g transform="matrix(1, 0, 0, 1, -5.5, -3)" filter="url(#Fill_1)">
        <path id="Fill_1-2" data-name="Fill 1" d="M0,0H784a0,0,0,0,1,0,0V20a4,4,0,0,1-4,4H4a4,4,0,0,1-4-4V0A0,0,0,0,1,0,0Z" transform="translate(6 3)" fill="#804ad9"/>
      </g>
      <g id="Button_Icon_Ghost_16" transform="translate(748.5 0)">
        <g id="Background-2" data-name="Background" transform="translate(0 0)">
          <rect id="Background-3" data-name="Background" width="24" height="24" transform="translate(0 0)" fill="#161617" opacity="0"/>
          <rect id="Rollover" width="16" height="16" transform="translate(4 4)" fill="#00b888" opacity="0"/>
        </g>
        <g id="Icon" transform="translate(4 4)">
          <rect id="IconAlignment" width="16" height="16" transform="translate(0 0)" fill="#649fff" opacity="0"/>
          <g id="Icon-2" data-name="Icon" transform="translate(2 2)" fill="#fff" stroke="#fff" stroke-width="1" opacity="0">
            <rect width="12" height="12" stroke="none"/>
            <rect x="0.5" y="0.5" width="11" height="11" fill="none"/>
          </g>
          <path id="Close_Icon" data-name="Close Icon" d="M4.5,11V6.5H0v-2H4.5V0h2V4.5H11v2H6.5V11Z" transform="translate(7.778 0) rotate(45)" fill="#fff"/>
        </g>
      </g>
      <rect id="Divider_2" data-name="Divider 2" width="2" height="16" transform="translate(734.5 4)" fill="#fff" opacity="0"/>
      <rect id="Divider_1" data-name="Divider 1" width="2" height="16" transform="translate(48.5 4)" fill="#fff" opacity="0"/>
      <path id="Union_6" data-name="Union 6" d="M-9825-2979v-1.89h1.245v-4.426H-9825v-1.89h3.855v6.316h1.23v1.89Zm1.543-9.557a1.371,1.371,0,0,1-.436-1,1.461,1.461,0,0,1,.419-1.021,1.4,1.4,0,0,1,1.021-.418,1.371,1.371,0,0,1,1.021.418,1.438,1.438,0,0,1,.4,1.021,1.374,1.374,0,0,1-.4,1,1.4,1.4,0,0,1-1.021.421A1.358,1.358,0,0,1-9823.457-2988.556Z" transform="translate(9846.957 2996.999)" fill="#fff" stroke="rgba(0,0,0,0)" stroke-miterlimit="10" stroke-width="1" opacity="0.6"/>
    </g>
    <g id="Warning_badge" data-name="Warning badge" transform="translate(64 4)">
      <text id="Information_message." data-name="Information message." fill="#fff" font-size="12" font-family="SourceSansPro-Regular, Source Sans Pro"><tspan x="0" y="12">Information message.</tspan></text>
    </g>
  </g>
</svg>
