<svg id="Inputs_Numeric_Underline_32" xmlns="http://www.w3.org/2000/svg" xmlns:xlink="http://www.w3.org/1999/xlink" width="176" height="46" viewBox="0 0 176 46">
  <defs>
    <clipPath id="clip-path">
      <rect y="1" width="114" height="17" fill="none"/>
    </clipPath>
    <clipPath id="clip-path-2">
      <rect y="1" width="81" height="14" fill="none"/>
    </clipPath>
  </defs>
  <g id="Background_Group" data-name="Background Group" transform="translate(0 14)">
    <rect id="Block" width="152" height="32" fill="none" opacity="0"/>
    <g id="Line" transform="translate(0 31)" fill="none" stroke="#161617" stroke-width="1" opacity="0.3">
      <rect width="152" height="1" stroke="none"/>
      <rect x="0.5" y="0.5" width="151" fill="none"/>
    </g>
    <g id="Rollover" transform="translate(91 31)" fill="none" stroke="#00b888" stroke-width="1" opacity="0">
      <rect width="2" height="1" stroke="none"/>
      <rect x="0.5" y="0.5" width="1" fill="none"/>
    </g>
  </g>
  <g id="Stacks_Group" data-name="Stacks Group" transform="translate(9 22.001)">
    <g id="Scroll_Group_1" data-name="Scroll Group 1" transform="translate(0 -1.001)" clip-path="url(#clip-path)" style="isolation: isolate">
      <text id="_0" data-name="0" transform="translate(0 14)" fill="#161617" font-size="14" font-family="SourceSansPro-Regular, Source Sans Pro"><tspan x="0" y="0">0</tspan></text>
    </g>
    <g id="Error" transform="translate(119.023 0.999)" opacity="0">
      <rect id="IconLocation" width="16" height="16" transform="translate(-0.023)" fill="#f1f1f2" opacity="0"/>
      <path id="Error-2" data-name="Error" d="M6.127,12.518h3.8V15h-3.8ZM6.062,1l.433,9.966H9.56L9.993,1Z" transform="translate(-0.027)" fill="#c4000c"/>
    </g>
  </g>
  <g id="Label_L" data-name="Label L" transform="translate(9 -1)" clip-path="url(#clip-path-2)" style="isolation: isolate">
    <text id="SHOW_LABEL" data-name="SHOW LABEL" transform="translate(0 12)" fill="#161617" font-size="11" font-family="SpaceMono-Regular, Space Mono"><tspan x="0" y="0">SHOW LABEL</tspan></text>
  </g>
  <rect id="Text_Focus" data-name="Text Focus" width="1" height="18" transform="translate(16 22)" opacity="0"/>
  <g id="Button_Icon_Ghost_16" transform="translate(160 14)">
    <g id="Background" transform="translate(-327.853 -328)">
      <rect id="Background-2" data-name="Background" width="16" height="16" transform="translate(327.853 328)" fill="#161617" opacity="0"/>
      <rect id="Rollover-2" data-name="Rollover" width="16" height="16" transform="translate(327.853 328)" fill="#00b888" opacity="0"/>
    </g>
    <g id="Icon" transform="translate(-8 -7)">
      <rect id="IconAlignment" width="16" height="16" transform="translate(8 7)" fill="#649fff" opacity="0"/>
      <rect id="Icon-2" data-name="Icon" width="12" height="12" transform="translate(10 9)" fill="#161617" opacity="0"/>
      <path id="UpArrow" d="M161.354-3179.6l4.032-4.8,3.968,4.8" transform="translate(-149.354 3196.999)" fill="none" stroke="#161617" stroke-width="2"/>
    </g>
  </g>
  <g id="Button_Icon_Ghost_16-2" data-name="Button_Icon_Ghost_16" transform="translate(160 30)">
    <g id="Background-3" data-name="Background" transform="translate(-327.853 -328)">
      <rect id="Background-4" data-name="Background" width="16" height="16" transform="translate(327.853 328)" fill="#161617" opacity="0"/>
      <rect id="Rollover-3" data-name="Rollover" width="16" height="16" transform="translate(327.853 328)" fill="#00b888" opacity="0"/>
    </g>
    <g id="Icon-3" data-name="Icon" transform="translate(-8 -7)">
      <rect id="IconAlignment-2" data-name="IconAlignment" width="16" height="16" transform="translate(8 7)" fill="#649fff" opacity="0"/>
      <rect id="Icon-4" data-name="Icon" width="12" height="12" transform="translate(10 9)" fill="#161617" opacity="0"/>
      <path id="DownArrow" d="M161.354-3179.6l4.032-4.8,3.968,4.8" transform="translate(181.354 -3166.999) rotate(180)" fill="none" stroke="#161617" stroke-width="2"/>
    </g>
  </g>
</svg>
