<svg xmlns="http://www.w3.org/2000/svg" xmlns:xlink="http://www.w3.org/1999/xlink" width="796" height="36" viewBox="0 0 796 36">
  <defs>
    <filter id="Fill_1" x="0" y="0" width="796" height="36" filterUnits="userSpaceOnUse">
      <feOffset dy="3" input="SourceAlpha"/>
      <feGaussianBlur stdDeviation="2" result="blur"/>
      <feFlood flood-opacity="0.2"/>
      <feComposite operator="in" in2="blur"/>
      <feComposite in="SourceGraphic"/>
    </filter>
  </defs>
  <g id="Banner_Alert_InformationSecondary_24" transform="translate(6 3)">
    <g id="Background" transform="translate(-0.5 0)">
      <g transform="matrix(1, 0, 0, 1, -5.5, -3)" filter="url(#Fill_1)">
        <g id="Fill_1-2" data-name="Fill 1" transform="translate(6 3)" fill="#fff" stroke="#804ad9" stroke-width="1">
          <path d="M0,0H784a0,0,0,0,1,0,0V20a4,4,0,0,1-4,4H4a4,4,0,0,1-4-4V0A0,0,0,0,1,0,0Z" stroke="none"/>
          <path d="M1,.5H783a.5.5,0,0,1,.5.5V20a3.5,3.5,0,0,1-3.5,3.5H4A3.5,3.5,0,0,1,.5,20V1A.5.5,0,0,1,1,.5Z" fill="none"/>
        </g>
      </g>
      <g id="Button_Icon_Ghost_16" transform="translate(748.5 0)">
        <g id="Background-2" data-name="Background" transform="translate(-323.853 -324)">
          <rect id="Background-3" data-name="Background" width="24" height="24" transform="translate(323.853 324)" fill="#161617" opacity="0"/>
          <rect id="Rollover" width="16" height="16" transform="translate(327.853 328)" fill="#00b888" opacity="0"/>
        </g>
        <g id="Icon" transform="translate(-4 -3)">
          <rect id="IconAlignment" width="16" height="16" transform="translate(8 7)" fill="#649fff" opacity="0"/>
          <rect id="Icon-2" data-name="Icon" width="12" height="12" transform="translate(10 9)" fill="#161617" opacity="0"/>
          <path id="Close_Icon" data-name="Close Icon" d="M-1926.5-1873v-4.5h-4.5v-2h4.5v-4.5h2v4.5h4.5v2h-4.5v4.5Z" transform="translate(49.012 2704.612) rotate(45)" fill="#161617"/>
        </g>
      </g>
      <rect id="Divider_2" data-name="Divider 2" width="2" height="16" transform="translate(734.5 4)" fill="#fff" opacity="0"/>
      <rect id="Divider_1" data-name="Divider 1" width="2" height="16" transform="translate(48.5 4)" fill="#fff" opacity="0"/>
      <path id="Union_6" data-name="Union 6" d="M-9825-2979v-1.89h1.245v-4.426H-9825v-1.89h3.855v6.316h1.23v1.89Zm1.543-9.557a1.371,1.371,0,0,1-.436-1,1.461,1.461,0,0,1,.419-1.021,1.4,1.4,0,0,1,1.021-.418,1.371,1.371,0,0,1,1.021.418,1.438,1.438,0,0,1,.4,1.021,1.374,1.374,0,0,1-.4,1,1.4,1.4,0,0,1-1.021.421A1.358,1.358,0,0,1-9823.457-2988.556Z" transform="translate(9846.957 2996.999)" fill="#804ad9"/>
    </g>
    <g id="Warning_badge" data-name="Warning badge" transform="translate(64 4)">
      <text id="Information_message." data-name="Information message." fill="#161617" font-size="12" font-family="SourceSansPro-Regular, Source Sans Pro"><tspan x="0" y="12">Information message.</tspan></text>
    </g>
  </g>
</svg>
