<svg xmlns="http://www.w3.org/2000/svg" xmlns:xlink="http://www.w3.org/1999/xlink" width="796" height="76" viewBox="0 0 796 76">
  <defs>
    <filter id="Fill_1" x="0" y="0" width="796" height="76" filterUnits="userSpaceOnUse">
      <feOffset dy="3" input="SourceAlpha"/>
      <feGaussianBlur stdDeviation="2" result="blur"/>
      <feFlood flood-opacity="0.2"/>
      <feComposite operator="in" in2="blur"/>
      <feComposite in="SourceGraphic"/>
    </filter>
  </defs>
  <g id="Banner_Alert_WarningSecondary_24" transform="translate(6 3)">
    <g id="Background" transform="translate(-0.5 2)">
      <g transform="matrix(1, 0, 0, 1, -5.5, -5)" filter="url(#Fill_1)">
        <g id="Fill_1-2" data-name="Fill 1" transform="translate(6 3)" fill="#fff" stroke="#d3440d" stroke-width="1">
          <path d="M0,0H784a0,0,0,0,1,0,0V60a4,4,0,0,1-4,4H4a4,4,0,0,1-4-4V0A0,0,0,0,1,0,0Z" stroke="none"/>
          <path d="M1,.5H783a.5.5,0,0,1,.5.5V60a3.5,3.5,0,0,1-3.5,3.5H4A3.5,3.5,0,0,1,.5,60V1A.5.5,0,0,1,1,.5Z" fill="none"/>
        </g>
      </g>
      <g id="Button_Icon_Ghost_16" transform="translate(748.5 -2)">
        <g id="Background-2" data-name="Background" transform="translate(0 0)">
          <rect id="Background-3" data-name="Background" width="24" height="24" transform="translate(0 0)" fill="#161617" opacity="0"/>
          <rect id="Rollover" width="16" height="16" transform="translate(4 4)" fill="#00b888" opacity="0"/>
        </g>
        <g id="Icon" transform="translate(4 4)">
          <rect id="IconAlignment" width="16" height="16" transform="translate(0 0)" fill="#649fff" opacity="0"/>
          <rect id="Icon-2" data-name="Icon" width="12" height="12" transform="translate(2 2)" fill="#161617" opacity="0"/>
          <path id="Close_Icon" data-name="Close Icon" d="M4.5,11V6.5H0v-2H4.5V0h2V4.5H11v2H6.5V11Z" transform="translate(7.778 0) rotate(45)" fill="#161617"/>
        </g>
      </g>
      <path id="Warning_Icon" data-name="Warning Icon" d="M30,34H18l6.013-12Z" transform="translate(0.5 -17.5)" fill="#d3440d"/>
      <rect id="Divider_2" data-name="Divider 2" width="2" height="56" transform="translate(734.5 4)" fill="#161617" opacity="0"/>
      <rect id="Divider_1" data-name="Divider 1" width="2" height="56" transform="translate(48.5 4)" fill="#161617" opacity="0.004"/>
    </g>
    <g id="Warning_badge" data-name="Warning badge" transform="translate(64 4)">
      <text id="Header" fill="#161617" font-size="11" font-family="SpaceMono-Regular, Space Mono"><tspan x="0" y="12">HEADER</tspan></text>
      <text id="_08_._12_._2021" data-name="08 . 12 . 2021" transform="translate(656 12)" fill="#161617" font-size="12" font-family="SourceSansPro-Regular, Source Sans Pro"><tspan x="-63.384" y="0">08 . 12 . 2021</tspan></text>
      <text id="Lorem_ipsum_dolor_sit_amet_consectetur_adipiscing_elit_sed_do_eiusmod_tempor_incididunt_ut_labore_et_dolore_magna_aliqua._Eutincidunt_tortor_aliquam_nulla_facilisi_cras_fermentum_odio_eu." data-name="Lorem ipsum dolor sit amet, consectetur adipiscing elit, sed do eiusmod tempor incididunt ut labore et dolore magna aliqua. Eutincidunt tortor aliquam nulla facilisi cras fermentum odio eu." transform="translate(0 24)" fill="#161617" font-size="12" font-family="SourceSansPro-Regular, Source Sans Pro"><tspan x="0" y="12">Lorem ipsum dolor sit amet, consectetur adipiscing elit, sed do eiusmod tempor incididunt ut labore et dolore magna aliqua. </tspan><tspan x="0" y="28">Eutincidunt tortor aliquam nulla facilisi cras fermentum odio eu.</tspan></text>
    </g>
  </g>
</svg>
