<svg id="Inputs_Numeric_Underline_32" xmlns="http://www.w3.org/2000/svg" xmlns:xlink="http://www.w3.org/1999/xlink" width="176" height="48" viewBox="0 0 176 48">
  <defs>
    <clipPath id="clip-path">
      <rect id="Rectangle_10820" data-name="Rectangle 10820" width="88" height="18" fill="#fff" stroke="#707070" stroke-width="1"/>
    </clipPath>
    <clipPath id="clip-path-2">
      <rect id="Clipping_Mask" data-name="Clipping Mask" width="176" height="14" transform="translate(0 1)" fill="none"/>
    </clipPath>
  </defs>
  <g id="Background_Group" data-name="Background Group" transform="translate(0 16)">
    <rect id="Block" width="176" height="32" fill="none" opacity="0"/>
    <rect id="Line" width="176" height="1" transform="translate(0 31)" fill="#161617" opacity="0.3"/>
    <rect id="Rollover" width="2" height="1" transform="translate(87 31)" fill="#009b65" opacity="0"/>
  </g>
  <g id="Stacks_Group" data-name="Stacks Group" transform="translate(8 24.001)">
    <g id="Mask_Group_48" data-name="Mask Group 48" transform="translate(0 -1.001)" clip-path="url(#clip-path)">
      <text id="_0" data-name="0" transform="translate(0 14)" fill="#161617" font-size="14" font-family="SourceSansPro-Regular, Source Sans Pro"><tspan x="0" y="0">0</tspan></text>
    </g>
    <g id="Error" transform="translate(92 -0.001)" opacity="0">
      <rect id="IconLocation" width="16" height="16" fill="#f1f1f2" opacity="0"/>
      <path id="Error-2" data-name="Error" d="M6.127,12.518h3.8V15h-3.8ZM6.062,1l.433,9.966H9.56L9.993,1Z" transform="translate(-0.062)" fill="#c4000c"/>
    </g>
  </g>
  <rect id="Text_Focus" data-name="Text Focus" width="1" height="18" transform="translate(16 24)" opacity="0"/>
  <g id="Mask_Group_47" data-name="Mask Group 47" transform="translate(0 -1)" clip-path="url(#clip-path-2)">
    <text id="Show_label" data-name="Show label" transform="translate(0 12)" fill="#161617" font-size="11" font-family="SourceSansPro-Semibold, Source Sans Pro" font-weight="600" opacity="0.6"><tspan x="0" y="0">Show label</tspan></text>
  </g>
  <g id="ButtonToggle_Icon_Ghost_24" transform="translate(124 20)">
    <g id="Background" transform="translate(-323.853 -324)">
      <rect id="Fill_1" data-name="Fill 1" width="24" height="24" transform="translate(323.853 324)" fill="#161617" opacity="0"/>
      <rect id="Fill_2" data-name="Fill 2" width="24" height="24" transform="translate(323.853 324)" fill="#009b65" opacity="0"/>
      <g id="Rollover-2" data-name="Rollover" transform="translate(323.853 324)" fill="none" stroke="#009b65" stroke-width="2" opacity="0">
        <rect width="24" height="24" stroke="none"/>
        <rect x="1" y="1" width="22" height="22" fill="none"/>
      </g>
    </g>
    <g id="Stack_Group" data-name="Stack Group" transform="translate(-44 -3)">
      <g id="Icon" transform="translate(40)">
        <rect id="IconAlignment" width="16" height="16" transform="translate(8 7)" fill="#649fff" opacity="0"/>
        <rect id="Decreaase_icon" data-name="Decreaase icon" width="10" height="2" transform="translate(11 14)" fill="#161617"/>
      </g>
    </g>
  </g>
  <g id="ButtonToggle_Icon_Ghost_24-2" data-name="ButtonToggle_Icon_Ghost_24" transform="translate(148 20)">
    <g id="Background-2" data-name="Background" transform="translate(-323.853 -324)">
      <rect id="Fill_1-2" data-name="Fill 1" width="24" height="24" transform="translate(323.853 324)" fill="#161617" opacity="0"/>
      <rect id="Fill_2-2" data-name="Fill 2" width="24" height="24" transform="translate(323.853 324)" fill="#009b65" opacity="0"/>
      <g id="Rollover-3" data-name="Rollover" transform="translate(323.853 324)" fill="none" stroke="#009b65" stroke-width="2" opacity="0">
        <rect width="24" height="24" stroke="none"/>
        <rect x="1" y="1" width="22" height="22" fill="none"/>
      </g>
    </g>
    <g id="Stack_Group-2" data-name="Stack Group" transform="translate(-44 -3)">
      <g id="Icon-2" data-name="Icon" transform="translate(40)">
        <rect id="IconAlignment-2" data-name="IconAlignment" width="16" height="16" transform="translate(8 7)" fill="#649fff" opacity="0"/>
        <path id="Increase_Icon" data-name="Increase Icon" d="M1160,617v-4h-4v-2h4v-4h2v4h4v2h-4v4Z" transform="translate(-1145 -597)" fill="#161617"/>
      </g>
    </g>
  </g>
</svg>
