<svg id="Tabs_Vertical_Icon_Stack_32" xmlns="http://www.w3.org/2000/svg" width="32" height="96" viewBox="0 0 32 96">
  <g id="Tabs_Vertical_Icon_Single_32" transform="translate(0 64)">
    <g id="Background" transform="translate(-319.853 -320)">
      <rect id="Background-2" data-name="Background" width="32" height="32" transform="translate(319.853 320)" fill="#161617" opacity="0"/>
      <rect id="Rollover" width="32" height="32" transform="translate(319.853 320)" fill="#161617" opacity="0"/>
      <g id="Mousedown" transform="translate(319.853 320)" fill="none" stroke="#009b65" stroke-width="2" opacity="0">
        <rect width="32" height="32" stroke="none"/>
        <rect x="1" y="1" width="30" height="30" fill="none"/>
      </g>
      <rect id="Selected" width="2" height="2" transform="translate(319.853 336)" fill="#009b65" opacity="0"/>
    </g>
    <g id="Icon" transform="translate(0 1)">
      <rect id="IconAlignment" width="16" height="16" transform="translate(8 7)" fill="#649fff" opacity="0"/>
      <rect id="Icon-2" data-name="Icon" width="12" height="12" transform="translate(10 9)" fill="#161617"/>
    </g>
  </g>
  <g id="Tabs_Vertical_Icon_Single_32-2" data-name="Tabs_Vertical_Icon_Single_32" transform="translate(0 32)">
    <g id="Background-3" data-name="Background" transform="translate(-319.853 -320)">
      <rect id="Background-4" data-name="Background" width="32" height="32" transform="translate(319.853 320)" fill="#161617" opacity="0"/>
      <rect id="Rollover-2" data-name="Rollover" width="32" height="32" transform="translate(319.853 320)" fill="#161617" opacity="0"/>
      <g id="Mousedown-2" data-name="Mousedown" transform="translate(319.853 320)" fill="none" stroke="#009b65" stroke-width="2" opacity="0">
        <rect width="32" height="32" stroke="none"/>
        <rect x="1" y="1" width="30" height="30" fill="none"/>
      </g>
      <rect id="Selected-2" data-name="Selected" width="2" height="2" transform="translate(319.853 336)" fill="#009b65" opacity="0"/>
    </g>
    <g id="Icon-3" data-name="Icon" transform="translate(0 1)">
      <rect id="IconAlignment-2" data-name="IconAlignment" width="16" height="16" transform="translate(8 7)" fill="#649fff" opacity="0"/>
      <rect id="Icon-4" data-name="Icon" width="12" height="12" transform="translate(10 9)" fill="#161617"/>
    </g>
  </g>
  <g id="Tabs_Vertical_Icon_Single_32-3" data-name="Tabs_Vertical_Icon_Single_32">
    <g id="Background-5" data-name="Background" transform="translate(-319.853 -320)">
      <rect id="Background-6" data-name="Background" width="32" height="32" transform="translate(319.853 320)" fill="#161617" opacity="0"/>
      <rect id="Rollover-3" data-name="Rollover" width="32" height="32" transform="translate(319.853 320)" fill="#009b65" opacity="0"/>
      <g id="Mousedown-3" data-name="Mousedown" transform="translate(319.853 320)" fill="none" stroke="#009b65" stroke-width="1" opacity="0">
        <rect width="32" height="32" stroke="none"/>
        <rect x="0.5" y="0.5" width="31" height="31" fill="none"/>
      </g>
      <rect id="Selected-3" data-name="Selected" width="2" height="32" transform="translate(319.853 320)" fill="#009b65"/>
    </g>
    <g id="Icon-5" data-name="Icon" transform="translate(0 1)">
      <rect id="IconAlignment-3" data-name="IconAlignment" width="16" height="16" transform="translate(8 7)" fill="#649fff" opacity="0"/>
      <rect id="Icon-6" data-name="Icon" width="12" height="12" transform="translate(10 9)" fill="#161617"/>
    </g>
  </g>
</svg>
