<svg id="Dropdown_UnderLine_32" xmlns="http://www.w3.org/2000/svg" xmlns:xlink="http://www.w3.org/1999/xlink" width="176" height="48" viewBox="0 0 176 48">
  <defs>
    <clipPath id="clip-path">
      <rect y="1" width="112" height="17" fill="none"/>
    </clipPath>
    <clipPath id="clip-path-2">
      <rect y="1" width="176" height="14" fill="none"/>
    </clipPath>
  </defs>
  <rect id="Stroke" width="176" height="1" transform="translate(0 47)" fill="#161617" opacity="0.3"/>
  <rect id="Rollover" width="2" height="1" transform="translate(87 47)" fill="#009b65" opacity="0"/>
  <rect id="Fill_2" data-name="Fill 2" width="176" height="32" transform="translate(0 16)" fill="#161617" opacity="0"/>
  <rect id="Stroke-2" data-name="Stroke" width="176" height="32" transform="translate(0 16)" fill="none" opacity="0"/>
  <g id="Scroll_Group_No_icon" data-name="Scroll Group No icon" transform="translate(8 22.001)" clip-path="url(#clip-path)" style="isolation: isolate">
    <text id="Line_item" data-name="Line item" transform="translate(0 14)" fill="#161617" font-size="14" font-family="SourceSansPro-Regular, Source Sans Pro"><tspan x="0" y="0">Line item</tspan></text>
  </g>
  <g id="ErrorLocation" transform="translate(-41 16)">
    <g id="ErrorLocation-2" data-name="ErrorLocation" transform="translate(169 8)" fill="#fff" stroke="#707070" stroke-width="1" opacity="0">
      <rect width="16" height="16" stroke="none"/>
      <rect x="0.5" y="0.5" width="15" height="15" fill="none"/>
    </g>
    <path id="Controls_Error_16x16" d="M6.643,11.227H9.355V13H6.643ZM6.6,3l.309,7.119H9.1L9.4,3Z" transform="translate(169 8)" fill="#c42126" opacity="0"/>
  </g>
  <g id="Control_Label" data-name="Control Label" transform="translate(0 -1)" clip-path="url(#clip-path-2)" style="isolation: isolate">
    <text id="Show_label" data-name="Show label" transform="translate(0 12)" fill="#161617" font-size="11" font-family="SourceSansPro-Semibold, Source Sans Pro" font-weight="600" opacity="0.6"><tspan x="0" y="0">Show label</tspan></text>
  </g>
  <g id="Icon">
    <rect id="InteractionState" width="24" height="24" transform="translate(148 20)" fill="#00b888" opacity="0"/>
    <rect id="IconLocation" width="16" height="16" transform="translate(152 24)" fill="#3cb4e7" opacity="0"/>
    <path id="Controls_Arrow_Expander_Down_16x16" d="M3.5,4.918l1.421-.913L7.972,8.853,11.088,4l1.412.926L7.956,12Z" transform="translate(152 24)" fill="#161617"/>
    <rect id="IconLocation-2" data-name="IconLocation" width="16" height="16" transform="translate(152 24)" fill="#3cb4e7" opacity="0"/>
  </g>
</svg>
