<svg id="DropdownMenu_UnderLine_32" xmlns="http://www.w3.org/2000/svg" xmlns:xlink="http://www.w3.org/1999/xlink" width="176" height="47" viewBox="0 0 176 47">
  <defs>
    <clipPath id="clip-path">
      <rect y="1" width="176" height="14" fill="none"/>
    </clipPath>
    <clipPath id="clip-path-2">
      <rect y="1" width="112" height="17" fill="none"/>
    </clipPath>
  </defs>
  <rect id="Stroke" width="176" height="1" transform="translate(0 46)" fill="#161617" opacity="0.3"/>
  <rect id="Rollover" width="2" height="1" transform="translate(87 46)" fill="#00b888" opacity="0"/>
  <rect id="Fill_2" data-name="Fill 2" width="176" height="32" transform="translate(0 15)" fill="#161617" opacity="0"/>
  <g id="Label" transform="translate(0 -1)" clip-path="url(#clip-path)" style="isolation: isolate">
    <text id="SHOW_LABEL" data-name="SHOW LABEL" transform="translate(0 12)" fill="#161617" font-size="11" font-family="SpaceMono-Regular, Space Mono"><tspan x="0" y="0">SHOW LABEL</tspan></text>
  </g>
  <rect id="Stroke-2" data-name="Stroke" width="176" height="32" transform="translate(0 15)" fill="none" opacity="0"/>
  <rect id="InteractionState" width="24" height="24" transform="translate(148 19)" fill="#00b888" opacity="0"/>
  <rect id="IconLocation" width="16" height="16" transform="translate(152 23)" fill="#3cb4e7" opacity="0"/>
  <path id="Page_Arrow" data-name="Page Arrow" d="M0,0,6,4,0,8" transform="translate(164 27.5) rotate(90)" fill="none" stroke="#161617" stroke-width="2"/>
  <g id="Scroll_Group_No_icon" data-name="Scroll Group No icon" transform="translate(8 21.001)" clip-path="url(#clip-path-2)" style="isolation: isolate">
    <text id="Line_item" data-name="Line item" transform="translate(0 14)" fill="#161617" font-size="14" font-family="SourceSansPro-Regular, Source Sans Pro"><tspan x="0" y="0">Line item</tspan></text>
  </g>
  <g id="ErrorLocation" transform="translate(-41 15)">
    <g id="ErrorLocation-2" data-name="ErrorLocation" transform="translate(169 8)" fill="#fff" stroke="#707070" stroke-width="1" opacity="0">
      <rect width="16" height="16" stroke="none"/>
      <rect x="0.5" y="0.5" width="15" height="15" fill="none"/>
    </g>
    <text id="_" data-name="!" transform="translate(174 20)" fill="#c4000c" font-size="14" font-family="Verdana-Bold, Verdana" font-weight="700" opacity="0"><tspan x="0" y="0">!</tspan></text>
  </g>
</svg>
