<svg id="Tab_TextandIcon_Horizontal_Group" xmlns="http://www.w3.org/2000/svg" width="280" height="96" viewBox="0 0 280 96">
  <g id="Tab_TextandIcon_Vertical_Component" transform="translate(0 64)">
    <g id="Group_3455" data-name="Group 3455">
      <path id="Background" d="M0,0H280V32H0Z" fill="#161617" opacity="0"/>
      <rect id="SelectionRectangle" width="2" height="32" fill="#00b888" opacity="0"/>
    </g>
    <text id="Section_3" data-name="Section 3" transform="translate(72 20)" fill="#161617" font-size="14" font-family="SourceSansPro-Regular, Source Sans Pro"><tspan x="0" y="0">Section 3</tspan></text>
    <rect id="IconLocation" width="16" height="16" transform="translate(48 8)" fill="#c1e0ff" opacity="0"/>
    <path id="Icon_3" data-name="Icon 3" d="M734.163,685.319l3-3,3,3-3,3Zm10.133-7v14h-14v-14Zm-2,2h-10v10h10Z" transform="translate(-681.296 -670.319)" fill="#818386"/>
    <g id="Arrow_Group" data-name="Arrow Group" transform="translate(49)">
      <g id="ArrowLocation" transform="translate(-33 8)" fill="#fff" stroke="#707070" stroke-width="1" opacity="0">
        <rect width="16" height="16" stroke="none"/>
        <rect x="0.5" y="0.5" width="15" height="15" fill="none"/>
      </g>
      <g id="ArrowLocation_Padding" transform="translate(215 8)" fill="#fff" stroke="#707070" stroke-width="1" opacity="0">
        <rect width="16" height="16" stroke="none"/>
        <rect x="0.5" y="0.5" width="15" height="15" fill="none"/>
      </g>
      <path id="Page_Arrow" data-name="Page Arrow" d="M0,0,6,4,0,8" transform="translate(-28.596 11.999)" fill="none" stroke="#363738" stroke-width="2"/>
    </g>
  </g>
  <g id="Tab_TextandIcon_Vertical_Component-2" data-name="Tab_TextandIcon_Vertical_Component" transform="translate(0 32)">
    <g id="Group_3455-2" data-name="Group 3455">
      <path id="Background-2" data-name="Background" d="M0,0H280V32H0Z" fill="#161617" opacity="0"/>
      <rect id="SelectionRectangle-2" data-name="SelectionRectangle" width="2" height="32" fill="#00b888" opacity="0"/>
    </g>
    <text id="Section_2" data-name="Section 2" transform="translate(72 20)" fill="#161617" font-size="14" font-family="SourceSansPro-Regular, Source Sans Pro"><tspan x="0" y="0">Section 2</tspan></text>
    <rect id="IconLocation-2" data-name="IconLocation" width="16" height="16" transform="translate(48 8)" fill="#c1e0ff" opacity="0"/>
    <path id="Icon_2" data-name="Icon 2" d="M730.3,630.319v14h14v-14Zm6,12h-4v-4h4Zm0-6h-4v-4h4Zm6,6h-4v-4h4Zm0-6h-4v-4h4Z" transform="translate(-681.296 -622.319)" fill="#818386"/>
    <g id="Arrow_Group-2" data-name="Arrow Group" transform="translate(49)">
      <g id="ArrowLocation-2" data-name="ArrowLocation" transform="translate(-33 8)" fill="#fff" stroke="#707070" stroke-width="1" opacity="0">
        <rect width="16" height="16" stroke="none"/>
        <rect x="0.5" y="0.5" width="15" height="15" fill="none"/>
      </g>
      <g id="ArrowLocation_Padding-2" data-name="ArrowLocation_Padding" transform="translate(215 8)" fill="#fff" stroke="#707070" stroke-width="1" opacity="0">
        <rect width="16" height="16" stroke="none"/>
        <rect x="0.5" y="0.5" width="15" height="15" fill="none"/>
      </g>
      <path id="Page_Arrow-2" data-name="Page Arrow" d="M0,0,6,4,0,8" transform="translate(-28.596 11.999)" fill="none" stroke="#363738" stroke-width="2"/>
    </g>
  </g>
  <g id="Tab_Text">
    <g id="Group_3455-3" data-name="Group 3455">
      <path id="Background-3" data-name="Background" d="M0,0H280V32H0Z" fill="#161617" opacity="0"/>
      <rect id="SelectionRectangle-3" data-name="SelectionRectangle" width="2" height="32" fill="#00b888" opacity="0"/>
    </g>
    <text id="Section_1" data-name="Section 1" transform="translate(72 20)" fill="#161617" font-size="14" font-family="SourceSansPro-Regular, Source Sans Pro"><tspan x="0" y="0">Section 1</tspan></text>
    <rect id="IconLocation-3" data-name="IconLocation" width="16" height="16" transform="translate(48 8)" fill="#c1e0ff" opacity="0"/>
    <path id="Icon_1" data-name="Icon 1" d="M729.3,486.319v14h14v-14Zm6,6h-4v-4h4Z" transform="translate(-680.296 -477.319)" fill="#818386"/>
    <g id="Arrow_Group-3" data-name="Arrow Group" transform="translate(49)">
      <g id="ArrowLocation-3" data-name="ArrowLocation" transform="translate(-33 8)" fill="#fff" stroke="#707070" stroke-width="1" opacity="0">
        <rect width="16" height="16" stroke="none"/>
        <rect x="0.5" y="0.5" width="15" height="15" fill="none"/>
      </g>
      <g id="ArrowLocation_Padding-3" data-name="ArrowLocation_Padding" transform="translate(215 8)" fill="#fff" stroke="#707070" stroke-width="1" opacity="0">
        <rect width="16" height="16" stroke="none"/>
        <rect x="0.5" y="0.5" width="15" height="15" fill="none"/>
      </g>
      <path id="Page_Arrow-3" data-name="Page Arrow" d="M0,0,6,4,0,8" transform="translate(-28.596 11.999)" fill="none" stroke="#363738" stroke-width="2"/>
    </g>
  </g>
</svg>
