<svg xmlns="http://www.w3.org/2000/svg" xmlns:xlink="http://www.w3.org/1999/xlink" width="796" height="36" viewBox="0 0 796 36">
  <defs>
    <filter id="Fill_1" x="0" y="0" width="796" height="36" filterUnits="userSpaceOnUse">
      <feOffset dy="3" input="SourceAlpha"/>
      <feGaussianBlur stdDeviation="2" result="blur"/>
      <feFlood flood-opacity="0.2"/>
      <feComposite operator="in" in2="blur"/>
      <feComposite in="SourceGraphic"/>
    </filter>
  </defs>
  <g id="Banner_Alert_ErrorSecondary_24" transform="translate(6 3)">
    <g id="Background" transform="translate(-0.5 0)">
      <g transform="matrix(1, 0, 0, 1, -5.5, -3)" filter="url(#Fill_1)">
        <g id="Fill_1-2" data-name="Fill 1" transform="translate(6 3)" fill="#fff">
          <path d="M 780 23.4996395111084 L 4 23.4996395111084 C 2.070100069046021 23.4996395111084 0.5 21.92954063415527 0.5 19.9996395111084 L 0.5 0.5000397562980652 L 783.5 0.5000397562980652 L 783.5 19.9996395111084 C 783.5 21.92954063415527 781.9298706054688 23.4996395111084 780 23.4996395111084 Z" stroke="none"/>
          <path d="M 1 1.000040054321289 L 1 19.9996395111084 C 1 21.65383911132812 2.3458251953125 22.9996395111084 4 22.9996395111084 L 780 22.9996395111084 C 781.6541748046875 22.9996395111084 783 21.65383911132812 783 19.9996395111084 L 783 1.000040054321289 L 1 1.000040054321289 M 0 4.00543212890625e-05 L 784 4.00543212890625e-05 L 784 19.9996395111084 C 784 22.20883941650391 782.209228515625 23.9996395111084 780 23.9996395111084 L 4 23.9996395111084 C 1.790771484375 23.9996395111084 0 22.20883941650391 0 19.9996395111084 L 0 4.00543212890625e-05 Z" stroke="none" fill="#c4000c"/>
        </g>
      </g>
      <g id="Button_Icon_Ghost_16" transform="translate(748.5 0)">
        <g id="Background-2" data-name="Background" transform="translate(-323.853 -324)">
          <rect id="Background-3" data-name="Background" width="24" height="24" transform="translate(323.853 324)" fill="#161617" opacity="0"/>
          <rect id="Rollover" width="16" height="16" transform="translate(327.853 328)" fill="#00b888" opacity="0"/>
        </g>
        <g id="Icon" transform="translate(-4 -3)">
          <rect id="IconAlignment" width="16" height="16" transform="translate(8 7)" fill="#649fff" opacity="0"/>
          <rect id="Icon-2" data-name="Icon" width="12" height="12" transform="translate(10 9)" fill="#161617" opacity="0"/>
          <path id="Close_Icon" data-name="Close Icon" d="M-1926.5-1873v-4.5h-4.5v-2h4.5v-4.5h2v4.5h4.5v2h-4.5v4.5Z" transform="translate(49.012 2704.612) rotate(45)" fill="#161617"/>
        </g>
      </g>
      <rect id="Divider_2" data-name="Divider 2" width="2" height="16" transform="translate(734.5 4)" fill="#fff" opacity="0.15"/>
      <rect id="Divider_1" data-name="Divider 1" width="2" height="16" transform="translate(48.5 4)" fill="#fff" opacity="0.15"/>
      <path id="Error" d="M6.118,10.873H9.373V13H6.118ZM6.062,1l.371,8.542H9.06L9.431,1Z" transform="translate(16.438 5)" fill="#c4000c"/>
    </g>
    <g id="Warning_badge" data-name="Warning badge" transform="translate(64 4)">
      <text id="Error_message." data-name="Error message." fill="#161617" font-size="12" font-family="SourceSansPro-Regular, Source Sans Pro"><tspan x="0" y="12">Error message.</tspan></text>
    </g>
  </g>
</svg>
