<svg id="Component_48" data-name="Component 48" xmlns="http://www.w3.org/2000/svg" xmlns:xlink="http://www.w3.org/1999/xlink" width="176" height="49" viewBox="0 0 176 49">
  <defs>
    <clipPath id="clip-path">
      <rect y="1" width="135" height="17" fill="none"/>
    </clipPath>
    <clipPath id="clip-path-2">
      <rect y="1" width="85" height="14" fill="none"/>
    </clipPath>
    <clipPath id="clip-path-3">
      <rect x="-45" y="1" width="82" height="16" fill="none"/>
    </clipPath>
  </defs>
  <g id="Stacks_Group" data-name="Stacks Group" transform="translate(0 17)">
    <g id="Rectangle_9406" data-name="Rectangle 9406" fill="none" stroke="#aeb0b3" stroke-width="1">
      <rect width="176" height="32" stroke="none"/>
      <rect x="0.5" y="0.5" width="175" height="31" fill="none"/>
    </g>
    <g id="Scroll_Group_1" data-name="Scroll Group 1" transform="translate(8 6.001)" clip-path="url(#clip-path)" style="isolation: isolate">
      <text id="Placeholder" transform="translate(0 14)" fill="#161617" font-size="14" font-family="SourceSansPro-It, Source Sans Pro" font-style="italic" opacity="0.3"><tspan x="0" y="0">Placeholder</tspan></text>
    </g>
    <g id="Error" opacity="0">
      <rect id="IconLocation" width="16" height="16" transform="translate(152 8)" fill="#3cb4e7" opacity="0"/>
      <path id="Path_9140" data-name="Path 9140" d="M6.127,12.518h3.8V15h-3.8ZM6.062,1l.433,9.966H9.56L9.993,1Z" transform="translate(151.973 8)" fill="#c42126"/>
    </g>
  </g>
  <g id="Label_L" data-name="Label L" transform="translate(0 1)" clip-path="url(#clip-path-2)" style="isolation: isolate">
    <text id="SHOW_LABEL" data-name="SHOW LABEL" transform="translate(0 12)" fill="#161617" font-size="11" font-family="SpaceMono-Regular, Space Mono"><tspan x="0" y="0">SHOW LABEL</tspan></text>
  </g>
  <g id="Label_R" data-name="Label R" transform="translate(139 -1)" clip-path="url(#clip-path-3)" style="isolation: isolate">
    <text id="Metric" transform="translate(37 14)" fill="#161617" font-size="14" font-family="SourceSansPro-Regular, Source Sans Pro" opacity="0"><tspan x="-36.274" y="0">Metric</tspan></text>
  </g>
  <rect id="Text_Focus" data-name="Text Focus" width="1" height="18" transform="translate(7 24)" opacity="0"/>
</svg>
