<svg id="LineItem_Icon_Text_Ghost_32" xmlns="http://www.w3.org/2000/svg" xmlns:xlink="http://www.w3.org/1999/xlink" width="168" height="32" viewBox="0 0 168 32">
  <defs>
    <clipPath id="clip-path">
      <rect y="1" width="136" height="16" fill="none"/>
    </clipPath>
  </defs>
  <g id="Background_Group" data-name="Background Group">
    <rect id="Background_Fill_1" data-name="Background Fill 1" width="168" height="32" fill="#161617" opacity="0"/>
    <rect id="Rollover" width="168" height="1" transform="translate(0 31)" fill="#161617" opacity="0"/>
    <rect id="Selected" width="168" height="1" transform="translate(0 31)" fill="#00b888" opacity="0"/>
  </g>
  <g id="Scroll_Group_13" data-name="Scroll Group 13" transform="translate(4 6)" clip-path="url(#clip-path)" style="isolation: isolate">
    <text id="_Line_item_4_" data-name="“Line item 4”" transform="translate(20 14)" fill="#161617" font-size="14" font-family="SourceSansPro-Regular, Source Sans Pro"><tspan x="0" y="0">“Line item 4”</tspan></text>
  </g>
  <g id="Icon_Location" data-name="Icon Location" transform="translate(4 8)">
    <rect id="Icon_Location-2" data-name="Icon Location" width="16" height="16" fill="none"/>
    <g id="Controls_Add_InputField_16x16" transform="translate(3 3)">
      <path id="Path_9318" data-name="Path 9318" d="M10,4H6V0H4V4H0V6H4v4H6V6h4Z" fill="#161617"/>
    </g>
  </g>
  <g id="ErrorLocation" transform="translate(148 8)">
    <g id="ErrorLocation-2" data-name="ErrorLocation" fill="#fff" stroke="#707070" stroke-width="1" opacity="0">
      <rect width="16" height="16" stroke="none"/>
      <rect x="0.5" y="0.5" width="15" height="15" fill="none"/>
    </g>
    <g id="Controls_Error_16x16" transform="translate(8 8)" opacity="0">
      <path id="Path_9273" data-name="Path 9273" d="M.046,8.227H2.759V10H.046ZM0,0,.309,7.119H2.5L2.807,0Z" fill="#c42126"/>
    </g>
  </g>
</svg>
