<svg id="BreadcrumbStack_Text_Arrow_2_32" xmlns="http://www.w3.org/2000/svg" width="324" height="32" viewBox="0 0 324 32">
  <g id="Breadcrumb_Text_Arrow_2_32" transform="translate(216)">
    <g id="Breadcrumb_Arrow" transform="translate(-288 -309)">
      <rect id="Background" width="16" height="32" transform="translate(380 309)" fill="#fff" opacity="0"/>
      <rect id="Icon_Location" width="16" height="16" transform="translate(380 317)" fill="#fff" opacity="0"/>
      <path id="Controls_Arrow_Expander_Right_16x16" d="M.737,9,.005,7.89,5.477,4.533,0,1.1.743,0,8,4.545Z" transform="translate(384 321)" fill="#161617"/>
    </g>
    <g id="Stack_Group" data-name="Stack Group" transform="translate(-40)">
      <g id="Background-2" data-name="Background" transform="translate(-283.853 -324)">
        <rect id="Fill_1" data-name="Fill 1" width="92" height="32" transform="translate(323.853 324)" fill="none" opacity="0"/>
        <rect id="Stroke" width="92" height="32" transform="translate(323.853 324)" fill="none" opacity="0"/>
        <rect id="Rollover" width="76" height="1" transform="translate(331.853 348)" fill="#00801c"/>
      </g>
      <text id="Breadcrumb_1" data-name="Breadcrumb 1" transform="translate(48 20)" fill="#00801c" stroke="rgba(0,0,0,0)" stroke-width="1" font-size="12.8" font-family="SourceSansPro-Regular, Source Sans Pro"><tspan x="0" y="0">Breadcrumb 1</tspan></text>
    </g>
  </g>
  <g id="Breadcrumb_Text_Arrow_2_32-2" data-name="Breadcrumb_Text_Arrow_2_32" transform="translate(108)">
    <g id="Breadcrumb_Arrow-2" data-name="Breadcrumb_Arrow" transform="translate(-288 -309)">
      <rect id="Background-3" data-name="Background" width="16" height="32" transform="translate(380 309)" fill="#fff" opacity="0"/>
      <rect id="Icon_Location-2" data-name="Icon_Location" width="16" height="16" transform="translate(380 317)" fill="#fff" opacity="0"/>
      <path id="Controls_Arrow_Expander_Right_16x16-2" data-name="Controls_Arrow_Expander_Right_16x16" d="M.737,9,.005,7.89,5.477,4.533,0,1.1.743,0,8,4.545Z" transform="translate(384 321)" fill="#161617"/>
    </g>
    <g id="Stack_Group-2" data-name="Stack Group" transform="translate(-40)">
      <g id="Background-4" data-name="Background" transform="translate(-283.853 -324)">
        <rect id="Fill_1-2" data-name="Fill 1" width="92" height="32" transform="translate(323.853 324)" fill="none" opacity="0"/>
        <rect id="Stroke-2" data-name="Stroke" width="92" height="32" transform="translate(323.853 324)" fill="none" opacity="0"/>
        <rect id="Rollover-2" data-name="Rollover" width="76" height="1" transform="translate(331.853 348)" fill="#00801c"/>
      </g>
      <text id="Breadcrumb_1-2" data-name="Breadcrumb 1" transform="translate(48 20)" fill="#00801c" stroke="rgba(0,0,0,0)" stroke-width="1" font-size="12.8" font-family="SourceSansPro-Regular, Source Sans Pro"><tspan x="0" y="0">Breadcrumb 1</tspan></text>
    </g>
  </g>
  <g id="Breadcrumb_Text_Arrow_2_32-3" data-name="Breadcrumb_Text_Arrow_2_32">
    <g id="Breadcrumb_Arrow-3" data-name="Breadcrumb_Arrow" transform="translate(-288 -309)">
      <rect id="Background-5" data-name="Background" width="16" height="32" transform="translate(380 309)" fill="#fff" opacity="0"/>
      <rect id="Icon_Location-3" data-name="Icon_Location" width="16" height="16" transform="translate(380 317)" fill="#fff" opacity="0"/>
      <path id="Controls_Arrow_Expander_Right_16x16-3" data-name="Controls_Arrow_Expander_Right_16x16" d="M.737,9,.005,7.89,5.477,4.533,0,1.1.743,0,8,4.545Z" transform="translate(384 321)" fill="#161617"/>
    </g>
    <g id="Stack_Group-3" data-name="Stack Group" transform="translate(-40)">
      <g id="Background-6" data-name="Background" transform="translate(-283.853 -324)">
        <rect id="Fill_1-3" data-name="Fill 1" width="92" height="32" transform="translate(323.853 324)" fill="none" opacity="0"/>
        <rect id="Stroke-3" data-name="Stroke" width="92" height="32" transform="translate(323.853 324)" fill="none" opacity="0"/>
        <rect id="Rollover-3" data-name="Rollover" width="76" height="1" transform="translate(331.853 348)" fill="#00801c"/>
      </g>
      <text id="Breadcrumb_1-3" data-name="Breadcrumb 1" transform="translate(48 20)" fill="#00801c" stroke="rgba(0,0,0,0)" stroke-width="1" font-size="12.8" font-family="SourceSansPro-Regular, Source Sans Pro"><tspan x="0" y="0">Breadcrumb 1</tspan></text>
    </g>
  </g>
</svg>
