<svg xmlns="http://www.w3.org/2000/svg" width="187" height="64" viewBox="0 0 187 64">
  <g id="Cluster" transform="translate(-52)">
    <g id="Icon" transform="translate(52)">
      <g id="Rectangle_7" data-name="Rectangle 7" fill="#161617" stroke="#707070" stroke-width="1" opacity="0">
        <rect width="64" height="64" stroke="none"/>
        <rect x="0.5" y="0.5" width="63" height="63" fill="none"/>
      </g>
      <g id="Group_6" data-name="Group 6" transform="translate(10.358 5)">
        <path id="Path_9614" data-name="Path 9614" d="M586.731,205.541a5.234,5.234,0,0,0,1.754,1.691,6,6,0,0,0,8.584-2.57,9.036,9.036,0,0,0,.839-4.93,17.425,17.425,0,0,0-1.931-7.014,16.276,16.276,0,0,0-10.586-8.44,16.661,16.661,0,0,0-12.816,30.408,18.34,18.34,0,0,0,7.99,2.474,35.8,35.8,0,0,0,13.019-1.4,34.459,34.459,0,0,0,8.851-4.035,2.371,2.371,0,0,1,.235-.128c.014-.007.04.011.106.032-.067.086-.118.163-.181.229a26.943,26.943,0,0,1-14.125,7.985,34.952,34.952,0,0,1-6.8.748,21.474,21.474,0,0,1-7.859-1.223,18.894,18.894,0,0,1-11.152-10.38,20.534,20.534,0,0,1-1.552-11.625,19.892,19.892,0,0,1,5.485-11.077,19.461,19.461,0,0,1,10.716-5.738,20.365,20.365,0,0,1,3.289-.309c2.511-.054,5.027.053,7.533-.069a17.47,17.47,0,0,0,11.954-5.479c.145-.148.275-.463.521-.3.118.076.128.4.105.6a17.812,17.812,0,0,1-2.6,7.425,1.33,1.33,0,0,0-.092.426,1.146,1.146,0,0,0,.431.065,19.247,19.247,0,0,0,8.671-4.605,23.6,23.6,0,0,0,3.985-5.344c.157-.274.293-.56.468-.821.085-.128.234-.293.356-.3s.28.162.351.293a20.616,20.616,0,0,1,2.248,6.721,28.74,28.74,0,0,1,.169,7.541,29.549,29.549,0,0,1-8.464,17.8,31.3,31.3,0,0,1-12.952,8.11,29.2,29.2,0,0,1-9.159,1.494,34.99,34.99,0,0,1-3.777-.128,14.1,14.1,0,0,1-8.149-3.733,12.528,12.528,0,0,1-4.117-7.344A13.326,13.326,0,0,1,579.739,187.3a12.917,12.917,0,0,1,12,5.032,12.729,12.729,0,0,1,2.846,8.833,4.27,4.27,0,0,1-.749,2.316,2.525,2.525,0,0,1-2.456,1.114,2.7,2.7,0,0,1-2.386-1.724,4.911,4.911,0,0,1-.32-1.919c0-1.825,0-3.649,0-5.474a3.463,3.463,0,0,0-3.5-3.5q-2.348,0-4.7,0a8.23,8.23,0,0,0-1.8,16.254,7.919,7.919,0,0,0,7.976-2.658A.316.316,0,0,1,586.731,205.541Zm-1.352-7.381c0-.788,0-1.577,0-2.365,0-.388-.094-.478-.479-.479-1.532,0-3.065-.033-4.6.007a4.878,4.878,0,1,0,5.02,5.47c.082-.87.013-1.755.013-2.632Z" transform="translate(-566.218 -169.84)" fill="#161617"/>
      </g>
    </g>
  </g>
</svg>
