<svg xmlns="http://www.w3.org/2000/svg" width="325.984" height="96.876" viewBox="0 0 325.984 96.876">
  <g id="Group_1" data-name="Group 1" transform="translate(722 485.071)">
    <g id="Group_3" data-name="Group 3" transform="translate(-618.368 -463.556)">
      <g id="Group_2" data-name="Group 2" transform="translate(0 0)">
        <g id="Nimble">
          <g id="Nimble-2" style="isolation: isolate">
            <g id="Group_1-2" data-name="Group 1" style="isolation: isolate">
              <path id="Path_1" data-name="Path 1" d="M-625.023-438.107v-43.53h5.032V-428.8h-4.2l-32.875-45.54v45.54h-5.032v-52.839h5.871Z" transform="translate(662.094 481.637)" fill="#fff"/>
              <path id="Path_2" data-name="Path 2" d="M-631.791-481.637h5.453v6.793h-5.453Zm5.285,16.439v36.4h-5.117v-36.4Z" transform="translate(684.213 481.637)" fill="#fff"/>
              <path id="Path_3" data-name="Path 3" d="M-581.821-472.716c9.392,0,12.831,6.458,12.831,14.845v22.562h-5.115v-22.729c0-6.456-2.937-10.651-8.975-10.651-5.451,0-10.315,4.529-10.315,11.575v21.806h-5.117v-22.729c0-6.456-2.934-10.651-8.973-10.651-5.451,0-10.316,4.529-10.316,11.575v21.806h-5.115v-36.4h5.115V-465a12.36,12.36,0,0,1,11.741-7.715c6.459,0,10.483,3.188,12.078,8.053A13.06,13.06,0,0,1-581.821-472.716Z" transform="translate(690.69 488.149)" fill="#fff"/>
              <path id="Path_4" data-name="Path 4" d="M-582.307-428.8h-3.858v-52.839h5.115v24.49a13.919,13.919,0,0,1,13.419-9.058c10.819,0,16.858,8.471,16.858,19.206s-6.039,19.207-16.858,19.207a13.857,13.857,0,0,1-13.419-8.975Zm1.092-16.941c0,8.72,5.7,13.753,12.914,13.753,7.715,0,12.161-5.786,12.161-15.012s-4.446-15.012-12.161-15.012c-7.212,0-12.914,5.032-12.914,13.755Z" transform="translate(717.516 481.637)" fill="#fff"/>
              <path id="Path_5" data-name="Path 5" d="M-556.177-481.637V-428.8h-5.115v-52.839Z" transform="translate(735.672 481.637)" fill="#fff"/>
              <path id="Path_6" data-name="Path 6" d="M-518.781-447.724c-1.763,8.3-7.8,13.421-16.69,13.421-10.568,0-18.451-7.466-18.451-18.7,0-11.488,7.8-19.709,18.116-19.709,11.405,0,17.109,8.221,17.109,18.116v2.349H-548.64c.337,8.051,5.956,13.753,13.168,13.753,6.71,0,10.819-3.354,12.329-9.812Zm-5.368-8.134c-.168-6.709-3.943-12.833-11.658-12.833-7.212,0-11.909,6.039-12.75,12.833Z" transform="translate(741.05 488.149)" fill="#fff"/>
            </g>
          </g>
        </g>
      </g>
    </g>
    <g id="Group_4" data-name="Group 4" transform="translate(-722 -485.071)">
      <g id="Group_124" data-name="Group 124">
        <path id="Path_106" data-name="Path 106" d="M-654.011-485.071-717.975-388.2l44.961-25.957a51.916,51.916,0,0,0,19-70.918Z" transform="translate(724.937 485.071)" fill="#009b65"/>
        <path id="Path_107" data-name="Path 107" d="M-715.035-388.2l63.962-96.876-44.961,25.957a51.915,51.915,0,0,0-19,70.918Z" transform="translate(722 485.071)" fill="#32eb96"/>
      </g>
    </g>
  </g>
</svg>
