<svg xmlns="http://www.w3.org/2000/svg" width="96" height="96" viewBox="0 0 96 96">
  <g id="NI_Logo_RGB_Off-White_Green_NI_Bit_Logo_TM" data-name="NI_Logo_RGB_Off-White + Green NI Bit Logo_TM" transform="translate(48 48)">
    <g id="Group_8" data-name="Group 8" transform="translate(-48 -48)">
      <rect id="Rectangle_25" data-name="Rectangle 25" width="96" height="96" fill="#03b585"/>
      <path id="Path_9618" data-name="Path 9618" d="M81.272,82A11.211,11.211,0,0,1,92.408,93.52v21.888H81.272V93.136H70.136V82ZM70.136,93.136v22.272H59V93.136Z" transform="translate(-36.344 -50.512)" fill="#f4f4f4"/>
      <g id="Group_7" data-name="Group 7" transform="translate(75.914 63.36)">
        <path id="Path_9619" data-name="Path 9619" d="M198.237,166.536v-1.3h-.543V165h1.376v.237h-.555v1.3Zm1.719,0-.414-1.288h-.012v1.288h-.26V165h.442l.367,1.187h.012l.366-1.187h.425v1.536h-.272v-1.288H200.6l-.407,1.288Z" transform="translate(-197.694 -165)" fill="#f4f4f4"/>
      </g>
      <path id="Path_9620" data-name="Path 9620" d="M173.136,82v33.408A11.163,11.163,0,0,1,162,104.272V82Z" transform="translate(-99.792 -50.512)" fill="#f4f4f4"/>
    </g>
  </g>
</svg>
